<svg width="40" height="40" viewBox="0 0 40 40" fill="none" xmlns="http://www.w3.org/2000/svg">
<rect width="40" height="40" rx="8" fill="#FFB66E"/>
<path fill-rule="evenodd" clip-rule="evenodd" d="M19.25 11C18.8358 11 18.5 11.3358 18.5 11.75V12.65C17.5424 12.8444 16.6511 13.2212 15.8639 13.7426L15.227 13.1057C14.9341 12.8128 14.4593 12.8128 14.1664 13.1057L13.1057 14.1664C12.8128 14.4593 12.8128 14.9341 13.1057 15.227L13.7426 15.8639C13.2212 16.6511 12.8444 17.5424 12.65 18.5H11.75C11.3358 18.5 11 18.8358 11 19.25V20.75C11 21.1642 11.3358 21.5 11.75 21.5H12.65C12.8444 22.4576 13.2212 23.3489 13.7426 24.1361L13.1057 24.773C12.8128 25.0659 12.8128 25.5407 13.1057 25.8336L14.1664 26.8943C14.4593 27.1872 14.9341 27.1872 15.227 26.8943L15.8639 26.2574C16.6511 26.7788 17.5424 27.1556 18.5 27.35V28.25C18.5 28.6642 18.8358 29 19.25 29H20.75C21.1642 29 21.5 28.6642 21.5 28.25V27.35C22.4576 27.1556 23.3489 26.7788 24.1361 26.2574L24.773 26.8943C25.0659 27.1872 25.5407 27.1872 25.8336 26.8943L26.8943 25.8336C27.1872 25.5407 27.1872 25.0659 26.8943 24.773L26.2574 24.1361C26.7788 23.3489 27.1556 22.4576 27.35 21.5H28.25C28.6642 21.5 29 21.1642 29 20.75V19.25C29 18.8358 28.6642 18.5 28.25 18.5H27.35C27.1556 17.5424 26.7788 16.6511 26.2574 15.8639L26.8943 15.227C27.1872 14.9341 27.1872 14.4593 26.8943 14.1664L25.8336 13.1057C25.5407 12.8128 25.0659 12.8128 24.773 13.1057L24.1361 13.7426C23.3489 13.2212 22.4576 12.8444 21.5 12.65V11.75C21.5 11.3358 21.1642 11 20.75 11H19.25ZM23.75 20C23.75 22.0711 22.0711 23.75 20 23.75C17.9289 23.75 16.25 22.0711 16.25 20C16.25 17.9289 17.9289 16.25 20 16.25C22.0711 16.25 23.75 17.9289 23.75 20Z" fill="white"/>
</svg>
