<?xml version="1.0" encoding="UTF-8"?>
<svg id="Layer_1" data-name="Layer 1" xmlns="http://www.w3.org/2000/svg" viewBox="0 0 1000 444.44">
  <defs>
    <style>
      .cls-1 {
        fill: #fff;
      }
    </style>
  </defs>
  <path class="cls-1" d="M866.89,223.18c0-82.67-70.73-152.62-155.01-153.99-.85-.03-1.69-.04-2.54-.04h0c-.63,0-1.26,0-1.89,0-2.14,0-4.27,.09-6.39,.24-80.14,4.28-141.76,70.3-141.76,153.8,0,41.35,15.01,79.71,42.26,108.03,27.51,28.61,65.16,44.36,105.99,44.36s81.54-16.16,111.51-44.33c30.84-29.01,47.84-67.38,47.84-108.07Zm-265.9,103.63c-10.84-11.8-19.78-25.46-26.41-40.52,4.2,1.31,8.64,2.54,13.27,3.68,9.02,16.82,21.73,31.97,37.85,45.08-9-1.6-16.21-3.63-20.88-6.12l-3.84-2.12Zm-25.82-119.72c.7-6.03,1.75-11.97,3.11-17.8,3.64,1.17,7.68,2.3,12.08,3.38-.05,.29-.1,.57-.15,.86-2.65,16.35-3.16,33.65-.95,50.91-4.95-1.58-9.76-3.29-14.43-5.12-1.04-10.39-.95-21.15,.34-32.23Zm11.36-67.26c2.4,1.18,5.03,2.32,7.84,3.43-7.81,13.27-13.86,27.8-17.71,43.15-3.64-1.25-6.82-2.55-9.46-3.87l-.44-.24c4.08-15.53,10.45-30,18.72-43.02l1.05,.54Zm9.95,4.25c2.47,.93,5.08,1.83,7.82,2.7-6.14,13.41-10.78,28.11-13.57,43.72-4.35-1.08-8.34-2.21-11.93-3.37,3.82-15.33,9.86-29.83,17.68-43.04Zm25.2-32.32c1.08,.44,2.18,.88,3.29,1.31-7.55,9.39-14.21,20.03-19.72,31.68-2.65-.84-5.19-1.72-7.59-2.61,6.82-11.17,14.92-21.38,24.02-30.37Zm45.81-34.22c.19,.22,.41,.44,.61,.66-.39,.18-.79,.37-1.18,.56-16.78,6.94-32.31,17.33-45.74,30.35-2.15-.9-4.23-1.84-6.23-2.82l-.56-.28c15.27-12.98,33.21-22.8,52.97-28.6l.12,.14Zm155.62,246.14c-6.97,2.85-16.35,5.34-27.33,7.45,16.31-13.77,29.01-29.6,37.76-47.09,9.6-3.72,17.3-8.02,22.53-12.91-7.15,19.55-18.5,37.42-32.95,52.55Zm-31.94,8.3c-.72,.13-1.45,.25-2.18,.37,10.15-10.32,18.59-21.84,25.27-34.54,1.53-2.9,2.95-5.85,4.27-8.84,4.16-1.17,8.11-2.41,11.8-3.74-9.14,17.43-22.3,33.15-39.17,46.75Zm-198.74-138.08c.04-.23,.08-.46,.12-.69,4.35,1.03,9.03,2.01,13.98,2.93-.72,5.03-1.23,10.04-1.54,15.01-.75,12.3-.32,25.2,1.53,38.19-5.07-1.26-10.04-2.64-14.88-4.14-2.35-17.39-1.87-34.83,.79-51.31Zm233.86,2.24c2.49,13.92,3.36,27.41,2.67,40.36-4.86,2.01-9.9,3.88-15.1,5.63,.61-6.95,.82-13.83,.65-20.56-.23-9.43-1.1-18.66-2.56-27.62,4.54-1.17,8.94-2.45,13.16-3.84,.43,1.99,.82,4,1.18,6.02Zm-41.21,136.85c-3.03,.48-6.15,.93-9.34,1.36,11.23-12.44,19.73-26.52,25.86-41.3,5.04-1.04,9.87-2.17,14.45-3.4-7.37,16.01-17.76,30.57-30.97,43.34Zm-162.46-36.44c7.91,1.12,16.1,2.06,24.47,2.82,5.7,14.51,12.95,27.91,21.58,39.75-5.99-.23-11.77-.56-17.28-.99-12.38-12.44-21.83-26.61-28.76-41.58Zm-15.38-85.27c.3-4.87,.8-9.79,1.5-14.73,1.31,.24,2.65,.47,4,.7,.15,.21,.3,.43,.46,.64,3.9,3.92,9.12,10.42,14.31,10.42,1.83,.37,3.55,.62,5.23,.81-.04,.8-.09,1.6-.12,2.4-.55,14.87,.36,29.49,2.56,43.58-8.99-1.4-17.78-3.12-26.29-5.17-1.94-13.14-2.41-26.21-1.65-38.65Zm204.28,31.63c-8.74,2.85-17.9,5.35-27.39,7.48,.47-4.93,.81-9.94,.97-15.05,.14-4.42,.16-8.92,.05-13.46,.41-.61,.8-1.23,1.13-1.88,4.41-7.7,10.68-14.48,10.91-22.7,4.29-.85,8.48-1.78,12.56-2.79,1.43,8.8,2.28,17.86,2.5,27.13,.17,6.95-.06,14.08-.73,21.28Zm-176.64-31.3c.03-.76,.08-1.52,.11-2.28,3.48,.27,6.88,.28,10.74,.28,3.91-1.31,9.12-3.91,13.03-3.91,2.59,1.31,6.5,3.91,6.5,7.8,.71,0,1.43,.1,2.14,.19,.31,15.09,1.5,30.3,3.45,45.23-11.29-.7-22.44-1.86-33.33-3.48-2.26-14.16-3.18-28.87-2.63-43.84Zm147.98,23.66c-.17,5.31-.53,10.52-1.03,15.64-6.64,1.45-13.44,2.72-20.34,3.81-.48-2.46-.93-4.91-1.24-7.37,0-2.6,2.6-6.52,5.21-9.12,5.1-5.1,12.62-8.62,17.51-13.67,.04,3.56,.01,7.13-.11,10.71Zm-8.29,48.52c-1.13,3.39-.29,7.78-2.63,11.43-7.93,.96-16.17,1.75-24.58,2.36-.07-.22-.15-.44-.23-.66,.6-2.94,1.17-5.91,1.68-8.93,5.18-3.45,11.87-5.08,14.04-9.43,1.81-7.23,.48-14.46-.94-21.69,6.68-1.06,13.25-2.29,19.7-3.68-1.03,9.54-2.65,18.71-4.8,27.46-.96,.88-1.74,1.89-2.24,3.13Zm-67.06-141.89c-.19,.02-.39,.04-.61,.04-1.31,0-1.31-1.31-1.31-2.59h-3.89c-3.9-2.61-5.2-5.22-10.41-6.52-3.3-.82-3.99-3.74-3.38-6.75,6.27,.44,12.6,.67,18.95,.67,.11,0,.22,0,.33,0,.09,4.77,.2,9.83,.32,15.16Zm38.43,148.39c.14-.14,.28-.26,.43-.39-.17,.97-.34,1.95-.53,2.91-.15-.88-.16-1.73,.1-2.52Zm-9.11-152.24c-7.8,7.81-16.92-5.21-26.03-3.92-.58,.19-.96,.51-1.2,.89-.06-2.81-.12-5.58-.17-8.29,8.89-.09,17.77-.62,26.48-1.62,1.47,4.62,2.85,9.37,4.12,14.23-1.06-.03-2.13-.22-3.2-1.3Zm-27.44-13.89c-.23-12.38-.36-23.5-.33-32.34,4.17-.21,8.22-.84,12.12-1.86,5.31,9.67,9.97,20.7,13.94,32.69-8.46,.94-17.1,1.43-25.73,1.52Zm-.32-34.63c.06-8.12,.28-14.05,.72-16.89,3.64,4.54,7.06,9.64,10.25,15.24-3.54,.88-7.21,1.44-10.97,1.65Zm-2.24,.08c-1.1,.02-2.2,.02-3.31-.02-2.51-.09-5.01-.35-7.46-.74,3.43-5.45,7.22-10.48,11.4-14.98-.37,3.38-.57,8.67-.63,15.75Zm-3.4,2.24c.82,.03,1.63,.04,2.45,.04,.31,0,.62-.02,.94-.02-.04,8.48,.08,19.27,.32,32.3-6.18,0-12.35-.2-18.46-.6,.36-.87,.81-1.71,1.3-2.45-2.44-1.09-5.12-1.82-7.93-2.3,3.46-10.12,7.68-19.51,12.73-27.91,2.84,.5,5.75,.83,8.66,.94Zm-30.36,120.35c1.29,1.31,3.9,2.61,3.9,3.92-2.61,6.5-6.51,16.92,2.6,20.81-1.3,1.3,1.3,2.61,0,5.19,0,2.62,3.9,5.22,5.2,7.81,0,2.87,1.4,6.42,1.63,9.65-4.47-.11-8.93-.29-13.37-.54-1.97-14.93-3.18-30.14-3.5-45.23,1.18-.06,2.36-.44,3.54-1.62Zm13.27,49.59c-.06,.4-.14,.79-.26,1.16-5.21,5.2-6.51,11.71-5.21,18.22,0,2.6,2.6,5.2,2.6,7.81,1.38,3.43,2.57,6.77,3.65,10.05-2.29-.05-4.57-.11-6.85-.19-2.83-12.11-5.17-24.72-6.94-37.56,4.32,.24,8.66,.4,13.01,.51Zm1.63,39.86c2.6,8.18,4.63,15.97,7.23,23.76,1.3,1.31,0,3.9,0,6.51,2.6,0,2.6,2.59,3.9,2.59,3.79-1.89,7.59-1.64,11.23-1.48-.05,2.15-.11,4.24-.18,6.27-5.95,.16-11.88,.24-17.72,.24-4.39-11.78-8.27-24.61-11.52-38.1,2.35,.08,4.71,.14,7.07,.2Zm22.1,39.79c-.51,13.92-1.41,24.52-2.85,30.23-5.07-8.82-9.77-18.92-14-29.99,5.56,0,11.19-.09,16.85-.23Zm2.22-.06c6.21-.18,12.43-.44,18.61-.78-5.78,12.15-12.84,22.53-21.24,30.45,1.31-6.13,2.14-16.46,2.63-29.67Zm.07-2.14c.07-1.99,.13-4.03,.18-6.14,3.05,.03,5.97-.34,8.67-2.49,6.5-5.2,15.62-11.7,18.22-22.13,0-1.51,1.76-2.58,3.75-3.47-2.93,12.05-6.67,23.29-11.26,33.38-6.49,.37-13.03,.65-19.55,.84Zm63.99-140.66c-1.04-1.4-2.06-4.87-3.08-5.91-7.81-6.5-18.22-13.01-18.22-24.71-2.6,0-1.69-1.69-2.6-2.61-2.08-2.08-3.63-4.56-4.9-7.27,8.11-1.01,16.08-2.35,23.78-4.03,4.6,13.77,7.94,28.52,9.84,43.85-1.59,.24-3.2,.46-4.81,.68Zm-29.7-42.56c-.47-1.14-.9-2.31-1.32-3.5-2.04-9.61-4.47-18.89-7.25-27.69,6.48-.81,12.85-1.89,19.05-3.25,5.22,9.37,9.75,19.57,13.5,30.4-7.76,1.7-15.79,3.03-23.98,4.04Zm-9.34-33.65c-3.96-12.11-8.62-23.26-13.93-33.06,2.39-.73,4.72-1.6,6.97-2.63,9.64,8.95,18.22,20,25.52,32.65-6.03,1.27-12.24,2.27-18.56,3.03Zm-15.06-35.11c-2.68-4.77-5.53-9.18-8.53-13.22,5.15,3.12,10.09,6.8,14.79,10.97-2.02,.87-4.11,1.62-6.25,2.24Zm-28.54,1.15c-2.19-.44-4.32-.98-6.38-1.63,5.09-4.44,10.5-8.41,16.21-11.89-3.57,4.14-6.84,8.66-9.83,13.52Zm-1.24,2.05c-4.99,8.46-9.18,17.88-12.61,28.02-6.05-.76-12.64-.49-19,.06,6.95-11.42,15.18-21.51,24.54-30.03,2.27,.77,4.64,1.43,7.07,1.95Zm-21.33,170.68c1.75,12.86,4.06,25.48,6.87,37.61-9.97-.36-19.84-.95-29.45-1.77-4.73-12.36-8.31-25.54-10.65-39.24,10.86,1.59,21.99,2.72,33.23,3.4Zm7.49,40.22c3.23,13.5,7.06,26.35,11.42,38.18-6.31-.02-12.5-.13-18.51-.33-8.76-11.76-16.15-25.11-21.94-39.63,9.5,.82,19.22,1.41,29.03,1.78Zm12.22,40.31c4.05,10.73,8.54,20.59,13.38,29.27-11.61-7.88-22.03-17.87-31.06-29.54,5.76,.17,11.67,.27,17.68,.28Zm42.5-1.22c5.49-.32,10.95-.7,16.3-1.15-10,12.98-22.05,23.42-35.84,30.79,7.67-7.97,14.17-18.03,19.54-29.64Zm1-2.21c4.59-10.37,8.33-21.9,11.23-34.23,.62-.25,1.19-.49,1.68-.73,.64-.97,.81-2.03,.71-3.12,7.58-.56,15.01-1.28,22.22-2.13-.49,1.53-.45,2.95-.12,4.35-4.93,12.85-11.2,24.45-18.66,34.61-5.59,.49-11.29,.9-17.05,1.25Zm55.85-57.1c0-1.3,1.31-1.3,2.61-1.3,0-3.9,1.29-9.11-2.61-11.71-1.68,5.86-6.59,7.95-10.57,10.44,1.91-8.29,3.36-16.93,4.3-25.9,9.47-2.11,18.63-4.56,27.37-7.38-1.62,15.21-5.23,30.69-11.21,45.47-4,.79-8.14,1.53-12.39,2.21,1.88-3.62,3.38-7.43,2.5-11.84Zm6.93-86.04c-.08-.8-.22-1.61-.43-2.44-1.97,1.48-4.31,2.78-6.82,3.81-2.14,.38-4.31,.73-6.5,1.07-1.82-14.84-5-29.76-9.64-44.05,7.55-1.74,14.82-3.82,21.73-6.28,6.39,13.85,11.13,29.04,13.92,45.14-3.99,1-8.09,1.91-12.28,2.75Zm-24.06-43.68c-3.57-10.63-7.96-20.89-13.2-30.48,5.78-1.35,11.38-2.95,16.76-4.81,6.86,8.76,12.87,18.52,17.91,29.07-6.83,2.43-14.02,4.5-21.48,6.21Zm-14.43-32.69c-7.1-12.52-15.69-23.83-25.87-33.22,1.76-.91,3.48-1.91,5.13-3,14.02,7.79,26.56,18.57,37.18,31.67-5.27,1.76-10.77,3.27-16.44,4.55Zm-27.68-34.86c-4.24-3.75-8.74-7.17-13.51-10.21,6.28,2,12.34,4.55,18.16,7.61-1.51,.94-3.05,1.81-4.65,2.6Zm-29.53-10.35c-5.84,3.64-11.37,7.78-16.56,12.4-2.19-.8-4.26-1.71-6.18-2.72,7.04-3.96,14.63-7.23,22.74-9.69Zm-25.02,8.4c-1.49-.9-2.86-1.87-4.1-2.89,7.93-2.94,16.11-5.1,24.47-6.38-7.23,2.48-14.01,5.6-20.37,9.27Zm6.61,5.7c-9.54,8.85-17.9,19.32-24.93,31.15-1.07,.11-2.14,.21-3.19,.32-4.63-.93-9.13-1.99-13.47-3.17,9.6-12.47,21.24-23.26,34.98-31.41,2.04,1.15,4.25,2.19,6.6,3.1Zm-35.68,32.28c-4.1,.74-10.81,5.62-12,11.6,0,2.83-3.44,3.61-6.81,4.32,3.38-6.22,7.17-12.21,11.37-17.87,2.43,.69,4.91,1.34,7.44,1.95Zm-36.18,74.84c-.7-.12-1.4-.25-2.08-.37,.14-.92,.29-1.85,.45-2.77,.49,1.05,1.03,2.1,1.64,3.14Zm24.42,62.64c2.3,13.74,5.84,26.95,10.52,39.37-8.46-.76-16.7-1.7-24.64-2.82-5.96-13.5-9.92-27.6-12.18-41.65,8.52,2.02,17.32,3.71,26.3,5.09Zm34.74,83.91c8.32,11.02,17.83,20.64,28.4,28.48-17.92-7.62-32.79-17.67-44.96-29.34,5.3,.37,10.85,.66,16.56,.86Zm82.38-2.26c5.86-.52,11.6-1.11,17.16-1.77-13.02,13.15-29.43,24.17-49.72,31.83,12.46-7.6,23.39-17.76,32.56-30.06Zm1.69-2.32c6.6-9.27,12.23-19.69,16.81-31.09,.74,1.73,1.6,3.5,2.09,5.46h3.91c0-1.31,0-2.61,1.29-2.61l1.31,1.31,1.31-1.31-1.31-1.3c3.92-1.31,3.37-5.44,5.2-9.1,.38-.75,.78-1.5,1.19-2.25,4.37-.69,8.63-1.44,12.75-2.25-6.33,14.82-15.09,28.88-26.68,41.21-5.76,.73-11.74,1.37-17.86,1.93Zm48.37-46.49c5.85-14.9,9.35-30.44,10.9-45.71,5.22-1.73,10.28-3.59,15.17-5.58-1.17,16.97-5.04,32.99-11.46,47.81-4.61,1.25-9.49,2.41-14.61,3.48Zm8.84-98.44c-2.82-16.16-7.58-31.41-13.99-45.34,3.48-1.29,6.85-2.68,10.11-4.17,7.43,13.92,13.24,29.32,16.93,45.67-4.19,1.39-8.55,2.67-13.05,3.84Zm-14.93-47.34c-5.02-10.54-11-20.3-17.8-29.1,2.82-1.02,5.57-2.12,8.25-3.29,7.27,8.42,13.86,17.92,19.55,28.26-3.23,1.47-6.56,2.85-9.99,4.13Zm-19.34-31.04c-10.67-13.31-23.28-24.31-37.39-32.32,1.07-.78,2.1-1.6,3.11-2.46,15.4,6.63,29.9,17.54,42.46,31.61-2.65,1.13-5.38,2.18-8.18,3.17Zm-36.62-35.75c-.96,.78-1.96,1.51-2.97,2.21-5.25-2.83-10.69-5.26-16.31-7.24,3.78,.57,7.53,1.32,11.24,2.23,2.7,.8,5.39,1.73,8.04,2.8Zm-70.78,2.29c1.29,1.15,2.73,2.25,4.31,3.27-13.81,8.38-25.5,19.4-35.13,32.08-3.58-1.02-7.03-2.12-10.35-3.3,11.35-13.49,24.61-24.15,39-31.16,.72-.3,1.45-.6,2.18-.88Zm-32.32,37.35c-4.46,6.08-8.45,12.52-11.99,19.21-.23,.07-.46,.13-.68,.21-5.05,2.03-7.75,6.4-10.54,10.69-2.4-.65-4.73-1.31-6.97-2,5.53-11.62,12.2-22.21,19.77-31.53,3.34,1.22,6.82,2.37,10.41,3.43Zm-24.5,32.05c-.39,.57-.78,1.13-1.19,1.68-2.59,3.9,0,10.41-2.59,15.62-3.91,5.19-7.8,10.41-3.91,15.62,.94,1.88,1.71,3.75,2.49,5.62-.38,2.02-.73,4.05-1.04,6.07-4.93-.93-9.6-1.91-13.92-2.94,2.77-15.57,7.4-30.23,13.53-43.58,2.14,.66,4.35,1.29,6.63,1.91Zm-6.21,102.37c2.19,14.09,6.07,28.26,11.92,41.84-4.61-.68-9.1-1.42-13.46-2.22-6.79-14.07-11.1-28.85-13.34-43.7,4.85,1.48,9.81,2.84,14.88,4.08Zm13.06,44.42c6.76,14.95,15.96,29.14,28,41.69-2.62-.23-5.17-.47-7.63-.74-14.71-12.86-25.76-27.53-33.68-43.14,4.33,.79,8.77,1.52,13.32,2.19Zm30.29,44.03c7.96,7.92,17.1,15.15,27.53,21.44-13.21-6.4-24.68-13.84-34.58-22.07,2.29,.23,4.64,.44,7.05,.63Zm123.2-3.35c3.02-.38,5.97-.79,8.85-1.21-5.75,5.29-11.99,10.26-18.73,14.87-6.23,3.48-12.78,6.73-19.66,9.77,11.37-6.7,21.18-14.62,29.54-23.43Zm12.89-1.83c.42-.07,.83-.13,1.24-.2-1.61,1.23-3.24,2.45-4.91,3.64,1.25-1.13,2.47-2.28,3.67-3.44Zm33.46-48.92c6.28-15.07,10.02-31.21,11.16-48,4.94-2.07,9.68-4.27,14.21-6.6-1.06,18.01-5.55,34.98-13.24,50.63-3.76,1.41-7.82,2.73-12.14,3.97Zm11.32-50.49c.69-12.98-.17-26.33-2.59-39.86-.38-2.13-.8-4.25-1.25-6.35,4.57-1.57,8.93-3.27,13.05-5.11,1.89,7.14,3.29,14.46,4.13,21.92,.87,7.73,1.14,15.31,.84,22.72-4.51,2.36-9.25,4.58-14.18,6.68Zm15.58-29.65c-.86-7.64-2.31-15.2-4.29-22.63,5.11-2.4,9.8-5.02,14.03-7.89,4.66,13.24,7.45,27.25,8.06,41.7l-1.6,1.07c-4.71,3.36-9.84,6.51-15.29,9.47,.22-7.09-.08-14.34-.92-21.72Zm-4.89-24.81c-4.57-16.15-11.72-31.61-21.14-45.68,3.31-2.02,6.46-4.17,9.41-6.47,10.89,13.21,19.61,28.16,25.57,44.27-4.16,2.87-8.8,5.49-13.84,7.89Zm-2.07,.98c-4.07,1.85-8.4,3.54-12.94,5.11-3.73-16.42-9.58-31.89-17.05-45.89,3.07-1.46,6.04-3.02,8.89-4.67,9.28,13.75,16.5,29.09,21.09,45.45Zm-31.05-42.73c-5.67-10.32-12.23-19.81-19.47-28.26,1.78-.82,3.53-1.67,5.24-2.56,8.52,7.8,16.22,16.63,22.91,26.25-2.78,1.62-5.69,3.13-8.69,4.57Zm-21.04-30.06c-9.11-10.31-19.26-18.98-30.04-25.6,12.62,5.93,24.43,13.8,35.04,23.22-1.63,.83-3.3,1.62-5,2.38Zm-41.98-33.05c.13-.13,.27-.25,.4-.38,20.22,5,39.01,13.99,55.41,26.04l-.52,.32c-1.91,1.21-3.9,2.35-5.95,3.45-14.72-13.3-31.5-23.26-49.34-29.43Zm-2.43-.81c-.84-.27-1.68-.54-2.52-.8,.91,.19,1.82,.39,2.73,.6-.07,.07-.14,.13-.21,.2Zm-98.66,17.7c-6.43,5.27-12.49,11.32-18.08,18.03-1.03-.38-2.03-.78-3.03-1.17,6.57-6.29,13.64-11.94,21.11-16.86Zm-54.98,153.75c2.13,14.9,6.32,29.74,12.95,43.91-4.55-.87-8.94-1.82-13.15-2.83-7.51-14.26-12.33-29.72-14.28-46.14,4.69,1.81,9.52,3.5,14.48,5.06Zm-3.15,40.36c-3.93-.99-7.71-2.05-11.29-3.17l-1.75-.57c-6.08-14.62-9.99-30.5-11.34-47.24,3.46,1.62,7.01,3.16,10.67,4.62,1.8,16.48,6.43,32.01,13.71,46.36Zm4.41,3.42c4.17,.98,8.5,1.89,12.95,2.74,7.66,15.56,18.35,30.24,32.57,43.21-2.08-.26-4.1-.54-6.05-.83-16.79-13.02-30.06-28.19-39.47-45.11Zm48.32,48.44c6.92,6,14.63,11.61,23.19,16.74-10.35-5.22-19.86-11.03-28.5-17.39,1.73,.23,3.5,.44,5.31,.65Zm98.86,26.06c-5.7,2.74-11.66,5.28-17.85,7.62-1.39,.11-2.79,.21-4.19,.28,7.65-2.4,15-5.04,22.04-7.9Zm27.57-13.26c9.69-5.47,18.6-11.46,26.67-17.93,10.51-1.86,19.75-4.05,27.08-6.54-24.01,23.5-55.77,39.74-90.8,44.44,13.65-5.68,26.01-12.35,37.05-19.98Zm92.29-86.12l-.31,.37c-4.41,5.62-12.21,10.52-22.52,14.71,7.34-15.68,11.56-32.65,12.43-50.63,5.98-3.19,11.58-6.6,16.7-10.25l.39-.27c.03,1.14,.05,2.28,.05,3.43,0,14.74-2.37,29.06-6.74,42.64Zm-29.27-138.58c-2.9,2.26-5.98,4.37-9.23,6.35-5.04-7.32-10.71-14.25-16.94-20.69-1.86-1.92-3.76-3.77-5.69-5.58,1.84-1.01,3.64-2.07,5.39-3.16l1.3-.74c9.25,7.02,17.7,15.01,25.18,23.82Zm-158.35-50.04c-.16-.16-.31-.33-.47-.5,1.45-.4,2.91-.78,4.38-1.13-1.31,.51-2.61,1.06-3.91,1.63Zm-57.67,30.36l1.38,.74c1.77,.87,3.6,1.7,5.48,2.51-9.06,9.05-17.12,19.31-23.92,30.5-2.88-1.13-5.57-2.3-8.03-3.5l-.81-.43c7.3-11.12,16.02-21.14,25.9-29.82Zm-46.42,76.98h.01c2.76,1.39,6.1,2.74,9.95,4.05-1.41,5.97-2.49,12.06-3.2,18.24-1.25,10.84-1.39,21.37-.46,31.55-3.63-1.48-7.17-3.03-10.6-4.67-.22-3.48-.35-6.98-.35-10.53,0-13.4,1.61-26.34,4.65-38.64Zm39.78,147.43c5.5,2.41,13.49,4.36,23.24,5.86,19.01,14.67,42.44,26.61,69.86,35.26-36.41-2.05-68.87-17.22-93.1-41.12Z"/>
  <polygon class="cls-1" points="531.61 272.33 534.85 271.63 533.09 263.58 537.22 262.69 539.21 271.88 542.45 271.17 539.61 258.16 521.32 262.13 522.15 265.95 529.85 264.28 531.61 272.33"/>
  <path class="cls-1" d="M539.32,292.29c8.35-2.73,7.35-9.26,6.58-11.6-.77-2.37-3.81-8.23-12.15-5.5-8.35,2.72-7.35,9.25-6.59,11.59,.77,2.36,3.81,8.23,12.16,5.51Zm-9.01-6.54c-.66-2.01-.32-5.23,4.65-6.85,4.99-1.63,7.14,.78,7.8,2.79,.65,2.02,.33,5.25-4.65,6.86-4.97,1.65-7.14-.78-7.8-2.8Z"/>
  <polygon class="cls-1" points="553.87 302 542 307.37 541.98 307.33 550.81 295.18 549.12 291.42 532.03 299.13 533.56 302.46 545.7 296.97 545.73 297.01 536.7 309.48 538.33 313.03 555.39 305.32 553.87 302"/>
  <path class="cls-1" d="M560.98,315.18l-4.19-7.13-16.14,9.46,4.08,6.99c3.12,5.33,8.92,3.78,12.4,1.76,3.04-1.79,7.03-5.63,3.85-11.08Zm-6.12,7.76c-2.66,1.58-5.96,2.25-7.56-.48l-1.94-3.29,10.59-6.18,1.9,3.23c.84,1.44,1.78,3.94-2.99,6.72Z"/>
  <path class="cls-1" d="M563.45,331.7c-.31-.75-.76-1.89,.42-2.75,1.37-1,2.85,.12,3.72,1.32,2.01,2.75,.6,4.17-.02,4.74l2.22,3.03c1.84-1.38,3.96-4.83,.58-9.45-3.58-4.92-7.19-3.65-8.89-2.42-3.32,2.42-2.16,5.19-.95,8.03l.8,1.91c.77,1.87,1.3,3.24,.12,4.1-1.6,1.18-3.17-.23-4.28-1.74-2-2.75-.71-4.33,.12-4.98l-2.21-3.02c-1.87,1.36-4.36,4.63-.34,10.15,.97,1.33,4.76,5.67,9.3,2.36,2.71-1.99,2.18-4.5,1.18-6.93l-1.78-4.34Z"/>
  <path class="cls-1" d="M584.27,346.13l-18.09,8.23,2.87,2.96,3.68-1.75,4.81,4.96-1.93,3.54,2.95,3.06,8.85-17.77-3.15-3.23Zm-5.16,11.36l-3.31-3.41,6.97-3.45,.05,.04-3.7,6.81Z"/>
  <polygon class="cls-1" points="597.84 368.89 591.56 363.54 594.29 360.33 601.46 366.43 603.61 363.91 593.46 355.26 581.34 369.53 584.32 372.05 589.43 366.07 595.69 371.41 597.84 368.89"/>
  <path class="cls-1" d="M614.76,378.25c.92-1.31,2.28-4.86-1.8-7.71l-7.77-5.42-10.72,15.37,3.15,2.19,4.19-6.01,3.33,2.31c2.38,1.66,1.94,2.56,.47,4.65-1.1,1.58-1.53,2.46-1.82,3.35l3.55,2.46,.3-.4c-.51-.73-.14-1.29,1.43-3.54,2-2.87,1.65-3.81,.77-5.24,1.88,.54,3.75-.32,4.93-2.02Zm-7.37-1.54l-3.77-2.63,2.86-4.1,4.01,2.79c1.87,1.31,1.4,2.76,.84,3.58-1.06,1.5-2.26,1.51-3.93,.36Z"/>
  <rect class="cls-1" x="607.7" y="382.24" width="18.71" height="3.9" transform="translate(-29.06 717.21) rotate(-59.17)"/>
  <path class="cls-1" d="M631.38,395.23c-1.45,1.85-3.35,2.27-5.28,1.3-2.97-1.49-2.8-4.77-1.29-7.79,2.36-4.74,5.4-4.61,7.07-3.78,2.9,1.45,2.48,3.61,2.27,4.74l3.5,1.76c1.04-2.57,.75-7.04-4.28-9.54-4.31-2.17-9.17-.87-12.11,4.99-2.89,5.77-1.2,10.38,3.24,12.6,4.2,2.11,7.85,.76,10.37-2.54l-3.49-1.75Z"/>
  <path class="cls-1" d="M634.56,403.85l3.85,1.44,2.57-3.14,6.47,2.42-.23,4.03,3.98,1.49,.4-19.85-4.23-1.58-12.81,15.19Zm13.44-10.45l-.43,7.76-4.47-1.68,4.84-6.09h.06Z"/>
  <rect class="cls-1" x="649.38" y="400.47" width="18.73" height="3.91" transform="translate(87.55 921.67) rotate(-73.69)"/>
  <polygon class="cls-1" points="674.68 410.1 674.62 410.1 670.12 395.78 666.09 394.91 662.13 413.2 665.71 413.98 668.52 400.92 668.57 400.94 673.22 415.6 677.05 416.43 681 398.13 677.43 397.36 674.68 410.1"/>
  <path class="cls-1" d="M699.22,400.08l-8.23-.56-1.27,18.67,8.07,.57c6.17,.41,8.15-5.26,8.43-9.25,.23-3.55-.71-8.99-7-9.43Zm3.01,9.43c-.22,3.06-1.49,6.21-4.68,5.98l-3.78-.26,.82-12.22,3.74,.26c1.67,.12,4.27,.73,3.9,6.25Z"/>
  <polygon class="cls-1" points="713.11 415.85 712.97 411.01 722.08 410.74 721.98 407.42 712.85 407.7 712.74 403.76 722.68 403.45 722.56 400.16 708.81 400.55 709.35 419.27 723.57 418.86 723.46 415.54 713.11 415.85"/>
  <path class="cls-1" d="M740.64,397.8l-8.16,1.4,3.17,18.44,7.98-1.36c6.1-1.05,6.69-7.02,6.01-10.98-.6-3.49-2.79-8.56-9.01-7.5Zm1.99,15.37l-3.75,.65-2.06-12.08,3.69-.63c1.67-.29,4.33-.29,5.27,5.16,.51,3.03,0,6.37-3.14,6.9Z"/>
  <polygon class="cls-1" points="758.16 409.75 756.85 405.09 765.64 402.65 764.76 399.46 755.97 401.89 754.91 398.11 764.49 395.44 763.6 392.25 750.33 395.93 755.35 413.97 769.04 410.17 768.16 407 758.16 409.75"/>
  <polygon class="cls-1" points="776.55 387.4 777.86 402.09 777.82 402.11 768.96 390.33 765.03 391.83 777.67 407.04 781.15 405.69 780.33 385.94 776.55 387.4"/>
  <polygon class="cls-1" points="792.31 397.18 790.15 392.85 798.3 388.76 796.82 385.79 788.66 389.89 786.9 386.38 795.77 381.92 794.28 378.96 781.99 385.13 790.38 401.87 803.08 395.5 801.59 392.52 792.31 397.18"/>
  <polygon class="cls-1" points="808.33 388.37 800.22 375.37 796.9 377.43 806.81 393.32 818.02 386.31 816.24 383.45 808.33 388.37"/>
  <path class="cls-1" d="M815.99,363.93c-1.95,1.5-6.48,6.34-1.09,13.3,5.37,6.95,11.17,3.81,13.13,2.29,1.96-1.51,6.46-6.34,1.09-13.3-5.37-6.94-11.18-3.81-13.13-2.29Zm10.02,12.96c-1.67,1.29-4.81,2.08-8.02-2.06-3.21-4.14-1.66-6.99,.04-8.27,1.66-1.31,4.81-2.09,8.02,2.05,3.2,4.14,1.63,6.99-.04,8.28Z"/>
  <path class="cls-1" d="M839.71,351.54c-2.56-2.66-5.73-2.82-8.34-.32l-6.18,5.91,12.91,13.56,2.84-2.72-4.66-4.88,3.23-3.1c3.65-3.47,1.39-7.21,.22-8.44Zm-3.05,6.7l-2.63,2.5-3.79-3.99,2.24-2.12c1.75-1.68,3.02-1.85,4.27-.52,.58,.61,2.01,2.12-.09,4.13Z"/>
  <path class="cls-1" d="M851.73,346.92c3.3-3.82,.68-7.33-.62-8.43-2.77-2.41-5.96-2.26-8.34,.47l-5.58,6.48,14.15,12.23,2.57-2.95-5.12-4.42,2.93-3.38Zm-5.37,1.27l-4.17-3.59,2.03-2.35c1.59-1.84,2.83-2.11,4.2-.92,.62,.54,2.21,1.91,.31,4.12l-2.38,2.74Z"/>
  <polygon class="cls-1" points="862.8 338.43 858.85 335.63 864.13 328.19 861.44 326.26 856.16 333.72 852.95 331.44 858.68 323.33 855.99 321.43 848.02 332.66 863.3 343.47 871.52 331.88 868.81 329.96 862.8 338.43"/>
  <polygon class="cls-1" points="863.61 308.26 874.89 318.34 874.86 318.38 860.31 314.17 857.54 319.16 873.9 328.26 875.67 325.08 862 317.46 862.04 317.42 877.36 322.06 879.22 318.7 867.25 308.04 867.28 307.99 880.94 315.6 882.73 312.41 866.36 303.31 863.61 308.26"/>
  <polygon class="cls-1" points="883.27 302.97 878.8 301.09 882.35 292.67 879.3 291.39 875.77 299.8 872.12 298.26 875.99 289.11 872.92 287.82 867.58 300.51 884.84 307.78 890.35 294.68 887.32 293.41 883.27 302.97"/>
  <polygon class="cls-1" points="883.9 260.46 885.01 254.92 881.78 254.25 878.74 269.19 882.01 269.84 883.12 264.3 898.23 267.36 899 263.52 883.9 260.46"/>
  <path class="cls-1" d="M558.52,129.91l-2.72-3.04,3.39-6,3.96,.85,2.08-3.71-19.55-3.45-2.21,3.94,13.03,15,2.03-3.58Zm-10.3-11.26l.03-.04,7.6,1.61-2.35,4.16-5.28-5.73Z"/>
  <polygon class="cls-1" points="568.93 112.8 562.49 108.27 567.22 101.54 564.52 99.63 559.77 106.36 556.32 103.94 561.74 96.24 559.03 94.33 551.36 105.24 566.68 116 568.93 112.8"/>
  <path class="cls-1" d="M578.42,100.14l-5.53-4.78,2.64-3.05c1.89-2.2,2.73-1.67,4.66,0,1.47,1.25,2.3,1.77,3.15,2.14l2.82-3.28-.38-.32c-.77,.42-1.29-.02-3.38-1.8-2.64-2.29-3.62-2.03-5.12-1.31,.72-1.8,.06-3.74-1.49-5.1-1.23-1.06-4.62-2.77-7.86,1.01l-6.19,7.17,14.2,12.22,2.48-2.91Zm-11.71-10.11l3.18-3.69c1.49-1.75,2.89-1.12,3.64-.47,1.4,1.2,1.3,2.4-.03,3.95l-3.01,3.48-3.78-3.28Z"/>
  <rect class="cls-1" x="581.07" y="71.89" width="3.93" height="18.72" transform="translate(114.47 437.58) rotate(-45.19)"/>
  <path class="cls-1" d="M599.74,79.2c3.56-3.05,3.73-6.95,1.66-10.55l-2.96,2.57c1.13,2.03,.78,3.96-.85,5.37-2.5,2.15-5.49,.74-7.68-1.82-3.47-4.01-2.18-6.76-.76-7.99,2.45-2.11,4.28-.89,5.26-.24l2.94-2.56c-1.95-1.96-6.18-3.4-10.44,.25-3.65,3.14-4.34,8.15-.06,13.11,4.21,4.9,9.12,5.11,12.89,1.86Z"/>
  <path class="cls-1" d="M610.2,70.21l-1.1-3.92,5.67-3.92,3.18,2.5,3.49-2.43-16.05-11.67-3.7,2.56,5.11,19.2,3.39-2.33Zm-4.28-14.66l6.12,4.78-3.93,2.71-2.23-7.46,.04-.03Z"/>
  <polygon class="cls-1" points="626.72 59.55 620.39 47.81 620.42 47.77 633.49 55.88 636.93 54.03 628.04 37.55 624.82 39.29 631.01 50.77 630.98 50.78 618.24 42.85 614.62 44.81 623.51 61.26 626.72 59.55"/>
  <path class="cls-1" d="M654.7,46.79c5.82-2.1,5.37-8.08,4-11.86-1.19-3.34-4.23-7.94-10.18-5.82l-7.77,2.8,6.32,17.63,7.63-2.74Zm-5.73-14.42c1.58-.56,4.2-1.03,6.08,4.18,1.03,2.89,1.12,6.27-1.9,7.35l-3.58,1.29-4.12-11.53,3.53-1.28Z"/>
  <polygon class="cls-1" points="678.77 39.99 677.99 36.77 667.92 39.24 666.76 34.52 675.63 32.36 674.84 29.15 665.97 31.3 665.05 27.49 674.7 25.12 673.91 21.91 660.53 25.18 664.96 43.36 678.77 39.99"/>
  <polygon class="cls-1" points="690.53 38.22 694.24 18.8 690.22 19.36 688.14 33.97 688.1 33.99 682.15 20.48 677.99 21.07 686.83 38.73 690.53 38.22"/>
  <polygon class="cls-1" points="713.05 36.65 712.91 33.34 702.55 33.77 702.34 28.93 711.46 28.53 711.33 25.23 702.21 25.62 702.04 21.69 711.96 21.26 711.82 17.95 698.07 18.54 698.87 37.24 713.05 36.65"/>
  <polygon class="cls-1" points="729.38 34.01 720.08 33.54 720.84 18.22 716.94 18.02 716.01 36.72 729.2 37.39 729.38 34.01"/>
  <path class="cls-1" d="M739.73,39.32c2.48,.38,9.06,.32,10.41-8.36,1.32-8.69-4.96-10.74-7.39-11.12-2.48-.38-9.07-.31-10.41,8.38-1.33,8.68,4.96,10.73,7.39,11.1Zm-3.52-10.51c.8-5.18,3.94-6.02,6.02-5.69,2.09,.32,4.83,2.06,4.03,7.24-.8,5.19-3.92,6.01-6.01,5.7-2.1-.32-4.84-2.06-4.04-7.25Z"/>
  <path class="cls-1" d="M757.12,35.41l4.34,1.16c4.85,1.29,6.87-2.6,7.3-4.25,.95-3.55-.58-6.34-4.09-7.27l-8.26-2.21-4.82,18.09,3.78,1.01,1.75-6.53Zm2.24-8.44l3.01,.79c2.34,.64,3.12,1.62,2.67,3.39-.23,.79-.78,2.81-3.58,2.06l-3.5-.94,1.4-5.31Z"/>
  <polygon class="cls-1" points="771.51 46.73 777.2 32.15 777.25 32.18 774.74 47.99 778.3 49.38 787.24 36.08 787.3 36.11 781.6 50.69 785.01 52 791.81 34.56 786.55 32.52 778.08 45.03 778.02 45.02 780.23 30.05 774.91 27.96 768.1 45.41 771.51 46.73"/>
  <polygon class="cls-1" points="800.87 60.26 802.4 57.35 793.23 52.51 795.5 48.22 803.56 52.48 805.09 49.54 797.03 45.3 798.86 41.8 807.65 46.43 809.2 43.5 797.02 37.08 788.3 53.67 800.87 60.26"/>
  <polygon class="cls-1" points="806.44 63.81 813.86 52.71 813.89 52.74 812.86 68.08 816.11 70.25 826.5 54.67 823.46 52.65 816.22 63.5 816.18 63.47 817.23 48.5 813.81 46.21 803.42 61.79 806.44 63.81"/>
  <polygon class="cls-1" points="822.19 75.1 825.21 77.58 834.98 65.67 839.37 69.25 841.46 66.68 829.68 57.03 827.59 59.6 831.98 63.18 822.19 75.1"/>
  <polygon class="cls-1" points="839.16 90.65 844.93 85.27 850.53 91.29 852.96 89.03 847.33 83 850.44 80.13 856.84 87.01 859.27 84.74 850.17 75.01 836.5 87.79 839.16 90.65"/>
  <path class="cls-1" d="M849.54,99.53c-.46,2.44,.74,4.74,1.8,6.09,2.86,3.75,6.36,4.83,10.26,1.84l9.67-7.4-2.42-3.16-9.8,7.48c-1.8,1.4-3.49,1.31-5.13-.83-1.1-1.45-1.12-3.34,.97-4.93l9.64-7.38-2.41-3.16-9.88,7.53c-1.44,1.17-2.41,2.4-2.7,3.92Z"/>
  <polygon class="cls-1" points="860.38 117.61 871.81 110.69 871.83 110.73 864.39 124.19 866.41 127.53 882.41 117.82 880.52 114.7 869.38 121.46 869.34 121.42 876.65 108.31 874.5 104.78 858.5 114.48 860.38 117.61"/>
  <path class="cls-1" d="M871.64,138.26c2.6,5.6,8.5,4.59,12.14,2.89,3.21-1.5,7.53-4.93,4.87-10.67l-3.5-7.48-16.95,7.91,3.44,7.35Zm12.2-10.42l1.59,3.39c.7,1.52,1.41,4.09-3.59,6.42-2.78,1.31-6.14,1.69-7.48-1.19l-1.62-3.45,11.1-5.18Z"/>
  <path class="cls-1" d="M303.85,20.82c-111.85,0-202.85,90.99-202.85,202.85s91,202.84,202.85,202.84,202.83-90.98,202.83-202.84S415.69,20.82,303.85,20.82Zm0,403.43c-110.61,0-200.6-89.98-200.6-200.59S193.23,23.07,303.85,23.07s200.58,89.99,200.58,200.59-89.98,200.59-200.58,200.59Z"/>
  <path class="cls-1" d="M125.33,202.08c-1.84-.14-3.7,.33-4.74,2.55-.32-.8-.96-2.37-3.65-2.56-1.93-.15-4.86,.81-5.21,5.38l-.68,9.07,18.68,1.4,.59-7.89c.28-3.83-.3-4.89-1.25-6.03-.89-1.06-2.25-1.79-3.74-1.91Zm-6.36,6.67l-.33,4.58-4.09-.31,.34-4.47c.13-1.77,.67-2.82,2.21-2.7,1.49,.09,1.98,1.37,1.86,2.9Zm8.16,.4l-.35,4.78-5-.37,.38-4.96c.09-1.4,.83-2.75,2.47-2.63,1.89,.13,2.65,1.29,2.5,3.18Z"/>
  <path class="cls-1" d="M113.83,190.84l17.21,9.95,.74-4.06-3.56-1.97,1.24-6.8,4.01-.49,.77-4.19-19.61,3.12-.81,4.43Zm4.56-1.43l7.69-.96-.86,4.7-6.86-3.69,.03-.04Z"/>
  <polygon class="cls-1" points="123.08 173.83 138.04 170.31 139.17 166.55 121.21 161.22 120.18 164.72 132.67 168.43 132.66 168.49 118.05 171.89 116.88 175.85 134.81 181.18 135.85 177.67 123.05 173.87 123.08 173.83"/>
  <path class="cls-1" d="M131.43,160.22c8.08,3.44,11.61-2.15,12.58-4.43,.42-1.02,.98-2.88,.72-4.92l2.81-1.22-1.14-2.72-2.57,1.13c-.89-1.63-2.55-3.2-5.37-4.41-8.1-3.42-11.63,2.17-12.58,4.45-.98,2.28-2.52,8.69,5.56,12.12Zm-2.51-10.83c.82-1.94,3.18-4.18,8-2.13,1.6,.68,2.67,1.5,3.36,2.36l-2.48,1.11,1.16,2.66,2.37-1.04-.37,2.13c-.82,1.95-3.19,4.19-8.02,2.14-4.83-2.05-4.86-5.29-4.02-7.24Z"/>
  <path class="cls-1" d="M147.61,142.56c2.44-.55,4.07-2.57,4.9-4.08,2.32-4.1,1.94-7.73-2.35-10.15l-10.61-5.97-1.95,3.47,10.75,6.05c1.96,1.12,2.57,2.71,1.25,5.04-.9,1.59-2.65,2.35-4.91,1.08l-10.59-5.96-1.96,3.47,10.81,6.09c1.67,.87,3.17,1.28,4.66,.96Z"/>
  <polygon class="cls-1" points="166.13 116.76 163.43 114.84 157.43 123.32 153.47 120.52 158.75 113.07 156.05 111.14 150.77 118.6 147.57 116.32 153.3 108.21 150.6 106.3 142.64 117.55 157.92 128.36 166.13 116.76"/>
  <path class="cls-1" d="M174.6,106.79l-1.9-3.6,4.76-5,3.64,1.78,2.93-3.08-18.11-8.14-3.11,3.29,8.96,17.73,2.84-2.99Zm-7.23-13.43l.03-.04,6.98,3.41-3.29,3.46-3.71-6.83Z"/>
  <polygon class="cls-1" points="188.9 92.71 183.75 86.74 190 81.36 187.84 78.85 181.6 84.23 178.84 81.03 185.98 74.88 183.81 72.38 173.72 81.08 185.94 95.26 188.9 92.71"/>
  <path class="cls-1" d="M201.25,82.73l-4.21-6,3.31-2.3c2.36-1.68,3.07-.95,4.53,1.13,1.12,1.58,1.79,2.28,2.52,2.86l3.54-2.49-.29-.41c-.86,.23-1.25-.33-2.83-2.58-2.01-2.85-3.02-2.84-4.66-2.5,1.15-1.58,.98-3.63-.2-5.31-.92-1.32-3.78-3.82-7.87-.95l-7.74,5.43,10.75,15.34,3.15-2.21Zm-8.91-12.67l4-2.79c1.87-1.32,3.08-.38,3.66,.42,1.06,1.52,.66,2.66-1.01,3.83l-3.75,2.64-2.89-4.1Z"/>
  <rect class="cls-1" x="208.4" y="56.17" width="3.91" height="18.72" transform="translate(-3.92 116.82) rotate(-30.76)"/>
  <path class="cls-1" d="M227.09,67.64c4.2-2.1,5.31-5.83,4.2-9.82l-3.51,1.75c.6,2.27-.21,4.02-2.13,5-2.97,1.49-5.51-.63-7.01-3.65-2.36-4.74-.43-7.09,1.24-7.92,2.89-1.45,4.37,.17,5.15,1.04l3.5-1.75c-1.41-2.38-5.17-4.83-10.18-2.32-4.32,2.15-6.22,6.82-3.29,12.68,2.87,5.79,7.58,7.2,12.04,4.99Z"/>
  <path class="cls-1" d="M239.48,61.47l-.12-4.07,6.48-2.39,2.46,3.21,4-1.48-12.67-15.27-4.23,1.54,.21,19.88,3.87-1.42Zm-.51-15.25l4.74,6.14-4.47,1.65-.31-7.78h.05Z"/>
  <rect class="cls-1" x="251.88" y="37.4" width="3.93" height="18.72" transform="translate(-3.12 71.13) rotate(-15.85)"/>
  <polygon class="cls-1" points="265.23 53.45 262.55 40.36 262.6 40.35 272.77 51.89 276.6 51.11 272.83 32.77 269.27 33.5 271.88 46.27 271.84 46.28 261.93 35 257.89 35.84 261.66 54.18 265.23 53.45"/>
  <polygon class="cls-1" points="294 49.22 293.66 45.93 283.34 46.99 282.85 42.16 291.92 41.23 291.59 37.95 282.52 38.87 282.12 34.94 292.01 33.95 291.67 30.66 277.98 32.04 279.85 50.65 294 49.22"/>
  <path class="cls-1" d="M320.62,39.79c.15-3.54-.94-8.96-7.23-9.23l-8.25-.34-.78,18.72,8.1,.32c6.17,.26,8-5.46,8.17-9.47Zm-12.31,6.06l.52-12.23,3.75,.15c1.67,.07,4.27,.62,4.05,6.14-.13,3.08-1.32,6.25-4.52,6.1l-3.8-.16Z"/>
  <polygon class="cls-1" points="337.51 48.7 327.23 47.21 327.94 42.4 336.96 43.72 337.45 40.44 328.41 39.14 328.98 35.25 338.81 36.66 339.28 33.39 325.66 31.42 322.97 49.94 337.03 51.98 337.51 48.7"/>
  <path class="cls-1" d="M365.12,49.33c1.01-3.39,1.29-8.92-4.76-10.72l-7.91-2.36-5.35,17.95,7.78,2.3c5.91,1.76,9.1-3.33,10.24-7.17Zm-9.93-8.89l3.59,1.07c1.61,.48,4,1.65,2.43,6.95-.87,2.93-2.82,5.72-5.88,4.81l-3.65-1.08,3.5-11.75Z"/>
  <polygon class="cls-1" points="378.1 65.19 379.38 62.15 369.78 58.16 371.65 53.69 380.07 57.19 381.34 54.12 372.91 50.62 374.43 46.99 383.6 50.79 384.86 47.72 372.15 42.46 364.99 59.75 378.1 65.19"/>
  <polygon class="cls-1" points="402.91 57.13 399.33 55.21 389.04 65.79 388.99 65.76 392.16 51.38 388.46 49.38 385.17 68.85 388.45 70.63 402.91 57.13"/>
  <polygon class="cls-1" points="407.89 82.9 409.74 80.14 401.14 74.35 403.84 70.32 411.41 75.42 413.26 72.66 405.68 67.57 407.88 64.31 416.14 69.85 417.97 67.1 406.56 59.42 396.11 74.95 407.89 82.9"/>
  <polygon class="cls-1" points="420.61 93.22 422.75 90.59 415.57 84.7 425.29 72.85 422.26 70.36 410.39 84.84 420.61 93.22"/>
  <path class="cls-1" d="M428.05,101.16c1.74,1.76,7.08,5.64,13.33-.54,6.24-6.19,2.41-11.58,.67-13.34-1.75-1.75-7.09-5.63-13.33,.56-6.25,6.18-2.41,11.56-.67,13.32Zm3.41-10.54c3.73-3.69,6.74-2.49,8.25-1,1.48,1.5,2.65,4.52-1.08,8.22-3.73,3.68-6.75,2.49-8.23,.99-1.49-1.49-2.66-4.53,1.06-8.21Z"/>
  <path class="cls-1" d="M439.16,112.7l5.28-4.21,2.79,3.49c3.14,3.94,7.07,2.01,8.39,.95,2.87-2.3,3.32-5.45,1.06-8.28l-5.34-6.68-14.63,11.67,2.44,3.07Zm12.11-9.66l1.94,2.42c1.5,1.89,1.56,3.16,.13,4.29-.65,.51-2.29,1.83-4.1-.46l-2.26-2.84,4.3-3.42Z"/>
  <path class="cls-1" d="M449.56,126.66l5.66-3.66,2.44,3.75c2.73,4.22,6.83,2.69,8.25,1.78,3.08-2,3.84-5.09,1.89-8.14l-4.66-7.18-15.71,10.15,2.12,3.29Zm13-8.4l1.69,2.59c1.31,2.05,1.22,3.31-.3,4.3-.71,.46-2.46,1.58-4.04-.88l-1.97-3.03,4.62-2.98Z"/>
  <polygon class="cls-1" points="463.21 150.76 466.16 149.27 461.43 140.02 465.73 137.82 469.91 145.93 472.85 144.42 468.69 136.3 472.18 134.51 476.73 143.35 479.66 141.82 473.38 129.57 456.73 138.13 463.21 150.76"/>
  <polygon class="cls-1" points="465.84 156.97 480.47 151.46 480.5 151.51 467.08 160.22 468.42 163.81 484.29 161.56 484.3 161.6 469.67 167.13 470.96 170.54 488.48 163.93 486.49 158.64 471.5 160.73 471.47 160.68 484.08 152.3 482.07 146.96 464.55 153.56 465.84 156.97"/>
  <polygon class="cls-1" points="475.33 187.45 478.54 186.62 475.96 176.57 480.66 175.37 482.93 184.21 486.14 183.38 483.87 174.54 487.69 173.57 490.15 183.19 493.37 182.35 489.94 169.02 471.81 173.67 475.33 187.45"/>
  <polygon class="cls-1" points="476.4 193.53 489.59 191.56 489.6 191.6 477.54 201.14 478.12 205.01 496.63 202.21 496.09 198.62 483.2 200.55 483.18 200.49 494.97 191.21 494.36 187.14 475.85 189.92 476.4 193.53"/>
  <polygon class="cls-1" points="493.98 211.54 478.6 212.35 478.8 216.26 494.18 215.44 494.48 221.1 497.79 220.92 496.99 205.71 493.68 205.89 493.98 211.54"/>
  <path class="cls-1" d="M303.77,390.63c92.06,0,166.97-74.91,166.97-166.97S395.85,56.7,303.77,56.7s-166.97,74.9-166.97,166.96,74.9,166.97,166.97,166.97Zm0-331.68c90.83,0,164.72,73.89,164.72,164.71s-73.89,164.72-164.72,164.72-164.72-73.89-164.72-164.72S212.95,58.95,303.77,58.95Z"/>
  <path class="cls-1" d="M204.28,206.86c8.81,1.76,15.87,1.76,24.67,1.76,5.29-1.76,12.34-5.28,17.63-5.28,3.53,1.75,8.8,5.28,8.8,10.56,3.53,0,7.06,1.76,10.58-1.76,1.76,1.76,5.28,3.52,5.28,5.28-3.52,8.8-8.8,22.9,3.53,28.19-1.76,1.76,1.76,3.52,0,7.05,0,3.52,5.29,7.04,7.05,10.57,0,5.28,3.53,12.34,1.76,17.63-7.05,7.05-8.81,15.86-7.05,24.67,0,3.52,3.53,7.06,3.53,10.56,7.04,17.64,10.56,33.48,15.85,49.34,1.76,1.76,0,5.28,0,8.81,3.53,0,3.53,3.53,5.28,3.53,10.58-5.28,21.15,1.76,29.96-5.28,8.8-7.06,21.15-15.87,24.67-29.96,0-3.54,7.05-5.29,10.58-7.06,3.52-5.28-3.53-12.33-1.76-17.61,7.04-7.05,19.38-8.81,22.91-15.86,3.53-14.1-1.76-28.19-3.53-42.3,0-3.52,3.53-8.8,7.06-12.32,8.8-8.81,22.89-14.11,28.19-24.67,7.04-12.32,17.62-22.9,14.11-37-7.07,5.29-17.63,8.81-26.44,8.81-1.76,0-3.52-7.05-5.28-8.81-10.57-8.81-24.68-17.62-24.68-33.48-3.51,0-2.26-2.28-3.51-3.53-8.81-8.81-10.58-22.91-15.85-35.24-1.77,0-3.55,0-5.29-1.75-10.57,10.55-22.91-7.07-35.25-5.3-5.28,1.76,1.77,10.57-5.28,10.57-1.76,0-1.76-1.76-1.76-3.52h-5.29c-5.28-3.53-7.04-7.05-14.1-8.81-7.04-1.75-5.28-10.56-1.76-15.85-15.86-7.05-38.76-3.53-56.38-1.77-5.29,0-15.87,7.07-17.63,15.88,0,5.28-8.82,5.28-14.11,7.03-8.8,3.53-12.32,12.33-17.62,19.39-3.53,5.28,0,14.1-3.53,21.15-5.28,7.05-10.57,14.1-5.28,21.15,3.54,7.05,5.28,14.1,10.58,21.15,5.28,5.29,12.33,14.11,19.38,14.11Z"/>
  <path class="cls-1" d="M424.54,287.91c-3.54,12.33-17.62,12.33-21.15,21.15-1.76,5.28,0,12.31-5.28,17.61-3.53,7.07,1.76,12.33,3.53,19.39h5.28c0-1.77,0-3.52,1.76-3.52l1.76,1.75,1.76-1.75-1.76-1.77c5.29-1.76,4.55-7.35,7.05-12.33,3.51-7.06,8.8-14.09,7.05-22.89,0-1.77,1.76-1.77,3.52-1.77,0-5.28,1.76-12.33-3.52-15.85Z"/>
  <path class="cls-1" d="M157.25,315.91l-18.07,4.39,2.11,3.23,3.69-.96,3.54,5.4-2.39,2.9,2.18,3.34,11.26-14.76-2.31-3.54Zm-6.75,9.54l-2.45-3.73,7.02-1.94,.03,.05-4.6,5.62Z"/>
  <polygon class="cls-1" points="165.63 339.28 160.84 333.23 163.96 330.78 169.41 337.68 171.84 335.77 164.09 326 150.37 336.86 152.64 339.74 158.41 335.16 163.21 341.19 165.63 339.28"/>
  <path class="cls-1" d="M174.5,351.93c1.63,.86,3.5,.42,4.89-.9,1.11-1.05,3.02-4.03-.2-7.42l-6.09-6.42-12.7,12.06,2.47,2.59,4.98-4.71,2.59,2.74c1.86,1.96,1.3,2.71-.43,4.36-1.31,1.24-1.86,1.97-2.3,2.72l2.78,2.93,.34-.33c-.33-.76,.13-1.2,1.99-2.96,2.36-2.25,2.22-3.19,1.68-4.66Zm-4.53-6.82l3.4-3.22,3.13,3.29c1.48,1.56,.77,2.81,.1,3.44-1.25,1.2-2.37,.97-3.68-.4l-2.95-3.11Z"/>
  <rect class="cls-1" x="171.59" y="355.13" width="17.52" height="3.65" transform="translate(-204.67 248.77) rotate(-47.5)"/>
  <path class="cls-1" d="M191.28,369.83c-1.68,1.39-3.51,1.4-5.08,.12-2.42-1.93-1.62-4.92,.36-7.37,3.1-3.85,5.84-3.16,7.22-2.05,2.35,1.89,1.55,3.79,1.12,4.79l2.84,2.29c1.48-2.13,2.08-6.28-2.01-9.57-3.52-2.82-8.24-2.61-12.07,2.16-3.79,4.72-3.16,9.27,.47,12.19,3.43,2.75,7.04,2.24,9.99-.27l-2.85-2.28Z"/>
  <path class="cls-1" d="M207.24,367.06l-14.84,11.23,3.24,2.11,2.99-2.35,5.41,3.54-1.04,3.64,3.32,2.18,4.44-18.02-3.53-2.32Zm-2.39,11.45l-3.74-2.45,5.68-4.57,.04,.03-1.98,6.99Z"/>
  <polygon class="cls-1" points="221.28 389.35 221.24 389.33 220.74 375.3 217.31 373.51 209.19 389.02 212.23 390.62 218.02 379.53 218.06 379.57 218.6 393.96 221.84 395.65 229.96 380.13 226.95 378.55 221.28 389.35"/>
  <path class="cls-1" d="M245.91,386.56l-7.26-2.63-5.95,16.48,7.14,2.57c5.44,1.96,8.67-2.62,9.95-6.17,1.13-3.11,1.69-8.26-3.87-10.26Zm.27,9.25c-.97,2.7-2.93,5.19-5.73,4.19l-3.35-1.22,3.9-10.78,3.29,1.21c1.48,.53,3.65,1.76,1.89,6.62Z"/>
  <polygon class="cls-1" points="250.37 406.52 263.24 409.84 264.03 406.83 254.61 404.41 255.74 400.01 264.03 402.15 264.78 399.15 256.52 397.03 257.45 393.45 266.44 395.77 267.21 392.77 254.75 389.55 250.37 406.52"/>
  <polygon class="cls-1" points="274.13 407.46 274.09 407.45 272.52 393.75 268.64 393.11 271.64 411.35 275.09 411.92 283.79 395.59 280.02 394.96 274.13 407.46"/>
  <polygon class="cls-1" points="284.3 413.19 297.56 414.14 297.78 411.07 288.11 410.36 288.43 405.83 296.95 406.45 297.17 403.35 288.66 402.75 288.92 399.07 298.18 399.74 298.41 396.65 285.56 395.73 284.3 413.19"/>
  <polygon class="cls-1" points="305.03 410.99 304.84 396.63 301.18 396.68 301.41 414.2 313.77 414.04 313.75 410.87 305.03 410.99"/>
  <path class="cls-1" d="M323.07,395.19c-2.3,.24-8.27,1.87-7.41,10.06,.86,8.18,7.04,8.52,9.35,8.28,2.3-.24,8.26-1.87,7.39-10.06-.87-8.17-7.04-8.53-9.34-8.28Zm1.6,15.26c-1.95,.22-4.85-.7-5.37-5.59-.51-4.87,2.12-6.37,4.08-6.58,1.97-.22,4.87,.71,5.38,5.58,.5,4.88-2.12,6.39-4.1,6.59Z"/>
  <path class="cls-1" d="M341.61,392.69l-7.84,1.62,3.53,17.16,3.58-.76-1.27-6.18,4.1-.86c4.63-.95,4.67-5.04,4.35-6.59-.7-3.37-3.13-5.09-6.45-4.4Zm.71,8.19l-3.31,.69-1.04-5.04,2.84-.59c2.22-.46,3.29,.04,3.65,1.72,.15,.76,.55,2.67-2.13,3.21Z"/>
  <polygon class="cls-1" points="360.06 387.64 361.23 401.75 361.19 401.76 354.01 389.55 348.92 391.14 354.18 407.86 357.44 406.84 353.04 392.86 353.08 392.85 360.54 405.87 363.95 404.79 362.68 389.82 362.71 389.82 367.12 403.78 370.38 402.75 365.12 386.05 360.06 387.64"/>
  <polygon class="cls-1" points="376.77 396.76 374.98 392.6 382.82 389.21 381.59 386.36 373.76 389.73 372.29 386.36 380.83 382.68 379.6 379.83 367.79 384.95 374.71 401.01 386.91 395.76 385.69 392.9 376.77 396.76"/>
  <polygon class="cls-1" points="391.52 373.48 397.38 384.18 397.33 384.21 385.38 376.84 381.99 378.69 390.41 394.06 393.41 392.42 387.41 381.45 387.45 381.44 399.72 388.96 402.93 387.2 394.5 371.85 391.52 373.48"/>
  <polygon class="cls-1" points="409.31 365.72 407.58 363.15 395.76 371.08 397.47 373.67 401.88 370.7 409.92 382.68 412.95 380.64 404.92 368.66 409.31 365.72"/>
  <path class="cls-1" d="M428.24,356.5c.32-.77,.92-2.22-.74-4.11-1.19-1.36-3.79-2.66-7.01,.15l-6.42,5.61,11.51,13.19,5.59-4.88c2.71-2.35,3.02-3.44,3.12-4.83,.11-1.3-.31-2.67-1.22-3.73-1.14-1.31-2.69-2.22-4.83-1.4Zm-9.53,1.62l3.16-2.77c1.24-1.09,2.3-1.43,3.27-.34,.9,1.04,.41,2.21-.68,3.17l-3.24,2.83-2.51-2.88Zm10.93,5.66l-3.38,2.97-3.09-3.54,3.51-3.06c1-.86,2.37-1.3,3.38-.14,1.18,1.35,.92,2.6-.41,3.76Z"/>
  <path class="cls-1" d="M430.13,343.28l8.48,16.57,2.63-2.81-1.77-3.37,4.43-4.71,3.38,1.65,2.73-2.88-16.97-7.53-2.91,3.08Zm4.33,1.18l6.53,3.19-3.06,3.25-3.5-6.39,.04-.04Z"/>
  <polygon class="cls-1" points="444.91 325.89 454.56 333.37 454.53 333.4 440.62 331.42 438.27 334.47 452.1 345.21 454.21 342.5 444.32 334.85 444.36 334.82 458.61 336.81 460.84 333.91 447 323.2 444.91 325.89"/>
  <polygon class="cls-1" points="456.85 307.81 454.32 311.82 456.79 321.27 450.77 317.46 448.81 320.56 463.64 329.91 465.59 326.8 460.58 323.64 459.99 321.27 469.38 320.78 471.89 316.8 459.11 317.69 456.85 307.81"/>
  <polygon class="cls-1" points="877.31 274.13 889.77 277.95 889.77 278 875.14 281.29 873.91 285.24 891.81 290.72 892.86 287.23 880.12 283.31 880.13 283.26 895.13 279.87 896.28 276.14 878.37 270.64 877.31 274.13"/>
</svg>