<?xml version="1.0" encoding="UTF-8"?>
<svg id="Layer_1" data-name="Layer 1" xmlns="http://www.w3.org/2000/svg" viewBox="0 0 1000 444.44">
  <defs>
    <style>
      .cls-1 {
        fill: #fff;
      }
    </style>
  </defs>
  <path class="cls-1" d="M57.99,87.48c.78,0,1.56-.02,2.34-.02,73.89,0,147.78,0,221.68,0,.84,0,1.68,0,2.73,0v1.76c0,29.17,.02,58.34-.02,87.51,0,5.36-.57,10.69-1.12,16.02-.68,6.59-1.79,13.1-3.19,19.56-1.09,5-2.39,9.96-3.83,14.87-2.8,9.58-6.42,18.85-10.64,27.9-5.61,12.05-12.37,23.43-20.11,34.24-4.9,6.85-10.07,13.49-15.85,19.62-5.55,5.88-11.14,11.75-17.06,17.24-9.44,8.76-19.58,16.68-30.25,23.91-3.44,2.33-6.92,4.61-10.36,6.9-7.88-3.53-15.22-7.87-22.3-12.65-5.62-3.8-11.03-7.9-16.23-12.26-5.59-4.7-10.99-9.62-16.03-14.9-7.63-8-14.64-16.51-20.94-25.59-6.65-9.58-12.42-19.67-17.4-30.2-4.35-9.21-8.02-18.7-11-28.44-2.74-8.92-5.02-17.97-6.6-27.18-.83-4.84-1.56-9.71-2.18-14.59-.54-4.19-.86-8.4-1.28-12.6,0-1.19,.03-2.39,0-3.58,0-.21-.25-.42-.39-.62,0-28.96,0-57.91,0-86.87Zm225.5,1.29c-1.07,0-1.91,0-2.75,0-71.9,0-143.8,0-215.71,0-1.28,0-2.56,.07-3.84-.02-1.47-.1-1.98,.25-1.95,1.93,.08,4.68,.03,9.37,.03,14.05,0,7.95,0,15.9,0,23.85,0,7.88-.08,15.76,.02,23.63,.11,7.91-.46,15.83,.36,23.74,.21,2.01,0,4.03,.38,6.07,.49,2.65,.44,5.39,.89,8.08,.4,2.39,.59,4.82,.9,7.22,.15,1.24,.2,2.51,.55,3.69,.74,2.52,.87,5.15,1.47,7.7,.46,1.93,.86,3.89,1.28,5.84,.39,1.81,1.11,3.57,1.32,5.39,.31,2.69,1.39,5.17,1.92,7.8,.2,1.03,.56,2.11,.88,3.16,.73,2.35,1.7,4.64,2.34,7.01,.58,2.13,1.5,4.11,2.19,6.19,.86,2.59,1.92,5.12,2.98,7.64,1.42,3.42,2.79,6.87,4.42,10.18,1.9,3.86,3.88,7.69,5.96,11.46,2.33,4.22,4.92,8.3,7.57,12.34,2.36,3.59,4.83,7.11,7.41,10.56,2.38,3.18,4.85,6.28,7.37,9.34,1.16,1.41,2.43,2.73,3.64,4.1,1.9,2.16,3.69,4.41,5.7,6.46,2.67,2.72,5.54,5.24,8.26,7.92,3.93,3.87,8.22,7.33,12.52,10.76,2.75,2.19,5.5,4.4,8.4,6.38,3.14,2.14,6.38,4.15,9.58,6.21,4.2,2.7,8.72,4.76,13.03,7.23,.62,.36,1.68,.26,2.42,0,.89-.31,1.65-.99,2.46-1.52,4.45-2.97,8.81-6.04,13.15-9.16,4.8-3.46,9.47-7.08,14.05-10.81,3.1-2.52,6.11-5.14,9.08-7.81,2.73-2.45,5.37-5.01,8-7.57,.95-.92,1.7-2.05,2.64-2.99,3.23-3.25,6.34-6.59,9.32-10.08,2.81-3.3,5.57-6.63,8.26-10.03,3.82-4.84,7.29-9.93,10.68-15.08,1.21-1.85,2.44-3.69,3.57-5.58,1.59-2.66,3.1-5.36,4.64-8.05,.68-1.19,1.42-2.35,2-3.58,1.24-2.61,2.27-5.34,3.63-7.89,1.51-2.84,2.78-5.79,4.02-8.74,1.72-4.09,3.15-8.31,4.67-12.48,.44-1.21,.7-2.47,1.27-3.67,.6-1.26,.43-2.89,1.01-4.18,.67-1.48,.77-3.06,1.31-4.55,.44-1.22,1-2.46,1.12-3.73,.18-1.95,.9-3.74,1.29-5.63,.44-2.15,.95-4.3,1.3-6.47,.38-2.4,.48-4.84,.93-7.22,.43-2.26,.67-4.52,.88-6.8,.14-1.45,.08-2.98,.45-4.34,.35-1.28,.18-2.5,.32-3.74,.15-1.31,.39-2.62,.39-3.93,.02-29.6,.02-59.19,.02-88.79,0-.42,0-.84,0-1.5Z"/>
  <path class="cls-1" d="M57.99,174.35c.13,.21,.38,.41,.39,.62,.03,1.19,0,2.39,0,3.58h-.2s-.19,.05-.19,.05c0-1.42,0-2.84,0-4.26Z"/>
  <path class="cls-1" d="M511.03,246.31v1.59h-13.78c-.03-.49-.07-1.01-.1-1.55,.66-.33,1.23-.59,1.79-.89,1.14-.61,1.49-1.68,1.42-2.84-.15-2.38-.42-4.76-.62-7.13-.29-3.43-.58-6.86-.84-10.3-.2-2.59-.35-5.17-.81-7.83-4.62,10.19-9.25,20.37-13.86,30.53h-3.15c-.83-1.51-1.77-3.14-2.63-4.81-4.27-8.31-8.51-16.63-12.77-24.95-.22-.42-.5-.82-.93-1.52-.32,2.91-.63,5.48-.87,8.05-.5,5.4-.95,10.81-1.43,16.22-.03,.34-.18,.67-.23,1.02-.25,1.69,.34,2.8,1.93,3.58,.56,.27,1.15,.47,1.8,.72v1.7h-12.21v-1.56c.41-.22,.85-.43,1.27-.68,1.49-.87,2.4-2,2.53-3.87,.33-4.64,.82-9.26,1.27-13.89,.35-3.56,.77-7.12,1.1-10.68,.25-2.66,.43-5.33,.6-8.01,.1-1.68-.46-3.08-2.11-3.78-.95-.4-.95-1.08-.77-1.99h9.11c5.62,10.96,11.32,22.07,17.21,33.57,5.23-11.49,10.28-22.58,15.31-33.63h8.79c.05,.56,.1,1.09,.15,1.55-.9,.71-1.72,1.34-2.53,1.97,0,2.32-.09,4.59,.02,6.84,.12,2.38,.47,4.75,.65,7.13,.23,2.96,.38,5.92,.59,8.88,.28,3.87,.59,7.73,.87,11.6,.16,2.25,.88,4.13,3.22,4.95Z"/>
  <path class="cls-1" d="M353.83,203.51v1.6c-.4,.22-.9,.45-1.35,.75-1,.65-1.66,1.56-1.65,2.79,0,4.39,.03,8.78,.06,13.18,0,.06,.08,.11,.19,.24h25.34c0-.75,0-1.45,0-2.14,0-3.26,0-6.53,0-9.79,0-3.09-.29-3.59-2.98-5.06-.02-.3-.05-.65-.04-1,0-.2,.09-.39,.18-.76,4.42,.21,8.84,.34,13.43-.05,.06,.69,.11,1.28,.16,1.87-.38,.17-.64,.27-.89,.4-1.54,.78-2.3,1.97-2.24,3.75,.07,2.13,.02,4.25,.02,6.38,0,8.65,.03,17.31-.02,25.96-.01,1.99,.55,3.49,2.46,4.24,.96,.38,1.01,1.04,.85,1.99h-13.96c-.3-1.34-.28-1.32,.88-2.08,1.15-.75,2.12-1.7,2.13-3.17,.04-5.24,.01-10.47,.01-15.81h-25.49c-.03,.52-.1,1.06-.1,1.59,0,4.33,0,8.65,0,12.98,0,2.92,.33,3.45,3,4.82,.03,.22,.09,.49,.09,.76,0,.27-.04,.55-.07,.88h-13.59v-1.67c1.11-.58,2.43-1.09,2.68-2.63,.11-.69,.22-1.39,.22-2.08,.01-10.43-.03-20.85,.04-31.28,.02-2.37-.57-4.17-2.97-4.94v-1.72h13.6Z"/>
  <path class="cls-1" d="M387.05,125.15v1.64c-.32,.18-.68,.39-1.05,.58-1.31,.7-1.97,1.77-1.93,3.26,.01,.5,0,.99,0,1.49,0,10.28,.03,20.57-.03,30.85-.01,2.11,.45,3.74,2.58,4.6,.77,.31,.72,.42,.65,1.96h-14.01c-.3-1.13-.05-1.73,1.11-2.25,1.31-.59,2.06-1.83,2.06-3.4-.02-5.1,0-10.2,0-15.28-1.62-.35-22.98-.41-25.6-.07,0,1.73,0,3.49,0,5.24,0,3.19,.07,6.39-.02,9.57-.06,2.12,.71,3.54,2.73,4.25,.12,.04,.21,.18,.28,.24v1.61h-13.53c-.05-.44-.11-.97-.17-1.54,.42-.24,.77-.46,1.13-.64,1.35-.68,1.89-1.85,1.92-3.27,.04-1.77,0-3.55,0-5.32,0-9.01-.04-18.02,.03-27.02,.02-2.29-.6-4.01-2.97-4.81v-1.74c2.29-.36,4.52,.23,6.75,.17,2.24-.07,4.48-.23,6.83-.36v1.87c-.46,.24-.99,.45-1.44,.77-.9,.64-1.53,1.49-1.53,2.65-.01,4.45,0,8.91,0,13.46h25.5c.03-.52,.09-1.07,.09-1.62,0-3.55-.08-7.1,.04-10.64,.08-2.28-.72-3.82-2.97-4.58v-1.71h13.58Z"/>
  <path class="cls-1" d="M479.77,150.09c1.32,1.58,2.53,3.04,3.76,4.5,2.38,2.81,4.69,5.68,7.18,8.39,1.66,1.81,3.57,3.39,5.52,5.22-.01,.22-.03,.7-.05,1.13-.21,.12-.32,.22-.44,.24-1.32,.15-2.66,.48-3.97,.39-2.75-.17-5.45-.66-7.49-2.78-1.02-1.07-1.99-2.2-2.95-3.32-3.66-4.3-7.31-8.6-11.01-12.96h-3.88c-.04,.53-.09,1.01-.09,1.49,0,3.62,.1,7.24-.04,10.86-.08,2.09,.82,3.4,2.6,4.14,1.05,.44,1.42,1.01,1.1,2.2-2.44-.08-4.89-.24-7.35-.23-2.38,.01-4.77,.2-7.26,.32v-1.87c.34-.12,.75-.21,1.11-.4,1.42-.75,2.2-1.86,2.2-3.55-.02-11.07-.02-22.14,0-33.21,0-2.21-1.27-3.31-3.31-3.91-.03-.53-.07-1.06-.1-1.53,.25-.12,.36-.23,.48-.23,3.55-.01,7.12,.17,10.65-.07,2.96-.21,5.93-.45,8.88-.21,4.59,.38,8.87,1.67,12.03,5.33,1.51,1.75,2.48,3.8,2.54,6.13,.04,1.68,.07,3.43-.32,5.04-.75,3.11-2.81,5.32-5.58,6.87-1.28,.71-2.64,1.29-4.2,2.05Zm-13.32-3.46c2.53,0,5.02,.25,7.44-.06,3.71-.48,6.65-2.26,7.59-6.21,.29-1.21,.35-2.54,.21-3.78-.39-3.55-2.16-6.21-5.57-7.55-3.13-1.22-6.35-.76-9.67-.55v18.13Z"/>
  <path class="cls-1" d="M603.71,126.59v-1.46c.16-.06,.34-.18,.53-.18,1.49,0,2.98,.08,4.47,.03,3.81-.11,7.62-.27,11.43-.4,3.85-.13,7.57,.38,11.09,2.05,4.5,2.13,6.9,5.74,7.23,10.6,.26,3.8-1.25,6.99-4.2,9.47-1.76,1.48-3.81,2.37-6.12,3.26,.43,.59,.81,1.17,1.25,1.69,3.2,3.78,6.39,7.57,9.63,11.31,1.62,1.87,3.37,3.64,5.53,4.89v1.26c-.17,.12-.27,.25-.39,.28-2.38,.46-4.78,.6-7.15,.08-2.29-.5-4.11-1.84-5.6-3.6-4.07-4.8-8.12-9.62-12.18-14.43-.14-.16-.26-.34-.33-.43-1.4-.12-2.65-.22-4.05-.34-.04,.41-.14,.88-.14,1.35-.01,3.69,0,7.38,0,11.06,0,2.9,.53,3.65,3.4,4.72v1.69h-14.36c-.04-.46-.08-1-.13-1.62,.49-.19,.95-.33,1.37-.54,1.38-.7,2.09-1.8,2.07-3.4-.03-3.12-.01-6.24-.01-9.36,0-7.59,0-15.18,0-22.77,0-3.27-.33-3.79-3.34-5.19Zm10.99,2.35c0,5.51,0,10.88,.01,16.26,0,.46,.17,.91,.29,1.52,1.75,0,3.38,.06,5-.02,1.26-.06,2.54-.16,3.76-.45,3.21-.77,5.39-2.74,6.12-6,.29-1.28,.3-2.69,.14-4-.46-3.63-2.75-6.49-6.69-7.54-2.53-.67-5.05-.42-7.58-.25-.32,.02-.62,.27-1.06,.48Z"/>
  <path class="cls-1" d="M654.02,169.79v-1.79c.32-.14,.7-.29,1.07-.46,1.48-.69,2.29-1.82,2.27-3.5-.02-1.28,0-2.55,0-3.83,0-9.51,0-19.02,0-28.53,0-3.05-.47-3.75-3.35-4.93v-1.65c.22-.06,.41-.16,.6-.16,3.62,0,7.26,.19,10.86-.06,3.53-.24,7.06-.39,10.58-.22,2.71,.13,5.31,.76,7.91,1.76,3.26,1.26,5.98,3.08,8.39,5.51,3.46,3.49,5.25,7.75,6.02,12.55,.59,3.7,.3,7.29-.9,10.82-2.08,6.15-6.36,10.19-12.25,12.67-3.16,1.33-6.46,1.87-9.9,1.84-7.03-.06-14.06-.02-21.31-.02Zm11.06-4.02c.69,.04,1.31,.11,1.93,.12,3.39,.03,6.8,.38,10.16-.46,5.84-1.47,10-4.96,12.04-10.57,1.55-4.25,1.54-8.69,.27-13.12-.96-3.35-2.68-6.23-5.16-8.61-5.51-5.26-12.18-5.51-19.24-4.35v36.99Z"/>
  <path class="cls-1" d="M781.2,229.22h-3.96c-.04,.55-.11,1.09-.11,1.63-.01,3.47,.12,6.95-.05,10.42-.11,2.34,.84,3.75,2.88,4.61,.13,.05,.26,.09,.39,.15,.06,.03,.11,.09,.21,.18v1.6h-14.37c-.04-.45-.08-1.04-.13-1.61,.63-.28,1.16-.47,1.64-.74,1.13-.63,1.75-1.6,1.77-2.92,0-.71,0-1.42,0-2.13,0-10.14-.05-20.28,.04-30.42,.02-2.52-.67-4.28-3.35-4.93-.03-.56-.06-1.09-.09-1.56,.26-.12,.39-.22,.51-.22,3.55-.01,7.1,.03,10.64-.02,2.96-.04,5.93-.44,8.87-.23,4.58,.32,8.87,1.65,12.02,5.31,1.51,1.75,2.48,3.8,2.54,6.13,.05,1.68,.07,3.42-.32,5.04-.74,3.11-2.8,5.32-5.56,6.87-1.28,.72-2.64,1.3-4.15,2.04,.42,.55,.86,1.17,1.34,1.75,3.1,3.67,6.18,7.37,9.34,10.99,1.62,1.86,3.33,3.68,5.65,4.99,.02,.4,.05,.87,.07,1.27-.22,.16-.32,.29-.44,.31-2.38,.46-4.78,.6-7.15,.08-2.29-.5-4.11-1.84-5.6-3.61-4.07-4.8-8.12-9.62-12.18-14.43-.14-.16-.26-.33-.44-.56Zm-3.97-4.15c2.03,0,3.94,.06,5.84-.02,1.19-.05,2.41-.17,3.54-.51,2.71-.83,4.66-2.51,5.53-5.33,.52-1.68,.56-3.36,.25-5.02-.68-3.65-2.87-6-6.46-7.07-2.86-.85-5.73-.38-8.7-.3v18.26Z"/>
  <path class="cls-1" d="M611.86,205.17v-1.7h11.99c.91,1.12,.86,1.45-.41,1.97-.52,.21-1.05,.41-1.55,.66-1.04,.52-1.58,1.37-1.58,2.55,0,.43,0,.85,0,1.28,0,12.13,0,24.26,0,36.38v2.04c-1.65,.5-2.9,.06-4.06-.88-2.26-1.83-4.41-3.75-6.31-5.98-2.35-2.74-4.88-5.33-7.32-8-5.35-5.85-10.69-11.71-16.03-17.57-.33-.37-.62-.77-1.3-1,0,.6,0,1.21,0,1.81,0,8.09,0,16.17,0,24.26,0,3.6,.29,4,3.66,5.14,.04,.13,.11,.25,.12,.38,.01,.42,0,.83,0,1.37h-12.11c-.65-1.26-.62-1.47,.36-1.9,.26-.11,.55-.13,.81-.25,1.64-.74,2.52-1.92,2.46-3.8-.07-2.2-.01-4.4-.01-6.6,0-8.3,0-16.6-.02-24.89,0-.75-.25-1.5-.33-2.25-.16-1.48-1.03-2.38-2.44-2.98v-1.72h7.85c.8,.9,1.76,2.03,2.76,3.11,2.7,2.9,5.43,5.77,8.13,8.68,3.47,3.73,6.95,7.44,10.36,11.22,2.45,2.71,4.79,5.53,7.22,8.27,.35,.39,.87,.64,1.54,1.1,0-.94,0-1.63,0-2.33,0-7.73,0-15.46,0-23.19,0-3.58-.31-4.01-3.78-5.17Z"/>
  <path class="cls-1" d="M369.72,283.54v-1.74h7.75c5.94,6.45,11.93,12.95,17.92,19.46,3.21,3.49,6.43,6.97,9.64,10.46,.74,.81,1.47,1.63,2.47,2.74,.05-1.01,.1-1.55,.1-2.1,0-8.09,0-16.17,0-24.26,0-.35,0-.71,0-1.06-.02-1.24-.53-2.18-1.69-2.69-.63-.28-1.28-.52-2.04-.83v-1.69h12.19c.09,.32,.38,.79,.3,1.18-.06,.3-.57,.55-.91,.75-.66,.38-1.4,.64-2.02,1.09-.78,.56-1.19,1.37-1.16,2.36,.01,.5,0,.99,0,1.49,0,12.06,0,24.11,0,36.17v2.27c-1.51-.17-2.71-.37-3.85-1.19-2.44-1.74-4.51-3.87-6.54-6.05-2.61-2.79-5.14-5.66-7.71-8.49-3.76-4.14-7.52-8.27-11.29-12.4-1.79-1.95-3.6-3.88-5.64-6.07,0,.96,0,1.59,0,2.22,0,8.16,0,16.31,0,24.47,0,3.26,.38,3.76,3.71,4.77,.03,.55,.05,1.14,.09,1.84h-12.04c-.8-1.23-.76-1.48,.36-1.95,.19-.08,.42-.09,.61-.17,1.71-.76,2.6-1.96,2.58-3.95-.07-5.32-.02-10.64-.02-15.96,0-5.11,.01-10.21-.01-15.32,0-.76-.18-1.53-.26-2.29-.16-1.56-.98-2.59-2.54-3.07Z"/>
  <path class="cls-1" d="M894.47,247.91c-.48-1.32-.44-1.56,.35-1.96,.37-.19,.75-.34,1.14-.49,1.57-.61,2.2-1.85,2.2-3.44,0-10.64,.01-21.29-.01-31.93,0-.83-.15-1.68-.37-2.49-.33-1.23-1.12-2.09-2.41-2.37v-1.71h7.77c4.28,4.65,8.69,9.44,13.12,14.22,2.65,2.86,5.38,5.64,8,8.53,2.51,2.77,4.91,5.63,7.38,8.43,.36,.41,.88,.69,1.49,1.16,.04-.73,.1-1.27,.1-1.8,0-8.02,0-16.04,0-24.06,0-.35-.02-.71,0-1.06,.08-1.54-.69-2.53-2.06-3.11-.51-.21-1.04-.38-1.71-.62-.02-.47-.05-1.01-.08-1.7h12.31c.09,.31,.38,.78,.31,1.17-.06,.3-.57,.54-.91,.75-.71,.43-1.5,.75-2.17,1.24-.71,.52-1.04,1.3-1.01,2.21,.01,.43,0,.85,0,1.28,0,12.06,0,24.13,0,36.19v2.01c-1.68,.47-2.92,.04-4.09-.9-2.26-1.83-4.4-3.76-6.31-5.98-2.35-2.74-4.89-5.33-7.33-8-3.92-4.28-7.83-8.58-11.75-12.86-1.76-1.92-3.54-3.83-5.55-6,0,1,0,1.69,0,2.37,0,8.09,.08,16.18-.05,24.27-.04,2.51,.76,4.13,3.15,4.91,.19,.06,.36,.19,.53,.31,.05,.04,.08,.12,.06,.09v1.37h-12.11Z"/>
  <path class="cls-1" d="M861.41,203h4.68c.1,.11,.33,.24,.37,.42,1.38,5.47,3.84,10.55,5.88,15.77,2.92,7.45,6.07,14.8,9.07,22.22,.94,2.32,2.18,4.25,4.83,4.88v1.64h-14.29c-.04-.42-.08-.88-.13-1.35,.72-.52,1.4-1.01,2.08-1.5,.12-3.66-2.19-6.38-3.18-9.64h-17.4c-1.22,2.83-2.46,5.71-3.73,8.64,.66,1.11,1.74,1.73,2.9,2.31v1.54c-3.98,0-7.93,0-11.88,0-.31-1.45-.32-1.47,.82-2.01,1.42-.67,2.34-1.83,2.98-3.2,1.46-3.12,2.86-6.26,4.26-9.41,1.97-4.43,3.9-8.87,5.86-13.3,1.76-3.98,3.59-7.94,5.28-11.95,.67-1.6,1.05-3.33,1.58-5.07Zm-6.18,27.92h13.62c-1.14-2.72-2.28-5.28-3.3-7.89-1.03-2.62-2.05-5.24-3.31-8.13-2.4,5.49-4.63,10.61-7,16.02Z"/>
  <path class="cls-1" d="M569.39,124.63h4.71c.16,.2,.36,.35,.4,.54,.88,4,2.62,7.71,4.13,11.48,3.55,8.87,7.26,17.67,10.85,26.53,.92,2.27,2.13,4.11,4.74,4.74,.03,.57,.06,1.1,.09,1.71h-14.31c-.07-.42-.14-.87-.22-1.39,.71-.5,1.38-.98,2.25-1.59-.18-.93-.24-1.92-.58-2.8-.86-2.29-1.84-4.53-2.78-6.8h-17.37c-1.05,2.53-2.15,5.1-3.16,7.71-.44,1.13-.12,1.78,.95,2.5,.41,.27,.85,.49,1.37,.78,.04,.44,.07,.91,.11,1.33-.47,.47-8.67,.52-12.12,.14-.19-.69-.32-1.52,.5-1.77,2.16-.65,3.06-2.45,3.87-4.21,2.78-6.06,5.44-12.18,8.14-18.28,2.28-5.14,4.61-10.25,6.82-15.41,.68-1.6,1.05-3.34,1.61-5.18Zm-6.19,27.96h13.61c-2.2-5.43-4.35-10.74-6.55-16.18-2.37,5.44-4.67,10.7-7.06,16.18Z"/>
  <path class="cls-1" d="M710.89,247.9c-.23-.77-.33-1.6,.49-1.84,2.18-.64,3.06-2.46,3.86-4.21,2.87-6.25,5.61-12.57,8.4-18.86,2.22-5.01,4.48-10,6.63-15.04,.65-1.53,1.01-3.2,1.53-4.92h4.76c.13,.16,.33,.31,.37,.5,1.09,4.75,3.22,9.13,5.01,13.63,3.24,8.15,6.67,16.23,9.96,24.37,.92,2.27,2.13,4.12,4.74,4.73,.03,.58,.06,1.11,.09,1.71h-14.31c-.07-.42-.14-.87-.22-1.4,.71-.5,1.39-.98,2.25-1.58-.18-.94-.25-1.92-.58-2.81-.86-2.29-1.84-4.53-2.78-6.8h-17.32c-1.25,2.89-2.51,5.82-3.84,8.9,.96,.73,1.88,1.43,2.97,2.26,.02,.26,.05,.73,.1,1.35h-12.11Zm28.34-16.98c-2.18-5.39-4.33-10.68-6.59-16.25-2.2,5.65-4.85,10.72-6.86,16.25h13.45Z"/>
  <path class="cls-1" d="M421.04,124.63h4.63c.12,.11,.3,.18,.33,.29,1.27,4.76,3.3,9.25,5.12,13.8,3.19,8.02,6.51,16,9.77,24,.98,2.4,2.22,4.56,5,5.25v1.62h-14.35c-.02-.49-.05-.95-.07-1.41,.7-.48,1.33-.91,1.94-1.33,.27-1.06,.17-2.02-.23-2.95-.95-2.26-1.9-4.52-2.88-6.83h-17.28c-1.16,2.57-2.47,5.19-3.35,8-.27,.87,.17,1.53,.8,2.03,.49,.38,1.08,.64,1.65,.96v1.54h-11.91c-.42-.83-.45-1.63,.48-1.94,1.8-.59,2.71-1.97,3.44-3.52,1.43-3.05,2.81-6.13,4.18-9.21,1.97-4.42,3.91-8.86,5.87-13.29,1.76-3.98,3.58-7.94,5.27-11.95,.67-1.6,1.05-3.32,1.58-5.05Zm7.47,27.98c-2.25-5.49-4.4-10.74-6.63-16.19-1.26,2.93-2.43,5.56-3.54,8.22-1.09,2.6-2.49,5.09-3.23,7.98h13.41Z"/>
  <path class="cls-1" d="M565.37,326.29v-1.45c.64-.44,1.27-.87,1.93-1.32,.12-.95,.17-1.8-.23-2.71-1.01-2.31-1.9-4.67-2.85-7.05h-17.47c-.96,2.39-1.97,4.78-2.87,7.2-.72,1.94-.55,2.28,1.13,3.24,.3,.17,.61,.33,.98,.53v1.39c-.08,.08-.13,.18-.18,.18-3.9,0-7.8,0-11.83,0-.06-.46-.11-.91-.18-1.48,2.73-.89,3.91-3.14,4.96-5.49,1.99-4.49,3.97-8.99,5.97-13.49,2.82-6.35,5.69-12.69,8.45-19.07,.74-1.72,1.15-3.58,1.74-5.44h4.67c.13,.15,.34,.28,.39,.46,1.23,5.01,3.48,9.64,5.35,14.4,1.9,4.83,3.93,9.61,5.88,14.43,1.35,3.32,2.64,6.65,3.99,9.96,.82,2.01,1.71,2.79,4.54,4.2v1.5h-14.37Zm-3.01-16.9c-2.25-5.54-4.4-10.82-6.61-16.26-2.4,5.49-4.69,10.74-7.08,16.23,4.55,.05,8.98,.01,13.69,.03Z"/>
  <path class="cls-1" d="M534.5,235.32c-1.31,3.04-2.52,5.85-3.77,8.74,.63,1.12,1.71,1.74,2.9,2.33,.02,.46,.05,.93,.07,1.32-.14,.14-.19,.23-.24,.23-3.9,0-7.79,0-11.78,0-.37-.75-.44-1.63,.45-1.9,2.17-.67,3-2.48,3.85-4.22,1.36-2.77,2.56-5.63,3.8-8.46,1.92-4.37,3.81-8.76,5.74-13.12,1.79-4.05,3.68-8.05,5.41-12.12,.68-1.6,1.04-3.33,1.58-5.1h4.94c.19,.66,.33,1.34,.56,1.98,1.27,3.42,2.48,6.86,3.85,10.24,3.55,8.79,7.23,17.52,10.74,26.33,.93,2.33,2.25,4.02,4.73,4.74v1.68h-14.23c-.06-.46-.11-.92-.17-1.43,.71-.5,1.39-.98,1.95-1.38,.4-1.33,.03-2.42-.38-3.45-.84-2.08-1.78-4.12-2.78-6.41-5.67,0-11.39,0-17.24,0Zm15.48-4.39c-2.22-5.43-4.38-10.73-6.61-16.2-2.25,5.5-4.76,10.66-6.89,16.2h13.5Z"/>
  <path class="cls-1" d="M728.59,305.04v17.12c.61,0,1.15,0,1.7,0,3.76,0,7.53,.03,11.29-.02,1.11-.02,2.24-.2,3.33-.44,2.14-.47,3.62-1.83,4.65-3.86,.53,.08,1.05,.15,1.78,.26-.4,2.9-.78,5.67-1.18,8.57-10.84-.63-21.65-.22-32.58-.29-.03-.55-.06-1.08-.09-1.66,.39-.17,.7-.32,1.02-.44,1.51-.55,2.14-1.74,2.36-3.21,.06-.42,.01-.85,.01-1.28,0-10.5,0-21,0-31.5,0-2.8-.64-3.73-3.32-4.76v-1.7c.24-.04,.5-.13,.76-.13,8.95,0,17.9,0,26.84,0,1.68,0,3.36,0,5.09,0v8.69c-.65,.09-1.25,.18-1.8,.26-.47-.82-.8-1.59-1.3-2.23-1.3-1.65-3.05-2.5-5.15-2.52-4.4-.02-8.8,0-13.18,0-.38,1.52-.48,11.03-.15,14.96,.44,.02,.91,.07,1.38,.07,3.27,0,6.53-.03,9.8,.02,1.52,.02,2.75-.44,3.75-1.61,.6-.7,.64-.66,2.06-.5v8.22c-.91,.48-1.62,.23-2.23-.51-.92-1.12-2.15-1.51-3.56-1.51-3.69,.01-7.37,0-11.27,0Z"/>
  <path class="cls-1" d="M412.98,205.04c-.64,.39-1.21,.77-1.81,1.09-1.05,.56-1.47,1.47-1.51,2.6-.02,.64,0,1.28,0,1.92,0,7.73,0,15.47,0,23.2,0,3.37,1.27,6.17,3.82,8.37,1.53,1.33,3.37,2.12,5.34,2.36,4,.48,7.89,.06,11.45-2.06,3.25-1.93,4.97-4.77,5.02-8.51,.07-5.96,.02-11.92,.03-17.88,0-2.06,0-4.11,0-6.17,0-3.16-.57-3.89-3.74-4.74v-1.69h12.12c.04,.45,.08,1.04,.12,1.59-3.63,1.36-3.84,1.66-3.84,5.43,0,7.31,0,14.61,0,21.92,0,3.53-.78,6.82-2.87,9.76-2.02,2.84-4.86,4.39-8.1,5.41-3.74,1.18-7.58,1.41-11.45,1.14-3.62-.25-7.04-1.15-9.99-3.44-2.75-2.13-4.33-4.99-5.06-8.29-.38-1.71-.49-3.5-.5-5.25-.05-7.16-.1-14.33,.02-21.5,.04-2.7-.53-4-3.77-5.12v-1.69h14.71v1.56Z"/>
  <path class="cls-1" d="M499.85,125.04h14.54c.05,.56,.11,1.1,.16,1.69-1.14,.73-2.97,.42-3.23,2.34,4.07,9.91,8.19,19.94,12.43,30.26,.57-1.23,1.02-2.16,1.43-3.11,3.47-8.07,6.91-16.15,10.4-24.21,.48-1.11,.44-2.21,.34-3.33-.12-1.2-1.06-1.56-2.15-1.72v-1.8h11.75c.03,.45,.08,1.04,.13,1.74-2.15,.29-3.25,1.65-4.02,3.43-1.71,3.93-3.48,7.84-5.19,11.77-1.6,3.67-3.15,7.36-4.74,11.03-2.4,5.54-4.82,11.08-7.24,16.62-.08,.19-.18,.38-.3,.65h-4.13c-.94-2.21-1.92-4.45-2.84-6.71-2.76-6.76-5.5-13.53-8.24-20.3-1.74-4.29-3.46-8.58-5.2-12.87-.6-1.46-1.35-2.84-2.98-3.36-1.09-.35-1.14-1.06-.92-2.11Z"/>
  <path class="cls-1" d="M696.64,283.46v-1.6h11.74v1.73c-2.04,.29-3.18,1.72-3.98,3.55-2.3,5.28-4.63,10.55-6.92,15.83-2.07,4.76-4.12,9.54-6.18,14.31-1.25,2.9-2.49,5.81-3.74,8.71-.17,.38-.39,.74-.6,1.13h-4.02c-.29-.63-.65-1.3-.93-2-3.11-7.67-6.21-15.34-9.32-23.01-1.98-4.88-3.98-9.74-5.96-14.62-.74-1.82-1.66-3.45-3.79-3.87v-1.96c4.78,.2,9.48,.31,14.3-.05,.07,.68,.12,1.22,.16,1.69-.16,.17-.24,.33-.35,.36-2.88,.77-3,1.79-2.05,4.06,3.65,8.74,7.16,17.53,10.74,26.3,.24,.58,.53,1.13,.91,1.93,.54-1.19,1.01-2.19,1.44-3.21,3.44-8,6.87-16,10.3-24.01,.19-.45,.38-.92,.43-1.4,.29-2.38-.02-2.91-2.18-3.9Z"/>
  <path class="cls-1" d="M663.93,202.98c13.88,.57,27.65,.62,41.53-.03v9.96c-.61,.04-1.21,.08-1.81,.12-.11-.3-.19-.49-.25-.68-.98-2.93-2.45-4.53-6.32-4.39-2.82,.1-5.64,.02-8.63,.02,0,.7,0,1.25,0,1.79,0,10.36,0,20.71,0,31.07,0,3.26,.62,4.09,3.82,5.17,.12,.04,.23,.14,.44,.27,0,.28,.01,.63,0,.98-.01,.2-.08,.39-.13,.67h-15.81v-1.75c.38-.16,.9-.33,1.38-.6,1.63-.9,2.69-2.08,2.68-4.15-.06-10.85-.03-21.7-.03-32.55,0-.21-.03-.41-.05-.77-.46-.04-.92-.1-1.38-.11-2.41-.01-4.83,.08-7.24-.03-3.93-.18-5.4,1.77-6.23,4.49-.04,.13-.09,.26-.18,.5-.22,.02-.48,.05-.75,.07-.28,.01-.57,0-1.03,0v-10.03Z"/>
  <path class="cls-1" d="M585.05,281.31c13.87,.61,27.59,.65,41.55-.02,.21,3.28-.06,6.57-.02,9.96h-1.81c-.2-.51-.42-1.17-.72-1.79-.97-2.01-2.53-3.14-4.82-3.14-3.17,0-6.35,0-9.64,0,0,.67,0,1.15,0,1.64,0,10.36,0,20.72,0,31.07,0,3.45,.66,4.32,4.16,5.44v1.73h-15.88v-1.72c.46-.18,1-.33,1.47-.61,1.52-.89,2.62-2,2.61-3.99-.04-10.92-.02-21.85-.02-32.78,0-.2-.05-.4-.09-.74-3.54,0-7.07-.09-10.59,.04-1.85,.07-3.04,1.35-3.76,3.01-.25,.57-.43,1.18-.66,1.85h-1.78v-9.97Z"/>
  <path class="cls-1" d="M458.05,291.34h-1.75v-10.03c13.77,.68,27.55,.48,41.55,.19,.21,3.02-.08,6.23-.01,9.57-.62,.14-1.14,.26-1.67,.38-.15-.25-.27-.42-.35-.6-.21-.52-.35-1.08-.61-1.57-.99-1.9-2.5-2.98-4.73-2.96-3.12,.03-6.24,0-9.52,0-.04,.57-.12,1.1-.12,1.63,0,10.5,.05,21-.05,31.49-.02,2.33,.85,3.76,2.93,4.59,.39,.16,.76,.35,1.27,.59,.03,.5,.06,1.02,.08,1.55h-15.58c-.68-1.3-.65-1.44,.47-1.97,.44-.21,.88-.42,1.31-.67,1.33-.78,1.96-1.89,1.93-3.49-.07-4.11-.02-8.23-.02-12.34,0-6.53,0-13.05,0-19.58,0-.55,0-1.11,0-1.8-3.46,0-6.77-.07-10.08,.03-2.05,.06-3.54,1.12-4.32,3.07-.23,.58-.45,1.17-.73,1.9Z"/>
  <path class="cls-1" d="M637.48,283.51v-1.73h15.1c.04,.55,.08,1.14,.13,1.8-.39,.1-.65,.15-.91,.24-1.85,.64-2.99,1.94-2.97,4.29,.09,10.63,.04,21.26,.04,31.9,0,.07,0,.14,0,.21,.02,2.18,.53,2.88,2.65,3.72,.38,.15,.73,.4,1.09,.6v1.72h-15.11c-.04-.54-.08-1.13-.11-1.6,.17-.19,.21-.27,.26-.29,3.47-1.04,3.59-1.94,3.58-4.76-.04-10.42-.02-20.84-.01-31.26,0-.43,0-.85,0-1.28,0-1.25-.53-2.17-1.67-2.69-.63-.29-1.28-.54-2.07-.87Z"/>
  <path class="cls-1" d="M339.86,283.53v-1.7h15.19c.03,.51,.06,1.05,.1,1.68-.43,.14-.83,.25-1.2,.4-1.81,.75-2.69,1.98-2.68,4.07,.07,10.71,.03,21.41,.03,32.12,0,2.46,.42,3.09,2.64,4.01,.32,.13,.66,.19,1.08,.31v1.86h-15.09c-.05-.55-.1-1.09-.16-1.68,.75-.31,1.45-.59,2.14-.89,1.15-.51,1.71-1.42,1.73-2.66,0-.43,0-.85,0-1.28,0-10.42,0-20.85,0-31.27,0-3.35-.36-3.83-3.79-4.96Z"/>
  <path class="cls-1" d="M508.71,283.51v-1.7h15.15v1.72c-.42,.16-.87,.31-1.31,.5-1.64,.72-2.46,1.89-2.44,3.78,.06,6.6,.02,13.2,.02,19.8,0,4.12,.08,8.23-.03,12.35-.08,3.01,1.01,3.43,2.94,4.24,.25,.1,.52,.14,.84,.22v1.75h-15.14c-.04-.46-.09-.99-.13-1.55,.23-.12,.39-.26,.58-.31,2.62-.7,3.28-1.5,3.29-4.13,0-10.65,0-21.29,0-31.94,0-3.03-.39-3.56-3.32-4.53-.13-.04-.24-.11-.44-.21Z"/>
  <path class="cls-1" d="M637.85,205.22v-1.86c5.01,.07,9.99,.45,15.14-.12,.06,.73,.11,1.32,.15,1.87-2.94,1.19-3.9,1.41-3.86,5.46,.08,10.07,.08,20.14,0,30.22-.03,3.91,.8,4.24,3.79,5.42,.02,.24,.07,.52,.07,.79,0,.27-.05,.54-.08,.83h-15.15c-.04-.46-.08-1-.13-1.62,.68-.24,1.34-.45,1.97-.71,1.16-.47,1.75-1.37,1.88-2.59,.03-.28,.01-.57,.01-.85,0-10.92,0-21.85,0-32.77,0-2.21-.58-2.99-2.66-3.74-.32-.12-.67-.19-1.13-.32Z"/>
  <path class="cls-1" d="M429.81,283.54v-1.83c5.02,.08,10,.44,15.14-.12,.06,.73,.1,1.32,.15,1.87-2.96,1.18-3.9,1.43-3.86,5.46,.08,10.28,.03,20.57,.03,30.86,0,3.04,.34,3.5,3.34,4.52,.12,.04,.23,.15,.41,.27,.02,.22,.07,.49,.07,.77,0,.27-.04,.54-.07,.85h-15.14c-.04-.45-.09-.99-.14-1.62,.68-.25,1.33-.47,1.97-.72,1.17-.46,1.76-1.36,1.88-2.58,.03-.28,.02-.57,.02-.85,0-10.92,0-21.85,0-32.77,0-.28,.02-.57-.01-.85-.13-1.22-.72-2.13-1.88-2.6-.58-.24-1.18-.41-1.9-.65Z"/>
  <path class="cls-1" d="M831.25,246.16v1.67h-15.16c-.03-.48-.07-1.02-.1-1.53,1.25-.58,2.44-1.13,3.73-1.73,.04-.98,.11-1.96,.11-2.93,0-10.64,0-21.29,0-31.93,0-.43,.02-.85-.02-1.28-.13-1.22-.72-2.12-1.89-2.59-.58-.23-1.18-.41-1.85-.65v-1.68h15.12c.03,.47,.07,1.06,.11,1.64-.71,.28-1.3,.5-1.87,.73-1.33,.54-1.93,1.57-1.95,2.97,0,.28,0,.57,0,.85,0,10.64,0,21.29,0,31.93,0,.35-.04,.71,0,1.06,.15,1.18,.66,2.14,1.78,2.67,.63,.29,1.28,.52,1.97,.8Z"/>
  <path class="cls-1" d="M283.49,88.77c0,.67,0,1.09,0,1.5,0,29.6,0,59.19-.02,88.79,0,1.31-.24,2.62-.39,3.93-.14,1.24,.02,2.46-.32,3.74-.37,1.37-.31,2.89-.45,4.34-.21,2.28-.45,4.54-.88,6.8-.45,2.38-.55,4.82-.93,7.22-.34,2.17-.86,4.31-1.3,6.47-.38,1.88-1.11,3.67-1.29,5.63-.12,1.27-.68,2.51-1.12,3.73-.53,1.49-.64,3.07-1.31,4.55-.58,1.28-.4,2.91-1.01,4.18-.57,1.2-.83,2.45-1.27,3.67-1.52,4.18-2.94,8.39-4.67,12.48-1.24,2.95-2.51,5.9-4.02,8.74-1.36,2.55-2.38,5.27-3.63,7.89-.58,1.23-1.32,2.39-2,3.58-1.54,2.69-3.05,5.39-4.64,8.05-1.13,1.9-2.36,3.74-3.57,5.58-3.39,5.15-6.86,10.23-10.68,15.08-2.68,3.4-5.45,6.73-8.26,10.03-2.97,3.49-6.09,6.83-9.32,10.08-.94,.94-1.69,2.07-2.64,2.99-2.63,2.56-5.27,5.11-8,7.57-2.97,2.67-5.99,5.29-9.08,7.81-4.59,3.73-9.25,7.35-14.05,10.81-4.34,3.13-8.71,6.2-13.15,9.16-.81,.54-1.57,1.22-2.46,1.52-.73,.25-1.8,.35-2.42,0-4.31-2.47-8.83-4.53-13.03-7.23-3.2-2.06-6.43-4.07-9.58-6.21-2.9-1.98-5.65-4.19-8.4-6.38-4.31-3.43-8.59-6.89-12.52-10.76-2.72-2.68-5.59-5.2-8.26-7.92-2.01-2.05-3.8-4.31-5.7-6.46-1.21-1.37-2.48-2.69-3.64-4.1-2.52-3.06-4.99-6.16-7.37-9.34-2.58-3.45-5.06-6.97-7.41-10.56-2.64-4.03-5.24-8.12-7.57-12.34-2.08-3.77-4.06-7.6-5.96-11.46-1.63-3.32-2.99-6.77-4.42-10.18-1.05-2.52-2.11-5.05-2.98-7.64-.69-2.08-1.62-4.07-2.19-6.19-.65-2.37-1.61-4.66-2.34-7.01-.32-1.04-.68-2.13-.88-3.16-.52-2.63-1.61-5.11-1.92-7.8-.21-1.82-.93-3.58-1.32-5.39-.42-1.95-.82-3.92-1.28-5.84-.61-2.55-.73-5.18-1.47-7.7-.35-1.18-.4-2.46-.55-3.69-.3-2.41-.49-4.83-.9-7.22-.45-2.68-.39-5.42-.89-8.08-.38-2.04-.18-4.06-.38-6.07-.82-7.9-.26-15.83-.36-23.74-.11-7.88-.02-15.76-.02-23.63,0-7.95,0-15.9,0-23.85,0-4.68,.05-9.37-.03-14.05-.03-1.68,.48-2.03,1.95-1.93,1.27,.09,2.56,.02,3.84,.02,71.9,0,143.8,0,215.71,0,.84,0,1.68,0,2.75,0Zm-59.24,143.19c-.83-.71-1.64-1.66-2.66-2.2-1.24-.66-2.66-.55-4.08-.35-1.27,.18-2.56,.62-3.89-.08-1.33-.7-2.76-1.21-4.17-1.72-1.12-.41-2.18-.32-3.3,.29-3.11,1.7-6.59,2.1-10.03,2.17-4.5,.1-9.02-.23-13.53-.37-.21,0-.45,.06-.64-.02-1.71-.67-3.38-.56-5.11,0-.98,.31-2.03,.38-3.15,.57-1.64,1.45-1.65,1.47-3.71,.43-1.89-.96-3.96-1.21-6.01-1.35-1.94-.14-3.9,.08-5.86,.29-3.2,.34-6.46,.07-9.69,.45-1.77,.21-3.61-.34-5.42-.32-1.67,.02-3.03-.84-4.55-1.25-.7-.19-1.39-.61-1.95-1.08-1.84-1.53-2.18-1.55-3.74,.21-.27,.31-.42,.71-.69,1.02-.32,.37-.66,.91-1.07,.99-1.62,.32-3.22,.85-4.93,.28-.69-.23-1.6-.3-2.24-.03-1,.42-1.91,1.12-2.72,1.86-.34,.31-.38,1.01-.47,1.54-.07,.41-.02,.85-.02,1.27,0,2.76,0,5.51,0,8.24-1.04,.73-1.86,1.04-3.16,.74-2.76-.63-5.32-.22-7.5,2.05-1.62,1.69-1.6,5.74,.06,7.02,.61,.47,1.15,.94,1.95,1.11,1.4,.31,2.76,.88,4.17,1.08,.92,.13,1.91-.2,3.14-.35,.24,.25,.63,.66,.92,.96,0,8.5-.01,16.8,.01,25.1,0,1.45-.41,2.59-1.67,3.3-1.39-.1-2.75,.21-4.02-.4-.23-.11-.6-.09-.83,.02-1.57,.73-3.3,1.29-4.25,2.88-.49,.81-.76,1.75-1.14,2.67,.09,.16,.23,.33,.29,.52,1.09,3.26,3.32,4.93,6.63,4.96,1.13,0,2.27,0,3.35,0,.55,.4,1.06,.76,1.65,1.19-.19,4.28,.23,8.57,.97,12.81,1.33,.99,2.72,1.5,4.35,1.34,1.74-.17,3.48-.39,5.22-.39,11.72-.03,23.44-.02,34.85-.02,1.58,.96,2.92,1.81,4.31,2.59,.4,.23,.97,.43,1.37,.31,1.11-.31,2.29-.62,3.23-1.25,1.82-1.2,3.82-1.64,5.9-1.65,9.59-.05,19.18-.04,28.77-.02,1.17,0,2.37-.25,3.53,.34,.33,.17,.96-.06,1.38-.27,.91-.46,1.85-.58,2.84-.52,1.34,.08,2.63-.14,3.94-.39,1.45-.28,2.99-1.55,2.93-3.5-.06-2.06-.05-4.12,0-6.17,.03-1.03,.14-2.09,.44-3.07,.16-.52,.72-1.11,1.24-1.3,1.15-.42,2.39-.85,3.59-.83,1.98,.03,3.35-1.16,4.88-2.01,.42-.23,.85-.91,.84-1.38-.02-1.38,.26-2.76-.26-4.17-.35-.93-.75-1.52-1.63-1.98-1.92-1-3.96-1.22-6.06-1.17-1.16,.03-2.26-.02-3.08-1.15,0-.36-.02-.78,0-1.19,.21-4.79-.31-9.58,.37-14.38,.32-2.3,.07-4.68,.05-7.02,0-1.34,.25-2.55,.73-3.84,.46-1.26,1.21-1.77,2.22-1.74,1.53,.06,2.86-.53,4.23-.94,2.02-.6,3.04-2.11,3.06-4.21,0-.63,0-1.27,0-2.23-.46-.38-1.08-.86-1.66-1.38-1.12-1.01-2.3-1.73-3.93-1.56-1.25,.13-2.52,.03-3.66,.03-.97-1.62-.98-1.62-.98-2.9,0-2.76,0-5.53,0-8.48ZM68.55,136.04c-1.86,1.61-1.98,1.58-2.66,3.88-.62,2.13-.48,4.58,2.54,5.51,1.25,.38,2.47,.47,3.72,.35,1.66-.15,2.2-.05,3.74,1.18-.04,9.34,.05,18.74,0,28.24-1.37,0-2.5-.07-3.62,.01-1.97,.14-3.67,.78-5.24,2.14-2.46,2.13-1.33,6.67,1.21,8.11,1.39,.78,2.79,.87,4.25,.79,1.46-.08,2.6,.4,3.39,1.58,0,3.32-.02,6.58,0,9.85,.02,2.04,.94,3.02,2.88,3.05,7.14,.11,14.28-.2,21.42,.39,2.89,.24,5.82,.08,8.74,.04,1.24-.02,2.25,.29,3.29,1.05,1.87,1.37,3.98,2.25,6.41,1.94,.42-.05,.85,0,1.03,0,1.62-.58,2.14-1.95,2.96-2.99h35.15c1.36-.73,1.95-1.93,2.09-3.27,.24-2.22,.32-4.46,.43-6.7,.05-.99,0-1.98,0-3.19,.54-.29,1.14-.58,1.71-.93,1.12-.68,2.34-.37,3.52-.37,1.08,0,2.14-.2,2.96-.8,2.63-1.94,3.04-5.23,1.52-7.96-.56-1-1.51-1.71-2.76-2.11-1.69-.54-3.39-.65-5.08-.69-.54-.58-1.02-1.1-1.41-1.52,0-7.82,0-15.48,0-23.15,0-3.14,.67-3.81,3.81-3.81,1.56,0,3.05-.32,4.26-1.31,.72-.59,1.25-1.42,1.72-1.98,0-1.26,0-2.26,0-3.25-.03-2.46-1.61-4.08-4.02-4.12-.57-.01-1.14-.06-1.7,0-1.4,.17-2.63-.12-3.6-1.14-.39-3.83,.72-7.77-1.1-11.48-.46-.31-.98-.66-1.52-1.03h-7.3c-.79-.94-1.71-2.03-2.42-2.87-1.48-.23-2.36,.16-3.32,.72-2.2,1.29-4.56,2.26-7.2,2.16-2.17-.08-4.32,0-6.51-.33-2.64-.39-5.39-.14-8.08-.06-1.02,.03-2.2,.09-3,.6-1.74,1.11-3.28,.83-4.9-.07-.74-.42-1.52-.61-2.39-.59-2.41,.05-4.83-.04-7.25,.05-3.18,.11-6.32-.25-9.48-.46-.27-.02-.54-.1-.8-.19-1.42-.49-2.82-1.06-4.27-1.48-1.04-.3-2.14-.4-3.19-.59-.85,1.03-1.55,1.88-2.21,2.69-1.95,0-3.79,.02-5.64,0-1.78-.03-3.31,.45-4.33,2.08v9.97c-2.05,2.78-5.07,1.83-7.76,2.03Zm200.88,51.83c.9-1.18,1.95-1.73,3.34-1.6,.49,.04,1-.05,1.49,.02,1.42,.2,2.64-.36,3.7-1.13,1.01-.73,1.62-1.73,1.94-3.08,.87-3.66-1.41-6.87-5.12-6.89-.5,0-1,.06-1.49-.01-1.41-.2-2.76-.59-3.23-2.16-.18-.59-.18-1.24-.18-1.87,0-6.67,.05-13.34-.01-20-.02-1.89,.21-3.58,1.7-4.9,.92,0,1.85-.07,2.76,.02,1.06,.1,1.85-.47,2.75-.84,1.81-.75,2.56-1.74,2.59-3.57,.01-.85,0-1.7,0-2.55-.02-1.86-.68-2.6-2.45-3.33-1.18-.48-2.34-.31-3.51-.39-1.34-.09-2.64-.31-3.41-1.58,0-2.65,.04-5.28-.01-7.9-.04-2.17-1.05-3.76-2.77-4-1.44-.2-2.93-.02-4.4,.04-.67,.03-1.34,.2-2.07,.31-.68-.85-1.29-1.61-1.89-2.38-.79-1.02-2.17-1.4-3.37-.88-.57,.25-1.15,.51-1.66,.85-1.89,1.28-4.03,1.75-6.24,1.89-2.24,.13-4.47-.12-6.71-.34-2.67-.26-5.39-.03-8.09-.06-1.43-.02-2.77,.03-3.91,1.14-.38,.37-1.17,.55-1.71,.46-.79-.13-1.65-.45-2.25-.96-.68-.58-1.35-.65-2.14-.65-3.2,.01-6.39,.04-9.59,0-2.17-.02-4.35,.22-6.49-.42-1.64-.49-3.39-.42-4.99-1.23-1.33-.67-2.78-1.34-4.44-.78-.67,.8-1.38,1.65-2.03,2.43-2.23,0-4.28,0-6.34,0-2.49,.01-3.72,1.23-3.74,3.71-.02,2.34,0,4.68-.02,7.02-.03,1.96-1.3,3.23-3.28,3.3-.99,.04-1.99,.06-2.98,0-1.33-.08-2.4,.5-3.05,1.52-.9,1.4-1.4,2.99-1.31,4.7,0,.2,.11,.39,.19,.58,.77,2.05,2.16,3,4.44,3.02,1.49,.01,2.97,0,4.59,0,.46,.45,.96,.94,1.35,1.32v27.37c-.63,.43-1.19,.81-1.81,1.24-1.2-.91-2.39-.25-3.6-.2-1.65,.07-2.8,.82-3.79,1.91-2.58,2.82-1.36,7.18,2.26,8.42,.88,.3,1.75,.46,2.66,.4,1.45-.1,2.71,.38,3.97,1.15v11.38c1.63,1.76,1.92,1.99,3.4,1.95,9.2-.25,18.39,.43,27.59,.44,.92,0,1.85,.01,2.77,0,.79-.01,1.43,.13,2.13,.65,1.48,1.11,3.15,1.91,4.99,2.37,2.28,.57,3.79,.11,5.15-1.84,.32-.45,.74-.83,1.05-1.18,11.07,0,22.01,0,32.94,0,.28,0,.57,.01,.85,0,1.48-.09,2.88-1.26,3.06-2.68,.2-1.59,.35-3.19,.41-4.78,.07-1.77,.02-3.55,.02-5.43Z"/>
  <path class="cls-1" d="M224.26,231.96c0,2.95,0,5.71,0,8.48,0,1.28,0,1.28,.98,2.9,1.14,0,2.41,.1,3.66-.03,1.63-.17,2.81,.55,3.93,1.56,.58,.52,1.2,1,1.66,1.38,0,.96,0,1.59,0,2.23-.02,2.1-1.04,3.61-3.06,4.21-1.38,.41-2.7,1-4.23,.94-1.01-.04-1.76,.47-2.22,1.74-.47,1.29-.74,2.51-.73,3.84,.02,2.34,.27,4.72-.05,7.02-.67,4.79-.16,9.59-.37,14.38-.02,.42,0,.84,0,1.19,.82,1.13,1.92,1.18,3.08,1.15,2.1-.05,4.14,.17,6.06,1.17,.87,.45,1.28,1.04,1.63,1.98,.53,1.41,.24,2.79,.26,4.17,0,.47-.42,1.15-.84,1.38-1.54,.85-2.91,2.03-4.88,2.01-1.2-.02-2.44,.41-3.59,.83-.52,.19-1.08,.78-1.24,1.3-.3,.98-.41,2.04-.44,3.07-.06,2.06-.07,4.12,0,6.17,.05,1.95-1.48,3.22-2.93,3.5-1.31,.25-2.61,.47-3.94,.39-.99-.06-1.93,.07-2.84,.52-.41,.21-1.04,.44-1.38,.27-1.16-.6-2.36-.34-3.53-.34-9.59-.02-19.18-.03-28.77,.02-2.08,.01-4.08,.45-5.9,1.65-.95,.62-2.12,.93-3.23,1.25-.4,.11-.97-.09-1.37-.31-1.38-.78-2.73-1.63-4.31-2.59-11.41,0-23.13-.02-34.85,.02-1.74,0-3.48,.22-5.22,.39-1.63,.16-3.01-.35-4.35-1.34-.75-4.23-1.16-8.53-.97-12.81-.59-.43-1.1-.79-1.65-1.19-1.08,0-2.22,0-3.35,0-3.31-.02-5.54-1.7-6.63-4.96-.06-.19-.2-.36-.29-.52,.38-.92,.65-1.86,1.14-2.67,.95-1.59,2.68-2.15,4.25-2.88,.23-.11,.61-.13,.83-.02,1.28,.61,2.63,.3,4.02,.4,1.26-.71,1.68-1.85,1.67-3.3-.02-8.3-.01-16.6-.01-25.1-.29-.3-.67-.71-.92-.96-1.23,.16-2.22,.49-3.14,.35-1.41-.2-2.77-.77-4.17-1.08-.8-.18-1.33-.64-1.95-1.11-1.66-1.28-1.68-5.33-.06-7.02,2.18-2.27,4.74-2.68,7.5-2.05,1.3,.3,2.12-.01,3.16-.74,0-2.73,0-5.48,0-8.24,0-.43-.06-.86,.02-1.27,.09-.53,.12-1.23,.47-1.54,.81-.74,1.72-1.43,2.72-1.86,.64-.27,1.55-.2,2.24,.03,1.71,.57,3.31,.04,4.93-.28,.41-.08,.75-.62,1.07-.99,.27-.31,.42-.72,.69-1.02,1.55-1.75,1.9-1.74,3.74-.21,.56,.47,1.25,.9,1.95,1.08,1.52,.4,2.88,1.27,4.55,1.25,1.81-.02,3.65,.53,5.42,.32,3.24-.38,6.49-.11,9.69-.45,1.96-.21,3.92-.43,5.86-.29,2.04,.15,4.11,.39,6.01,1.35,2.05,1.04,2.06,1.02,3.71-.43,1.12-.19,2.17-.26,3.15-.57,1.73-.55,3.4-.66,5.11,0,.19,.07,.42,.01,.64,.02,4.51,.14,9.02,.47,13.53,.37,3.43-.07,6.92-.47,10.03-2.17,1.12-.61,2.18-.7,3.3-.29,1.41,.52,2.85,1.02,4.17,1.72,1.33,.7,2.62,.26,3.89,.08,1.42-.2,2.84-.31,4.08,.35,1.02,.55,1.83,1.49,2.66,2.2Zm-51.17,63.81c.17-.03,.39-.02,.58-.1,2.91-1.2,5.95-1.72,9.09-1.61,2.12,.07,4.23,.26,6.35,.29,4.33,.06,8.67,.08,13,.03,1.11-.01,2.25-.25,3.32-.58,2.47-.76,3.5-2.3,3.41-4.92-.03-.91-.24-1.82-.23-2.73,.05-3.74,.19-7.49,.23-11.23,.07-6.67,.13-13.34,.1-20.01-.02-3.6-.32-7.21-.32-10.81,0-3.82,.21-7.63,.31-11.45,.02-.55-.05-1.11-.07-1.52-1.14-1.15-2.22-1.19-3.38-.41-.29,.19-.62,.33-.95,.46-2.57,1-5.11,2.11-7.97,1.17-.31-.1-.7-.02-1.05,.03-3.81,.58-7.63,.46-11.42-.03-2.54-.33-5.04-.29-7.56-.05-2.41,.23-3.5,1.53-3.54,3.87-.05,2.47-.08,4.95-.27,7.41-.15,1.96,.34,3.76,.99,5.54,2.44,6.67,4.3,13.51,5.84,20.43,.56,2.49,1.52,4.67,3.87,6,.27,.16,.34,.67,.51,1.01-1.6,1.32-3.35,.84-5.01,.8-1.17-.03-2.38-.12-3.29-1.02,1.2-3.13,.43-6.68-1.93-8.78-.6,.57-1.21,1.15-1.79,1.7,.11,2.49,.2,4.89,.33,7.28,.07,1.26,.29,2.52,.3,3.78,.03,2.91,.01,5.81-.04,8.72-.03,1.69-.17,3.38-.25,5.06-.03,.67,.11,1.27,.82,1.63Zm-38.34-64.35c.65,3.08,.47,6.26,.41,9.43-.07,4.24-.37,8.48-.38,12.71-.01,4.31,.3,8.62,.31,12.93,0,4.81-.19,9.61-.28,14.42-.06,2.98-.07,5.96-.12,8.93-.04,2.53,.36,3.26,2.9,3.86,1.91,.45,3.9,.72,5.86,.75,6.74,.09,13.49,.07,20.23,0,1.23-.01,2.41,.06,3.52,.51,1,.4,1.76,.26,2.69-.69,.07-2.92,.19-6.02,.19-9.12,0-2.11-.28-4.23-.26-6.34,.04-2.75,.28-5.5,.39-8.25,.07-1.82-.23-2.2-2.17-3-2.65,2.48-2.7,5.55-1.79,8.66-1.34,1.58-2.94,1.36-4.48,1.16-.77-.1-1.76-.21-1.84-1.34,.1-.15,.14-.34,.25-.39,2.02-.89,2.8-2.68,3.32-4.61,1.51-5.56,2.99-11.12,4.45-16.69,.63-2.38,1.47-4.74,1.72-7.16,.37-3.65,.36-7.34,.4-11.01,.02-1.93-1.5-3.66-3.28-3.84-2.11-.21-4.23-.35-6.34-.4-1.33-.03-2.67,.19-4.01,.27-2.4,.14-4.8,.34-7.2,.36-2.4,.02-4.8-.16-7.19-.22-1.43-.04-2.75-.26-4-1.11-.99-.67-2.2-1.06-3.3,.18Zm87.43,61.05c.5-.19,1.06-.54,1.66-.62,1.61-.22,3.22-.37,4.84-.44,.87-.04,1.68-.15,2.39-.67,.97-.69,.93-1.72,.76-2.7-.15-.86-.56-1.6-1.61-1.69-1.26-.1-2.52-.23-3.78-.37-.97-.11-1.98-.13-2.9-.4-1.74-.52-2.39-1.62-2.16-3.33,.07-.55,.18-1.11,.18-1.66,.03-8.59,.04-17.17,.05-25.76,0-2.59,1.08-3.74,3.66-3.89,1.48-.09,2.95-.2,4.42-.34,1.11-.11,2.03-1.12,2.15-2.28,.07-.76-.36-1.26-1.55-1.76-.19-.08-.39-.18-.6-.2-1.18-.15-2.36-.36-3.55-.38-1.48-.03-2.88-.55-3.78-1.51-1.05-1.14-1.41-2.94-.89-4.37,.93-2.54,.26-4.82-.3-7.13-1.86-1.22-2.34-.42-5.09,.02,.2,.54,.29,1.11,.6,1.51,1.07,1.38,1.25,2.94,1.25,4.6-.03,16.53-.04,33.07-.06,49.6,0,.77,0,1.57-.18,2.31-.37,1.44-.6,2.88-.57,4.37,.02,1.28-.04,2.55-.06,3.83-.02,1.11-.55,1.94-1.55,2.34-1.57,.62-3.15,1.19-4.91,1.12-2.7-.1-5.4-.1-8.09-.07-6.59,.08-13.18,.2-19.77,.31-.57,0-1.19,.14-1.69-.05-1.65-.61-3,.1-4.38,.68,.01,2.01,.64,2.75,2.36,2.86,.42,.03,.85,0,1.28,0,9.94-.04,19.89-.08,29.83-.11,2.2,0,4.4,.06,6.61,.04,3.26-.03,4.63-1.49,4.53-4.69-.04-1.13-.1-2.28,.02-3.39,.21-1.88,.57-3.74,.89-5.78Zm-110.36-43.26c.19,1.19,.95,1.9,2.04,2.18,1.01,.25,2.07,.39,3.11,.45,.99,.06,1.99,0,2.98-.07,2.37-.18,2.85,1.32,3.25,2.85,.12,.47,.06,.99,.05,1.48-.1,3.25-.27,6.49-.32,9.74-.08,6.1-.09,12.2-.13,18.3,0,1.53-.6,2.21-2.13,2.29-1.06,.06-2.13-.05-3.19-.01-1.64,.05-3.22,.42-4.61,1.31-1.09,.69-1.18,2.35-.11,3.07,.73,.49,1.64,.82,2.51,.97,.97,.16,1.98,.03,2.97,.04,2.62,.01,4.66,.99,4.66,4.43,0,2.39,.22,4.79,.35,7.18,.13,2.32,1.48,3.37,3.54,3.32,.28,0,.57,.02,.85,.02,8.93-.17,17.87,.34,26.79-.39,3.1-.25,6.21-.34,9.31-.51,.88-.05,1.55-.61,1.63-1.36,.09-.89-.54-1.3-1.23-1.49-.81-.22-1.66-.39-2.49-.39-6.11-.03-12.22-.02-18.33-.02-2.34,0-4.68,0-7.02,.07-2.75,.08-5.51,.23-8.26,.35-.73,.03-1.26-.32-1.42-1.02-.2-.88-.42-1.79-.42-2.69,.08-8.42,.29-16.85,.28-25.27,0-5.16,.32-10.33-.19-15.49-.19-1.94,.18-3.94,.21-5.91,.06-4.11,.12-8.23,.08-12.34-.01-1.39,.34-2.64,.92-3.86,.45-.94,.92-1.86,1.43-2.89-1.37-.7-2.62-.98-3.94-.74-.82,1.08-1.07,1.74-1.32,2.87-.47,2.09-.45,4.21-.43,6.33,.02,1.33-.24,2.59-1.3,3.43-.95,.75-2.02,.92-3.36,.63-2.73-.6-5.56,.88-6.77,3.16Zm103.36,48.32c.07-.5,.13-.77,.14-1.04,.14-5.58-.07-11.17,.23-16.76,.3-5.52,.13-11.07,.13-16.6,0-7.88-.15-15.75,0-23.62,.04-2.31-1.25-3.78-2.26-5.49-.18-.3-.88-.46-1.29-.39-.27,.05-.5,.6-.65,.97-.1,.24-.02,.56-.03,.84-.16,9.28,.08,18.55-.24,27.83-.32,9.36-.14,18.73-.16,28.1,0,.41-.03,.89,.15,1.23,.96,1.79,1.85,3.65,3.97,4.93Zm-83.13-63.38c-1.44,.36-1.85,1.21-2.2,2.03-.63,1.49-1.01,3.05-1.05,4.69-.18,8.06-.01,16.12-.28,24.18-.33,10.27-.17,20.55-.2,30.82,0,.52,.1,1.03,.17,1.7,2.77-1.33,3.58-3.56,3.63-6.14,.24-13.94-.21-27.89,.34-41.83,.18-4.53,.06-9.07,.04-13.61,0-.58-.27-1.16-.44-1.85Zm81.22,65c-1-1.16-1.95-2.29-2.93-3.38-.55-.61-1.15-.62-1.89-.19-.77,.44-1.62,.88-2.48,.99-2.78,.36-5.58,.71-8.38,.8-3.75,.13-7.52,.07-11.27,0-2.32-.04-4.63-.3-6.95-.38-1.85-.07-3.25,.93-4.56,2.02,.52,1.31,1.52,1.63,2.6,1.75,.63,.07,1.27,.02,1.91,0,4.66-.11,9.32-.29,13.99-.34,5.6-.06,11.21-.01,16.81-.02,.57,0,1.13,0,1.7-.03,.7-.03,1.22-.3,1.46-1.23Zm-45.28-.56c-1.17-.81-2.37-1.06-3.66-1.06-7.74-.03-15.47-.08-23.21-.14-.63,0-1.25-.15-1.88-.18-1.96-.11-3.55-1.18-5.2-2.07-1.63,.55-2.21,1.97-2.92,3.24-.36,.64-.45,1.33,.15,2.01,2.34-.08,4.7-.23,7.08-.16,7.87,.23,15.75,.14,23.63,.21,1.11,0,2.23,.18,3.34,.3,1.35,.14,2.33-.57,2.67-2.12Zm6.31,6.37s.1-.02,.14-.02c-.17-.96-.19-1.97-.53-2.87-.46-1.2-1.53-1.95-2.78-1.98-1.12-.03-1.98,.8-2.49,1.76-.75,1.41-.91,2.95-.36,4.48,.7,1.93,2.19,2.61,4.48,2.13,1.13-.24,1.53-1.03,1.54-3.07,0-.14,0-.28,0-.43Zm-1.13-39.57c.65-.7,.89-1.46,.51-2.46-.59-1.57-.99-3.22-1.57-4.79-.23-.62-.73-1.13-1.17-1.79-.8,.53-1.44,.94-1.95,1.27-.5,2.06-.97,3.97-1.43,5.87,.37,.64,.72,1.24,1.11,1.91h4.49Z"/>
  <path class="cls-1" d="M68.55,136.04c2.69-.2,5.71,.74,7.76-2.03v-9.97c1.03-1.63,2.55-2.11,4.33-2.08,1.85,.03,3.69,0,5.64,0,.66-.8,1.36-1.66,2.21-2.69,1.05,.19,2.15,.29,3.19,.59,1.44,.42,2.84,.98,4.27,1.48,.26,.09,.53,.17,.8,.19,3.16,.21,6.3,.57,9.48,.46,2.41-.08,4.83,0,7.25-.05,.87-.02,1.65,.17,2.39,.59,1.62,.91,3.15,1.19,4.9,.07,.8-.52,1.99-.57,3-.6,2.7-.08,5.44-.33,8.08,.06,2.19,.32,4.34,.24,6.51,.33,2.63,.1,5-.87,7.2-2.16,.96-.56,1.84-.95,3.32-.72,.71,.84,1.63,1.93,2.42,2.87h7.3c.54,.37,1.06,.72,1.52,1.03,1.82,3.71,.72,7.64,1.1,11.48,.97,1.02,2.2,1.31,3.6,1.14,.56-.07,1.14-.02,1.7,0,2.41,.04,4,1.67,4.02,4.12,.01,.99,0,1.99,0,3.25-.48,.56-1,1.39-1.72,1.98-1.21,.99-2.7,1.31-4.26,1.31-3.13,0-3.8,.68-3.81,3.81,0,7.66,0,15.33,0,23.15,.39,.42,.87,.94,1.41,1.52,1.69,.04,3.39,.15,5.08,.69,1.25,.4,2.2,1.11,2.76,2.11,1.52,2.73,1.11,6.02-1.52,7.96-.82,.6-1.87,.8-2.96,.8-1.17,0-2.4-.31-3.52,.37-.57,.35-1.17,.64-1.71,.93,0,1.21,.04,2.2,0,3.19-.11,2.24-.19,4.48-.43,6.7-.14,1.34-.74,2.54-2.09,3.27h-35.15c-.82,1.03-1.34,2.41-2.96,2.99-.18,0-.61-.05-1.03,0-2.43,.31-4.54-.57-6.41-1.94-1.04-.76-2.05-1.07-3.29-1.05-2.91,.04-5.84,.2-8.74-.04-7.14-.6-14.28-.28-21.42-.39-1.94-.03-2.87-1.02-2.88-3.05-.03-3.26,0-6.53,0-9.85-.79-1.18-1.92-1.66-3.39-1.58-1.47,.08-2.86,0-4.25-.79-2.55-1.44-3.67-5.98-1.21-8.11,1.57-1.36,3.28-2,5.24-2.14,1.12-.08,2.25-.01,3.62-.01,.06-9.49-.04-18.9,0-28.24-1.54-1.23-2.08-1.33-3.74-1.18-1.25,.12-2.47,.03-3.72-.35-3.02-.93-3.17-3.38-2.54-5.51,.67-2.3,.8-2.27,2.66-3.88Zm49.15,50.86c.71,.84,1.38,.85,2.1,.62,.47-.15,.94-.32,1.42-.41,2.98-.51,5.93-.82,9.01-.57,4.48,.35,9.03,.76,13.47-.65,1.33-.42,1.83-.65,2.03-1.97,.09-.63,.05-1.27,.06-1.91,.13-8.49,.3-16.98,.37-25.48,.07-7.94,.01-15.88,.06-23.82,.01-1.97,.24-3.93,.35-5.9,.04-.85,.08-1.7,.01-2.55-.08-1.02-.73-1.52-1.73-1.37-.48,.07-.98,.21-1.39,.46-.87,.53-1.79,.78-2.81,.83-2.12,.09-4.23,.32-6.34,.35-3.12,.05-6.24-.03-9.37-.05-1.42,0-2.8,.19-4.11,.81-.99,.47-1.59,1.09-1.57,2.26,.01,.84-.21,1.67-.22,2.51-.16,12.11-.3,24.22-.43,36.33-.03,2.91,0,5.81-.06,8.72-.05,1.97-.22,3.94-.36,5.91-.14,1.96-.31,3.92-.47,5.89Zm-3.07,.63c.96-.51,.93-1.17,.95-1.81,.11-2.68,.25-5.36,.31-8.04,.18-7.29,.33-14.58,.47-21.87,.04-1.99,.01-3.97,.01-5.96,0-6.95,.03-13.9-.05-20.85-.01-1.08-.44-2.2-.86-3.22-.45-1.07-1.5-1.56-2.59-1.55-2.47,.04-4.96,.08-7.41,.4-3.22,.43-6.3,.12-9.36-.87-1.07-.34-2.16-.65-3.26-.87-1.57-.31-2.48,.42-2.51,1.97-.11,5.95-.26,11.89-.31,17.84-.09,11.56-.13,23.12-.18,34.69,0,1.84,.02,3.69,0,5.53-.02,1.19,.45,2.06,1.53,2.56,.63,.29,1.29,.65,1.96,.73,1.68,.21,3.37,.36,5.06,.38,1.33,.02,2.66-.25,3.99-.27,2.41-.03,4.83,.06,7.24,.03,1.78-.02,3.51,.09,4.99,1.17Zm45.21-43.53c1.36,0,2.85,.03,4.33-.01,.76-.02,1.53-.13,2.28-.29,1.39-.3,1.86-.77,1.98-1.81,.17-1.49-.11-2.25-1.35-2.8-1.5-.67-3.02-1.31-4.78-1-.65,.11-1.37-.16-2.06-.27-.93-.15-1.35-.73-1.29-1.64,.18-2.52-.31-5.02-.1-7.57,.2-2.42-1.15-3.62-3.38-3.61-1.54,0-2.35,1.16-1.67,2.52,.81,1.63,1.05,3.33,1.03,5.11-.13,9.56-.24,19.12-.39,28.67-.1,6.36-.25,12.73-.42,19.09-.11,4.09-.27,8.19-.47,12.28-.04,.73-.37,1.44-.54,2.08-.44,.08-.64,.16-.85,.16-7.6,0-15.19,0-22.79,.03-1.55,0-3.09,.14-4.63,.31-.52,.06-1,.43-1.45,.63,.14,1.81,.5,2.24,1.94,2.24,9.66,.01,19.31,.02,28.97,.01,1.66,0,2.28-.42,2.84-1.96,.21-.58,.27-1.23,.32-1.86,.16-1.82,.13-3.67,.46-5.47,.29-1.63,.11-3.38,1.22-5.05,.63-.05,1.39-.16,2.15-.18,1.21-.03,2.42,.04,3.62-.02,1.52-.08,2.94-.41,3.5-2-.19-2.29-1.39-3.4-3.56-3.51-1.05-.05-2.09-.18-3.14-.23-2.04-.09-3.28-1.2-3.49-3.22-.06-.56-.06-1.13-.05-1.7,.15-7,.31-14.01,.45-21.01,.04-1.77,.03-3.55,0-5.32-.02-1.07,.23-1.96,1.34-2.61Zm-81-17.56c-.11,2.71-.21,5.24-.31,7.78,0,.14,0,.28-.02,.42-.22,2-1.47,3.11-3.49,3.22-1.89,.1-3.79,.2-5.51,1.13-.72,.39-1.24,.84-1.28,1.77-.06,1.35,.82,2.54,2.47,2.51,1.54-.02,3.09,.14,4.61,.38,2.34,.37,3.15,1.38,3.1,3.69-.08,3.74-.22,7.49-.25,11.23-.04,5.39,0,10.78-.01,16.17,0,1.95-.99,2.95-2.98,3.08-.42,.03-.86-.06-1.28,.02-1.24,.23-2.48,.49-3.7,.79-1.09,.27-1.64,1.17-1.83,2.13-.19,.98,.52,1.64,1.33,2.21,1.29,.91,2.71,1.07,4.17,.86,2.49-.37,4.61,1.33,4.66,3.89,.04,2.13,0,4.26,0,6.39,0,2.82,.84,3.67,3.62,3.71,.21,0,.43,0,.64,0,8.81,0,17.61,0,26.42,0,.71,0,1.41,0,2.07,0,.43-.67,1.01-1.14,.52-1.96-.41-.69-.98-.98-1.72-1.06-.14-.02-.28-.04-.42-.05-2.33-.09-4.65-.23-6.98-.26-5.75-.06-11.5-.07-17.26-.09-2.08,0-3.31-.99-3.6-3.05-.1-.7-.08-1.42-.08-2.12,0-4.4,.04-8.8,.04-13.2,.02-11.99-.01-23.98,.07-35.97,.03-4.7-.2-9.46,1.7-13.96,.35-.82-.27-1.58-1.21-1.53-.67,.04-1.38,.26-1.98,.58-.55,.28-.98,.8-1.54,1.28Zm72.81,62.62c.21-.92,.49-1.63,.54-2.36,.15-2.46,.27-4.91,.32-7.37,.24-10.6-.08-21.21,.4-31.82,.23-5.16,.15-10.34,.14-15.51,0-2.01-.87-3.8-1.82-5.52-.29-.52-.8-.83-1.43-.71-.77,.14-1.25,.68-1.41,1.41-.1,.48-.03,.99-.03,1.48,0,4.25,0,8.5,0,12.75,0,13.96,0,27.92-.02,41.88,0,2.47,1.05,4.27,3.31,5.77Zm-67.23,.25c2.4-2.01,2.94-3.14,2.95-6.08,.02-6.1,0-12.2,.06-18.31,.06-6.93,.19-13.87,.29-20.8,0-.21,.03-.42,.03-.64,.02-4.75,.04-9.5,.04-14.26,0-1.03-.16-2.03-.65-2.97-1.36,.72-2.32,1.69-2.6,2.93-.28,1.23-.51,2.49-.53,3.75-.14,9.28-.22,18.56-.31,27.83-.05,5.11-.06,10.21-.08,15.32-.02,3.62-.04,7.24-.04,10.85,0,.83-.16,1.73,.84,2.36Zm66.17,2.49c-.78-.82-1.61-1.76-2.52-2.6-.56-.52-1.21-.77-2.09-.47-1.31,.45-2.69,.8-4.06,.93-2.59,.24-5.2,.42-7.81,.4-3.1-.01-6.2-.25-9.3-.39-.14,0-.29,0-.42-.01-2.13-.31-3.06,.21-4.04,2.24,.55,1.21,1.61,1.24,2.7,1.23,6.03-.05,12.07-.1,18.1-.14,.21,0,.43,.04,.64,0,2.16-.44,4.31-.44,6.47,.06,.9,.21,1.88,.2,2.33-1.23Zm-35.86-.19c-.78-1.45-1.87-2.28-3.66-2.25-3.91,.06-7.81,0-11.72,.03-2.9,.03-5.76-.15-8.57-.96-2.04-.59-2.57-.31-3.67,1.33-.41,.61-.76,1.19-.37,1.94,.39,.74,1.08,.54,1.7,.54,5.26,0,10.51,.02,15.77,0,2.11,0,4.22-.05,6.25,.73,.51,.2,1.12,.13,1.69,.17,1.17,.08,2.06-.32,2.59-1.53Zm6.75,5.43c-.17-1.35-1.04-2.95-2.76-3.99-.36-.22-.93-.22-1.37-.14-1.62,.29-2.52,1.36-2.89,2.92-.4,1.64,.03,3.13,1.22,4.2,.9,.81,2.06,1.49,3.44,.79,1.31-.67,2.37-1.5,2.36-3.78Z"/>
  <path class="cls-1" d="M269.42,187.88c0,1.88,.05,3.66-.02,5.43-.06,1.6-.2,3.2-.41,4.78-.18,1.42-1.59,2.58-3.06,2.68-.28,.02-.57,0-.85,0-10.94,0-21.87,0-32.94,0-.31,.34-.73,.72-1.05,1.18-1.36,1.95-2.88,2.41-5.15,1.84-1.85-.46-3.51-1.26-4.99-2.37-.7-.52-1.34-.66-2.13-.65-.92,.02-1.85,0-2.77,0-9.2,0-18.38-.69-27.59-.44-1.47,.04-1.76-.19-3.4-1.95v-11.38c-1.26-.76-2.52-1.24-3.97-1.15-.91,.06-1.77-.1-2.66-.4-3.63-1.23-4.85-5.6-2.26-8.42,1-1.09,2.14-1.84,3.79-1.91,1.21-.05,2.4-.71,3.6,.2,.62-.43,1.18-.81,1.81-1.24v-27.37c-.39-.38-.89-.87-1.35-1.32-1.62,0-3.11,.01-4.59,0-2.29-.02-3.67-.97-4.44-3.02-.07-.19-.18-.39-.19-.58-.09-1.71,.41-3.31,1.31-4.7,.66-1.02,1.72-1.6,3.05-1.52,.99,.06,1.99,.04,2.98,0,1.98-.07,3.25-1.34,3.28-3.3,.03-2.34,0-4.68,.02-7.02,.02-2.48,1.25-3.7,3.74-3.71,2.06-.01,4.11,0,6.34,0,.65-.78,1.36-1.63,2.03-2.43,1.65-.56,3.1,.12,4.44,.78,1.6,.8,3.35,.74,4.99,1.23,2.14,.63,4.32,.39,6.49,.42,3.2,.03,6.39,.01,9.59,0,.79,0,1.46,.07,2.14,.65,.6,.51,1.46,.82,2.25,.96,.54,.09,1.33-.09,1.71-.46,1.14-1.11,2.48-1.15,3.91-1.14,2.7,.03,5.42-.2,8.09,.06,2.24,.22,4.47,.47,6.71,.34,2.21-.13,4.35-.61,6.24-1.89,.51-.35,1.09-.61,1.66-.85,1.21-.52,2.58-.14,3.37,.88,.6,.77,1.21,1.52,1.89,2.38,.73-.12,1.4-.28,2.07-.31,1.47-.07,2.96-.25,4.4-.04,1.72,.24,2.73,1.84,2.77,4,.05,2.62,.01,5.25,.01,7.9,.78,1.27,2.07,1.49,3.41,1.58,1.18,.08,2.34-.09,3.51,.39,1.77,.73,2.44,1.46,2.45,3.33,0,.85,.01,1.7,0,2.55-.03,1.83-.79,2.82-2.59,3.57-.89,.37-1.69,.95-2.75,.84-.91-.09-1.84-.02-2.76-.02-1.5,1.32-1.72,3.01-1.7,4.9,.06,6.67,0,13.34,.01,20,0,.62,0,1.28,.18,1.87,.47,1.57,1.82,1.96,3.23,2.16,.49,.07,.99,.01,1.49,.01,3.71,.03,5.99,3.23,5.12,6.89-.32,1.35-.93,2.35-1.94,3.08-1.07,.77-2.29,1.32-3.7,1.13-.49-.07-1,.03-1.49-.02-1.39-.13-2.44,.42-3.34,1.6Zm-13.91-64.86c-1.1-.43-2.04-.32-2.95,.2-1.2,.68-2.52,.85-3.87,.92-1.55,.08-3.1,.27-4.64,.28-1.55,.02-3.1-.13-4.65-.19-2.76-.1-5.52-.2-8.24,.39-2.09,.45-2.61,1.2-2.69,3.4-.09,2.4-.26,4.79-.3,7.19-.16,12.26-.3,24.51-.43,36.77-.02,2.13,.03,4.26-.07,6.38-.11,2.4-.35,4.79-.55,7.18-.03,.33-.18,.66-.29,1.06,.47,.38,.89,.73,1.27,1.04,3.14-1.16,6.28-1.54,9.47-1.39,1.76,.08,3.52,.32,5.28,.36,3.25,.08,6.48,.11,9.68-.81,1.9-.55,2.37-.84,2.4-2.78,.13-8.78,.26-17.56,.38-26.34,0-.43,0-.85,0-1.28,.02-7.52,.01-15.03,.06-22.55,.01-1.62,.3-3.23,.33-4.85,.03-1.67,.35-3.37-.18-5Zm-31.67,64.22c1.1-1.02,1.11-2.06,1.14-3.12,.13-5.01,.31-10.03,.42-15.04,.16-7.5,.32-15,.42-22.49,.06-4.61,.04-9.22,0-13.82-.02-1.76-.11-3.52-.36-5.26-.39-2.74-1.91-3.91-4.43-3.72-3.17,.23-6.35,.34-9.52,.45-1.98,.06-3.94,0-5.83-.79-1.03-.43-2.17-.57-3.26-.86-1.12-.29-2.1-.21-2.75,.8-.15,6.43-.38,12.78-.44,19.14-.11,13.04-.13,26.09-.18,39.13,0,2.7,.98,3.88,3.67,4.18,2.1,.23,4.22,.35,6.33,.37,1.61,.02,3.23-.26,4.84-.26,2.04,0,4.08,.18,6.13,.23,1.34,.04,2.7-.08,3.82,1.08Zm38.14,7.15c-.27,.04-.47,.09-.68,.09-8.45,0-16.91,0-25.36,.02-.62,0-1.25,.12-1.85,.27-1.23,.31-1.76,.83-1.69,1.55,.06,.67,.88,1.24,1.92,1.34,.14,.01,.28,0,.43,0,9.59,.02,19.18,.04,28.77,.04,1.66,0,2.49-.65,2.87-2.24,.21-.88,.33-1.8,.35-2.7,.08-2.75,.37-5.47,.89-8.18,.18-.95,.66-1.34,1.57-1.35,1.42-.01,2.84,.02,4.26-.07,.9-.06,1.81-.21,2.67-.49,1.01-.33,1.59-1.4,1.28-2.36-.4-1.23-.99-2.37-2.52-2.52-1.33-.13-2.65-.32-3.98-.38-2.26-.1-3.53-1.25-3.68-3.49-.04-.64-.03-1.28-.02-1.92,.12-4.17,.29-8.33,.37-12.5,.08-4.4,.1-8.8,.08-13.19,0-1.16,.22-2.09,1.36-2.74,.63,0,1.34,0,2.05,0,1.62-.02,3.25,.13,4.85-.32,.96-.27,1.72-.83,1.9-1.77,.2-1.02-.19-1.96-1.12-2.57-.29-.19-.6-.39-.93-.49-1.44-.47-2.8-1.02-4.44-.77-2.23,.34-3.18-.65-3.22-3-.04-2.41,0-4.82-.05-7.23-.02-1.4-1.06-2.58-2.38-2.8-1.86-.31-2.19-.12-3.02,1.79,1.04,1.63,1.37,3.46,1.35,5.42-.16,11.4-.27,22.81-.45,34.21-.09,5.73-.28,11.45-.41,17.18-.06,2.62-.07,5.25-.18,7.87-.05,1.17-.06,2.4-.99,3.31Zm-84.53-13.56c1.04,1.91,2.69,2.64,4.78,2.55,.5-.02,.99-.07,1.49-.07,2.12-.02,3.92,1.69,3.97,3.81,.04,1.98,.12,3.98-.02,5.95-.2,2.95,.99,4.42,4.41,4.37,8.8-.14,17.61-.05,26.41-.05,.5,0,1,.04,1.49-.02,1.15-.15,1.62-1.25,.94-2.18-.4-.55-.93-.83-1.62-.85-2.11-.08-4.23-.24-6.34-.26-6.17-.06-12.35-.06-18.53-.09-1.75,0-2.57-.54-3.08-2.28-.29-.99-.42-2.07-.41-3.11,.1-18.35,.24-36.7,.35-55.05,.02-2.91,.41-5.73,1.79-8.29-1.51-1.67-2.54-1.5-4.99,.78-.02,.17-.04,.38-.05,.58-.11,2.39-.21,4.79-.34,7.18-.03,.55-.08,1.15-.3,1.65-.6,1.34-1.63,2-3.18,1.99-1.9-.01-3.78,.18-5.51,1.12-.72,.39-1.26,.84-1.28,1.76-.04,1.51,.87,2.41,2.49,2.5,1.61,.09,3.25,.12,4.83,.43,2.38,.47,2.91,1.22,2.88,3.64-.1,7.71-.23,15.42-.35,23.13,0,.35-.04,.71-.02,1.06,.05,.84,.08,1.69,.21,2.52,.33,2.06-.83,3.6-2.94,3.78-.71,.06-1.43-.05-2.13,.07-2.08,.35-4.31,.55-4.92,3.37Zm83.29,7.8c.75-1.57,.85-3.04,.87-4.47,.09-6.24,.08-12.48,.15-18.73,.07-5.94,.19-11.89,.3-17.83,0-.14,.02-.28,.02-.42,.03-5.39,.11-10.78,.07-16.17-.01-1.78-.76-3.41-1.7-4.91-.36-.57-.91-.96-1.62-.73-.7,.23-1.21,.73-1.29,1.51-.04,.35,0,.71,0,1.06-.02,18.24-.03,36.47-.05,54.71,0,2.43,.96,4.33,3.26,5.97Zm-64.33-62.93c-1.36,.69-2.15,1.56-2.55,2.88-.47,1.56-.74,3.12-.76,4.76-.13,9.41,.13,18.83-.23,28.25-.31,8.22-.11,16.45-.14,24.68,0,.92,0,1.82,.86,2.58,1.83-1.16,2.89-2.81,2.93-5,.16-7.71,0-15.43,.25-23.15,.32-9.64,.16-19.29,.2-28.94,0-1.56-.04-3.12-.12-4.68-.02-.44-.27-.87-.44-1.39Zm63.31,66.04c-.47-1.42-1.42-2.36-2.49-3.16-.53-.4-1.15-.63-1.96-.34-1.31,.46-2.68,.84-4.05,1-2.23,.25-4.49,.38-6.74,.41-2.03,.02-4.07-.17-6.1-.29-1.89-.12-3.79-.29-5.68-.4-.91-.05-1.56,.52-2.21,1.08-.59,.51-.93,1.06-.62,1.87,.78,.92,1.87,.8,2.92,.79,4.89-.04,9.78-.09,14.67-.15,.48,0,.96-.13,1.44-.15,2.67-.12,5.34-.36,8.01,.12,.94,.17,1.98,.45,2.8-.77Zm-35.84-.45c-1.19-1.97-1.77-2.33-3.7-2.33-3.55,0-7.09-.02-10.64,0-3.45,.02-6.89-.02-10.21-1.19-.45-.16-1.17-.08-1.56,.19-.68,.47-1.3,1.12-1.78,1.8-.69,.98-.14,1.96,1.06,2.06,.42,.03,.85,0,1.28,0,4.18,0,8.37,0,12.55,0,3.16,0,6.33-.16,9.44,.77,1.28,.38,2.71,.34,3.55-1.31Zm6.78,5.85c.03-1.17-.98-3.08-2.15-4.2-.63-.6-1.26-.67-2.1-.47-2.56,.6-3.43,3.95-2.41,5.96,.64,1.28,2.73,2.53,3.8,2.2,1.44-.45,2.97-1.67,2.87-3.48Z"/>
  <path class="cls-1" d="M190.3,275.76c-1.17,.42-1.99,.72-2.99,1.08-.81-2.67-.76-5.05,.03-7.41,1.41-.12,2.07,.1,2.35,1.21,.59,2.34,2.36,3.2,4.37,3.83,1.79,.56,3.13,.28,3.99-.96,1.06-1.55,1.65-3.1,.5-4.92-1.01-1.6-2.5-2.66-4.13-3.55-1.3-.71-2.67-1.33-3.86-2.18-1.89-1.35-3.37-3.11-3.58-5.52-.34-4.07,1.35-7.18,5.45-7.98,.54-.11,1.23-.21,1.67,.01,1.28,.65,2.34,.17,3.37-.45,.71-.42,1.37-.71,2.3-.2,.54,2.14,1.22,4.34,.07,6.56-1.52,.11-2.17-.92-2.96-1.68-.67-.64-1.3-1.26-2.3-1.4-1.66-.23-2.93,.22-3.76,1.72-.24,.43-.43,.88-.64,1.32,.86,2.6,2.88,3.98,5.14,5.09,2.06,1.02,3.88,2.31,5.37,4.06,3.61,4.23,2.38,10.14-2.63,12.63-1.84,.91-3.67,.7-5.47-.08-.84-.36-1.62-.83-2.3-1.19Z"/>
  <path class="cls-1" d="M143.01,254.53c-.82-.1-1.05-.68-1.11-1.46-.17-2,.92-3.64,1.6-5.38,.09-.24,.6-.31,1.03-.52,1.84,1.45,4,1.83,6.32,1.64,.49-.04,.99-.03,1.49,0,2.5,.14,4.96,.07,6.96-1.72,1.78,.96,.95,2.47,1.06,3.67,.12,1.42-.35,2.63-1.98,3.34-.79-.88-1.57-1.75-2.44-2.72-.73-.18-1.42,.05-1.64,1-.19,.81-.39,1.65-.39,2.47,0,4.25,.06,8.5,.08,12.75,0,.99,.13,2.05-.17,2.96-.55,1.66,.09,2.93,1.06,4.05,.69,.79,.95,1.52,.62,2.63-.35,.16-.8,.53-1.22,.51-2.17-.09-4.34-.28-6.59-.45-.57-.86-.31-1.73,.26-2.48,1.05-1.37,1.26-2.93,1.26-4.58,0-4.74,.03-9.49,.08-14.23,0-.62,.21-1.24,.23-1.87,.05-1.03,.34-2.13-.72-3.15-.25,0-.66,0-1.08,0-.35,0-.71,.04-1.26,.07-1.02,1.03-2.14,2.16-3.44,3.47Z"/>
  <path class="cls-1" d="M128.63,154.52c1.52,.38,2.8,.41,3.86-.97,.35-.45,1.19-.5,1.83-.75,1.29,1.97,.72,3.61-.18,5.46-1.2-.5-2.32-.88-3.35-1.44-.87-.47-1.61-.34-2.4,.07-.55,.29-.87,.68-.87,1.33,0,2.69-.07,5.39,.02,8.08,.06,1.76,1.26,2.83,3.04,2.84,1.04,0,2.1-.15,3.13-.35,1.09-.21,1.86-.86,2.37-1.91,.35-.72,.96-1.31,1.58-2.13,.4,.55,.8,.85,.83,1.19,.1,1.05,.19,2.14,.05,3.17-.22,1.62-1.43,2.53-3.35,2.61-1.34,.06-2.7,.04-4.04-.06-2.45-.19-4.91-.41-7.35-.72-1.39-.17-1.85-1.11-1.08-2.23,1.06-1.54,1.3-3.2,1.28-5.01-.04-5.74-.02-11.48-.02-17.18-.64-.68-1.37-1.25-1.84-1.99-.55-.86-.16-1.62,.83-1.62,1.74,0,3.42-.69,5.22-.18,.96,.27,2.1-.04,3.16-.12,.91-.07,1.82-.17,2.73-.28,.66-.08,1.16,.2,1.37,.77,.37,.98,.72,1.99,.92,3.02,.16,.77-.21,1.37-1.24,1.52-.79-1.67-2.45-2.07-4.06-2.53-1.17-.34-2.4,.07-2.68,1.08-.75,2.76-1.45,5.58,.2,8.31Z"/>
  <path class="cls-1" d="M92.1,144.63c-.03-.46-.06-.94-.1-1.63,2.76-1.1,5.55-.21,8.27-.22,1.22,1.6,1.18,1.96-.59,3.95,.18,.89,.29,1.94,.6,2.93,1.2,3.82,2.47,7.62,3.7,11.43,.22,.68,.33,1.39,1.48,1.47,.2-.39,.53-.83,.67-1.32,1.08-3.71,2.1-7.43,3.19-11.14,.27-.93,.28-1.77-.03-2.68-.45-1.31-.79-2.65-1.19-4.02,1.94-1.06,3.57-.56,5.33,.11-.04,.45,.05,.92-.13,1.23-1.61,2.8-2.02,5.97-2.82,9.01-1.36,5.16-2.53,10.37-4.67,15.29-.32,.73-.37,1.51-1.39,1.58-1.03,.07-1.93-.44-2.38-1.42-.12-.25-.13-.55-.22-.81-2.12-6.55-4.27-13.08-6.33-19.64-.49-1.55-1.14-2.85-2.66-3.59-.25-.12-.45-.33-.73-.53Z"/>
  <path class="cls-1" d="M234.72,171.38c-.23-.42-.46-.84-.65-1.18,.07-.25,.07-.43,.16-.51,1.86-1.69,2.45-3.79,2.39-6.27-.11-4.53-.1-9.07,0-13.61,.04-1.82-.29-3.47-1.06-5.08-.24-.5-.47-1.01-.71-1.51,.6-1.04,1.55-1.32,2.55-1.27,1.54,.07,3.09,.22,4.62,.46,1.09,.17,1.38,1.49,.55,2.55-.57,.72-1.24,1.32-1.32,2.32-.06,.69-.34,1.37-.34,2.05-.01,5.67,.03,11.34,.02,17.01,0,.83,.21,1.52,.71,2.15,.22,.28,.48,.53,.67,.82,.72,1.07,.33,2.02-.94,2.07-2.19,.08-4.38,.02-6.66,.02Z"/>
  <path class="cls-1" d="M211.69,159.74c-.91,.4-1.42,.87-1.4,1.8,.02,.78,.01,1.56-.07,2.34-.18,1.61,.1,3.06,1.17,4.34,.3,.36,.5,.86,.58,1.33,.2,1.17-.45,1.94-1.65,1.87-1.82-.11-3.63-.35-5.51-.55-.39-.97-.3-1.8,.44-2.54,1.12-1.11,1.47-2.48,1.46-4.03-.03-5.39-.06-10.78,.02-16.17,.02-1.47-.45-2.6-1.46-3.57-.2-.2-.46-.34-.64-.55-.75-.92-.43-1.8,.73-1.98,.42-.06,.86-.11,1.27-.02,2.67,.55,5.36,.21,8.04,.28,2.84,.08,5.69,2.01,6.75,4.66,1.34,3.34,.13,7.35-2.87,9.43-.58,.4-1.19,.74-1.82,1.12-.15,.81-.3,1.63-.49,2.67,1.72,2.69,3.5,5.57,5.39,8.37,.48,.71,.75,1.32,.43,2.12-2.02,.62-2.89,.37-3.95-1.23-1.79-2.7-3.55-5.42-5.33-8.13-.34-.52-.71-1.01-1.09-1.55Zm-1.02-4.36c2.46,1.57,3.61,1.41,5.21-.56,.31-.38,.66-.74,.98-1.11,1.45-1.71,1.79-3.59,.75-5.62-.35-.68-.91-1.25-1.25-1.93-.75-1.53-2.01-1.75-3.53-1.61-1.83,.17-2.17,.49-2.17,2.34,0,2.81,0,5.63,0,8.49Z"/>
</svg>