<?xml version="1.0" encoding="UTF-8"?>
<svg id="Layer_1" data-name="Layer 1" xmlns="http://www.w3.org/2000/svg" viewBox="0 0 1000 444.44">
  <defs>
    <style>
      .cls-1 {
        fill: #fff;
      }
    </style>
  </defs>
  <path class="cls-1" d="M268.93,238.1c-9.66-4.3-15.42-5.95-21.08-5.95-5.95,0-9.76,2.15-9.76,5.47,0,10.05,33.86,7.22,33.86,30.45,0,12.79-10.73,20.2-25.57,20.2-11.61,0-17.37-3.02-24.01-6.44v-14.35c9.57,6.35,15.42,8.59,22.74,8.59,6.34,0,9.76-2.24,9.76-6.15,0-10.93-33.87-6.93-33.87-30.84,0-11.52,9.96-19.13,25.38-19.13,7.42,0,14.15,1.56,22.54,5.18v12.97Z"/>
  <path class="cls-1" d="M320.24,278.79h0c-1.47,0-2.34-.88-2.34-3.12v-20.49c0-9.86-7.71-13.66-19.03-13.66-7.12,0-13.66,1.85-19.51,5.46v11.52c4.49-4.59,10.93-7.51,16.59-7.51,6.15,0,8.1,3.32,7.81,7.51-18.83,5.86-26.74,8.01-26.74,18.74,0,5.66,5.37,11.03,12.59,11.03,4.88,0,9.37-1.37,14.83-5.08,.98,3.62,3.22,5.08,7.9,5.08,3.81,0,9.37-1.76,13.27-4.1v-7.91c-3.32,2.34-4.39,2.54-5.36,2.54Zm-16.5-2.34c-2.34,2.15-5.17,3.41-7.81,3.41s-4.58-2.15-4.58-4.78c0-4.49,4-6.45,12.39-9.47v10.84Z"/>
  <polygon class="cls-1" points="323.83 242.39 338.95 242.39 348.51 267.18 358.18 242.39 373.21 242.39 352.52 288.26 344.61 288.26 323.83 242.39"/>
  <path class="cls-1" d="M398.75,241.52c-13.86,0-23.71,9.75-23.71,23.52s10.25,23.23,26.06,23.23c3.51,0,12,0,20.1-5.95v-8.88c-6.64,4.79-11.03,6.44-16.69,6.44-8.88,0-14.35-4.68-14.83-12.69h32.3c.69-16.4-10.15-25.66-23.23-25.66Zm-8.78,18.25c.59-6.24,4.2-9.86,9.76-9.86s9.17,3.71,9.76,9.86h-19.52Z"/>
  <path class="cls-1" d="M486.64,252.06h-16.4v18.54c0,4.39,2.54,7.22,6.93,7.22,2.93,0,5.65-.68,9.46-2.63v10.25c-4.98,2.05-8.69,2.83-13.08,2.83-9.37,0-17.47-4.29-17.47-16.89v-19.32h-6.44v-2.73l18.84-21.08h1.75v14.15h16.4v9.66Z"/>
  <path class="cls-1" d="M506.34,249.03h.19c4.1-5.18,8.69-7.51,14.25-7.51,8.19,0,16.49,4.98,16.49,17.18v28.69h-14.15v-25.67c0-6.73-2.93-9.85-7.32-9.85-3.32,0-6.15,2.05-9.46,6.83v28.69h-14.15v-66.56h14.15v28.2Z"/>
  <path class="cls-1" d="M568.38,241.52c-13.86,0-23.71,9.75-23.71,23.52s10.25,23.23,26.05,23.23c3.52,0,12.01,0,20.1-5.95v-8.88c-6.63,4.79-11.03,6.44-16.69,6.44-8.88,0-14.35-4.68-14.83-12.69h32.3c.68-16.4-10.15-25.66-23.23-25.66Zm-8.78,18.25c.58-6.24,4.2-9.86,9.75-9.86s9.18,3.71,9.76,9.86h-19.52Z"/>
  <path class="cls-1" d="M687.6,281.62c-9.27,4.78-16.3,6.64-26.15,6.64-25.86,0-38.74-16.79-38.74-33.97s14.54-34.35,40.01-34.35c9.27,0,17.57,1.95,24.11,5.86v14.83c-7.32-4.1-14.74-6.83-22.94-6.83-14.15,0-24.11,8.39-24.11,20.2s9.86,20.4,23.72,20.4c8.69,0,14.54-2.73,24.1-7.32v14.54Z"/>
  <path class="cls-1" d="M711.61,249.03h.19c4.1-5.18,8.69-7.51,14.25-7.51,8.2,0,16.49,4.98,16.49,17.18v28.69h-14.15v-25.67c0-6.73-2.93-9.85-7.32-9.85-3.32,0-6.15,2.05-9.46,6.83v28.69h-14.15v-66.56h14.15v28.2Z"/>
  <rect class="cls-1" x="752.47" y="242.39" width="14.15" height="44.99"/>
  <path class="cls-1" d="M767.31,227.75c0,4.3-3.51,7.81-7.8,7.81s-7.81-3.52-7.81-7.81,3.51-7.8,7.81-7.8,7.8,3.51,7.8,7.8"/>
  <rect class="cls-1" x="776.97" y="220.83" width="14.15" height="66.55"/>
  <path class="cls-1" d="M832.3,220.83v23.52c-3.81-1.86-7.61-2.83-11.71-2.83-12.88,0-21.86,9.56-21.86,23.32s8.98,23.42,21.08,23.42c4.78,0,8.49-1.27,12.5-4.49v3.61h14.15v-66.55h-14.15Zm0,54.26c-2.93,2.63-5.37,3.71-8.39,3.71-6.63,0-10.83-5.47-10.83-13.66,0-8.98,4.2-14.15,11.32-14.15,2.54,0,5.86,1.17,7.91,2.64v21.47Z"/>
  <path class="cls-1" d="M870.64,255.27h.19c4.19-9.37,8.88-13.76,14.34-13.76,2.83,0,5.27,1.07,9.37,4.09l-3.9,12.5c-3.71-2.34-6.15-3.32-8.39-3.32-5.17,0-8.49,4.88-11.61,13.17v19.42h-14.15v-44.99h14.15v12.89Z"/>
  <path class="cls-1" d="M919.33,241.52c-13.86,0-23.71,9.75-23.71,23.52s10.25,23.23,26.06,23.23c3.51,0,12,0,20.1-5.95v-8.89c-6.63,4.79-11.02,6.44-16.68,6.44-8.88,0-14.35-4.68-14.83-12.69h32.3c.68-16.4-10.15-25.66-23.23-25.66Zm-8.78,18.25c.59-6.24,4.2-9.86,9.76-9.86s9.17,3.71,9.75,9.86h-19.51Z"/>
  <path class="cls-1" d="M963.91,248.83c4.49-5.17,8.88-7.31,14.64-7.31,7.03,0,16.39,4,16.39,17.27v28.59h-14.15v-27.43c0-6.34-3.02-8.98-7.02-8.98-3.52,0-6.15,1.85-9.86,7.42v28.99h-14.15v-44.99h14.15v6.44Z"/>
  <path class="cls-1" d="M184.04,176.49h-.07c8.97-9.23,12.95-13.5,12.33-16.03-.47-1.9-2.3-3.66-5.13-4.96-3.04-1.4-7.29-2.24-9.53-1.12-.75,.37-2.01,1.6-5.03,4.59l-2.83,2.77h0c-1.55-1.82-3.17-3.58-4.85-5.28-11.92-11.92-26.98-20.2-43.55-23.96-6.25-7.64-14.82-11.56-23.58-10.8-7.35,.64-14.05,4.54-18.91,10.99-17.37,4.01-33.45,12.71-46.58,25.21h0c-2.67-1.01-8.73-.36-12.62,1.43-2.24,1.03-3.55,2.32-3.93,3.83-.29,1.15,.06,3,4.35,8.64h0c-13.29,18.29-20.04,40.52-18.96,62.66,1.11,22.69,10.39,43.87,26.15,59.62,5.54,5.55,11.79,10.34,18.59,14.25,9.77,5.62,20.71,9.82,32.53,12.24,24.84,5.07,49.42,1.39,70.05-8.82l.06-.02c2.63-1.22,3.75-4.24,2.68-7.18l-.32-.89c-4.35-11.9-17.62-48.13-6.69-79.59,4.58-13.17,16.1-26.74,25.97-37.33h0c8.65,15.71,12.37,33.95,10.45,51.48-1.83,16.61-8.38,31.74-19.04,44.08h0c-.33,.35-.52,.82-.52,1.3,0,.21,.06,.42,.1,.61l.84,2.38c.38,.98,1.48,1.47,2.46,1.1,.27-.1,.51-.26,.71-.47h.06c27.98-30.87,34.12-75.59,14.79-110.73h0Zm-119.01,68.01h0c-2.88,11.92-6.81,28.21-6,53.3-6.44-3.83-12.38-8.45-17.69-13.74-14.45-14.45-23.59-33.39-25.72-53.32-2.05-19.16,2.42-38.22,12.59-53.88h0s0,0,0,0h0c3.2,3.84,7.09,8.27,11.16,12.9,9.97,11.33,21.27,24.17,26.57,33.13,3.07,5.18,1.58,11.37-.9,21.62Zm98.41-73.14c-21.06,18.45-40.38,27.91-57.36,28.03-13.07,.09-26.58-4.73-40.14-14.33-11.21-7.94-19.66-17.08-24.71-22.54l-.52-.55c10.41-9.7,23.21-16.47,37.09-19.61h0s0,0,0,0c0,0,0,0,0,0-1.81,5.25-2.47,10.95-1.97,16.73,.91,10.38,5.58,19.81,12.8,25.87,5.65,4.74,12.5,7.03,19.28,6.44,6.78-.6,13.12-4.03,17.87-9.69,6.06-7.22,9.02-17.32,8.11-27.7-.16-1.9-.46-3.79-.88-5.65,0,0,0,0,0,0h0s0,0,0,0c9.64,4.46,18.41,10.6,25.9,18.12,1.57,1.57,3.08,3.2,4.53,4.88h0Z"/>
</svg>