<?xml version="1.0" encoding="UTF-8"?>
<svg id="Layer_1" data-name="Layer 1" xmlns="http://www.w3.org/2000/svg" viewBox="0 0 1000 444.44">
  <defs>
    <style>
      .cls-1 {
        fill: #fff;
      }
    </style>
  </defs>
  <g>
    <path id="path6" class="cls-1" d="M821.53,238.85c-4.38,4.35-10.18,6.75-16.37,6.75-12.78,0-23.19-10.41-23.19-23.18s10.37-23.18,23.19-23.18c6.12,0,11.89,2.37,16.27,6.69l.6,.59,10.54-22.43-.4-.3c-7.97-5.63-17.36-8.63-27.14-8.63-25.95,0-47.03,21.11-47.03,47.03s21.11,47.03,47.03,47.03c9.75,0,19.1-2.96,27.07-8.6l.4-.3-10.37-22.06-.59,.59Z"/>
    <path id="path8" class="cls-1" d="M888.31,245.67c-12.75,0-23.12-10.37-23.12-23.12s10.37-23.12,23.12-23.12,23.12,10.37,23.12,23.12-10.37,23.12-23.12,23.12Zm-.13-70.31c-25.88,0-46.96,21.08-46.96,46.96s21.08,46.96,46.96,46.96,46.96-21.08,46.96-46.96-21.04-46.96-46.96-46.96Z"/>
    <path id="path10" class="cls-1" d="M374.49,178.16v48.54c0,3.95,.4,10.08,4.94,14.23,1.98,1.78,5.53,4.15,11.85,4.15,5.34,0,9.49-1.78,12.05-4.15,4.15-3.95,4.74-9.88,4.74-14.23v-48.54h28.42v51.31c0,10.08-.99,19.53-9.88,28.22-10.07,9.88-24.86,11.46-35.33,11.46s-25.46-1.58-35.53-11.46c-8.1-7.9-9.68-16.76-9.68-26.44v-53.09h28.42Z"/>
    <path id="path12" class="cls-1" d="M458.56,178.16h28.42v10.47c8.69-11.07,18.94-12.84,27.23-12.84,7.71,0,17.79,1.38,25.26,8.89,8.3,8.3,8.89,18.74,8.89,25.85v55.66h-28.42v-45.18c0-5.73-.2-13.01-4.74-17.55-2.17-2.17-5.73-3.95-10.83-3.95-5.93,0-9.68,2.37-11.86,4.74-4.74,4.74-5.53,11.06-5.53,16.76v45.22h-28.42v-88.06Z"/>
    <path id="path14" class="cls-1" d="M634.41,210.14c-.2-.79-1.58-6.32-5.73-10.27-3.16-2.96-7.7-4.94-13.44-4.94-7.31,0-11.66,2.96-14.42,5.73-2.17,2.37-4.15,5.53-4.94,9.48h38.53Zm26.25,16.96h-65.73c0,4.74,1.78,11.07,5.34,15.02,4.35,4.74,10.27,5.53,14.59,5.53s8.5-.79,11.46-2.57c.39-.2,3.75-2.37,6.12-7.31l26.84,2.77c-3.95,12.42-11.86,18.94-16.96,22.1-8.5,5.14-17.98,6.52-27.83,6.52-13.21,0-24.86-2.37-35.14-12.65-7.7-7.71-13.24-19.33-13.24-33.95,0-12.61,4.54-25.65,13.44-34.74,10.67-10.67,23.88-12.65,33.75-12.65s24.07,1.78,34.94,13.24c10.47,11.07,12.45,24.86,12.45,35.73v2.96h-.03Z"/>
    <path id="path16" class="cls-1" d="M732.32,200.65c-4.35-2.57-10.08-4.94-15.58-4.94-2.96,0-6.32,.79-8.1,2.57-.99,.99-1.78,2.57-1.78,3.95,0,1.98,1.38,3.16,2.77,3.95,1.98,1.19,4.94,1.78,8.5,2.96l7.51,2.37c4.94,1.58,10.08,3.56,14.59,7.71,5.14,4.74,6.92,10.08,6.92,16.8,0,11.66-5.14,19.13-9.09,23.09-8.69,8.69-19.36,10.04-28.61,10.04-11.86,0-24.67-2.57-36.13-12.61l12.05-19.13c2.77,2.37,6.72,5.14,9.68,6.52,3.95,1.98,8.1,2.77,11.85,2.77,1.78,0,6.32,0,8.89-1.98,1.78-1.38,2.97-3.56,2.97-5.73,0-1.58-.59-3.56-3.16-5.14-1.98-1.19-4.55-1.98-8.7-3.16l-7.11-2.17c-5.14-1.58-10.47-4.35-14.22-8.1-4.15-4.35-6.32-9.29-6.32-16,0-8.5,3.36-15.58,8.5-20.32,7.9-7.31,18.54-8.89,26.64-8.89,13.01,0,22.09,3.36,29.21,7.51l-11.26,17.95Z"/>
  </g>
  <g>
    <path class="cls-1" d="M7.11,116.58v211.29H992.89V116.58H7.11Zm75.02,62.04l68.56-21.14,68.6,21.14v6.19l-69.03-20.85-68.14,20.85v-6.19Zm125.21,6.19h-16.66l-39.98-12.22-40.84,12.22h-16.66l57.5-17.55,56.64,17.55Zm-125.21,3.69H219.29v5.76H82.13v-5.76Zm129.26,13.57v51.47s0,4.31-5.04,4.31c-4.74,0-4.74-4.31-4.74-4.31v-51.47s0-4.31,5.04-4.31,4.74,4.31,4.74,4.31Zm-27.63-1.28c-1.28,0-1.28,1.28-1.28,1.28v51.47s.23,1.15,1.28,1.15c1.15,0,1.15-1.15,1.15-1.15v-15.08h3.59v15.08s0,4.31-4.74,4.31-4.61-4.31-4.61-4.31v-51.47s0-4.31,4.61-4.31,4.74,4.31,4.74,4.31v13.5h-3.59v-13.5s0-1.28-1.15-1.28Zm-22.56,.03c-1.02,0-.86,1.28-.86,1.28v13.5c0,4.45,5.6,17.88,5.6,24.96v13.01s0,4.31-4.74,4.31-4.61-4.31-4.61-4.31v-15.08h3.75v15.08s0,.99,.92,1.05c.92,.07,.92-1.09,.92-1.09v-13.86c0-5.83-5.6-18.54-5.6-26.08v-11.49s0-4.18,4.74-4.31c4.74-.13,4.61,4.31,4.61,4.31v13.5h-3.72v-13.5s0-1.28-1.02-1.28Zm-17.68,23.41v3.29h-3.89v27.17h5.17v3.16h-9.19v-60.1h7.9v3.03h-3.89v23.45h3.89Zm-21.27-26.48v60.1h-3.03l-3.59-36.13v36.13h-2.87v-60.1h2.87l3.59,32.11v-32.11h3.03Zm-27.47,56.94c1.28,0,1.28-1.02,1.28-1.02v-55.92h3.59v55.79s.3,4.31-4.61,4.31-4.87-4.31-4.87-4.31v-55.79h3.59v55.65s-.3,1.28,1.02,1.28Zm-12.65,6.29H219.29v5.76H82.13v-5.76Zm-7.77,9.78H226.77v5.73H74.36v-5.73Zm159.88,15.54H67.18v-5.76H234.24v5.76Zm752.69,35.6H294.28V122.54H986.93v199.37Z"/>
    <path class="cls-1" d="M205.13,202.17v51.47s0,1.15,1.42,1.15,1.32-1.15,1.32-1.15v-51.47s0-1.28-1.45-1.28c-1.28,0-1.28,1.28-1.28,1.28Z"/>
  </g>
</svg>