<?xml version="1.0" encoding="UTF-8"?>
<svg id="Layer_1" data-name="Layer 1" xmlns="http://www.w3.org/2000/svg" viewBox="0 0 1000 444.44">
  <defs>
    <style>
      .cls-1 {
        fill: #fff;
      }
    </style>
  </defs>
  <g id="g10">
    <g id="g22">
      <path id="path24" class="cls-1" d="M279.63,387.73h-.03c-26.91-.02-50.09-21.96-48.73-50.08,1.81-37.4,34.9-42.76,46.25-59.48,.52-.82,1.44-1.38,2.48-1.38s1.96,.55,2.48,1.37h.01c11.36,16.72,44.45,22.09,46.26,59.49,1.36,28.12-21.81,50.07-48.73,50.08m91.28-51.48c0-50.42-40.88-91.29-91.29-91.29s-91.29,40.88-91.29,91.29,40.88,91.29,91.29,91.29,91.29-40.88,91.29-91.29"/>
    </g>
    <g id="g26">
      <path id="path28" class="cls-1" d="M279.6,221.26c1.57,0,2.99-.87,3.71-2.28,5.27-9.34,18.34-17.79,32.18-26.74,7.21-4.67,14.47-9.76,21.3-14.64,29.19-20.91,47.91-53.62,47.91-90.54,0-1.17-.02-2.34-.06-3.51l-.04-1.32-1.31,.15c-22.79,2.55-44.02,11.96-61.6,27.25,.09-1.8,.13-3.59,.13-5.32,0-34.3-15.08-65.92-41.37-86.73l-.85-.68-.85,.68c-26.29,20.82-41.38,52.43-41.38,86.73,0,1.73,.04,3.52,.13,5.32-17.58-15.29-38.81-24.7-61.61-27.25l-1.31-.15-.04,1.32c-.04,1.16-.06,2.34-.06,3.51,0,36.92,18.73,69.63,47.91,90.54,6.83,4.89,14.09,9.97,21.3,14.64,13.84,8.95,26.91,17.41,32.18,26.74,.72,1.4,2.14,2.28,3.71,2.28"/>
    </g>
    <g id="g30">
      <path id="path32" class="cls-1" d="M440.65,175.56h28.62l5.19,13.88h22.16l-30.1-79.92h-22.68l-30.74,79.92h22.05l5.51-13.88Zm14.31-41.34h.21l8.48,25.44h-17.28l8.59-25.44Zm41.86,36.25c-3.39-5.93-5.2-12.93-5.2-20.88,0-24.91,20.57-42.19,42.19-42.19,6.68,0,12.72,1.48,18.97,4.03v24.91c-4.13-5.62-11.02-8.8-18.23-8.8-12.3,0-21.31,9.33-21.31,22.16s9.12,21.73,21.62,21.73c6.68,0,13.36-3.07,17.92-8.48v24.91c-10.71,3.29-13.46,3.71-18.34,3.71-15.16,0-30.22-8.37-37.63-21.1m79.49-43.35h-17.17v-17.6h55.12v17.6h-17.17v62.32h-20.78v-62.32Zm64.97,62.32h-20.78V109.52h20.78v79.92Zm51.19,2.65c22.47,0,43.56-16.11,43.56-44.09,0-24.49-21.52-41.13-44.2-41.13-7,0-16.86,1.48-26.61,8.27-4.24,2.97-17.6,12.83-17.6,33.82s15.9,43.14,44.84,43.14m-.74-65.08c12.19,0,22.69,9.86,22.69,21.09,0,13.36-9.86,23.85-22.58,23.85s-22.58-10.18-22.58-23.85c0-11.45,10.81-21.09,22.47-21.09m71.54,62.43h-20.78V109.52h20.78l38.05,48.87h.21v-48.87h20.78v79.92h-20.78l-38.05-48.97h-.21v48.97Zm-345.08,78.2c-3.29-5.75-5.03-12.52-5.03-20.21,0-24.12,19.92-40.84,40.86-40.84,6.47,0,12.32,1.44,18.38,3.9v24.11c-4.01-5.44-10.68-8.52-17.66-8.52-11.91,0-20.63,9.03-20.63,21.45s8.83,21.04,20.94,21.04c6.47,0,12.94-2.98,17.35-8.21v24.11c-10.37,3.18-13.04,3.59-17.76,3.59-14.68,0-29.26-8.11-36.44-20.42m101.33-61.57c-6.77,0-16.32,1.44-25.77,8.01-4.11,2.87-17.04,12.42-17.04,32.74s15.39,41.77,43.42,41.77c21.77,0,42.2-15.6,42.2-42.7,0-23.7-20.84-39.82-42.82-39.82m0,63.01c-12.11,0-21.86-9.85-21.86-23.09,0-11.09,10.47-20.42,21.76-20.42s21.97,9.54,21.97,20.42c0,12.93-9.55,23.09-21.87,23.09m105.24-60.45h20.12v77.38h-20.12l-36.86-47.41h-.2v47.41h-20.12v-77.38h20.12l36.86,47.31h.2v-47.31Zm42.68,77.38v-60.34h-16.63v-17.04h53.39v17.04h-16.63v60.34h-20.12Zm42.96,0h20.12v-29.76h.2l19,29.76h25.05l-24.33-31.71c10.47-1.85,16.94-10.67,16.94-21.86,0-16.01-11.09-23.81-26.59-23.81h-30.39v77.38Zm20.12-61.98h1.74c9.96,0,14.17,3.08,14.17,9.65s-4.31,9.64-14.17,9.64h-1.74v-19.29Zm67.86,1.64v12.93h22.69v17.03h-22.69v13.34h23.92v17.03h-44.05v-77.38h44.05v17.04h-23.92Zm-309.17,79.59l-24.75,64.35h-25.52v-64.35h-21.45v82.51h62.74l5.69-14.34h29.55l5.36,14.34h22.87l-31.08-82.51h-23.42Zm2.63,51.76l8.86-26.26h.22l8.76,26.26h-17.84Zm119.43-1.64h-23.52v32.39h-21.45v-82.51h47.38v18.17h-25.93v13.79h23.52v18.16Zm26.58-50.12l-31.73,82.51h22.76l5.69-14.34h29.55l5.37,14.34h22.86l-31.08-82.51h-23.42Zm2.63,51.76l8.86-26.26h.22l8.75,26.26h-17.84Zm56.02-51.76h21.45v82.51h-21.45v-82.51Zm129.01,82.51h-21.45l-6.02-47.49h-.22l-19.81,47.49h-8.53l-18.93-47.49h-.22l-6.89,47.49h-21.34l14.01-82.51h21.12l16.74,44.1,17.73-44.1h21.34l12.47,82.51Z"/>
    </g>
  </g>
</svg>