<?xml version="1.0" encoding="UTF-8"?>
<svg id="Layer_1" data-name="Layer 1" xmlns="http://www.w3.org/2000/svg" viewBox="0 0 1000 444.44">
  <defs>
    <style>
      .cls-1 {
        fill: #fff;
      }
    </style>
  </defs>
  <path class="cls-1" d="M108.87,267.07c-7.14-7.16-14.29-14.3-21.46-21.41-1.73-1.71-3.9-2.78-6.17-3.52-2.05-.67-4.24-.54-6.38-.41-1.03,.06-2.09,.35-3.06,.72-3.4,1.26-6.05,3.59-8.5,6.18-.94,1-1.94,1.94-2.92,2.91-1.27,1.26-2.57,2.5-3.81,3.8-1.11,1.16-2.11,2.43-3.23,3.57-2.83,2.89-5.76,5.67-8.55,8.6-2.74,2.89-4.28,6.33-4.27,10.39,0,2.13,.25,4.16,1.12,6.18,.64,1.48,1.28,2.87,2.4,4.02,1.39,1.44,2.84,2.74,4.7,3.67,1.77,.88,3.46,1.6,5.46,1.48,.94-.05,1.89-.04,2.83,0,3.54,.13,6.42-1.44,8.96-3.65,2.08-1.81,3.95-3.86,5.96-5.86-.95-1.7-1.84-3.38-2.82-5.01-2.53-4.2-5.09-8.37-7.65-12.55-.62-1.01-1.24-2.03-1.88-3.03-.31-.49-.51-.95,.19-1.58,.51,.48,1.05,.94,1.53,1.45,.63,.68,1.17,1.46,1.83,2.12,7.95,7.97,15.9,15.92,23.87,23.86,.66,.65,1.4,1.23,2.16,1.77,2.33,1.66,4.85,2.72,7.79,2.53,1.01-.07,2.02-.04,3.03-.02,3.97,.09,6.92-1.96,9.52-4.64,1.84-1.89,2.88-4.23,3.61-6.77,.93-3.24,.48-6.38-.64-9.38-.75-2.02-2.09-3.87-3.66-5.43Zm-49.98-5.74c-.08-.05-.17-.1-.26-.14,.04-.04,.1-.13,.13-.13,.1,.02,.18,.08,.27,.13-.04,.04-.09,.09-.14,.14Z"/>
  <path class="cls-1" d="M45.34,176.42c2.09,2.1,4.26,4.11,6.35,6.22,1.91,1.94,3.7,4,5.63,5.91,3.09,3.05,6.17,6.12,9.43,8.99,2.58,2.27,5.59,3.79,9.21,3.59,.94-.05,1.9-.1,2.83,0,1.62,.18,3.05-.54,4.37-1.13,1.85-.83,3.54-2.09,4.99-3.6,4.15-4.31,8.32-8.6,12.51-12.87,2.45-2.5,4.91-5.01,7.44-7.42,2.53-2.41,4.39-5.22,4.87-8.7,.26-1.89,.14-3.87-.05-5.78-.21-2.07-1.24-3.86-2.32-5.63-1.89-3.06-4.73-4.85-7.97-6.01-2.15-.77-4.52-.65-6.77-.42-2.15,.22-4.19,.93-6.08,2.15-2.8,1.81-4.94,4.3-7.28,6.59-.32,.31-.47,.79-.68,1.17,1.48,2.46,2.95,4.89,4.42,7.32,1.46,2.44,2.85,4.93,4.39,7.31,2.72,4.22,3.96,6.46,3.82,7.31-.79-.01-1.12-.69-1.57-1.14-7.63-7.61-15.25-15.24-22.87-22.87-1.52-1.53-3.02-3.08-4.59-4.55-2.58-2.41-5.76-3.4-9.22-3.72-1.91-.18-3.75,.21-5.48,.81-2.72,.94-5.15,2.41-6.95,4.77-1.77,2.3-2.87,4.77-3.36,7.71-.43,2.56-.1,4.91,.59,7.24,.78,2.63,2.44,4.81,4.37,6.74Z"/>
  <path class="cls-1" d="M121.31,234.4c6.63-6.6,13.25-13.21,19.84-19.85,1.51-1.52,2.91-3.15,4.4-4.69,1.42-1.49,2.32-3.32,2.77-5.23,1.12-4.73,.58-9.21-2.31-13.34-2.58-3.69-6.21-5.64-10.47-6.17-4.92-.61-9.34,.88-12.94,4.48-6.89,6.91-13.79,13.81-20.7,20.7-2.07,2.06-3.47,4.51-4.32,7.29-.64,2.08-.76,4.28-.37,6.36,.47,2.54,1.41,5,3.19,6.98,1.06,1.18,2.23,2.27,3.36,3.39,2.47,2.48,4.94,4.96,7.43,7.41,.46,.46,1.05,.79,1.58,1.18,.38,.53,.72,1.1,1.16,1.57,1.97,2.11,3.93,4.22,5.96,6.26,1.61,1.61,3.24,3.22,5.02,4.63,1.83,1.45,3.99,2.17,6.36,2.52,2.64,.38,5.13,.1,7.63-.65,1.89-.56,3.42-1.75,4.91-2.92,1.79-1.42,2.94-3.38,3.93-5.42,1.12-2.31,1.03-4.77,1.09-7.24,.08-2.73-.84-5.2-2.36-7.23-2-2.66-4.52-4.94-6.83-7.36-.54-.57-1.17-.5-1.82-.09-1,.65-2.03,1.25-3.04,1.87-5.35,3.29-10.7,6.59-16.07,9.85-.51,.31-1.21,.32-1.83,.47,.18,.91-.44,.86-1.04,.83l1.01-.83c.54-.73,1.02-1.53,1.65-2.18,.88-.91,1.91-1.68,2.81-2.58Z"/>
  <path class="cls-1" d="M51.5,232.47c.75-.75,1.43-1.58,2.05-2.45,1.18-1.67,1.97-3.56,2.37-5.55,.37-1.87,.48-3.75,.09-5.69-.3-1.5-.73-2.96-1.38-4.27-.75-1.51-1.88-2.89-3.05-4.13-2.78-2.93-5.67-5.75-8.56-8.58-.75-.74-1.63-1.35-2.45-2.02-.38-.53-.71-1.11-1.16-1.57-2.74-2.78-5.52-5.52-8.26-8.29-2.2-2.21-4.69-3.75-7.85-4.35-2.02-.38-4.07-.54-5.97-.17-4.79,.94-8.36,3.71-10.61,8.14-.58,1.15-.57,2.51-1.24,3.51-.53,.79-.63,1.5-.63,2.33,0,.74-.02,1.48,.01,2.22,.02,.49-.12,.99,.49,1.39,.35,.23,.53,.92,.57,1.42,.14,1.53,.95,2.75,1.75,3.95,1.84,2.76,4.51,4.74,6.75,7.19,.67-.14,1.32-.13,1.8-.41,3.07-1.79,6.09-3.68,9.15-5.48,4.71-2.76,9.15-5.95,14.05-8.39-.27,1.2-1.08,2.03-1.91,2.86-6.79,6.78-13.58,13.57-20.36,20.35-2.62,2.62-5.22,5.25-7.86,7.84-1.06,1.04-1.91,2.21-2.51,3.54-.51,1.13-.66,2.46-1.32,3.47-.63,.97-.5,1.94-.65,2.93-.18,1.16,.45,2.07,.69,3.11,.43,1.86,.91,3.7,2,5.27,2.97,4.3,7.02,6.73,12.34,6.82,.47,0,.94-.02,1.41,0,1.99,.1,3.78-.7,5.47-1.51,2.08-1,3.87-2.51,5.52-4.18,6.39-6.46,12.84-12.86,19.25-19.3Z"/>
  <path class="cls-1" d="M116.89,239.16s0-.02,0-.03c0,0-.02,.02-.03,.02,0,0,0,0,0,.01,.01,0,.03,0,.04,0Z"/>
  <path class="cls-1" d="M245.35,273.91c1.02-.62,1.48-.95,1.98-1.19,5.73-2.77,8.68-7.22,8.41-13.69-.08-1.85,0-3.7-.07-5.54-.03-.79-.11-1.62-.39-2.34-2.57-6.64-8.78-10.94-16.21-11.04-7.28-.1-14.56-.02-21.84-.02-1.02,0-2.03,0-2.84,0-1.26,1.32-1.49,2.6-1.49,4.03,.03,15.48,.02,30.95,0,46.43,0,1.31,.14,2.48,1.12,3.23h10.41c.41-.91,1.16-1.81,1.17-2.72,.06-4.26,.11-8.53-.25-12.76-.12-1.37,.33-2.11,.98-3.09h5.87c1.21,1.97,2.58,4.04,3.79,6.2,1.99,3.56,3.82,7.22,5.87,10.75,.44,.77,1.52,1.61,2.33,1.64,3.76,.17,7.54,.08,11.57,.08-.19-4.26-3-6.88-4.6-10.01-1.69-3.32-3.75-6.44-5.82-9.95Zm-1.51-15.37c-.25,2.11-.87,4.02-3.17,4.87-.84,.31-1.58,.89-2.36,1.34h-12.4c-.36-.34-1.01-.96-1.23-1.16v-12.26c.37-.3,.73-.83,1.08-.83,4.13,.02,8.28-.64,12.39,.4,4.04,1.02,6.16,3.71,5.69,7.62Z"/>
  <path class="cls-1" d="M579.48,198.73c.52,2.06,1.3,4.05,2.02,6.22h12.79c.09-.46,.29-.83,.19-1.09-6.19-16.32-12.39-32.64-18.63-48.94-.4-1.04-1.03-1.99-1.52-2.94h-14.16c-.37,.59-.81,1.12-1.06,1.73-1.56,3.87-3.08,7.75-4.59,11.64-2.17,5.59-4.32,11.19-6.5,16.77-.57,1.48-1.35,2.88-1.81,4.39-1.35,4.43-3.16,8.68-4.86,12.98-.67,1.69-1.88,3.38-1.28,5.57,4.39,.13,8.61,.18,12.83,0,1.08-2.85,2.03-5.38,3.16-8.38,7.06,0,14.09,0,21.13,0,1.38,0,1.96,.74,2.29,2.07Zm-7.74-12.45c-4.14-.38-8.43,.89-12.68-.96,1.36-3.66,2.62-7.05,3.86-10.45,1.2-3.29,2.37-6.58,3.81-10.58,1.02,1.02,1.79,1.45,2.02,2.07,2.1,5.86,4.12,11.75,6.15,17.64,.11,.32,.12,.67,.16,.97-.84,1.22-2.04,1.43-3.33,1.31Z"/>
  <path class="cls-1" d="M674.3,180.12c4.17-5.21,10.76-6.74,14.29-.62v8.3c0,2.77-.04,5.55,.01,8.32,.06,2.84-.24,5.7,.24,8.9,3.64,.21,7.04,.13,10.48,.08,.27-.77,.6-1.29,.6-1.8,.03-9.02,.12-18.04-.03-27.05-.07-4.16-2.11-7.49-5.91-9.33-6.07-2.95-11.89-1.72-17.49,1.49-.53,.31-1.1,.56-2.11,1.08v-16.77c-2.14-.87-6.31-1.2-9.83-.78-.6,.07-1.16,.56-1.55,.77v52.24h11.32v-24.82Z"/>
  <path class="cls-1" d="M374.24,263.96c2.28-2.81,5.57-4.79,7.21-8.6-.9-.28-1.6-.68-2.32-.71-2.08-.08-4.19,.19-6.24-.07-3.72-.46-5.98,1.37-8.05,4.14-2.53,3.38-5.36,6.54-8.11,9.76-.3,.35-.9,.46-1.8,.89,0-1.43,0-2.44,0-3.44,0-7.51,.02-15.02,0-22.54,0-1.1,.38-2.37-1.25-3.32-2.06,0-4.48,.09-6.89-.03-1.6-.08-2.65,.5-3.33,1.86,0,15.97,.01,31.92-.02,47.86,0,1.68-.06,3.26,1.59,3.97h9.3c1.07-1.9,.7-3.91,.56-5.77-.24-3.2,.81-5.6,4.11-7.67,.62,.69,1.27,1.26,1.75,1.95,1.43,2.06,2.74,4.21,4.2,6.25,1.38,1.93,2.9,3.76,4.19,5.4,3.85,0,7.2-.02,10.55,.01,1,0,1.82-.16,2.28-1.37-4.46-6.96-10.26-13.1-14.71-19.99,2.51-3.08,4.75-5.83,6.98-8.58Z"/>
  <path class="cls-1" d="M487.08,263.85c-3.9-8.08-10.67-9.68-16.91-10.52-2.98,1.05-6.27,.53-9.18,2.36-2.42,1.52-4.76,2.91-6.61,5.18-1.92,2.36-3.06,4.97-3.95,7.84-1.57,5.08-.77,9.89,1.2,14.63,2.64,6.37,7.91,9.47,14.19,11.17,1.84,.5,3.85,.76,5.75,.61,3.26-.25,6.56-.84,9.54-2.2,2.18-1,4.81-1.69,5.72-4.72-1.4-1.91-2.87-3.91-4.36-5.95-.84,.15-1.69,.04-2.13,.42-1.82,1.55-4.05,2.02-6.22,2.68-4.91,1.49-9.39-1.64-11.44-4.84-.35-.55-.11-1.48-.16-2.52h26.41c2.18-1.76,.78-3.48,.69-5.07-.19-3.18-1.12-6.1-2.54-9.05Zm-9.07,6.4c-5.17,.06-10.34,.04-15.51-.04-.42,0-.82-.67-1.18-.98,1.32-4.14,4.41-6.97,8.08-6.94,1.97,.02,4,.7,5.89,1.38,1.33,.48,2.45,2.43,3.95,5.6-.39,.32-.8,.96-1.23,.97Z"/>
  <path class="cls-1" d="M560.06,255.15c-2.62-1.17-7.1-1.33-10.17-1.36-3.18-.03-5.95,1.12-8.38,2.56-4.86,2.88-8.06,7.39-9.23,12.96-1.81,8.59,.32,15.94,7.5,21.53,1.94,1.51,4.12,2.3,6.37,3.07,2.39,.82,4.82,1.45,7.33,1.24,3.51-.3,6.88-1.33,10.17-2.56,2-.75,3.84-1.85,5.34-3.63-1.4-2.23-2.72-4.33-4.2-6.69-.85,.17-1.87,.21-2.77,.57-1.67,.67-3.26,1.52-4.9,2.28-3.85,1.78-9.6-.34-12.04-3.89-.73-1.06-.9-2.02-.22-3.28,1.2,0,2.34,0,3.48,0,6.59,0,13.17,.02,19.76,0,1.1,0,2.35,.4,3.73-1.12-.29-2.48-.49-4.98-.89-7.44-1.08-6.66-4.64-11.47-10.86-14.24Zm-16.43,14.98c-.91-1.35,.14-2.22,.72-3.31,1.03-1.93,2.52-3.25,4.55-3.91,5.82-1.89,10.06,1.17,12.26,6.42-2.13,1.19-9.22,1.47-17.52,.8Z"/>
  <path class="cls-1" d="M410.45,255.56c-3.47-1.59-6.95-1.99-10.76-1.75-3.85,.24-7.06,1.61-10.11,3.66-3.57,2.4-5.91,5.96-7.15,9.84-1.23,3.86-1.15,8.01-.33,12.19,1.41,7.18,5.91,11.32,12.3,13.87,4.07,1.62,8.23,2.42,12.64,1.22,3.29-.9,6.54-1.82,9.44-3.65,1.92-1.21,2.11-2.35,.8-4.28-.96-1.41-2-2.77-3.04-4.21h-2.35c-5.14,4.07-9.59,4.25-14.5,1.35-2.47-1.46-3.53-3.28-3.17-5.83h26.54c.25-1.17,.58-2.23,.7-3.31,.43-4.02-.97-7.7-2.75-11.11-1.81-3.48-4.51-6.27-8.25-7.99Zm-.31,14.66c-5.45,0-10.95,.02-16.44-.04-.34,0-.68-.55-.99-.83,2.06-5.24,6.26-8.28,12.13-6.45,1.91,.59,3.42,1.71,4.41,3.55,.63,1.16,1.92,2.07,.89,3.77Z"/>
  <path class="cls-1" d="M286.81,254.98c-3.58-1.41-7.38-1.4-11.26-1.12-4.5,.33-8.05,2.26-11.24,5.13-3.33,3-5.13,6.73-5.94,11.21-1.12,6.2-.18,12,3.63,16.79,5.19,6.53,12.27,9.16,20.65,7.58,3.75-.71,7.14-2.25,10.02-4.75,4.68-4.08,6.61-9.39,6.71-15.46,.34-9.21-5.21-16.48-12.57-19.38Zm-1.63,27.18c-3.22,3.75-9.82,3.85-13.12-.12-1.62-1.95-2.85-4.17-2.49-6.92,.13-1.02,.07-2.08,.05-3.12-.09-4.19,4.69-9.02,9.08-8.48,4.72-.14,7.46,3.05,8.84,6.84,1.57,4.29,.55,8.42-2.36,11.81Z"/>
  <path class="cls-1" d="M649.35,204.99c7.64-2.94,9.5-9.67,6.52-17.18-.84-2.12-2.74-2.99-4.47-4.04-3.47-2.11-7.4-2.84-11.33-3.44-1.54-.23-2.9-.65-3.97-1.79-1.09-1.16-.98-2.31,.34-3.15,1.64-1.05,3.5-1.23,5.32-.84,3.32,.71,6.75,1.29,9.14,4.37,2.49-2.66,4.86-5.04,4.66-8.59-1.23-.73-2.08-1.32-3.01-1.76-2.11-1.02-4.07-2.59-6.49-2.67-3.26-.11-6.39-.85-9.82-.27-5.97,1.02-10.71,4.43-12.2,10.2-1.08,4.17,1.39,10.02,5.27,11.78,3.91,1.78,8.05,2.96,12.32,3.5,2.12,.27,3.58,1.28,4.73,3.02-.19,.54-.22,1.08-.51,1.36-2.22,2.23-5.07,2.96-7.87,1.91-2.93-1.09-6.14-1.74-8.6-3.99-.55-.51-1.58-.5-2.29-.7-1.37,2.03-2.51,3.73-3.79,5.64v2.76c2.81,2.15,5.83,3.63,9.19,4.47,5.69,1.42,11.37,1.53,16.87-.59Z"/>
  <path class="cls-1" d="M324.01,263.98c2.33-.02,4.21,.92,5.9,2.29,.93,.76,1.71,1.54,3.24,1.07,1.89-1.96,4.23-3.81,5.98-6.12-.35-.63-.46-.98-.68-1.2-5.54-5.62-9.64-6.58-17.08-6.16-4.14,.23-7.71,1.52-11,3.99-4.65,3.5-7.29,7.97-7.34,13.86-.01,1.62,.03,3.24,0,4.85-.1,4.85,1.79,9,5.14,12.24,5.15,4.99,11.36,7.01,18.65,5.85,4.98-.8,9.06-2.75,12.2-6.98-.21-.55-.26-.92-.47-1.15-1.79-1.95-3.62-3.87-4.9-5.23-2.54-.77-3.33,.59-4.32,1.49-2.82,2.58-8.9,1.89-11.16-.06-4.18-3.62-5.18-8.58-2.69-13.51,1.76-3.5,4.58-5.19,8.52-5.23Z"/>
  <path class="cls-1" d="M448.68,248.61c.52-2.27,1.04-4.54,1.61-7.03-1.1-.6-1.91-1.22-2.83-1.52-3.36-1.09-6.88-1.22-10.09,.08-6.24,2.51-8.37,7.88-8.64,14.36-1.67,.08-3.13,.15-4.49,.21q-1.55,1.68-1.62,8.26c.48,.52,1.03,1.1,1.5,1.6,1.61,.11,3.06,.21,4.65,.32v27.52c.5,.48,1.08,1.02,1.48,1.39h10.04c.21-1.33,.58-2.62,.59-3.91,.06-7.17,.02-14.34,.03-21.51,0-1.12,.1-2.25,.15-3.53h6.2c1.21-2.88,.53-5.65,.6-8.33,.02-.67-.55-1.35-.88-2.07h-5.89v-3.93c2.12-2.51,4.89-1.43,7.59-1.92Z"/>
  <path class="cls-1" d="M220.92,201.41c1.07-2.72,2.27-5.39,3.43-8.13,8.98-.49,24.32-.31,26.98,.25,1.46,3.68,2.91,7.3,4.4,11.05,2.22,1.37,4.49,1.64,6.96-.11-7.2-17.54-14.36-35-21.52-52.47h-6.79c-7.11,17.31-14.26,34.7-21.43,52.16,.59,.53,1.19,1.06,1.71,1.52,4.66-.1,4.63-.12,6.27-4.28Zm16.6-42.19c.92,1.41,1.46,2.01,1.74,2.71,3.3,8.19,6.57,16.4,10.01,25-1.14,.36-1.95,.81-2.76,.82-5.88,.06-11.77,.02-17.65,.05-1,0-1.84-.13-2.41-1.5,3.52-8.6,7.14-17.46,11.07-27.08Z"/>
  <path class="cls-1" d="M719.34,206.41c1.61,.13,3.24,.11,4.85,0,2.57-.17,4.88-.95,6.26-3.04-.46-1.92-.84-3.58-1.26-5.22-.55-2.15-1.57-2.77-3.74-2.29-.65,.14-1.29,.31-1.87,.45-1.35-.93-2.03-2.16-2.06-3.55-.08-5.06-.03-10.13-.03-15.04,2.16-2.27,4.91-.33,7.41-1.7,.75-2.88,.23-6.06,.25-9.44-2.56-.35-5-.68-7.55-1.03v-7.81c-.57-.68-1.15-1.37-1.33-1.57h-9.69c-1.39,3.03-.03,6.36-.83,9.49-2,.51-4.34-.33-5.94,1.97,.67,2.81-1.53,6.37,1.67,8.96h3.22c1.6,.98,1.28,2.21,1.28,3.33,0,5.08,0,10.17,0,15.25,0,2.05,.25,3.91,1.28,5.88,1.79,3.43,4.42,5.06,8.06,5.37Z"/>
  <path class="cls-1" d="M296.19,152.76v16.77c-1.13-.34-1.82-.41-2.36-.73-.78-.45-1.39-1.23-2.19-1.61-3.42-1.63-6.84-2.35-10.78-1.56-3.53,.71-6.35,2.13-8.95,4.51-3.39,3.1-4.21,7.36-5.5,11.4-.51,1.59-.9,3.42-.63,5.02,.72,4.29,1.32,8.63,3.75,12.48,3.02,4.8,7.51,7.29,12.84,7.87,4.35,.47,8.48-.95,11.88-3.98,.39-.34,.93-.51,1.68-.91,.15,1.85,.82,3.02,2.47,3.5,1.76,.51,2.86-.19,3.5-1.39v-51.61c-1.97-.93-3.75-.99-5.71,.24Zm.58,33.38c0,1.73-.19,3.49,.04,5.19,.53,3.81-1.59,6.34-4.38,7.99-9.11,5.39-17.27,1.45-20.07-7.94-1.48-4.97-.68-9.76,1.47-14.3,2.53-5.33,8.55-8.29,14.74-6.01,1.59,.59,3.17,1.01,4.56,2.19,2.64,2.26,4.19,4.78,3.67,8.38-.21,1.47-.03,3-.03,4.5Z"/>
  <path class="cls-1" d="M829.37,240.09c-1.13,.19-2.67-.57-4.05,1.05,0,2.69,.04,5.56-.01,8.43-.05,2.82,.24,5.67-.17,8.42-.56,0-.85,.09-1-.01-2.92-2.17-5.84-4.32-9.75-4.16-1.68-1.37-3.28,.26-4.92,.14-4.09-.28-6.98,2.23-9.38,4.84-3.7,4.02-5.07,9.22-5.27,14.61-.08,2.01,.47,4.05,.65,6.08,.37,3.96,2.1,7.31,4.71,10.2,3.35,3.69,7.62,5.43,12.58,5.47,3.01,.02,5.73-1.09,8.3-2.55,1.25-.71,2.42-1.57,3.81-2.48,.37,1.34,.66,2.39,1.06,3.82,1.58-.36,3.2,.64,4.62-1.19,0-1.58,0-3.3,0-5.02,0-14.68,.01-29.35-.02-44.03,0-1.19,.54-2.6-1.16-3.63Zm-6.85,46.5c-4.14,3.26-8.89,4.26-13.86,2.54-1.83-.64-3.59-2.16-4.82-3.72-2.29-2.91-3.49-6.55-3.55-10.15-.08-4.44,.79-8.89,3.79-12.5,2.55-3.07,7.92-5.64,12.71-3.58,1.45,.62,3.01,1.08,4.32,1.91,3.95,2.5,4.73,4.09,4.72,9.4-.42,2.68-.06,5.97,.03,9.25,.07,2.91-1.18,5.15-3.33,6.85Z"/>
  <path class="cls-1" d="M633.06,245.93h26.15c2.49-1.22,1.83-3.17,1.79-5.34-.75-.22-1.28-.49-1.8-.49-10.07-.03-20.13-.03-30.2,0-.72,0-1.44,.37-2.23,.59,0,1.54,0,2.79,0,4.05,0,14.8,0,29.61,0,44.41,0,.93-.1,1.87,.04,2.77,.11,.71,.53,1.37,.83,2.11,1.85-.53,3.82,.73,5.15-1.64v-23.45h26.5c2.06-2.17,2.12-2.59,1.26-4.32-.74-1.49-2-1.59-3.4-1.59-6.48,.01-12.96,0-19.44,.02-.67,0-1.34,.12-2,.25-2.46,.51-3.06,.08-3.08-2.53-.04-4.51-.03-9.02,0-13.53,0-.41,.26-.83,.43-1.32Z"/>
  <path class="cls-1" d="M864.83,255.34c-.8-.4-1.54-.93-2.4-1.45-1.32,0-2.81,.32-4.07-.08-1.41-.45-2.56-.63-3.91,.05-.57,.28-1.37,.16-2.06,.11-1.53-.1-2.84,.41-4.24,.98-2.55,1.05-4.34,2.9-6.06,4.78-.67,2.52,.45,3.76,2.65,4.2,1.76-1.36,3.29-3.11,5.22-3.91,2.85-1.19,6.09-1.46,9.11-.82,4.36,.93,5.97,3.24,6.54,7.22,.21,1.46,.03,2.97,.03,5.19-1.19-.42-1.9-.62-2.57-.92-1.02-.45-2.02-.96-3.02-1.47-2.5-1.29-5.2-.7-7.81-.73-4.89-.06-8.43,2.15-11.08,6.33-1.03,1.62-.91,3.2-1.36,4.79-.95,3.42-.09,6.45,1.74,9.2,1,1.51,2.36,2.97,3.88,3.92,3.13,1.95,6.66,3.09,10.38,2.39,2.29-.43,4.49-1.45,6.69-2.3,.8-.31,1.49-.9,2.33-1.42,.76,.95,1.31,1.64,1.94,2.42h3.19c.49-.45,1.07-1,1.46-1.36,0-8.93,.13-17.47-.05-26.01-.1-4.79-1.97-8.82-6.56-11.11Zm1.29,28.02c-.11,1.07-.47,2.35-1.18,3.08-1.83,1.89-3.93,3.51-6.8,3.52-1.61,0-3.23,.06-4.84,.03-3.56-.07-7.05-2.49-7.93-5.47-1.04-3.51,.35-8.51,3.32-10.12,2.97-1.61,6.12-2.7,9.77-1.39,2.98,1.06,5.71,2.2,7.71,4.95,0,1.74,.14,3.59-.05,5.41Z"/>
  <path class="cls-1" d="M360.68,203.72c5.4,3.04,10.89,3.79,16.85,2.15,3.28-.9,5.93-2.73,8.52-4.77q.19-4.02-3.1-3.96c-2.25,1.45-4.25,2.75-6.36,4.11-2.11,0-4.31-.08-6.5,.02-2.97,.14-5.23-1.15-7.39-3.03-2.9-2.52-4.48-5.64-4.96-9.37,.71-1.55,2.11-1.17,3.33-1.17,8.21-.01,16.43,.01,24.64-.03,1.2,0,2.58,.47,3.63-.82,.89-3.33-.66-6.4-1.65-9.45-1.08-3.33-2.96-6.22-6.01-8.41-2.48-1.78-4.98-2.72-7.96-3.42-3.36-.79-6.43-.11-9.35,.64-3.48,.9-6.33,3.34-8.55,6.42-2.4,3.33-3.58,7.02-4.06,11.01-.42,3.47-.03,6.97,1.04,10.17,1.37,4.1,3.8,7.62,7.86,9.91Zm-.95-27.36c2.4-3.98,5.97-6.57,10.6-6.44,5.29,.15,9.69,2.46,11.92,7.7,.67,1.56,1.28,3.15,2.09,5.16-.77,.38-1.34,.91-1.92,.91-8.06,0-16.12-.06-24.18-.11-.09,0-.17-.14-.39-.33-.73-2.57,.58-4.75,1.87-6.89Z"/>
  <path class="cls-1" d="M514.36,198.39c-.63-.63-1.35-1.37-2.24-2.27-4.98,4.53-7.24,5.48-13.25,5.13-1.27-.07-2.69,.24-3.78-.23-4.64-2-7.57-5.62-8.91-10.46-.52-1.87,.28-2.74,2.31-2.85,.69-.04,1.39,0,2.08,0,7.75,0,15.5,.02,23.25-.02,1.2,0,2.61,.46,3.51-1.21-.03-3.79-.14-7.8-2.2-11.34-1.02-1.75-2.48-3.27-3.86-4.79-5.17-5.68-11.77-6.07-18.48-4.15-4.72,1.35-8.28,4.81-10.48,9.3-2.31,4.72-3.41,9.73-1.96,15.41,.36,1.42,.63,2.88,1.2,4.22,3.46,8.19,11.51,12.27,20.28,11.4,3.78-.37,7-1.78,10.12-3.62,1.52-.9,3.24-1.99,2.41-4.51Zm-22.11-26.46c2.41-1.49,5.13-2.63,8.13-2.04,6.9,1.36,11.99,7.48,11.3,13.72-.51,.04-1.06,.11-1.62,.11-7.15,0-14.31,0-21.46,0-1.16,0-2.36,.17-2.96-1.16,.64-4.52,2.72-8.24,6.6-10.64Z"/>
  <path class="cls-1" d="M505.27,240.18h-8.94c-.47,.5-1.02,1.08-1.48,1.57,0,16.1,0,32.06,0,48.01,0,1.48-.16,2.99,1.21,4.1h8.97c1.21-.48,1.33-1.46,1.32-2.57-.03-3.01-.02-6.01-.02-9.02,0-12.84,.01-25.67-.02-38.51,0-1.2,.47-2.6-1.04-3.59Z"/>
  <path class="cls-1" d="M525.76,253.36c0-3.58,.04-7.16-.03-10.73-.01-.83-.37-1.65-.57-2.47h-9.57c-.4,.39-.89,.86-1.32,1.29,0,16.48,.01,32.4-.02,48.33,0,1.68-.05,3.26,1.6,3.97h8.93c1.44-1.11,.96-2.48,.96-3.68,.03-12.23,.02-24.47,.02-36.7Z"/>
  <path class="cls-1" d="M703.54,268.32c-.64-5-3.62-8.53-7.3-11.5-1.61-1.3-3.71-2.41-5.72-2.7-2.83-.4-5.68-.73-8.7-.35-4.38,.55-7.53,2.82-10.15,5.68-4.22,4.62-5.55,10.5-5.27,16.7,.06,1.23,.58,2.43,.64,3.66,.13,2.61,1.58,4.67,2.78,6.77,2.29,4.01,5.9,6.28,10.33,7.73,5.32,1.74,10.1,.68,14.65-1.87,7.21-4.03,9.15-11.05,10.01-17.84,0-1.67,.17-2.64-.05-3.51-.24-.97-1.11-1.82-1.23-2.78Zm-8.44,17.23c-3.51,4.48-12.17,6.55-17.83,1.38-2.14-1.96-3.93-4.16-4.33-7.21-.16-1.22-.72-2.4-.89-3.62-.16-1.2-.19-2.46-.03-3.66,.17-1.34,.59-2.65,.95-3.96,1.34-4.91,4.42-8.28,9.32-9.61,4.55-1.24,8.66,.2,12,3.35,1.36,1.28,2.41,3.1,3.07,4.87,.87,2.31,1.21,4.82,1.65,6.68-.54,4.65-1.36,8.52-3.92,11.79Z"/>
  <path class="cls-1" d="M955.08,270.25c-.53-2.59-.97-5.11-2.32-7.36-3.09-5.16-7.41-8.35-13.64-9.07-2.19-.25-4.21,.15-6.31,.16-2.84,.01-5.31,1.35-7.37,3.01-5.37,4.32-8.2,9.97-7.74,17.44-.79,3.14,.36,6.51,1.72,9.55,2.26,5.05,6.21,8.74,11.65,10.34,6.15,1.81,11.69,.56,16.89-3.36,3.18-2.39,4.55-5.8,6.54-8.89,.23-.35,.32-.86,.3-1.29-.19-3.5,1.03-6.88,.28-10.53Zm-9.69,15.88c-5.7,6.2-16.89,4.83-20.73-4.07-1.55-3.58-2.28-7.41-1.47-11.09,1.47-6.7,5.29-12.79,14.31-12.4,4.43,.19,7.67,2.68,9.96,6.39,1.74,2.82,2.4,5.93,2.1,9.02,.28,4.77-.98,8.68-4.17,12.15Z"/>
  <path class="cls-1" d="M743.27,254.73h-3.83c-1.16,1.2-1.55,2.5-1.54,4.08,.06,6.82,.02,13.64,.03,20.46,0,.67-.09,1.48,.22,1.99,.86,1.39,.16,2.56-.54,3.5-1.91,2.6-4.69,4.07-7.8,4.52-2.37,.34-4.82,.07-6.75,.07-3.51-2.17-4.48-4.94-4.41-8.48,.16-8.19,.05-16.39,.05-24.46q-1.81-1.78-5.19-1.75c-.22,1.22-.58,2.3-.58,3.38-.04,8.79,.02,17.57-.05,26.36-.02,2.66,1.83,4.52,2.51,6.86,2.72,1.84,5.44,3.71,8.88,3.9,3.86,.22,7.37-.82,10.58-3,.89-.61,1.99-.93,3.29-1.52,.22,2.5,1.49,3.58,3.75,3.9,.76-.49,1.68-1.09,2.5-1.62,0-11.57,0-22.9,0-34.22,0-1.48,.13-2.98-1.13-3.97Z"/>
  <path class="cls-1" d="M397.66,203.95c.17,.25,.29,.44,.44,.62,1.24,1.53,2.75,1.35,4.32,.64,1.68-.76,1.89-1.98,1.15-3.55-.13-.28-.02-.68-.02-1.03,0-7.39,0-14.79-.01-22.18,0-1.46,.41-2.77,1.54-3.66,3.62-2.82,7.45-4.98,12.35-3.86,3.93,.9,5.81,3.13,5.82,7.22,.02,7.74,0,15.48,0,23.22,0,1.13,0,2.26,0,3.3,2.14,.81,4.06,1.76,5.9-.16,0-8.85,.07-17.74-.04-26.63-.03-2.46-.21-5.07-1.64-7.2-2.89-4.29-7.21-5.9-12.16-5.45-3.23,.3-6.39,1.28-9.1,3.3-.59,.44-1.34,.65-2.23,1.07-.3-1.19-.51-2.04-.81-3.21-1.26-.22-2.66-.45-3.76-.64-1.78,1.44-1.76,3.02-1.76,4.66,.03,11.09,.01,22.18,.01,33.54Z"/>
  <path class="cls-1" d="M784.78,259.32c-1.03-2.46-2.93-3.89-5.14-4.69-2.17-.78-4.58-1.02-6.91-1.14-1.54-.08-3.12,.46-4.82,.75-1.78,1.06-3.72,2.22-5.95,3.55-.91-1.09-1.75-2.08-2.62-3.13-1.3,.14-2.76-.61-3.98,.87v37.47c.49,.46,1.13,1.07,1.79,1.7,1.41-.55,2.63-1.03,3.88-1.52v-28.53c4.63-5.71,10.31-6.78,16.57-4.55,.99,1.22,1.78,2.19,2.6,3.2v29.16c1.17,.74,2.47,1.55,3.81,2.4,.82-.77,1.39-1.31,2.06-1.94,0-9.41-.04-18.55,.03-27.68,.02-2.12-.51-3.96-1.33-5.91Z"/>
  <path class="cls-1" d="M588.93,257.67c-.57-1.15-1.01-2.03-1.46-2.94h-9.35c-.22,1.09-.58,2.16-.63,3.25-.1,2.07-.03,4.15-.03,6.23,0,8.89,0,17.77,0,26.66,0,1.12-.29,2.37,1.12,2.96h8.72c.53-.58,1.06-1.17,1.65-1.8v-24.15c3.16-2.95,6.94-3.37,10.77-3.15,1.23-2.02,1.45-5.72,.66-10.32-4.53-1.84-7.76,1.68-11.45,3.27Z"/>
  <path class="cls-1" d="M445.75,204.07v-27.44c2.94-3.42,4.06-4.17,8.21-5.55,4.43-1.48,7.68-.5,11.01,3.47v29.54c1.94,1.7,3.8,2.25,5.86,.46,0-9.73,0-19.44,0-29.16,0-1.51-.41-2.85-1.06-4.24-1.2-2.59-3.6-3.74-5.15-4.94-4.22-1.14-7.94-1.3-12.43,.14-1.31,.76-3.43,2-6.45,3.75,.5-3.13-.97-3.83-2.58-4.24-1.6-.4-2.58,.56-3.12,1.7v36.53q2.42,2.24,5.69-.02Z"/>
  <path class="cls-1" d="M619.6,165.77c-3.06-.34-5.46,1.28-7.91,2.76-.63,.38-1.35,.62-2.23,1.01-.26-1.2-.45-2.05-.65-2.93-3.61-.83-7.13-1.63-10.39,.49-.56,8.78-.35,35.27,.27,37.8h10.42c0-1.27,0-2.3,0-3.32,0-6.12,.02-12.23-.02-18.35,0-1.55,.11-3.13,1.36-4.07,1.8-1.36,3.76-2.57,6.17-2.59,1.14,0,2.28,0,3.41,0,2.96-2.96,.82-6.52,1.8-9.97-1-.39-1.59-.76-2.21-.83Z"/>
  <path class="cls-1" d="M993.81,259.55c-.25-2.78-2.71-3.73-4.57-4.69-2.02-1.04-4.6-1.63-6.85-1.43-3.44,.3-6.94,1.02-9.78,3.4-.53,.45-1.46,.44-2.22,.59-.17,.03-.39-.16-.58-.25-.35-.81-.7-1.61-1.07-2.45h-3.42c-.18,.17-.32,.23-.34,.32-.25,1.09-.67,2.18-.68,3.28-.05,11.53-.03,23.07-.03,34.52,2.73,1.7,3.74,1.53,5.78-.82,0-7.01,0-13.94-.01-20.87,0-.9,.01-1.85-.27-2.68-.7-2.01,.04-3.53,1.31-4.99,3.51-4.02,8.09-4.94,13.06-4.27,1.7,.23,3.28,1.01,4.3,2.89,.97,1.79,1.45,3.54,1.45,5.5,0,7.62-.01,15.25,.01,22.87,0,1.1-.4,2.36,.92,3.22h4.21c.08-.53,.18-.86,.18-1.2,0-9.82,0-19.63,0-29.45,0-1.35-.01-2.69-1.39-3.48Z"/>
  <path class="cls-1" d="M895.92,287.83c-1.69,.65-3.07,2.29-5.42,1.26-1.64-1.16-2.39-3.01-2.36-5.4,.08-7.17,.02-14.34,.04-21.51,0-.76,.2-1.51,.33-2.38h6.27c2.47-2.54,2.44-2.94-.49-5.39h-6.01v-9.32c-.58-.56-1.16-1.11-1.67-1.6-1.15,.4-2.1,.73-3.05,1.05-1.18,1.59-1.57,3.21-.86,5.13,.63,1.7,.36,3.37-1.02,4.95h-4.26c-.28,1.5-.54,2.89-.93,4.99,1.75,.09,2.85,.14,3.95,.2,2.11,.12,2.63,.65,2.49,2.77-.07,1-.55,1.99-.53,2.98,.21,7.58-.54,15.19,.58,22.75,.65,4.4,5.58,8.02,9.72,6.76,1.81-.55,3.44-1.71,5.1-2.56,.3-2.1-.22-3.56-1.86-4.7Z"/>
  <path class="cls-1" d="M318.08,204.59c0-8.08,.05-16.05-.03-24.01-.02-1.99,.55-3.58,1.99-4.88,2.74-2.47,5.63-4.63,9.31-4.04,2.4-1.33,1.89-3.21,1.77-5.38-2.46-.73-4.85-.9-7.11,.52-1.44,.9-2.7,2.09-4.12,3.04-.37,.24-1.03,.04-1.82,.04v-3.06q-3.12-1.36-5.17,.81v36.96c1.64,1.47,3.27,1.41,5.18,.03Z"/>
  <path class="cls-1" d="M337.25,167.52v36.49c2.19,2.13,2.54,2.16,5.71,.64v-37.18c-2.42-2.31-3.35-2.29-5.71,.05Z"/>
  <path class="cls-1" d="M732.5,181.13c-2.21,3.43-2.15,6.91,.14,9.96,5.77,0,11.62,.02,17.48-.03,.6,0,1.21-.38,1.85-.59v-7.84c-.51-.48-1.08-1.02-1.58-1.5h-17.88Z"/>
  <path class="cls-1" d="M909.62,260.8c0-1.91-.26-3.83-.4-5.79-3.66-1.56-3.93-1.51-6.01,.7,0,12.61,0,25.19,.03,37.77,0,.27,.4,.54,.69,.91h4.19c1.52-1.27,1.53-2.85,1.53-4.48-.02-9.7,0-19.41-.03-29.11Z"/>
  <path class="cls-1" d="M909.66,243.89c-1.59-1.86-3.52-1.79-5.61-1.66-2.49,2.74-2.83,4.12-1.61,6.08,.91,1.46,3.4,2.25,5.13,1.53,3.02-1.26,1.96-3.87,2.1-5.95Z"/>
  <path class="cls-1" d="M343.78,159.65v-3.17c-.9-.98-1.6-1.74-2.17-2.37h-2.78c-.89,.8-1.65,1.49-2.27,2.05v3.84c1.21,.75,2.42,1.5,3.71,2.31,1.38-1.04,2.52-1.91,3.51-2.65Z"/>
</svg>