<svg width="126" height="57" viewBox="0 0 126 57" fill="none" xmlns="http://www.w3.org/2000/svg">
  <g clip-path="url(#clip0_3939_69364)">
    <path
      d="M7.67826 31.4445H0V25.0164H7.67826V17.5137H14.2583V25.012L14.2561 25.0164H21.9366V31.4423H14.2561L14.2583 31.4401V38.9384H7.67826V31.4401V31.4445ZM32.1157 28.1126C32.1157 23.1203 36.2603 19.0706 41.3747 19.0706C42.5134 19.0706 43.6048 19.271 44.6106 19.6387C42.6511 18.1209 40.2226 17.2964 37.7216 17.3001C31.5857 17.3001 26.6112 22.158 26.6112 28.1501C26.6112 34.1421 31.5857 39 37.7216 39C40.4095 39 42.8765 38.0663 44.8 36.5138C43.7402 36.9256 42.5856 37.1524 41.3769 37.1524C36.2626 37.1546 32.1157 33.1049 32.1157 28.1126Z"
      fill="#fff" />
    <path
      d="M117.146 39C119.005 39 120.69 38.6786 122.2 38.0401C123.713 37.3994 124.977 36.4725 125.999 35.2527L122.812 32.3751C121.361 34.0352 119.565 34.863 117.42 34.863C116.092 34.863 114.906 34.579 113.867 34.0088C112.825 33.4385 112.012 32.6459 111.432 31.6265C110.849 30.6072 110.558 29.4491 110.558 28.15C110.558 26.851 110.851 25.6907 111.432 24.6714C112.012 23.652 112.825 22.8572 113.867 22.2891C114.909 21.7189 116.092 21.4348 117.42 21.4348C119.565 21.4348 121.363 22.2539 122.812 23.8942L125.999 21.0165C124.977 19.8166 123.717 18.8985 122.214 18.26C120.713 17.6193 119.034 17.3 117.175 17.3C114.969 17.3 112.982 17.7646 111.216 18.6937C109.447 19.6228 108.058 20.913 107.048 22.5599C106.037 24.209 105.531 26.0738 105.531 28.15C105.531 30.2285 106.037 32.0911 107.048 33.7402C108.058 35.3893 109.447 36.6772 111.216 37.6064C112.982 38.5355 114.958 39 117.146 39ZM97.3208 25.2724C97.3208 26.4327 96.9337 27.331 96.1572 27.9717C95.3808 28.6124 94.2466 28.9317 92.7567 28.9317H88.7125V21.6176H92.7567C94.2488 21.6176 95.3808 21.9324 96.1572 22.5621C96.9337 23.1874 97.3208 24.0923 97.3208 25.2724ZM102.745 38.6412L97.9352 31.8974C99.344 31.2985 100.433 30.4332 101.198 29.3037C101.964 28.1743 102.346 26.8312 102.346 25.2724C102.346 23.7136 101.968 22.3662 101.214 21.2257C100.458 20.0874 99.38 19.2067 97.9824 18.588C96.5826 17.9694 94.933 17.6589 93.0335 17.6589H83.7501V38.6412H88.7148V32.7956H93.2811L97.4175 38.6412H102.745ZM79.4583 21.5537V17.6567H63.2501V38.639H68.2147V30.9947H78.1418V27.0976H68.2147V21.5515H79.4583V21.5537ZM53.1992 38.6412H58.1639V17.6589H53.1992V38.6412Z"
      fill="#fff" />
  </g>
  <defs>
    <clipPath id="clip0_3939_69364">
      <rect width="126" height="56" fill="white" transform="translate(0 0.5)" />
    </clipPath>
  </defs>
</svg>