<?xml version="1.0" encoding="UTF-8"?>
<svg id="Layer_1" data-name="Layer 1" xmlns="http://www.w3.org/2000/svg" viewBox="0 0 1000 444.44">
  <defs>
    <style>
      .cls-1 {
        fill: #fff;
      }
    </style>
  </defs>
  <path class="cls-1" d="M18.44,239.92v-55.92c0-2.08,.3-4.02,1.19-5.8,1.93-3.87,5.06-6.25,9.37-6.84,4.31-.59,7.88,.74,10.86,3.72,2.23,2.23,3.27,5.21,3.42,8.33v112.73c0,2.68-.59,5.06-2.08,7.29-1.93,2.97-4.61,4.76-8.18,5.5-6.54,1.34-13.38-3.12-14.57-10.26,0-.89,0-1.78,0-2.53v-56.22Zm203.45-30.34c-.74,0-1.49,.15-2.23,.3-3.72,.74-6.1,3.12-7.29,6.84-.3,1.04-.45,2.23-.45,3.72v110.35c0,1.04,0,2.38,.3,3.72,.59,2.68,1.93,4.76,4.31,6.25,1.64,1.04,3.42,1.64,5.21,1.64,.89,0,1.78-.15,2.68-.3,3.72-1.04,5.95-3.27,6.99-7.14,.3-.89,.3-2.08,.3-3.12v-111.99c0-1.64-.15-2.83-.59-4.02-1.64-3.87-5.06-6.25-9.22-6.25h0m0-2.68c5.35,0,9.67,3.27,11.6,8.18,.59,1.64,.74,3.27,.74,4.91v111.84c0,1.34,0,2.53-.3,3.72-1.34,4.61-4.31,7.58-8.92,8.92-1.19,.3-2.23,.45-3.27,.45-2.23,0-4.46-.74-6.54-2.08-2.97-1.93-4.76-4.61-5.5-8.03-.3-1.34-.3-2.83-.3-4.16v-110.35c0-1.49,.15-3.12,.59-4.46,1.49-4.61,4.61-7.73,9.37-8.63,.74-.15,1.64-.3,2.53-.3h0Zm-153.03,2.68c-1.93,0-3.57,.59-5.21,1.64-1.78,1.19-2.97,2.68-3.72,4.46-.45,1.04-.59,2.23-.59,3.87v114.07c0,1.93,.74,3.72,2.23,5.35,1.93,2.23,4.46,3.42,7.29,3.42h.59c2.68-.15,5.06-1.19,6.84-3.27,1.64-1.78,2.38-4.02,2.38-6.54v-113.03c0-1.04-.15-1.93-.3-2.68-1.19-3.87-3.87-6.25-7.73-6.99-.59-.3-1.19-.3-1.78-.3m0-2.68c.74,0,1.49,0,2.23,.15,4.91,.89,8.48,4.16,9.82,8.77,.3,1.04,.45,2.23,.45,3.42v113.03c0,3.12-1.04,5.95-2.97,8.18-2.23,2.53-5.21,4.02-8.63,4.16h-.74c-3.72,0-6.84-1.34-9.37-4.16-1.78-2.08-2.83-4.31-2.97-7.14v-113.92c0-1.64,.15-3.27,.74-4.91,.89-2.38,2.53-4.31,4.61-5.65,2.23-1.19,4.46-1.93,6.84-1.93h0Zm126.56,6.84c-.15,.89-.59,1.64-.89,2.38-1.19,2.53-3.27,4.31-5.8,5.65-2.08,.89-4.31,1.34-6.4,1.04-2.23-.3-4.31-1.04-6.1-2.38-2.38-1.64-3.72-4.02-4.61-6.69,0-.15-.3-.3-.3-.45v84.32c.15,2.38,.89,4.46,2.38,6.4,3.12,4.02,7.14,5.8,12.34,4.91,3.12-.59,5.65-2.08,7.58-4.76,1.78-2.38,2.53-5.21,2.53-8.18v-80.31c0-.59,0-1.34-.15-1.93-.15-.15-.3-.15-.59,0ZM119.72,112.91c0-1.19-.15-2.38-.3-3.57-.59-2.83-2.08-5.21-4.31-6.99-2.38-1.93-5.06-2.83-8.18-2.83s-5.95,1.19-8.33,3.42c-2.53,2.38-3.72,5.21-3.87,8.63v26.62c0,.89,0,1.93,.15,2.83,.74,3.87,2.83,6.84,6.4,8.77,4.31,2.38,9.67,1.93,13.53-1.19,3.27-2.53,4.76-5.95,4.76-10.11v-13.09c.15-4.02,.15-8.33,.15-12.49Zm-24.99,170.14v12.79c0,.89,0,1.78,.15,2.68,1.34,7.44,8.33,11.6,14.57,10.26,4.76-1.04,8.03-3.87,9.52-8.48,.45-1.34,.59-2.68,.59-4.16v-26.47c0-3.27-1.04-6.25-3.42-8.77-2.97-3.12-6.69-4.61-11.15-3.87-4.02,.74-6.99,2.83-9.07,6.4-1.04,1.78-1.49,3.72-1.49,5.65,.45,4.91,.3,9.37,.3,13.98h0Zm50.86-145.15c-1.04,0-2.08,.15-3.27,.59-4.31,1.34-6.84,4.91-6.84,9.52-.15,6.25,0,12.79,0,18.89v7.73c0,.89,.15,1.78,.45,3.12,.59,1.93,1.64,3.57,3.42,5.06,1.78,1.34,3.72,2.08,5.8,2.08,1.19,0,2.38-.15,3.57-.59,4.61-1.49,6.54-5.8,6.54-9.22v-27.36c0-2.68-1.04-5.06-3.12-6.84-1.93-2.08-4.16-2.97-6.54-2.97h0m0-2.68c2.97,0,5.8,1.19,8.18,3.42,2.53,2.38,4.02,5.21,3.87,8.77v27.51c.15,4.76-2.83,9.82-8.33,11.75-1.49,.45-2.97,.74-4.31,.74-2.53,0-5.06-.89-7.44-2.68-2.08-1.64-3.57-3.72-4.31-6.4-.3-1.19-.59-2.53-.59-3.72,0-8.92-.15-17.85,0-26.62,.15-5.95,3.57-10.41,8.77-11.9,1.64-.59,2.97-.89,4.16-.89h0Zm-.15,160.32c-.59,0-1.34,0-1.93,.15-2.23,.45-4.16,1.64-5.95,3.72-.74,.89-1.19,1.64-1.34,2.38-.45,1.78-.74,3.12-.74,4.31v24.54c0,1.19,.15,2.38,.3,3.42,.45,2.83,1.78,4.91,4.16,6.54,1.64,1.19,3.42,1.64,5.35,1.64,1.04,0,2.08-.15,3.27-.59,4.02-1.19,6.69-4.91,6.69-9.07v-27.51c0-1.19-.15-2.38-.59-3.57-1.64-3.57-5.06-5.95-9.22-5.95h0m0-2.53c5.21,0,9.82,3.12,11.6,8.03,.59,1.49,.74,2.97,.74,4.46v27.36c0,5.5-3.72,9.96-8.48,11.45-1.34,.45-2.68,.59-4.02,.59-2.38,0-4.61-.74-6.69-2.08-2.83-1.93-4.76-4.76-5.35-8.33-.15-1.34-.3-2.53-.3-3.87v-24.54c0-1.78,.3-3.42,.74-5.06,.3-1.19,1.04-2.38,1.93-3.27,1.93-2.38,4.46-4.16,7.44-4.61,.74-.15,1.49-.15,2.38-.15h0Zm38.22-119.27c-.59,0-1.19,0-1.93,.15-2.97,.59-5.21,2.23-6.84,4.91-.89,1.34-1.19,2.97-1.19,4.91v28.55c.15,.15,.15,.3,.3,.59,.89,2.68,2.08,4.31,3.72,5.5,1.49,1.04,3.12,1.64,4.91,1.93h1.04c1.34,0,2.68-.3,4.02-.89,2.23-1.04,3.57-2.38,4.46-4.31,.15-.15,.15-.45,.3-.59,.15-.45,.45-.89,.45-1.04,.15-.45,.3-.89,.59-1.19v-27.96c0-1.04-.15-1.93-.3-2.83-.59-2.53-1.93-4.46-3.72-5.8-1.93-1.34-3.87-1.93-5.8-1.93m0-2.68c2.53,0,4.91,.89,7.14,2.38,2.53,1.78,4.16,4.31,4.91,7.29,.3,1.04,.45,2.23,.45,3.42v27.81c0,.59,.15,1.19-.15,1.64-.15,0-.3,0-.45,.15-.15,.89-.59,1.64-.89,2.38-1.19,2.53-3.27,4.31-5.8,5.65-1.64,.74-3.27,1.19-5.06,1.19-.45,0-.89,0-1.34-.15-2.23-.3-4.31-1.04-6.1-2.38-2.38-1.64-3.72-4.02-4.61-6.69,0-.15-.3-.3-.3-.45v-29.45c0-2.23,.45-4.31,1.64-6.25,1.93-3.27,4.76-5.35,8.48-6.1,.45-.3,1.34-.45,2.08-.45h0Zm-76.15,2.53h-.45c-1.19,.15-2.38,.45-3.42,.74-3.42,1.19-6.1,5.06-6.1,8.63v17.85c0,1.78,.59,3.42,1.93,4.91,1.78,2.23,3.72,3.42,6.4,3.87,.59,.15,1.04,.15,1.64,.15,1.49,0,2.83-.3,4.31-1.04,3.57-1.78,5.35-4.76,5.5-9.07v-15.91c0-.89-.15-1.78-.45-2.83-.89-3.27-2.83-5.35-5.95-6.54-1.49-.45-2.53-.74-3.42-.74m0-2.53c1.34,0,2.83,.45,4.02,.89,3.87,1.49,6.4,4.31,7.58,8.33,.3,1.19,.59,2.38,.59,3.57,0,5.35,.15,10.56,0,15.91-.15,5.06-2.38,8.92-6.84,11.3-1.78,.89-3.57,1.34-5.5,1.34-.74,0-1.34,0-2.08-.15-3.42-.59-5.95-2.23-8.03-4.91-1.49-1.93-2.38-4.02-2.38-6.54v-9.22h0v-8.63c0-4.76,3.57-9.52,7.88-11.01,1.34-.45,2.68-.74,4.02-.89,.3,0,.45,0,.74,0h0Zm-26.03-23.35c0-2.68-.74-5.06-2.38-7.29-3.27-4.61-10.41-6.99-16.51-3.27-4.02,2.53-5.95,6.25-5.95,10.86v15.91c0,1.64,.3,3.27,1.04,4.91,2.23,5.21,7.29,8.63,13.83,7.44,6.99-1.34,10.11-7.44,9.96-12.05-.15-2.68,0-5.5,0-8.18,0-2.83-.15-5.5,0-8.33Zm38.07,91.31c0-6.99-5.21-12.34-12.49-12.34s-12.49,6.54-12.49,12.64c.15,6.84,5.8,12.34,12.49,12.2,6.1,.15,12.64-4.46,12.49-12.49Zm25.43,23.2v2.68c-2.23,0-4.16,.59-5.65,1.78-2.83,2.23-4.02,4.76-4.02,8.03v.3c-.15,1.34,.3,2.68,1.04,4.16,1.04,1.93,2.53,3.27,4.31,4.16,1.49,.74,2.97,1.04,4.46,1.04,.45,0,.89,0,1.34-.15,2.97-.45,5.21-1.78,6.99-4.46,1.04-1.64,1.64-3.42,1.49-5.65,0-2.53-.89-4.61-2.68-6.4-1.93-2.08-4.31-3.12-7.14-3.12l-.15-2.38m0,0h0c3.57,0,6.69,1.34,9.07,3.87,2.08,2.23,3.27,4.91,3.42,8.03,.15,2.68-.45,5.06-1.93,7.29-2.08,3.12-4.91,4.91-8.77,5.5-.59,.15-1.19,.15-1.64,.15-1.93,0-3.72-.45-5.5-1.34-2.38-1.19-4.16-2.97-5.35-5.21-1.04-1.78-1.49-3.72-1.34-5.65-.15-4.46,1.78-7.73,5.06-10.26,1.78-1.64,4.31-2.38,6.99-2.38h0Zm122.1,50.57c.74-.45,.74-1.04,.89-1.78,.59-2.23,1.49-4.31,2.97-6.1,1.78-2.38,4.02-4.02,6.84-5.06,4.46-1.64,8.92-1.78,13.53-.45,5.06,1.49,8.48,4.61,10.26,9.37,2.08,5.35,1.93,10.71-.45,15.91-2.08,4.76-5.8,7.58-10.71,8.92-3.87,1.04-7.88,.89-11.75-.45-5.35-1.78-8.92-5.65-10.56-11.01-.15-.59-.3-1.19-.45-1.78,0-.3-.3-.45-.45-.45-.15-2.38-.15-4.76-.15-7.14Zm24.99,3.57c0-1.04,0-2.23-.15-3.27-.15-1.64-.59-3.12-1.49-4.46-1.49-1.93-3.57-2.68-5.8-2.38-2.53,.3-4.46,1.49-5.35,4.02-1.04,2.83-1.19,5.65-.89,8.63,.15,1.19,.3,2.53,.89,3.72,.74,1.64,1.78,2.83,3.42,3.42,3.57,1.34,7.58,.15,8.92-4.16v-.3c.45-1.64,.3-3.42,.45-5.21Zm287.18,17.25c-.15-.3-.3-.45-.3-.59,0-15.62,0-31.23-.15-46.85,0-.3,0-.59,.45-1.04,.15-.15,.59-.15,.89-.15h19.33c5.06,0,9.67,1.49,13.83,4.46,4.61,3.27,7.58,7.58,8.92,12.94,1.49,5.95,1.19,11.9-1.34,17.7-3.12,6.54-8.33,10.71-15.17,12.49-2.38,.59-4.76,1.04-7.29,1.04h-18.29c-.3,.15-.59,.15-.89,0Zm11.3-39.56c0,.15-.15,.45-.15,.74v28.85c0,.45,0,.74,.45,1.04h8.77c1.78,0,3.57-.59,5.21-1.49,2.68-1.49,4.46-3.87,5.5-6.69,1.64-4.61,1.78-9.37,.15-13.98-1.93-5.65-6.25-8.77-12.49-8.77h-5.95c-.45,0-.89-.15-1.49,.3Zm249.41,7.29c-.89-2.08-1.19-2.23-3.27-2.38h-4.46c-.45,0-1.04-.15-1.34,.45v33.76s0,.15,.15,.15l.15,.15c2.53,.3,8.03,.15,10.11-.15,.15-1.34,0-2.68,0-4.02v-16.66c0-1.49-.15-2.83,.15-4.16,1.78-1.78,3.72-2.53,6.1-2.08,1.49,.15,2.38,.89,2.97,2.38,.45,1.04,.45,2.23,.45,3.27v19.48c0,.59-.15,1.34,.3,1.93,.3,0,.59,.15,.89,.15h7.88c.45,0,.89,.15,1.34-.45v-22.46c.3-2.68,2.08-4.31,4.76-4.31h1.19c.74,0,1.34,.45,1.93,.89,.74,.74,1.19,1.49,1.19,2.53,0,.89,.15,1.93,.15,2.83v18.89c0,.74-.15,1.49,.45,2.08h9.67c.15,0,.3-.15,.45-.45v-19.19c0-1.93-.15-3.87-.45-5.65-.59-3.87-2.38-7.14-6.1-8.77-3.87-1.64-7.88-1.64-11.75,0-2.23,.89-3.87,2.53-5.21,4.46-.3-.59-.59-1.19-1.04-1.64-1.49-2.08-3.27-3.57-5.8-3.87-2.83-.3-5.5,.15-7.88,1.78-.74,.59-1.49,1.19-2.38,1.78-.45-.15-.59-.45-.59-.74Zm-294.17-.45v-16.81c1.93-.3,6.69-.45,10.11-.15,.45,.3,.3,.89,.3,1.34v47.14c0,.45,.15,.74-.15,1.19-.45,.45-.89,.3-1.34,.3h-5.06c-1.19,0-2.08-.59-2.53-1.78-.15-.45-.3-.89-.45-1.34-.15-.3-.3-.59-.59-.74-.59,.45-1.19,.89-1.78,1.49-2.97,2.38-6.54,3.27-10.26,2.83s-6.39-2.68-8.18-5.95c-1.04-1.78-1.64-3.57-2.08-5.5-1.04-4.46-.89-8.77,.3-13.09,.59-2.08,1.64-4.16,2.97-5.95,1.78-2.38,4.02-4.02,6.99-4.76,3.72-.89,7.44-1.04,10.71,1.34,.15,.15,.45,.15,1.04,.45Zm-.15,7.58c-.3-.59-.74-.89-1.04-1.04-3.87-2.83-8.33-1.49-9.96,3.12-.15,.3-.15,.59-.3,.89-.74,2.97-.59,5.95-.3,8.92,.15,1.34,.59,2.83,1.49,4.02s1.93,1.78,3.42,1.93c2.97,.15,5.21-.89,6.84-3.27-.15-5.06-.15-9.82-.15-14.57Zm139.35,23.5c-.3,2.08,0,4.16-.15,6.25v6.1c-1.78,.45-5.65,.45-9.96,.3-.45-.3-.45-.74-.45-1.04v-43.58c0-.3,0-.45,.15-.59,.3-.45,.74-.45,1.04-.45h5.06c1.78,0,2.38,.45,2.97,2.23,.15,.45,.3,1.04,.59,1.49,.45,.15,.74-.15,1.04-.45,.89-.74,1.78-1.49,2.83-2.08,3.12-1.93,6.39-2.08,9.82-1.49,2.97,.59,5.21,2.68,6.69,5.21,1.49,2.38,2.38,5.06,2.68,7.73,0,.59,.15,1.04,.15,1.64,.59,5.5-.45,10.56-3.57,15.17-3.42,4.76-9.07,6.69-14.72,5.21-1.04-.3-2.08-.74-2.97-1.34-.3,0-.59-.45-1.19-.3Zm0-7.73c.45,.45,.89,.89,1.34,1.19,3.12,2.08,7.73,1.64,9.52-2.68,.3-.59,.45-1.34,.59-2.08,.59-2.38,.59-4.91,.3-7.29-.15-1.64-.45-3.12-1.19-4.61-.59-1.19-1.49-2.08-2.83-2.23-2.53-.3-4.91,0-6.69,2.08-.3,.3-.59,.74-.89,1.04-.15,4.76-.15,9.52-.15,14.57Zm-309.79-9.52h12.79c.45,0,.89,.15,1.34-.3,.3-3.27,.15-6.69-.15-8.33h-8.03c-2.68,0-5.35,.15-8.03-.15-.15-.45-.15-.74-.15-1.04v-10.26c0-.3,.15-.59,.59-.89h19.04l.15-.15c.3-2.53,.3-6.54-.15-8.33h-29.89c-.45,0-.74,0-1.19,.45v46.85c0,.45,0,.74,.3,1.19,.15,0,.45,.15,.59,.15h9.52c.3,0,.59,0,.89-.45v-18.29c1.04-.59,1.78-.45,2.38-.45Zm35.54-16.21c2.53-.15,4.91,.3,7.14,1.19,4.61,1.78,7.73,5.06,9.37,9.82,1.64,5.21,1.49,10.41-.74,15.47-1.78,3.87-4.76,6.54-8.92,8.03-4.31,1.49-8.63,1.64-13.09,.3-5.65-1.78-9.22-5.5-10.86-11.15-1.04-4.02-1.04-8.03,.15-11.9,1.78-5.95,5.95-9.52,11.9-11.15,1.64-.45,3.42-.59,5.06-.59Zm-6.84,17.85v2.83c0,1.19,.45,2.38,.89,3.42,1.34,4.02,6.54,4.91,9.82,2.83,1.64-1.04,2.23-2.68,2.68-4.31,.74-3.27,.74-6.4,0-9.67-.59-2.68-2.08-4.61-4.91-5.21-2.53-.45-4.76,0-6.39,2.08-.74,.74-1.04,1.78-1.34,2.68-.89,1.78-.89,3.57-.74,5.35Zm527.96-15.32c-.45-1.34-1.34-2.08-2.83-2.08h-4.31c-.59,0-1.19-.15-1.64,.15-.45,.45-.3,.74-.3,1.04v32.42c0,.45,0,.74,.45,1.19,3.12,0,6.39,.15,9.96-.15v-24.54c2.23-2.08,3.87-2.68,6.1-2.68,2.08,0,4.02,.89,4.46,4.02,.15,1.04,.15,2.08,.15,3.12v18.59c0,.59-.15,1.19,.3,1.49,3.57,.3,8.33,.15,9.96-.15,0-.15,.15-.45,.15-.59v-22.31c0-1.64-.3-3.12-.89-4.61-1.34-3.57-3.72-5.95-7.29-6.84-4.16-1.19-8.18-.3-11.75,2.23-.59,.45-.89,1.04-1.78,1.19-.45-.59-.59-1.04-.74-1.49Zm-606.78,5.5c1.34,.15,2.23,.74,2.83,1.93,.59,1.04,.74,2.23,.74,3.42v19.93c0,.59-.3,1.34,.3,1.78,3.27,.3,8.18,.15,9.96-.15,.3-.3,.15-.59,.15-.89v-21.71c0-1.49-.3-2.83-.74-4.16-1.04-3.72-3.27-6.4-6.84-7.58-4.61-1.49-8.92-.74-12.79,2.23-.45,.3-.74,.89-1.49,.89-.15-.3-.45-.59-.45-1.04-.3-1.78-1.49-2.23-3.12-2.23h-4.76c-.45,0-.74-.15-1.19,.45,0,.15-.15,.45-.15,.74v32.42c0,.45,0,.74,.3,1.04,3.57,.3,8.18,.15,10.11-.15v-24.24c2.08-2.08,4.46-2.97,7.14-2.68Zm190.96,17.25c1.49,1.34,2.53,2.83,3.72,4.31-.89,1.34-2.08,2.23-3.42,3.12-1.78,1.19-3.87,1.93-5.95,2.38-3.27,.59-6.54,.89-9.96,.15-4.61-1.04-8.33-3.42-10.71-7.58-3.27-6.1-3.72-12.34-.59-18.74,2.23-4.61,5.95-7.29,10.86-8.48,3.72-.89,7.44-.74,11.01,.74,4.61,1.78,7.29,5.35,8.48,10.11,.45,1.64,.59,3.42,.45,5.21,0,1.04-.15,1.93-.74,2.68-.89,.74-1.93,.59-2.97,.59h-15.76c-.74,0-1.64-.15-2.38,.15-.45,2.68,.89,5.35,3.12,6.69,.89,.59,1.93,1.04,3.12,1.04,2.38,.15,4.61,0,6.69-1.19,.3-.15,.74-.3,1.04-.59,1.19-.59,2.53-.89,4.02-.59Zm-18.14-11.75c2.23,.3,10.86,.3,12.49,0,.3-1.93-.45-3.57-1.78-4.91-2.68-2.38-7.44-1.78-9.37,1.19-.74,1.19-1.19,2.38-1.34,3.72Zm397.98,6.25c0,2.38,.74,4.16,1.93,5.65,1.19,1.34,2.68,2.08,4.61,2.23,2.53,.15,4.91-.15,7.14-1.49,2.08-1.19,2.23-1.19,4.31-1.04,1.34,1.04,2.97,3.12,3.72,4.61-1.04,1.64-2.68,2.68-4.31,3.57-5.06,2.53-10.41,3.12-15.91,1.49-5.21-1.49-8.63-4.76-10.56-9.82-1.78-4.61-1.93-9.22-.45-13.98,1.93-5.8,5.95-9.37,11.9-10.71,3.42-.74,6.69-.59,10.11,.45,4.61,1.49,7.58,4.76,9.07,9.37,.74,2.38,.89,4.91,.59,7.44-.15,1.34-.59,1.78-1.93,2.08h-17.4c-.89,.15-1.78,.15-2.83,.15Zm12.79-6.25c.15-1.64-.45-3.12-1.49-4.46-1.93-2.38-7.44-2.83-9.82,.89-.74,1.04-1.19,2.23-1.19,3.57,1.49,.3,9.96,.3,12.49,0Zm-104.7,6.25c0,2.38,.74,4.16,1.93,5.65,1.19,1.34,2.68,2.08,4.61,2.23,2.68,.3,5.06-.3,7.29-1.49,1.34-.74,2.68-1.34,4.46-.74,1.04,1.34,2.53,2.68,3.42,4.46-1.49,1.93-3.27,3.27-5.5,4.16-5.21,2.08-10.41,2.53-15.76,.74-4.91-1.64-8.18-5.21-9.96-10.11-1.34-4.02-1.64-8.18-.45-12.34,1.78-6.1,5.8-10.11,11.9-11.6,3.42-.89,6.69-.74,10.11,.3,4.16,1.34,6.99,4.02,8.63,7.88,1.34,2.97,1.49,6.1,1.19,9.37-.15,1.04-.59,1.49-1.64,1.78-.59,.15-1.19,.15-1.93,.15h-15.76c-.74-.45-1.49-.45-2.53-.45Zm12.64-6.25c0-4.76-3.57-6.54-6.84-6.25-3.27,.3-5.8,3.12-5.65,6.4,2.83,.3,11.01,.15,12.49-.15Zm-69.3,1.19c0-1.34,.15-2.68-.3-3.87-.59-1.78-1.78-2.68-3.72-2.83-1.93-.15-3.87,.15-5.5,1.04-.45,.3-.89,.45-1.34,.59-1.19,.74-2.53,1.04-3.87,.59-2.08-.89-2.68-2.97-3.57-4.61,.15-.89,.74-1.19,1.19-1.64,2.38-1.78,5.06-2.97,7.88-3.72,2.68-.59,5.5-.74,8.33-.45,4.61,.59,8.03,3.12,9.96,7.44,.89,2.08,1.19,4.46,1.19,6.69,.15,6.4,0,12.79,0,19.33,0,.45,0,.89-.45,1.49-1.78,.3-3.72,.15-5.8,0-1.04-.15-1.78-.74-2.23-1.64-.3-.59-.59-1.19-.74-1.64-.74-.15-1.19,.45-1.78,.89-1.93,1.49-4.02,2.53-6.39,2.97-3.42,.45-6.69,.3-9.67-1.64-2.08-1.34-3.27-3.42-3.57-5.95-.15-1.64-.3-3.27,.45-4.91,.89-2.08,2.38-3.57,4.31-4.61,2.38-1.34,4.91-2.23,7.58-2.68,2.68-.45,5.21-.3,8.03-.89Zm0,6.69c-.15-.15-.3-.3-.45-.3-2.38,.15-4.91,.3-7.14,1.19-.59,.3-1.34,.59-1.78,1.04-.89,.89-1.04,2.08-.74,3.27s1.04,1.64,2.08,1.93c3.27,.59,5.8-.45,7.88-2.83,.15-1.49,.15-2.83,.15-4.31Zm-103.51,11.01c.45,.3,.89,.59,1.49,.89,4.02,2.08,8.33,2.97,12.94,2.38,2.23-.3,4.46-.89,6.54-2.23,2.23-1.34,3.72-3.12,4.61-5.65,.59-1.49,.59-3.12,.59-4.76,0-2.08-.89-3.72-2.23-5.06-1.19-1.19-2.53-2.08-4.16-2.68-1.78-.74-3.72-1.34-5.65-1.93-1.04-.45-2.08-.74-2.97-1.34-1.19-.89-1.34-3.42,.45-4.16,.45-.15,.89-.3,1.34-.3,1.93-.3,3.72,0,5.5,.89,1.04,.45,1.93,.89,3.27,1.04,.3-.15,.89-.3,1.19-.59,1.04-1.34,2.08-2.68,2.83-4.46-.3-.3-.59-.59-.89-.89-1.19-.89-2.38-1.64-3.72-2.08-2.83-1.19-5.65-1.49-8.63-1.34-2.68,.15-5.21,.74-7.44,2.08-4.91,2.83-5.8,8.63-4.31,12.79,1.04,2.68,3.12,4.31,5.65,5.35,1.78,.74,3.72,1.34,5.65,1.93,1.04,.3,2.08,.74,2.97,1.34,1.34,.89,1.34,3.27-.15,4.31-.59,.3-1.34,.59-2.08,.59-1.93,.15-3.57-.15-5.35-1.04-.74-.45-1.34-.74-2.08-1.04-1.64-.74-3.12-.3-4.16,1.19-.74,1.19-1.64,2.23-2.23,3.87,.45,.3,.74,.59,1.04,.89Zm318.26-22.75v17.1c.59,5.06,3.12,8.03,7.88,8.77,4.16,.59,8.03-.15,11.45-2.53,.3-.74,.15-1.19-.3-1.64-1.19-1.49-1.78-3.57-3.57-4.61-.45,.15-.89,.3-1.34,.45-2.38,.89-3.72,0-3.72-2.53v-15.47c0-.45-.15-.89,.3-1.34,.45-.3,.89-.15,1.34-.15h5.5c.45,0,.89,.15,1.49-.45v-5.21c0-.45,.15-1.04-.45-1.34h-5.35c-.89,0-1.78,.15-2.68-.15-.15-3.27,.15-6.54-.15-9.82h-5.06c-1.64,0-2.08,.45-2.53,1.93-.15,.45-.15,.74-.3,1.19-.59,2.23-1.04,4.46-1.64,6.69-1.64,1.04-3.72,.74-5.5,1.49v4.02c0,1.19,.59,1.78,1.78,1.78h3.12c-.3,.74-.3,1.34-.3,1.78Zm-484.53-9.22c-2.97-.59-5.95-.59-8.92,0-4.61,1.04-8.18,3.42-10.56,7.73-1.93,3.57-2.53,7.29-2.23,11.3,.15,3.57,1.34,6.99,3.42,9.96,2.08,2.97,4.91,4.91,8.48,5.8,3.57,.89,6.99,.59,10.56-.3,2.68-.74,4.91-2.08,6.84-4.02,.3-.3,.74-.59,.74-1.34-.3-.3-.45-.74-.89-1.19-.74-1.04-1.64-1.93-2.38-2.83-1.04-.3-1.78-.3-2.68,0-.74,.45-1.34,1.04-2.08,1.49-3.72,2.38-8.48,1.04-10.11-2.97-.45-1.19-.89-2.38-.89-3.72v-5.06c0-1.19,.3-2.23,.74-3.27,1.34-3.42,4.76-5.06,8.33-4.02,1.04,.3,2.08,.74,2.97,1.34,1.04,.59,1.93,.89,3.27,.59,1.49-1.19,2.38-2.97,3.72-4.61-2.38-2.53-5.35-4.31-8.33-4.91Zm307.26,25.73c-.3,.15-.45,.45-.74,.59-4.02,2.68-8.48,1.34-10.41-3.12-.15-.3-.3-.59-.3-.89-.89-3.57-1.04-7.14,.3-10.71,.74-2.23,2.83-4.31,6.25-4.46,1.93-.15,3.57,.59,5.21,1.64,1.04,.59,1.93,.89,3.12,.59,1.64-1.34,2.97-3.12,3.72-4.91-2.08-2.23-4.61-3.72-7.58-4.46-3.12-.74-6.25-.74-9.37,0-6.25,1.49-10.26,5.35-12.05,11.45-.89,3.27-1.04,6.69-.45,10.11,.45,2.68,1.49,5.21,3.12,7.44,1.49,2.08,3.27,3.57,5.65,4.76,3.27,1.49,6.69,1.78,10.26,1.34,2.68-.3,5.06-1.19,7.29-2.53,1.49-.89,2.53-1.78,3.57-3.42-1.19-1.34-2.23-2.83-3.42-4.16-2.08-.45-3.12-.15-4.16,.74Zm-62.31,8.92c.15,0,.3-.15,.3-.3,.3-4.76,.15-47.44-.15-49.38-2.08-.3-8.33-.3-10.11,0v49.67c3.57,.15,6.69,.15,9.96,0Zm-279.15-.15c.3-.74,.15-1.49,.15-2.38v-16.95c0-3.87,3.27-6.54,7.14-5.95,.74,.15,1.49,.15,2.08,.15s1.04-.15,1.49-.59c.45-1.78,.89-5.5,.89-8.33-.15-.15-.45-.45-.74-.45-2.83-1.04-5.65-.74-8.03,1.19-1.19,1.04-2.23,2.23-3.27,3.72-.15-.45-.45-.89-.45-1.19-.15-.45-.15-.89-.3-1.34-.45-1.49-1.19-2.08-2.68-2.23h-5.95c-.15,0-.3,.15-.45,.15-.3,2.08-.3,31.98,0,34.35,3.72,.3,8.48,.15,10.11-.15Zm194.97-.89v-32.27c0-.45,0-.74-.45-1.19h-9.67c-.15,0-.3,.15-.45,.3v33.91l.15,.15c1.78,.3,7.29,.3,10.11,0,.15-.3,.3-.59,.3-.89Zm1.04-42.83c0-3.57-2.38-6.1-6.39-6.25-3.27-.15-6.25,2.83-6.25,6.25s3.12,6.1,6.1,6.1c3.27,0,6.54-2.53,6.54-6.1Zm-207.17-25.58c-.3-2.83-.15-46.25,0-48.19,.3-.3,.74-.3,1.04-.3h18.59c3.57,0,6.84,.74,10.11,2.08,6.39,2.68,10.86,7.29,12.94,13.98,2.53,8.18,1.64,15.91-3.42,23.05-2.83,4.02-6.84,6.54-11.45,8.18-2.23,.74-4.61,1.34-6.99,1.34h-20.23s-.15-.15-.59-.15Zm11.6-39.41c-.3,.3-.3,.74-.3,1.19v28.55c0,.45,0,.74,.45,1.19h6.69c1.19,0,2.38-.15,3.57-.3,4.46-.89,7.44-3.57,9.22-7.73,.59-1.64,.89-3.27,1.19-5.06,.59-3.42,0-6.84-1.19-9.96-1.64-4.16-4.61-6.69-8.92-7.73-1.64-.45-9.07-.45-10.71-.15Zm176.83,27.81c-2.38,2.23-5.21,2.97-8.33,2.97-5.8,.15-10.11-2.97-12.2-8.18-.74-1.64-.89-3.42-1.19-5.35-.45-3.42,0-6.84,1.34-9.96,1.19-2.97,3.12-5.21,5.95-6.4,3.87-1.64,7.88-1.49,11.75,.45,.74,.3,1.34,.74,2.08,1.19,.89,.74,1.93,.89,3.27,.59,1.93-1.64,3.27-4.02,4.91-6.1-2.68-2.83-5.8-4.46-9.37-5.5-3.27-.89-6.54-1.19-9.82-.89-3.72,.3-7.14,1.34-10.26,3.27-6.84,4.16-10.26,10.41-11.15,18.14-.45,3.12-.3,6.4,.45,9.52,.89,4.31,2.53,8.18,5.5,11.45,4.76,5.35,10.86,7.44,17.85,7.44,2.23,0,4.46-.15,6.54-.74,4.46-1.19,8.18-3.27,11.01-6.99-.15-.3-.3-.45-.45-.59-1.49-1.49-2.97-3.12-4.46-4.61-1.64-.59-2.53-.45-3.42,.3Zm-324.81-5.5c0-3.42,.59-6.4,2.08-9.37,1.64-3.27,4.31-5.5,7.58-6.84,5.06-2.23,10.26-2.23,15.47-.3,4.16,1.49,7.14,4.46,8.77,8.63,2.23,5.8,2.23,11.6-.59,17.25-2.68,5.21-7.14,7.88-12.94,8.48-3.12,.3-6.25,.15-9.37-.89-5.95-2.08-9.37-6.25-10.56-12.34-.45-1.78-.45-3.27-.45-4.61Zm10.86,0c0,1.64,0,3.57,.59,5.5,.45,1.34,1.19,2.68,2.38,3.42,3.57,2.68,8.63,1.04,10.11-3.12,1.34-3.87,1.19-7.73,0-11.6-.3-.74-.59-1.49-1.04-2.08-1.64-2.23-4.61-2.53-7.58-1.64-1.93,.59-2.97,2.08-3.57,3.87-.89,1.64-.89,3.57-.89,5.65Zm372.84-8.92c1.19-.59,2.38-1.04,3.87-1.04,2.53,0,4.16,1.64,4.46,4.02v21.42c0,.59-.15,1.19,.3,1.64,2.23,.3,8.03,.15,9.96,0,.3-.3,.15-.59,.15-.89v-21.86c0-1.34-.15-2.68-.59-4.02-1.19-3.87-3.57-6.54-7.44-7.73-4.02-1.19-7.88-.59-11.3,1.78-.74,.59-1.49,1.19-2.38,1.64-.15-.59-.45-.89-.59-1.34-.3-1.34-1.34-1.93-2.53-2.08h-5.95c-.15,0-.3,.15-.45,.15-.3,.3-.15,.74-.15,1.04v32.12c0,.45,0,.74,.3,1.04,2.83,.15,8.03,.15,10.11-.15v-24.39c.89-.45,1.49-.89,2.23-1.34Zm-326.15-1.34v20.37c0,2.23-.15,4.61,.15,6.84,.45,0,.74,.15,1.04,.15h8.03c.45,0,.74,0,1.19-.59v-23.94c.89-.74,1.64-1.34,2.53-1.78,1.19-.59,2.53-.89,3.87-.89,1.78,.15,2.97,1.04,3.57,2.68,.45,1.04,.45,2.23,.45,3.27v19.48c0,.59-.15,1.04,.3,1.64,1.04,.15,2.08,0,3.12,.15h3.57c1.04,0,2.23,.3,3.12-.15,0-.3,.15-.45,.15-.59v-22.31c0-1.34-.3-2.68-.74-4.02-1.64-5.5-6.1-8.33-11.75-8.03-2.83,.15-5.5,1.04-7.73,2.83-.45,.45-1.04,.74-1.64,1.19-.15-.45-.3-.74-.45-1.19-.45-1.64-1.49-2.38-3.12-2.38-1.34-.15-2.53,0-3.87,0h-2.38c.59,2.68,.59,5.06,.59,7.29Zm384.3,12.2c.45,3.12,1.34,5.8,4.02,7.14,1.93,1.04,4.02,1.19,6.25,.74,1.34-.3,2.53-.74,3.72-1.49,.59-.3,1.19-.74,1.93-.89,1.19-.45,2.23-.3,2.97,.74,1.04,1.19,1.93,2.38,2.97,3.72-1.64,2.08-3.72,3.42-5.95,4.31-2.38,1.04-4.76,1.49-7.44,1.64-2.23,.15-4.46,0-6.54-.59-6.25-1.64-10.11-5.65-11.9-11.75-1.04-3.57-1.04-7.44-.15-11.01,1.78-6.69,7.14-11.01,13.24-12.05,3.72-.59,7.44-.15,10.86,1.49,3.12,1.49,5.35,4.02,6.69,7.14,1.04,2.38,1.19,4.91,1.34,7.44,0,.74-.15,1.49-.3,2.08-.15,.89-.74,1.34-1.64,1.49h-17.7c-.45-.15-1.19-.15-2.38-.15Zm.15-6.1h8.48c1.34,0,2.83,.3,4.31-.3-.15-1.04-.3-2.08-.74-2.97-1.04-2.23-2.97-3.12-5.21-3.12-2.53,0-4.61,.74-5.8,3.27-.45,.74-.89,1.64-1.04,3.12Zm-97.71,6.4c0,2.08,.74,4.02,2.23,5.5,1.34,1.49,3.12,2.08,5.06,2.23,2.08,.15,3.87-.45,5.8-1.19,.89-.45,1.64-.89,2.53-1.19,1.49-.59,2.38-.45,3.42,.74,1.04,1.19,1.93,2.38,2.97,3.57-1.49,2.08-3.57,3.42-5.8,4.31-2.38,1.04-4.76,1.49-7.44,1.64-2.38,.15-4.61,0-6.84-.59-6.1-1.64-9.96-5.5-11.6-11.45-1.19-4.31-1.34-8.77,.3-13.09,2.23-5.8,6.54-9.22,12.79-10.41,2.97-.45,5.8-.3,8.63,.59,5.06,1.64,8.03,5.06,9.37,10.11,.59,2.23,.59,4.61,.45,6.84,0,1.34-.74,1.93-2.08,1.93h-17.55c-.74,.15-1.49,0-2.23,.45Zm12.94-6.69c-.3-1.04-.45-1.78-.74-2.68-.3-.74-.74-1.64-1.34-2.23-2.68-2.23-7.88-1.93-9.82,1.78-.59,1.04-.74,1.93-.74,3.12,2.38,.3,10.41,.3,12.64,0Zm-85.66,21.56c-2.08,.3-4.16,.15-6.25,0-.74,0-1.34-.45-1.64-1.19s-.74-1.49-1.04-2.08c-.59-.15-.89,.3-1.34,.59-1.04,.59-1.93,1.34-2.97,1.93-3.57,1.93-7.29,1.93-11.01,.89-3.57-1.04-5.8-4.02-5.95-8.03-.15-3.87,1.49-6.69,4.76-8.63,2.68-1.64,5.65-2.38,8.77-2.97,2.08-.45,4.16-.45,6.39-.45,.45-1.78,.3-3.42-.45-4.91-.59-1.34-1.78-2.08-3.27-2.23-1.64-.15-3.12,0-4.61,.59-.59,.3-1.19,.45-1.64,.89-1.49,.89-2.97,1.19-4.76,.74-1.78-.89-2.38-2.97-3.57-4.76,.59-1.04,1.64-1.49,2.53-2.08,4.31-2.68,9.22-3.87,14.28-3.42,5.95,.59,9.82,4.02,11.3,9.37,.45,1.49,.59,3.12,.59,4.76v20.08c0,.15,0,.45-.15,.89Zm-10.11-13.68c-2.68-.3-4.91,.3-7.14,1.04-.59,.15-1.34,.59-1.78,1.04-1.19,.89-1.19,2.23-.89,3.42,.15,1.19,1.19,1.64,2.23,1.93,.3,.15,.59,.15,.89,.15,2.83,.15,5.06-.89,6.84-2.97-.15-1.64-.15-2.97-.15-4.61Zm-59.04-6.4c.3-1.34,.15-2.38,0-3.42-.3-2.08-1.78-3.57-4.02-3.72-1.34-.15-2.53,0-3.72,.45-.89,.3-1.78,.74-2.53,1.19-1.93,.89-2.08,1.04-4.61,.59-1.64-1.19-2.53-2.97-3.27-4.76,1.78-1.93,4.02-3.12,6.39-4.02,3.12-1.19,6.39-1.64,9.82-1.49,2.97,.15,5.5,1.19,7.88,2.97,1.64,1.34,2.68,2.97,3.42,4.76,.74,1.64,1.19,3.42,1.19,5.35v21.42c0,.15,0,.3-.15,.45-.3,.45-.74,.3-1.04,.3h-4.46c-1.19,0-1.93-.59-2.38-1.64-.3-.59-.45-1.34-1.04-1.78-.59,0-.89,.45-1.34,.74-1.64,1.19-3.27,2.23-5.21,2.68-2.97,.74-5.95,.74-8.92-.3-3.57-1.19-5.35-3.87-5.8-7.44-.45-4.16,1.34-7.14,4.91-9.22,2.53-1.49,5.35-2.23,8.33-2.83,1.93-.15,4.16-.15,6.54-.3Zm.15,6.4c-2.83-.15-5.35,.3-7.88,1.34-.3,.15-.74,.3-1.04,.59-1.34,1.04-1.49,2.08-1.19,3.72,.3,1.34,1.49,1.78,2.68,1.93,2.97,.3,5.5-.89,7.44-3.12,.15-1.64,.3-2.97,0-4.46Zm-221.74,14.28c6.69-.3,12.05-4.46,13.83-11.3,.59-2.23,.89-4.61,.89-6.99v-28.26c0-.74,.15-1.64-.3-2.23-1.93-.3-8.92-.3-11.01,0,0,.74-.15,1.49-.15,2.23v29.15c-.15,1.78-.3,3.57-1.04,5.35-.89,1.78-2.23,2.83-4.31,2.97h-3.12c-.59,0-1.34-.15-1.93,0-1.04,0-1.93,.59-1.93,1.64-.15,2.23-.74,4.31-.45,6.69,3.27,.89,6.39,.89,9.52,.74Zm126.71-35.1v-8.63c0-.45,.15-.89-.45-1.49h-4.76c-1.64,0-2.38,.59-2.68,2.23-.3,1.49-.59,2.97-1.04,4.31-.3,1.19-.3,2.53-1.04,3.57-1.78,.59-3.72,.45-5.35,1.34,0,1.19-.15,2.38,0,3.57,.15,1.64,.89,2.23,2.68,2.38,.74,0,1.64-.3,2.38,.45v19.04c.3,3.87,2.68,7.58,8.03,8.33,1.34,.15,2.68,.15,4.02,0,2.38-.15,4.61-.89,6.69-2.08,.45-.3,.89-.45,.89-1.19-1.04-1.78-2.08-3.72-3.57-5.21-1.64-.3-2.97,1.19-4.61,.3-1.04-.59-1.04-1.64-1.04-2.68v-15.47c0-.45,0-.74,.45-1.19h6.69c.45,0,.89,.15,1.34-.45v-6.54c-2.97-.59-5.8-.15-8.63-.59Zm129.24,26.62c-.59-.3-1.19-.15-1.78,.15-.59,.3-1.19,.3-1.78,.3-.74,0-1.34-.45-1.64-1.19-.3-.89-.45-1.64-.45-2.53v-14.57c0-.45-.15-.89,.45-1.49h7.88c.45-2.08,.45-5.06,0-6.84-.45-.3-1.04-.15-1.64-.15h-5.21c-.45,0-.89,0-1.34-.45-.3-3.12,.15-6.4-.15-9.82-1.93,0-3.72-.15-5.5,0-1.04,.15-1.93,.74-2.08,1.93-.45,1.78-.89,3.72-1.34,5.5-.3,.89-.15,1.93-.89,2.68-1.34,.3-2.68,.45-4.02,.74-.45,.15-.89,.15-1.34,.74v3.57c0,1.19,.59,1.78,1.64,1.93,.59,.15,1.04,0,1.64,.15,.45,0,.89-.15,1.49,.45v16.95c0,1.34,.15,2.53,.45,3.72,.89,2.97,2.68,5.21,5.8,6.1,1.93,.59,4.02,.74,6.1,.45,2.68-.3,5.21-1.04,7.44-2.83-.74-1.34-2.53-4.16-3.72-5.5Zm173.71-16.95v16.95c.59,4.76,2.83,7.44,7.14,8.33,4.02,.89,8.03,.15,11.6-1.93,.3-.15,.74-.45,.74-1.04-1.19-1.78-2.08-3.87-3.57-5.35-1.64-.15-2.97,1.19-4.61,.3-.74-.74-1.04-1.64-1.04-2.83v-15.47c0-.45,0-.74,.45-1.19h3.87c1.34,0,2.68,.15,4.16-.15-.15-2.38,.15-4.61-.15-6.99h-6.99c-.45,0-.89,.15-1.34-.45v-8.48c0-.45,.15-1.04-.59-1.34h-4.76c-1.49,.15-2.08,.59-2.53,2.08,0,.3-.15,.45-.15,.74-.45,1.93-1.04,4.02-1.49,5.95-.15,.59-.3,1.04-.74,1.49-1.64,.45-3.42,.45-5.06,1.19,.15,1.78-.15,3.42,.15,4.91,1.19,1.64,2.83,.74,4.61,1.19,.3,.74,.3,1.34,.3,2.08Zm68.71,22.31v-16.95c0-3.27,2.68-5.8,5.8-5.95,.89,0,1.78,.15,2.68,.15,.59,0,1.34,.15,1.93-.3,.15-.15,.3-.45,.45-.74,.59-2.53,.3-5.21,.89-7.73-2.53-1.78-5.21-1.64-7.73-.3-1.49,.74-2.53,1.93-3.57,3.12-.3,.45-.45,.89-1.04,1.19-.74-1.19-.3-3.12-1.78-4.16-.45-.15-1.19-.45-1.78-.45h-5.5c-.15,0-.45,.15-.59,.3-.45,.59-.3,1.04-.3,1.64-.15,17.4-.15,30.64,.15,32.57,1.78,.3,6.69,.3,10.26,.15,.15-.89,.15-1.64,.15-2.53Zm-428.47-31.68c-.3-.15-.59-.3-.89-.3-3.12,0-6.1-.15-9.07,0-.15,.15-.3,.3-.3,.3,0,.45-.15,.89-.15,1.49v32.42s0,.15,.15,.15l.15,.15c2.23,.15,8.03,.15,10.11,0v-34.21Zm-5.35-3.57c3.42,.15,6.54-2.83,6.54-6.1s-2.83-5.95-6.25-6.1c-2.97-.15-6.4,2.53-6.1,6.1-.45,3.12,2.23,5.95,5.8,6.1Z"/>
</svg>