<?xml version="1.0" encoding="UTF-8"?>
<svg id="Layer_1" data-name="Layer 1" xmlns="http://www.w3.org/2000/svg" viewBox="0 0 1000 444.44">
  <defs>
    <style>
      .cls-1 {
        fill: #fff;
      }
    </style>
  </defs>
  <path class="cls-1" d="M380.76,334.81c.04-.1-.73-1.58-.98-2.19-.28-.7-.26-2.46-.17-2.87,.11-.48-.08-.49-.26-1.05-.07-.17,.13-1.36,.1-1.94-.02-.26-.99-2.2-1.07-2.59-.07-.37,.07-1.29,0-1.94-.03-.33-.11-.66-.24-.97l-4.08-12.32-1.71-5.51c-.15-.45-2.8-4.78-2.95-5.26-2.9-8.81-12-23.48-21.3-29.34-.3-.2-2.83-3.26-3.24-3.56-.53-.39-2.11-1.11-2.35-1.34-.71-.67-1.24-1.93-2.34-1.65-.23,.05-.43,.19-.57,.38-.24,.3-2.99,7.17-3.45,8-.49,.89-1.15,1.79-1.4,2.38-.37,1.03-.64,2.09-.82,3.16-2.69,10.82-22.95,45.46-28.1,55.15l-19.22,36.2c-3.53,5.61-3.16-.17-4.42-.74-1.72-.78-1.34,.55-2.32,1.25-1.22,.87-4.21,1.45-5.43,1.42-.19,0-2.21,1.1-2.75,1.25-.64,.19-1.19,.06-1.23-.64-.02-.3,.24-1.13,.3-1.6,.05-.41-.1-.68-.38-.97-.41-.41-.57-.16-1.36,.24-.74,.37-.83,.06-1.35-.68-.58-.79-6.97-2.25-7.67-1.94-.92,.41-2.56,1.95-3.26,1.02-.27-.36-.17-1.27-.29-1.94-.08-.56-.54-1-1.1-1.07-1.09-.05-1.99,.47-2.19,0-.35-.74,0-1.18-.44-1.5-.2-.16-1.64-.53-1.84-.67-.56-.41-.55-.97-1.17-1.26-.12-.06-.26-.09-.39-.09-1.38-.12-2.1,.28-2.81-.11-.8-.46-1.29-1.52-1.61-2.74-.24-.96-.46-3.38-.58-3.59-.09-.16-.34-.27-.53-.3-.45-.09-1.38,.34-1.84,.54-.81,.34-24.89,13.84-25.61,14.36-2.56,1.83-3.48,2.77-3.79,5.68-.84,8.1,3.2,31.78,14.37,34.89,1.49,.42,2.41,.02,3.79-.58l110.62-54.14c3.75-1.87,36.02-17.07,36.88-17.36,.42-.17,2.53-1.35,2.58-1.46h0Z"/>
  <path class="cls-1" d="M185.54,310.41s0,.09-.04,.16c-.08,.12-.23,.17-.36,.22-.44,.11-62.68,33.11-67.78,35.71l-20.59,11.6c-2.43,1.42-3.88,3.71-4.07,6.51-.55,8.47,4.5,20.21,9.85,27.4,1.46,1.96,4.79,6.29,7.62,7.03,1.46,.38,2.61,0,3.88-.39,.65-.2,64.12-29.93,72.16-33.81,20.75-9.14,38.3-16.77,59.15-25.7,1.1-.46,1.4-.65,1.65-1.61,.3-1.18,.67-3.68,.92-4.42,.2-.6,1-2,1.55-3.1,.44-.88,2.02-5.5,3.1-8.06,.37-.87,.77-1.67,1.07-2.52,.49-1.38,.96-3.73,1.4-4.96l22.61-56.41,10.97-26.63c1.65-5.24,1.45-6.65,4.42-11.64,.46-.78,4-11.94,4.13-12.81,.22-1.56,1.69-3.41,.17-3.78-.68-.17-2.11,.23-2.87,.48-2.05,.76-3.75,1.46-5.73,2.39-59.88,27.8-109.69,52.91-167.64,84.54-4.01,2.26-7.36,4.25-11.27,6.69-2.67,1.47-4.24,4.37-4.01,7.42,.74,10.08,3.18,18.49,7.91,27.41,1.69,2.98,3.86,2.69,7.33,1.79,.75-.2,16.63-6.49,22.03-8.73l41.58-14.61c.29-.08,.58-.14,.88-.17Z"/>
  <path class="cls-1" d="M403.01,240.64c-.19,.76,1.87,2.77,2.35,3.23,1.44,1.38,3.67,3.34,4.28,4.06,5.97,7.19,9.97,14.13,13.2,22.89,.03,.1,66.05-1.06,66.47-1.17,32.24-11.01,59.84-19.16,92.89-27.46,1.45-.53,2.42-.85,2.92-2.05,4.66-11.07-.35-32.95-6.22-42.49-1.7-2.76-3.63-2.74-7.03-1.93-6.44,1.51-46.75,10.13-56.97,12.47-36.28,8.62-66.64,17.11-102.14,28.57-2.46,.8-9.54,3.04-9.75,3.88h0Z"/>
  <path class="cls-1" d="M345.95,185.81c-.27,.71,.31,1.32,.67,1.63,.55,.48,9.77,6.34,10.63,7.03,.63,.49,1.12,.96,1.65,1.55,2.72,3.04,2.76,3.96,5.19,5.72,2.63,1.9,1.47,1.07,3.92,3.77,.8,.86,4.55,4.1,5.24,4.87,.98,1.1,1.06,1.31,2.14,1.94,.35,.2,16.9,16.6,17.18,16.98,1.32,1.79,2.97,5.15,4.94,4.94,.29-.03,41.6-20.13,43.87-21.34,10.45-4.99,19.3-9.12,29.84-13.92,16.82-7.43,48.57-21.75,51.82-23.09,2.98-1.22,4.55-2.12,4.36-5.07-.54-8.47-10.56-33.62-18.93-38.63-2.04-1.23-4.23-.4-6.79,.34-21.64,6.25-153.8,48.12-155.73,53.28h0Z"/>
  <path class="cls-1" d="M480.74,114.84l1.65-4.69c.05-.12,.09-.25,.11-.37,.12-1.04-.48-1-.93-1.65-.37-.53-.44-2.74-.48-2.92-.08-.25-.21-.48-.39-.67-.83-.98-2.09-1.88-2.43-2.62-.14-.3-.45-4.67-.58-4.95-.14-.3-.7-.89-1.04-1.37-.09-.12-.16-.24-.22-.37-.17-.42-.32-1.58-.43-1.72-.13-.17-.62-.35-.74-.51-.1-.27-.14-.55-.12-.84,.08-1.06,.26-1.57-.36-2.18-.99-.95-1.49-.8-1.84-1.93-.68-2.19-4.3-3.28-6.85-2.91-.47,.07-3.17,1.24-4.17,1.5-.94,.16-1.9,.25-2.86,.24-2.71-.09-2.73-.12-5.88,1.21-.73,.31-23.38,6.75-26.97,7.66-94.74,27.28-172.18,59.56-258.24,107.66-1.38,.84-4.01,2.4-4.99,3.66-.98,1.28-1.18,2.24-2.08,2.87-.32,.23-1.42,.61-2.23,.97-.33,.15-2.9,2.23-3.06,2.47-.2,.32-.55,1.2-.1,1.85,.14,.16,.33,.28,.54,.33,.37,.13,.81,.16,1.17,.3,.41,.16,.81,.48,1.17,.58,1.05,.29,1.21-.03,1.7,.63,.33,.43,1.04,2.5,1.6,2.87,.55,.35,1.34,.33,1.6,.72,.04,.07,.07,.12,.1,.2,.16,.37,.89,5.4,.89,6.07,0,.45-.27,3.19,.42,3.68,.59,.41,2.06,.08,2.72-.1,2.79-.74,2.64-1.87,6.01-4.17l8.35-4.71c.5-.33,1.67-.75,1.84-.92,.19-.23,.34-.44,.49-.68,.55-.78,1.31-.98,2.53-1.36,1.09-.34,1.15-.02,2.32,.87,2.44,1.85,4.43,3.16,7.28,1.07,1.28-.81,2.39-1.43,3.74-2.09,88.87-42.16,167.71-69.98,263.37-92.94,1.74-.32,16.2-3.85,16.55-4.02,2.08-1.1,1.54-3.44,.85-6.17-.08-.24-.07-.29,0-.54Z"/>
  <path class="cls-1" d="M293.94,80.97c0,8.07,3.41,22.76,11.17,28.04,.87,.6,1.88,.9,2.37,1.65,.72,1.09,.44,1.42,1.4,1.7,1.49,.42,1.68-.02,4.4,.05,.41,.01,2.31,.32,2.87,.2,.92-.2,1.47-.74,2.23-.25,.46,.3,.33,.48,.63,1.02,.49,.88,3.07,.75,3.78,.68,2.68-.26,4.97-.94,6.27-3.1,.38-.64,1.99-3.27,3.88-4.1,1.01-.43,1.2-.25,1.63-.63,.87-.74,1.86-2.77,2.18-3.24,.28-.4,2.41-2.29,3.7-3.48,6.36-5.94,14.9-24.34,12.96-34.66-.42-2.21-2.02-9.51-3.26-11.33-.52-.78-1.45-1.56-1.74-2.42-.09-.26-.12-.51-.2-.78-1.18-4.21-8.67-13.45-12.92-13.49-.43,0-.81,.07-1.21,0-.36-.06-1.79-.78-2.23-.87-.44-.1-2.4,0-2.82,.24-1.61,.88-3.07,1.45-4.86,1.89-.81,.2-1.13,.12-1.72,.57-.55,.41-1.06,1.07-1.57,1.45-.3,.2-1.67,.67-2.53,1.06-7.63,3.34-16.33,13.57-19.17,21-.94,2.55-5.25,16.33-5.25,18.81h0Z"/>
  <path class="cls-1" d="M428.7,399.94l-2.35-42.59c-.14-2.89-.17-5.78-.07-8.67h-13c-1.34,2.79-2.51,4.88-3.44,6.28l-28.94,45h9.89c1.48-3.1,2.83-5.66,4.19-7.75l7.92-12.55h14.96l.84,14.24c.08,1.01-.1,3.02-.39,6.04h10.41Zm-21.09-28.57l9.61-15.72h0s.74,15.72,.74,15.72h-10.34Z"/>
  <path class="cls-1" d="M447.81,328.22l18.71-35.85c-.65,2.88-1.28,5.47-1.84,7.81l-1.06,4.29-5.7,21.09c-.65,2.43-1.52,5.39-2.77,8.91h9.06c.67-3.28,1.3-6.08,1.84-8.27,.3-1.25,.64-2.34,.84-3.2l8.1-29.52c.56-2.02,1.49-5.54,3.02-10.7h-14.27c-1.04,2.24-2.13,4.45-3.27,6.64l-18.07,34.05,2.01-35.54c.05-.47,.15-2.19,.42-5.16h-14.92c-6.49,22.73-12.04,40-16.41,51.71h8.93c1.7-6.08,3.02-10.7,3.98-13.83l9.38-29.45-2.03,37.73c-.08,1.63-.27,3.51-.51,5.53h11.47c.99-2.19,2.01-4.2,3.1-6.24h0Z"/>
  <path class="cls-1" d="M471.32,334.46h32.06l2.84-10.23c-4.89,.55-10.43,.78-16.61,.78-2.29,0-4.28-.07-6.08-.15l.26-1.1c.56-2.26,1.21-4.38,1.84-6.41l1.65-5.39h14.27c2.02,0,4.11,0,6.13,.23l2.66-9.76c-2.42,.31-4.82,.31-7.31,.31h-13.16l1.42-5c.74-2.49,1.35-4.44,2.02-5.84h14.72c.98,0,3.56,.08,7.61,.3l2.65-9.45h-32.07c-5.6,21.72-10.63,38.99-14.92,51.71h0Z"/>
  <path class="cls-1" d="M556.13,286.35c-3-3.44-7.13-3.6-12.61-3.6h-19.55c-5.8,22.5-10.88,39.76-14.92,51.71h19.81c14.01,0,25.24-10.7,29.46-27.88,2.26-9.22,1.36-16.16-2.19-20.23Zm-7.71,20.7c-1.68,6.8-4.89,11.95-9.35,15.24-4.2,3.04-7.93,3.12-12.76,3.12h-4.61l.72-2.97c.67-2.73,1.38-5.3,2.09-7.96l6.41-22.65h7.95c4.36,0,7.36,0,9.01,2.26,1.81,2.5,2.03,6.88,.54,12.97Z"/>
  <path class="cls-1" d="M556.44,334.46h32.06l2.83-10.23c-4.89,.55-10.42,.78-16.6,.78-2.29,0-4.29-.08-6.09-.16l.27-1.1c.55-2.26,1.21-4.38,1.82-6.41l1.65-5.39h14.27c2.02,0,4.11,0,6.13,.23l2.66-9.76c-2.42,.31-4.83,.31-7.31,.31h-13.16l1.42-5c.74-2.49,1.35-4.44,2.02-5.84h14.72c.98,0,3.56,.08,7.61,.3l2.64-9.45h-32.06c-5.57,21.72-10.59,38.99-14.89,51.71h0Z"/>
  <path class="cls-1" d="M641.27,292.6l2.02-9.84c-4.17-.78-7.59-1.17-10.27-1.17-17.07,0-28.59,10-33.06,28.2-4.12,16.78,1.79,25.85,17.5,25.85,3.78,0,7.69-.54,11.69-1.18l3.61-10.7c-4.22,1.25-8.03,1.88-11.41,1.88-10.49,0-14.64-5.94-11.89-17.11,2.84-11.57,10.29-18.27,20.32-18.27,4.56,0,8.37,.94,11.48,2.34h0Z"/>
  <path class="cls-1" d="M660.75,282.76h-10.1c-5.83,22.65-10.91,39.92-14.97,51.71h10.23c.67-2.96,1.29-5.53,1.79-7.58,.3-1.31,.64-2.61,1.02-3.9l8.54-29.45c.97-3.43,2.18-7.03,3.49-10.78Z"/>
  <path class="cls-1" d="M679.56,334.46h15.05c.52-2.11,.94-4.06,1.35-5.7,.6-2.43,1.13-4.29,1.55-5.77l8.47-29.45c.97-3.44,2.18-7.03,3.49-10.79h-8.93c-.26,1.02-.44,2.03-.67,2.97-.81,3.29-1.67,6.25-2.5,9.14l-8.84,31.24-5.38-43.35h-14.34c-6.64,23.9-11.54,41.16-15.23,51.71h8.93c1.24-4.77,2.62-10.14,4.35-16.09l7.9-27.65,3.54,29.37c.57,5.09,1.18,9.77,1.28,14.37h0Z"/>
  <path class="cls-1" d="M715.16,307.68l7.26,9.45c1.22,1.64,1.65,3.35,1.32,4.77-.77,3.13-3.81,5.16-8.24,5.16-3.06,0-7.1-1.33-11.67-4.22l-1.93,10.01c2.16,1.55,6.48,2.81,12.15,2.81,9.71,0,16.75-5.62,18.75-13.67,1.21-4.92-.07-8.74-3.43-13.12l-7.93-10.46c-.67-.93-.84-2.11-.54-3.35,.78-3.2,3.76-5.23,8.52-5.23,2.73,0,5.5,.93,8.72,2.41l1.75-9.21c-3.66-.78-7.13-1.25-10.52-1.25-9.51,0-15.55,4.69-17.51,12.65-1.32,5.3-.09,8.81,3.31,13.26h0Z"/>
  <path class="cls-1" d="M367.9,373.39l7.25,9.37c1.23,1.63,1.65,3.34,1.31,4.73-.77,3.1-3.81,5.11-8.22,5.11-3.06,0-7.09-1.32-11.65-4.19l-1.93,9.91c2.16,1.55,6.46,2.79,12.12,2.79,9.69,0,16.73-5.57,18.7-13.55,1.21-4.89-.07-8.67-3.42-13.01l-7.91-10.38c-.67-.93-.85-2.09-.55-3.33,.78-3.18,3.76-5.19,8.5-5.19,2.73,0,5.5,.93,8.71,2.4l1.74-9.14c-3.65-.77-7.12-1.22-10.49-1.22-9.49,0-15.52,4.64-17.47,12.54-1.29,5.25-.08,8.74,3.31,13.16h0Z"/>
  <path class="cls-1" d="M455.92,399.95h15.02c.52-2.09,.93-4.03,1.33-5.66,.6-2.4,1.12-4.27,1.55-5.73l8.46-29.19c.97-3.41,2.18-6.98,3.48-10.69h-8.91c-.24,1-.43,2.01-.67,2.94-.81,3.26-1.67,6.19-2.5,9.06l-8.84,30.97-5.37-42.98h-14.31c-6.64,23.69-11.52,40.81-15.21,51.27h8.91c1.22-4.73,2.62-10.07,4.34-15.95l7.87-27.41,3.53,29.12c.59,5.03,1.2,9.68,1.31,14.26h0Z"/>
  <path class="cls-1" d="M491.44,373.39l7.25,9.37c1.23,1.63,1.65,3.34,1.31,4.73-.77,3.1-3.8,5.11-8.22,5.11-3.06,0-7.09-1.32-11.64-4.19l-1.93,9.91c2.16,1.55,6.47,2.79,12.12,2.79,9.69,0,16.73-5.57,18.7-13.55,1.21-4.89-.07-8.67-3.42-13.01l-7.9-10.38c-.67-.93-.85-2.09-.54-3.33,.78-3.18,3.75-5.19,8.49-5.19,2.73,0,5.5,.93,8.7,2.4l1.73-9.14c-3.65-.77-7.1-1.22-10.49-1.22-9.49,0-15.52,4.64-17.48,12.54-1.31,5.25-.08,8.74,3.31,13.16h0Z"/>
  <path class="cls-1" d="M529.17,399.95h9.82c.41-1.94,.86-3.81,1.34-5.66,1-4.03,2.05-7.75,3.12-11.3l1.65-5.36h11.71c2.01,0,4.03,0,6.05,.24l2.72-9.69c-2.08,.24-4.5,.31-7.3,.31h-10.59l1.41-4.96c.74-2.47,1.35-4.41,2.02-5.8h12.1c.97,0,3.55,.08,7.59,.31l2.7-9.37h-29.46c-5.56,21.53-10.58,38.66-14.87,51.28h0Z"/>
  <path class="cls-1" d="M563.56,399.95h10.08c2.47-9.22,3.82-14.41,4.2-15.65l5.57-19.9c.71-2.63,1.57-5.03,2.51-7.27,2.05-.16,3.96-.24,5.58-.24,6.05,0,8.42,.92,7.16,6.04-1.31,5.27-5.16,7.97-11.61,7.97-1.24,.01-2.48-.09-3.7-.3l3.22,29.35h10.21c-1.28-7.75-2.26-15.33-3.09-22.77,7.48-2.87,12.17-7.9,13.88-14.87,1.51-6.12,.5-10.46-2.29-12.31-1.84-1.25-4.42-1.32-7.67-1.32h-19.19c-5.76,22.29-10.83,39.41-14.87,51.25h0Z"/>
  <path class="cls-1" d="M639.04,347.6c-15.22,0-27.08,10.61-31.33,27.79-4.03,16.35,2.39,25.63,18.13,25.63,15.23,0,27.08-10.6,31.31-27.72,4.06-16.41-2.3-25.7-18.1-25.7Zm8.26,25.78c-3.01,12.15-9.95,18.66-19.7,18.66-8.97,0-12.73-6.11-10.11-16.73,2.99-12.08,9.89-18.66,19.37-18.66s13.12,5.89,10.44,16.73Z"/>
  <path class="cls-1" d="M681.53,399.95h15.02c.51-2.09,.93-4.03,1.33-5.66,.6-2.4,1.12-4.27,1.55-5.73l8.45-29.19c.98-3.41,2.18-6.98,3.49-10.69h-8.92c-.25,1-.43,2.01-.65,2.94-.81,3.26-1.66,6.19-2.5,9.06l-8.83,30.98-5.37-42.98h-14.31c-6.63,23.69-11.53,40.81-15.21,51.27h8.91c1.24-4.73,2.62-10.07,4.34-15.95l7.89-27.41,3.53,29.12c.57,5.03,1.18,9.68,1.28,14.26h0Z"/>
  <path class="cls-1" d="M734,356.89c1.32-.08,2.62-.08,3.98-.08,2.92,0,5.82,.16,8.73,.47l2.51-8.6h-34.28l-2.59,8.6c3.17-.3,6.36-.46,9.55-.47,1.03,0,2.08,0,3.1,.08-3.88,14.64-8.28,29.05-13.18,43.07h10.15c.29-1.47,.67-3.02,1.09-4.65,.8-3.25,1.79-6.97,3-11.07l7.93-27.34h0Z"/>
  <path class="cls-1" d="M763.27,348.68h-10.08c-5.81,22.47-10.89,39.57-14.95,51.27h10.22c.67-2.94,1.29-5.5,1.79-7.52,.38-1.55,.68-2.79,1.02-3.88l8.51-29.19c.98-3.41,2.18-6.97,3.49-10.68h0Z"/>
  <path class="cls-1" d="M756.04,399.95h32l2.83-10.15c-4.88,.54-10.41,.78-16.59,.78-2.26,0-4.27-.08-6.07-.16l.26-1.09c.56-2.25,1.21-4.34,1.84-6.34l1.65-5.35h14.24c2.01,0,4.09,0,6.12,.24l2.65-9.69c-2.41,.31-4.82,.31-7.3,.31h-13.13l1.42-4.96c.74-2.47,1.35-4.41,2.02-5.8h14.7c.97,0,3.55,.08,7.59,.31l2.64-9.37h-32c-5.57,21.53-10.58,38.66-14.87,51.28h0Z"/>
  <path class="cls-1" d="M793.62,399.95h10.09c2.46-9.22,3.81-14.41,4.19-15.65l5.56-19.9c.72-2.63,1.57-5.03,2.53-7.27,2.06-.16,3.96-.24,5.57-.24,6.05,0,8.42,.92,7.16,6.04-1.31,5.27-5.16,7.97-11.59,7.97-1.24,0-2.46-.08-3.7-.3l3.22,29.35h10.21c-1.23-7.56-2.25-15.15-3.08-22.77,7.48-2.87,12.16-7.9,13.88-14.87,1.51-6.12,.5-10.46-2.29-12.31-1.84-1.25-4.42-1.32-7.67-1.32h-19.19c-5.78,22.29-10.86,39.41-14.89,51.25h0Z"/>
  <path class="cls-1" d="M831.95,399.95h32.01l2.83-10.15c-4.89,.54-10.4,.78-16.58,.78-2.27,0-4.28-.08-6.08-.16l.28-1.09c.56-2.25,1.19-4.34,1.83-6.34l1.65-5.35h14.24c2.02,0,4.09,0,6.12,.24l2.65-9.69c-2.41,.31-4.82,.31-7.3,.31h-13.13l1.41-4.96c.74-2.47,1.35-4.41,2.02-5.8h14.7c.98,0,3.56,.08,7.6,.31l2.64-9.37h-32.01c-5.56,21.53-10.57,38.66-14.87,51.28h0Z"/>
  <path class="cls-1" d="M882.69,373.39l7.25,9.37c1.21,1.63,1.65,3.34,1.31,4.73-.77,3.1-3.81,5.11-8.22,5.11-3.06,0-7.1-1.32-11.66-4.19l-1.92,9.91c2.15,1.55,6.46,2.79,12.12,2.79,9.69,0,16.73-5.57,18.7-13.55,1.21-4.89-.07-8.67-3.41-13.01l-7.91-10.38c-.67-.93-.85-2.09-.54-3.33,.78-3.18,3.76-5.19,8.5-5.19,2.73,0,5.5,.93,8.7,2.4l1.73-9.14c-3.64-.77-7.1-1.22-10.49-1.22-9.49,0-15.52,4.64-17.47,12.54-1.32,5.25-.11,8.74,3.3,13.16h0Z"/>
</svg>