<?xml version="1.0" encoding="UTF-8"?>
<svg id="Layer_1" data-name="Layer 1" xmlns="http://www.w3.org/2000/svg" viewBox="0 0 1000 444.44">
  <defs>
    <style>
      .cls-1 {
        fill: #fff;
      }
    </style>
  </defs>
  <path class="cls-1" d="M439.79,44.77c0,.64,0,1.28,0,1.93,0,108.83,0,217.65,0,326.48,0,.64,0,1.28,0,2.09-2.59,.82-5.2,1.64-7.96,2.5V47.2c2.15-.68,4.36-1.38,6.56-2.09,.17-.05,.3-.23,.44-.34,.32,0,.64,0,.96,0Z"/>
  <path class="cls-1" d="M97.53,366.33c.76-1.09,1.4-2.29,2.3-3.25,1.46-1.57,2.54-3.52,4.48-4.63,.18-.1,.33-.27,.47-.43,1.98-2.27,4.46-3.98,6.79-5.83,2.23-1.77,4.58-3.4,6.92-5.02,3.97-2.75,8.02-5.38,12.2-7.81,.93-.54,1.75-1.27,2.62-1.91,.44-.13,.94-.17,1.32-.39,3.06-1.77,6.1-3.58,9.15-5.37,.44-.26,.91-.47,1.37-.7,1.35-.98,2.7-1.96,4.16-3.02-.61-1.19-1.04-2.33-1.72-3.3-1.31-1.87-3.29-2.41-5.6-1.75-1.06,.3-1.56,1.22-2.42,1.71-2.3-1.89-3.55-4.45-4.44-7.19-.52-1.59-.61-3.28-.04-4.93,1.66-.97,3.48-1.5,5.32-1.99,2.22-.58,4.47-.83,6.75-.65,4.71,.37,9.1,1.62,12.96,4.56,2.28,1.74,4.07,3.85,5.4,6.31,.87,1.62,1.33,3.45,1.77,5.3,.59,2.44-.54,3.86-2.11,5.18-1.52,1.29-3.14,2.46-4.74,3.64-1.56,1.15-3.17,2.22-4.74,3.36-.28,.2-.46,.55-.68,.83-.24,.08-.51,.12-.72,.25-3.23,2.06-6.46,4.11-9.67,6.2-.55,.36-1.02,.85-1.52,1.28-1.18,.05-2.01,.89-2.88,1.48-5.31,3.59-10.67,7.12-15.69,11.12-1.81,1.44-3.58,2.92-5.33,4.41-.24,.21-.31,.61-.46,.92-.67,.72-1.4,1.4-2,2.17-2.25,2.87-3.99,6.03-5.27,9.45-.96,2.57-1.58,5.23-1.75,7.98-1.59-1.9-3.26-3.74-4.74-5.71-2.55-3.4-4.98-6.89-7.46-10.34,0-.64,0-1.28,0-1.93Z"/>
  <path class="cls-1" d="M256.83,339.64c.79,.26,1.6,.48,2.37,.8,1.39,.56,2.86,.73,4.32,.77,2.57,.07,5.14,.12,7.7,0,4.82-.24,9.53-1.05,14.05-2.87,3.18-1.28,6.05-3.06,8.83-5.01,1.91-1.34,3.72-2.82,5.56-4.26,2.06-1.6,4.09-3.24,6.15-4.84,.49-.38,1.06-.65,1.54-1.21-.45,0-.89,0-1.34,0-6.26,0-12.52,.04-18.78-.01-3.29-.03-6.3,.89-9.25,2.21-1.09,.48-2.21,.89-3.45,1.39-2.43-3.57-4.42-7.38-6.61-11.09,.4-.75,.68-1.38,1.45-1.84,.98-.58,1.76-1.48,2.65-2.22,.97-.79,1.98-1.53,2.94-2.33,.97-.81,2.07-1.05,3.3-1.26,2.29-.39,4.56-.27,6.84-.25,4.32,.05,8.64,.2,12.96,.31,3.94,.1,7.89,.22,11.83,.32,4.32,.11,8.64,.21,12.96,.33,2.13,.06,4.26,.05,6.37,.28,1.74,.19,3.46-.08,5.18,.02,2.18,.13,4.36,.21,6.53,.31,.19,.29,.36,.56,.6,.92-1.22,4.04-2.49,8.15-3.7,12.28-.22,.76-.58,1.33-1.4,1.89-4.21-.3-8.45,.29-12.25,2.6-2.31,1.4-4.56,2.93-6.69,4.92,.92,.95,1.67,1.84,2.55,2.59,1.32,1.12,2.69,2.2,4.11,3.19,2.34,1.63,4.96,2.59,7.78,3.1,2.31,.42,4.62,.59,6.95,.58,2.73,0,5.46,0,8.18-.05,2.1-.04,4.13-.47,6.06-1.59v-1.59c0-15.78,0-31.55,0-47.33,0-1.62,.35-2.1,1.82-2.67,3.07-1.18,6.14-2.37,9.21-3.56,.48-.19,.94-.44,1.44-.57,.78-.2,1.49,.32,1.6,1.13,.04,.32,0,.64,0,.96,0,16.31,.01,32.62,0,48.93,0,3.79-.59,7.52-1.94,11.08-.71,1.87-1.79,3.55-3.15,5.05-1.4,1.55-2.97,2.9-4.84,3.79-1.39,.67-2.92,1.08-4.41,1.5-3.48,.97-7.05,.62-10.59,.65-4.55,.04-9.1,.17-13.64-.05-2.7-.13-5.37-.93-7.71-2.42-2.56-1.63-4.65-3.74-6.35-6.26-2.01-2.97-4.05-5.91-6.15-8.97-1.42,1.19-2.88,2.38-4.31,3.62-4.15,3.58-8.37,7.09-13.13,9.83-3.17,1.82-6.56,3.21-10.18,3.87-1.33,.24-2.69,.42-4.08,.41-4.71-.06-9.42,.07-14.12-.05-1.95-.05-3.88-.69-5.54-1.8-1.55-1.04-2.98-2.26-4.47-3.4,.34-.57,.65-1.16,1.03-1.7,2.16-3.11,3.1-6.59,3.13-10.35l.08-.08Z"/>
  <path class="cls-1" d="M285.01,121.18c-.28,.1-.62,.14-.82,.32-2.27,2.05-4.76,3.83-7.4,5.36-1.98,1.14-4.16,1.87-6.43,2.32-1.74,.34-3.48,.38-5.23,.37-4.11-.02-8.23-.07-12.34-.1-1.21,0-2.34-.36-3.43-.81-2.82-1.17-5.27-2.92-7.37-5.13-.75-.79-1.41-1.65-2.14-2.52-.81,1.11-1.41,2.16-2.22,3.02-2.45,2.58-5.55,4.04-8.98,4.8-1.94,.43-3.9,.89-5.92,.62,.34-.31,.69-.61,1.03-.92,.39-.36,.87-.66,1.13-1.1,.68-1.15,1.49-2.22,1.97-3.5,.96-2.54,1.45-5.17,1.63-7.86,.08-1.17,.01-2.34,.01-3.51,.1-.33,.28-.66,.29-.99,.03-2.3,.01-4.6,.01-6.9,0-13.47,0-26.94,0-40.41,0-.43,.02-.86,0-1.28-.06-1.13,.44-1.82,1.52-2.23,3.32-1.24,6.61-2.55,9.92-3.81,.33-.13,.69-.25,1.04-.26,1.09-.04,1.32,.18,1.37,1.25,.02,.43,0,.86,0,1.28,0,13.04-.01,26.08,.01,39.13,0,1.75,.14,3.5,.31,5.24,.06,.6,.42,1.16,.62,1.75,1.42,4.14,4.33,6.73,8.44,8.01,.94,.29,1.96,.41,2.95,.42,3.26,.04,6.52,.05,9.78-.03,2.36-.06,4.66-.56,6.91-1.23,.39-.12,.75-.31,1.26-.52-.98-1.15-1.85-2.25-2.81-3.28-1.95-2.1-3.95-4.16-5.91-6.25-.86-.92-1.68-1.89-2.52-2.83-.07-.08-.15-.15-.23-.23-1.21-1.35-1.18-2.29,.19-3.48,2.56-2.22,5.09-4.5,7.95-6.31,3.17-2.01,6.53-3.7,10.2-4.7,2.81-.76,5.67-.92,8.5-.6,4.54,.51,8.69,2.03,12.28,5.05,3,2.53,4.95,5.63,6.03,9.34,.27,.95,.39,1.94,.53,2.92,.16,1.14-.21,2.11-1.1,2.83-1.72,1.4-3.42,2.82-5.2,4.15-1.59,1.19-3.27,2.26-4.89,3.42-.2,.14-.23,.53-.34,.8-.29,.11-.62,.16-.86,.33-1.07,.74-2.13,1.49-3.17,2.27-1,.75-2.01,1.51-2.94,2.34-1.25,1.11-2.44,2.3-3.66,3.46Zm-.06-15.91c1.4-1.03,2.67-1.97,3.89-2.86-.39-1.72-.99-3.18-2.25-4.25-2.38-2.01-4.69-1.63-6.82,.28-.2,.17-.2,.56-.29,.85,1.81,1.98,3.57,3.9,5.47,5.98Z"/>
  <path class="cls-1" d="M657.16,85.51c-.78,1.04-1.8,1.89-2.36,3.12-.96,2.09-1.59,4.26-2.19,6.47-.68,2.49-.32,5.05-.84,7.53,.44,3.33,.14,6.75,1.23,9.99,.84,2.48,2.2,4.42,5.09,4.68,1.21,.11,2.43,.27,3.64,.28,5.24,.03,10.47-.05,15.71,.05,1.87,.03,3.5-.38,5.02-1.55,.04-.72,.08-1.51,.12-2.3,1.11,1.57,2.64,2.66,4.31,3.51,1.23,.63,2.54,1.18,3.87,1.56,2.97,.83,5.99,1.45,9.1,1.33,.22,0,.44-.18,.66-.27,.32,.11,.63,.22,.95,.33,.99,.37,1.55,.37,2.57,0,2.59-.47,4.52-1.98,6.18-3.92,.09-.12,.25-.24,.25-.36,0-3.54,0-7.08-.02-10.62,0-.18-.24-.36-.36-.54-2.11,.2-4.22,.36-6.32,.61-1.31,.15-2.6,.42-3.9,.64,.71-1.33,1.82-2.32,2.88-3.34,1.45-1.39,2.92-2.76,4.42-4.1,.85-.76,1.76-1.43,2.65-2.15,.12-.21,.35-.44,.34-.64-.12-1.73,.32-3.49-.31-5.21-.21-.57-.15-1.24-.17-1.86-.05-1.34-.8-2.45-1.28-3.8-1.8-.11-3.66-.18-5.5,.08-3.84,.54-7.49,1.8-11.1,3.18-.52,.2-1.11,.23-1.79,.37-.49-.34-.82-.93-1.04-1.65-.63-2.05-1.33-4.08-2-6.11-.4-1.2-.25-1.7,.84-2.26,2.13-1.09,4.44-1.72,6.75-2.26,4.89-1.15,9.88-1.41,14.87-1.01,3.87,.31,7.51,1.48,10.44,4.17,1.95,1.78,3.1,4.09,3.72,6.64,.53,2.21,.69,4.47,.69,6.75-.02,11.82-.01,23.64-.01,35.46,0,.1-.02,.21-.03,.31-.38,.69-.97,.88-1.74,.87-2.78-.03-5.56-.01-8.3-.01-1.37-1.07-1.58-2.65-2.09-4.08-.13-.37-.29-.73-.54-1.35-.85,.85-1.55,1.49-2.18,2.19-1.64,1.82-3.76,2.69-6.09,3.27-2.11,.52-4.22,.27-6.33,.34-1.5,.05-2.92-.29-4.3-.74-2.06-.67-3.85-1.83-5.38-3.37-.26-.26-.55-.51-.84-.74-.07-.05-.21-.02-.37-.03-1.02,.86-2.05,1.76-3.11,2.61-1.8,1.43-3.84,2-6.16,1.96-7.12-.1-14.23-.03-21.35-.12-2.12-.03-4.15-.67-6.12-1.49-2.63-1.09-5-2.54-6.93-4.68-1.55-1.72-2.7-3.64-3.62-5.78-.76-1.76-1.17-3.6-1.72-5.4-.25-.84-.4-1.73-.41-2.6-.04-3.58-.04-7.16,0-10.74,.02-2.23,.51-4.39,1.28-6.49,.48-1.31,.74-2.72,1.37-3.95,.82-1.61,1.87-3.12,2.91-4.61,.63-.9,1.38-1.73,2.17-2.5,1.99-1.94,4.35-3.3,6.94-4.31,2.66-1.05,5.41-1.45,8.24-1.74,1.89-.2,3.71,.02,5.52,.23,2,.24,3.98,.8,5.87,1.6-1.29,.46-2.6,.87-3.86,1.39-2.26,.94-4.35,2.22-6.25,3.75-1.3,1.05-2.45,2.28-3.67,3.43Zm53.02,32.2c.17-.23,.27-.32,.26-.36-.04-.09-.13-.16-.2-.24-.01,.13-.02,.26-.05,.6Z"/>
  <path class="cls-1" d="M499.19,105.98c-2.78,.02-5.55,.05-8.33,.07-.9,0-1.81,0-2.77,0-.35,1.53,.05,2.99,.29,4.42,.18,1.06,.63,2.08,1.05,3.09,.94,2.24,2.76,3.39,5.07,3.72,1.52,.22,3.07,.31,4.6,.31,8.82,.03,17.63,.01,26.45,.01,1.32,0,2.68,.16,3.74-.92,.05-.05,.21,.01,.31,0,.1-.02,.19-.08,.37-.15-.25-1.01-.57-2.03-.74-3.07-.18-1.16-.56-2.32-.36-3.52,.34-.05,.62-.15,.38-.57-.14-.25-.31-.48-.47-.72-.02-2.83-.07-5.66-.06-8.48,0-4.29,.76-8.46,2.28-12.46,.99-2.62,2.22-5.09,4.18-7.2,1.42-1.54,2.9-2.93,4.8-3.77,1.55-.69,3.11-1.41,4.87-1.47,.84-.03,1.66-.25,2.5-.3,3.86-.23,7.39,.73,10.56,2.96-.25,.16-.48,.39-.76,.48-3.87,1.3-6.94,3.7-9.5,6.81-1.31,1.24-1.99,2.85-2.58,4.49-1.38,3.83-1.79,7.84-1.86,11.86-.04,2.92,.09,5.85,.32,8.76,.12,1.56,.5,3.13,.95,4.64,.51,1.71,1.43,3.19,3.18,3.97,.26,.11,.44,.39,.68,.62,.72,0,1.46-.03,2.21,0,3.01,.16,5.49-.88,7.42-3.2,.51,.47,.13,1.08,.26,1.61,.53,2.13,1.07,4.25,1.6,6.38-.35,.2-.79,.32-1.05,.6-2.39,2.58-5.42,3.97-8.76,4.81-.25,.06-.52,.06-.79,.06-1.98,0-3.97,.13-5.93-.03-2.08-.18-4.01-1.04-5.73-2.2-1.21-.82-2.26-1.89-3.52-2.98-.47,.49-1.09,.94-1.45,1.55-.66,1.1-1.71,1.7-2.7,2.37-1.22,.81-2.61,1.03-4.07,1.02-8.98-.02-17.97,0-26.95-.01-2.51,0-5.03,.03-7.54-.06-.96-.04-1.91-.35-2.84-.62-2.08-.59-4.06-1.4-5.91-2.56-2.32-1.45-4.1-3.41-5.55-5.68-1.51-2.37-2.33-4.99-2.97-7.73-.46-1.97-.56-3.93-.67-5.92-.06-1.06-.2-2.11-.22-3.17-.01-.79,.13-1.58,.16-2.37,.06-1.6,0-3.21,.16-4.8,.12-1.22,.36-2.45,.74-3.61,.69-2.1,1.43-4.17,2.43-6.17,1.39-2.8,3.35-5.14,5.71-7.08,2.68-2.22,5.79-3.63,9.31-4.2,2.92-.47,5.81-.43,8.73-.23-.81,.53-1.69,.99-2.43,1.61-2.22,1.87-4.2,3.95-5.65,6.51-.33,.58-.89,1.04-.89,1.79-2.03,3.68-3.45,8.89-3.03,11.19h13.93c.03,1.09-.1,2.16-.27,3.24-.39,2.41-1.26,4.54-2.93,6.33Z"/>
  <path class="cls-1" d="M750.27,86.46c-.01,7.49-.02,14.97-.03,22.46,0,1.5,.07,3,.01,4.49-.06,1.53,.74,2.5,1.91,3.24,.89,.57,1.9,.89,2.98,.89,4.87,.02,9.74,.03,14.6,.04,1.24,0,2.23-.52,3.04-1.45v-36.11c.45-.91,1.34-1.23,2.24-1.52,3-.97,5.99-1.96,9-2.87,.94-.28,1.94-.33,2.81-.47,.66,.67,.7,1.33,.7,2.03-.01,10.96,0,21.92-.03,32.88,0,1.72,.26,3.34,1.06,4.88,.83,1.6,2.24,2.49,3.91,2.59,2.88,.17,5.77,.05,8.66,.06,.71,0,1.21-.34,1.56-.93,.3,.46,.66,.9,.9,1.39,1.08,2.16,2.4,4.13,4.14,5.82,.4,.39,.66,.92,.99,1.38-.3,.07-.49,.17-.71,.49-.64,.95-1.3,1.85-2.3,2.55-1.15,.8-2.36,1.16-3.66,1.2-3.26,.08-6.52,.02-9.79,.04-2.43,.01-4.4-1.06-6.17-2.59-1.23-1.07-2.21-2.35-2.9-3.94-.61,.86-1.14,1.64-1.7,2.4-2.1,2.83-5.04,4.06-8.45,4.09-8.02,.06-16.04,0-24.07,.01-2.88,0-5.5-.81-7.95-2.26-1.41-.83-2.47-1.98-3.34-3.37-1.28-2.05-1.89-4.25-1.89-6.64,0-2.35-.04-4.7-.05-7.05,0-14.17,0-28.33,0-42.5,0-.89,.05-1.79,.09-2.75,1.47-.42,2.81-.82,4.17-1.17,2.72-.69,5.47-1.29,8.17-2.07,.67-.19,1.1-.03,1.81,.26,.08,.89,.22,1.87,.23,2.85,.04,4.01,.05,8.02,.06,12.03,0,3.21-.01,6.42-.02,9.64Z"/>
  <path class="cls-1" d="M316.18,112.51c.52-.42,.25-1,.25-1.5,.02-6.04,0-12.08,.02-18.13,.01-3.52,.03-2.63,2.68-3.78,2.64-1.15,5.35-2.11,8.04-3.15,.67-.26,1.35-.51,2.12-.8,.35,.29,.71,.57,1.09,.88,0,4.55-.12,9.04,.04,13.53,.11,3.08,.54,6.14,2.09,8.93,1.41,2.55,3.47,4.2,6.26,4.91,.96,.24,1.98,.32,2.97,.34,2.14,.05,4.28,.01,6.42,0,1.53,0,2.99-.38,4.4-.95,.38-.15,.73-.34,1.16-.54V62.21c.51-.88,1.18-1.28,2-1.59,2.89-1.08,5.76-2.18,8.62-3.34,.88-.36,1.71-.81,2.91-.53,.09,.25,.26,.61,.33,1,.07,.36,.02,.75,.02,1.12,0,16.42-.01,32.83,0,49.25,0,3.39-.53,6.68-1.64,9.88-1.65,4.75-4.89,8.08-9.43,10.07-2.09,.91-4.37,1.46-6.71,1.43-1.74-.02-3.5,.38-5.22-.2-.73,.51-1.55,.19-2.33,.26-3.44,.29-6.39-1.01-9.15-2.87-1.71-1.15-3.25-2.49-4.63-4.02-.37-.41-.69-1-1.54-.85-.74,1.63-1.95,3.01-3.33,4.24-1.79,1.6-3.85,2.64-6.23,3.12-2.33,.47-4.65,.37-6.99,.3,.39-.42,.8-.83,1.17-1.26,.63-.74,1.36-1.42,1.84-2.25,1.91-3.31,2.62-6.96,2.76-10.73,.03-.9,0-1.81,0-2.72Z"/>
  <path class="cls-1" d="M175.23,340.08c.2-.15,.53-.26,.57-.45,.09-.41,.04-.85,.04-1.28,0-6.25,0-12.51,0-18.76,0-.68,.05-1.36,.07-2.13,3.94-1.5,7.79-2.92,11.59-4.45,.7-.28,1.31-.23,2.13-.25,.03,.64,.08,1.21,.08,1.78,0,3.64-.02,7.27,.01,10.91,.03,3.01,.49,5.95,1.5,8.81,1.4,3.94,4.11,6.12,8.24,6.75,2.35,.36,4.68,.17,7.02,.2,1.01,.01,1.94-.4,2.79-.9,.37-.22,.65-.66,.86-1.06,1-1.94,1.94-3.91,2.95-5.84,2.6-4.96,5.23-9.91,8.24-14.64,.03-.04,.08-.08,.09-.13,.48-1.81,1.93-2.02,3.45-2.04,2.35-.03,4.71-.15,7.05,.02,1.92,.14,3.85,.47,5.7,1,3.96,1.13,7.46,3.14,10.69,5.72,2.98,2.38,5.43,5.14,6.99,8.65,1.08,2.44,1.54,5,1.52,7.65,0,0-.08,.08-.08,.08-.1,.1-.23,.18-.3,.3-1.48,2.5-3.73,4.04-6.41,4.93-1.31,.43-2.72,.58-4.09,.83-.19,.04-.41-.04-.62-.08-.35-.07-.7-.22-1.05-.22-1.07,.02-2.03-.31-2.92-.88,.33-.54,.75-1.04,.97-1.62,.57-1.49,.52-3-.09-4.47-.76-1.86-2.04-3.32-3.57-4.57-2.16-1.77-4.64-2.91-7.36-3.51-.74-.16-1.44-.07-1.84,.78-.31,.65-.74,1.25-1.13,1.87-.72,1.13-1.48,2.25-2.18,3.4-.24,.39-.34,.85-.51,1.28-1.18,2.04-2.37,4.09-3.54,6.13-1.21,2.11-2.43,4.21-3.61,6.34-.17,.3-.17,.69-.25,1.04-.46-.16-.7,.17-.93,.45-1.87,2.26-4.38,3.54-7.08,4.45-1.41,.48-2.87,.9-4.42,.85-1.6-.05-3.21-.06-4.8,0-1.71,.07-3.26-.42-4.8-1.08-2.94-1.26-5.4-3.2-7.78-5.28-.56-.49-1.06-1.06-1.68-1.7-.17,.19-.45,.41-.61,.7-2.23,4.06-5.74,6.22-10.22,7.04-2.16,.4-4.31,.33-6.47,.21,.02-.05,.03-.12,.07-.14,2.59-1.6,4.01-4.08,4.9-6.86,.93-2.91,1.27-5.92,1.11-8.97-.02-.29-.2-.58-.3-.86Z"/>
  <path class="cls-1" d="M604.2,243.27c-1.02,.38-1.96-.16-2.89-.37-3.02-.68-5.84-1.85-8.19-3.95-.17-.15-.45-.19-.74-.31-.34,.49-.69,1.01-1.04,1.52-1.24,1.8-2.95,2.86-5.14,2.91-3.36,.07-6.73,.05-10.09,0-1.42-.03-2.63-.82-3.8-1.55-1.58-.98-2.84-2.33-3.85-3.84-1.11,.96-2.15,1.95-3.28,2.82-2.3,1.77-4.92,2.8-7.82,2.92-1.86,.08-3.76,.15-5.6-.09-2.93-.39-5.7-1.32-7.83-3.55-.47-.49-.93-1-1.4-1.49,.1-.5,.18-1.02,.32-1.51,.58-2.06,1.17-4.12,.98-6.3-.02-.21,.02-.42,.04-.64,1.53,1.53,3.25,2.74,5.43,3.13,2.65,.47,5.14,.23,6.92-2.09,.6-.78,1.07-1.71,1.39-2.64,.96-2.78,1.18-5.71,1.26-8.62,.08-2.77,.12-5.53-.22-8.3-.28-2.27-.62-4.51-1.39-6.66-.78-2.19-1.93-4.16-4.12-5.27,.32-.46,.75-.24,1.14-.17,.25,.04,.49,.24,.73,.23,1.95-.02,3.76,.63,5.58,1.2,3.36,1.05,6.39,2.71,8.98,5.13,.94,.88,1.88,1.77,2.83,2.65,.06,.06,.21,.03,.31,.04,0,0,0,.01,0,.01,.06,.1,.13,.19,.19,.29,.7,4.01,.52,8.05,.52,12.09,0,2.01-.27,3.99-.67,5.96-.12,.61-.02,1.28-.02,1.96,1.27,1.73,3.02,2.51,5.18,2.48,1.82-.03,3.63-.03,5.45,.02,1.13,.03,2.16-.21,3.26-.86-.3-.79-.67-1.57-.9-2.39-.44-1.53-.85-3.05-1.11-4.63-.63-3.86-.43-7.74-.3-11.6,.18-5.59,2.04-10.69,5.35-15.14,2.69-3.62,6.45-5.9,10.83-7.07,3.54-.94,7.13-.94,10.75-.64-.73,.56-1.5,1.08-2.19,1.69-2.33,2.06-4.11,4.59-5.8,7.17-.33,.5-.45,1.14-.67,1.71-.33,.64-.73,1.26-.98,1.93-1.19,3.14-1.69,6.45-1.84,9.77-.2,4.4-.31,8.82,.21,13.23,.19,1.65,.54,3.24,1.06,4.78,.79,2.38,2.78,4.36,5.99,4.32,1.99-.03,3.9-.36,5.81-.79-.09,.34-.12,.73-.29,1.02-1.22,2.07-2.54,4.08-4.28,5.77-1.33,1.28-2.7,2.52-4.05,3.77Z"/>
  <path class="cls-1" d="M612.17,78.85c.62-.35,1.16-.79,1.77-.99,3.43-1.13,6.88-2.2,10.32-3.29,.29-.09,.59-.22,.89-.26,.66-.07,1.15,.1,1.21,.9,.04,.52,.25,1.02,.26,1.54,.03,17.16,.03,34.32,.04,51.48,0,.11-.01,.21-.02,.3-.36,.84-1.02,.98-1.84,.97-3.05-.03-6.09-.01-9.11-.01-1.13-1.06-1.26-1.36-2.42-5.58-.59,.53-1.09,1.07-1.67,1.51-2.35,1.8-4.91,3.18-7.79,3.93-2.5,.65-5.05,.54-7.6,.52-2.06-.02-4.03-.44-5.78-1.49-1.42-.85-2.71-1.86-3.72-3.29-1.3-1.83-1.92-3.84-2.44-5.97-.25-1.01-.27-1.97-.27-2.96-.02-11.92-.01-23.84-.02-35.76,0-.48,0-.95,0-1.54,.63-.33,1.23-.76,1.9-.99,3.42-1.15,6.86-2.25,10.29-3.37,.15-.05,.29-.13,.44-.16,1.24-.23,1.57-.04,1.89,1.21,.13,.5,.18,1.04,.18,1.56,0,11.17,0,22.35,0,33.52,0,1.07-.03,2.14,.06,3.21,.13,1.54,.56,2.96,1.7,4.12,.6,.61,1.31,.86,2.09,.95,2.13,.25,4.19-.06,6.1-1.09,.77-.41,1.52-.86,2.27-1.3,.4-.23,.79-.47,1.26-.75v-36.9Z"/>
  <path class="cls-1" d="M514.91,356.66c-.31,.28-.66,.6-1.02,.93h-8.13c-1.61-1.1-1.59-3.21-2.61-4.81-.81,.64-1.6,1.25-2.37,1.86-2.01,1.59-4.31,2.47-6.79,3.04-2.48,.57-4.97,.15-7.45,.3-3.05-.85-6.04-1.76-8.34-4.17-1.24-1.3-2.53-2.54-3.25-4.22-.73-1.7-1.4-3.43-1.41-5.33,0-.51-.2-1.02-.28-1.53-.04-.26-.11-.54-.04-.79,.54-2.11,.29-4.34,1.22-6.4,.67-1.48,1.36-2.9,2.4-4.15,2.74-3.32,6.45-4.86,10.5-5.81,2.99-.7,6.02-1.03,9.1-1.05,1.49-.01,2.97-.16,4.46-.25,.83-3.24-.06-8.75-1.89-11.26-1.91,.2-3.88-.02-5.91,.28-3.55,.52-6.89,1.57-10.17,2.92-.38,.16-.8,.25-1.21,.32-.31,.05-.63,0-1.11,0-.3-.64-.75-1.3-.92-2.03-.58-2.36-1.67-4.57-2-6.77,.64-1.43,1.88-1.65,2.91-2.01,2.05-.73,4.16-1.24,6.3-1.7,4.08-.87,8.18-1.12,12.31-.9,3.48,.19,6.83,1.03,9.77,2.97,2.53,1.67,4.12,4.12,4.98,7.02,.36,1.2,.52,2.44,.71,3.68,.45,3.03,.23,6.06,.24,9.08,.05,10.16,.02,20.32,.02,30.77Zm-13.83-23.67c-1.93-.1-3.73-.02-5.51,.28-1.61,.28-3.22,.6-4.83,.86-.69,.11-1.13,.47-1.51,1.03-1.72,2.55-2.31,5.32-1.58,8.32,.51,2.07,1.74,3.69,3.74,4.44,2.19,.81,4.39,.54,6.42-.69,1.29-.78,2.35-1.83,3.26-2.95v-11.29Z"/>
  <path class="cls-1" d="M338,242.73c-.22,3.01-.32,6.04-.67,9.04-.61,5.24-1.52,10.43-4.17,15.11-1.48,2.62-3.33,4.93-5.7,6.89-3.1,2.57-6.52,4.56-10.14,6.24-.52,.24-1.09,.37-1.57,.65-.91,.53-1.72,.32-2.48-.24-.76-.55-1.47-1.15-2.21-1.72-1.81-1.41-3.61-2.81-5.41-4.21v-1.65c.07-.05,.32-.25,.61-.4,2.34-1.22,4.54-2.71,6.51-4.41,1.37-1.18,2.91-2.19,4.02-3.75,1.09-1.52,2.28-2.95,3.3-4.55,1.16-1.82,1.83-3.8,2.49-5.79,.49-1.5,1.07-3.03,.99-4.68,1.02-2.56,.56-5.24,.65-7.88,0-1.96-.01-3.92-.02-5.88,0-.37,.1-.79-.03-1.1-.59-1.44-.15-2.99-.59-4.45-.27-.93-.2-1.95-.37-2.92-.04-.24-.41-.43-.62-.64,.39-.45,.43-.95,.2-1.48-.49-1.11-.87-2.29-1.5-3.31-1.7-2.78-4-4.78-7.6-5.17-.74,.74-1.58,1.53-2.37,2.37-1.72,1.82-2.85,4.01-3.75,6.33-.32-.14-.72-.21-.95-.44-.76-.79-1.48-1.62-2.17-2.47-1.81-2.2-3.43-4.5-4.01-7.37,.67-.93,1.23-1.96,2.02-2.78,2.01-2.1,3.97-4.25,6.43-5.87,1.91-1.26,3.94-2.21,6.14-2.78,.71-.18,1.47-.17,2.21-.22,3.2-.2,6.37,.06,9.27,1.44,2.66,1.26,4.79,3.22,6.36,5.76,1.87,3.02,2.89,6.31,3.54,9.78,.41,2.16,.89,4.3,.99,6.51,0,.12,.18,.24,.28,.36-.05,1.68,.21,3.34,.27,5.01,.14,3.55,.04,7.1,.03,10.65Z"/>
  <path class="cls-1" d="M245.54,201.06c.63-.89,1.17-1.87,1.9-2.66,2.87-3.09,5.83-6.08,9.76-7.85,2.99-1.34,6.09-1.72,9.36-1.15,1.87,.33,3.66,.74,5.38,1.58,2.52,1.22,4.36,3.17,5.9,5.39,1.65,2.38,2.53,5.14,3.23,7.89,.53,2.11,.85,4.3,1.12,6.49,.54,4.4,.69,8.79,.63,13.2-.03,2.5-.12,5.01-.4,7.49-.61,5.29-1.83,10.46-3.95,15.36-1.76,4.06-3.87,7.96-7.31,10.92-2.45,2.11-5.18,3.65-8.41,4.32-2.33,.48-4.66,.33-6.99,.32-3.17-.01-6.1-1-8.94-2.29-1.27-.58-2.49-1.24-3.72-1.9-.29-.16-.52-.45-.77-.68,.16-.47,.53-.54,.98-.63,2.58-.55,5.05-1.43,7.43-2.56,2.39-1.14,4.79-2.29,6.94-3.84,1.47-1.06,3.12-1.93,4.22-3.45,2.33-1.84,3.68-4.33,4.88-6.99,.94-2.1,1.37-4.32,1.84-6.51,.48-2.2,.96-4.44,.67-6.74-.1-2.7-.2-5.4-.31-8.09,0-.05,0-.11,0-.16-.53-2.07-.5-4.23-.99-6.31-.27-4.39-4.97-10.05-9.73-9.49-.6,.66-1.43,1.55-2.22,2.48-1.56,1.82-2.86,3.79-3.51,6.14-.19-.06-.43-.08-.57-.2-2.03-1.77-3.71-3.86-5.08-6.16-.7-1.17-1.43-2.42-1.33-3.91Z"/>
  <path class="cls-1" d="M543.87,229.84c-.01,.21-.06,.43-.04,.64,.19,2.18-.4,4.24-.98,6.3-.14,.49-.21,1.01-.32,1.51-.54-.16-.76,.2-.96,.59-.99,1.9-2.54,3.14-4.53,3.88-.39,.14-.8,.3-1.2,.31-3.87,.03-7.74,.02-11.62,.03,.12-.17,.21-.4,.37-.49,1.72-.93,2.72-2.49,3.41-4.19,1.02-2.52,1.29-5.23,1.32-7.94,0-14.33-.01-28.66-.02-42.99,0-4.49,0-8.98,0-13.48,0-.69,.06-1.37,.1-2.18,1.03-.41,2.01-.85,3.03-1.19,2.74-.9,5.5-1.76,8.25-2.62,.44-.14,.89-.25,1.35-.35,1.03-.23,1.6,.1,1.76,1.06,.07,.42,.02,.85,.02,1.28,0,7.11,0,14.22,0,21.34v1.68c2.55-2.41,5.44-3.75,8.76-4.15,1.05-.13,2.1-.33,3.14-.31,5.43,.11,9.74,2.39,12.76,6.93,1.78,2.67,2.88,5.66,3.57,8.79,.3,1.37,.8,2.73,.63,4.18-.11-.01-.25,.02-.31-.04-.95-.88-1.88-1.77-2.83-2.65-2.59-2.41-5.62-4.07-8.98-5.13-1.82-.57-3.63-1.22-5.58-1.2-.24,0-.48-.19-.73-.23-.39-.07-.82-.28-1.14,.17-.71-.17-1.45-.55-2.13-.46-2.81,.36-5.28,1.46-7.18,3.6,0,5.32,0,10.55,0,15.78,0,3.85,.02,7.69,.04,11.54Z"/>
  <path class="cls-1" d="M683.7,189.53c.31,1.24-.21,2.06-.53,2.95-1.04,2.94-2.03,5.9-3.06,8.84-1.71,4.84-3.46,9.67-5.16,14.52-1.68,4.8-3.31,9.63-4.99,14.43-1.26,3.63-2.55,7.25-3.85,10.87-.23,.64-.49,1.3-1.26,1.61h-12.18c-.92-.27-.95-1.08-1.16-1.67-1.18-3.24-2.3-6.5-3.42-9.76-1.05-3.06-1.98-6.17-3.16-9.18-1.33-3.39-2.45-6.84-3.69-10.26-1.51-4.16-2.77-8.4-4.35-12.53-1.02-2.68-1.81-5.45-2.93-8.09-.42-.99-.09-1.47,.62-2.07,3.83,0,7.73-.01,11.63,0,1.44,0,2.18,.59,2.63,2.02,.86,2.72,1.7,5.45,2.51,8.19,.69,2.34,1.32,4.7,1.98,7.05,1.37,4.91,2.78,9.8,4.09,14.72,.47,1.76,.69,3.58,1.06,5.37,.08,.38,.28,.74,.43,1.14,.88-3.58,1.71-7.08,2.61-10.57,1.31-5.07,3.17-9.97,4.77-14.96,1.23-3.85,2.51-7.69,3.78-11.54,.39-1.2,.65-1.41,1.89-1.42,3.42-.02,6.85-.02,10.27,0,.5,0,1,.21,1.5,.32Z"/>
  <path class="cls-1" d="M153.66,128.68c-.49,.1-.99,.27-1.48,.27-1.82,0-3.68,.18-5.43-.18-1.44-.3-2.92,.01-4.34-.54-.8-.31-1.73-.07-2.64-.29-1.36-.34-2.83-.18-4.22-.44-1.49-.28-3.01-.14-4.48-.57-2.56-.74-5.5-.37-7.44,.82v42.65c-.4,.79-.91,1.14-1.71,1.14-3.32-.03-6.63-.03-9.95-.05-.21,0-.41-.04-.65-.07-.1-.27-.24-.5-.27-.75-.05-.48-.04-.96-.04-1.44,0-15.88,.02-31.76-.04-47.64,0-2.09,.68-3.64,2.19-5.02,1.24-1.13,2.41-2.29,3.97-2.99,1.63-.73,3.32-1.24,5.08-1.38,1.7-.14,3.41-.02,5.11-.07,.45-.01,.9-.2,1.34-.31,.05,.09,.09,.25,.15,.25,1.24,.1,2.43,.58,3.71,.41,.31-.04,.64-.05,.95,0,1.94,.33,3.87,.71,5.86,.6,.21,.01,.43,.02,.64,.04,2.83,.33,5.66,.65,8.48,.99,1.41,.17,2.81,.45,4.23,.52,1.84,.1,3.71,.37,5.51-.29-.08,1.46,0,2.9-.23,4.37-.37,2.39-1.06,4.6-2.24,6.68-.63,1.12-1.37,2.18-2.06,3.27Z"/>
  <path class="cls-1" d="M687.15,225.77c-.64-2.19-.76-4.43-.78-6.69,0-.62-.2-1.23-.27-1.85-.04-.37-.17-.82-.01-1.1,.42-.76,.3-1.56,.3-2.33-.02-3.52,.77-6.93,2-10.15,1.21-3.2,2.86-6.22,5.48-8.64,1.66-1.53,3.25-3.08,5.33-4.04,2.52-1.16,5.14-1.83,7.92-2.18,1.82-.23,3.58-.1,5.36,.02,4.9,.34,9.23,2.02,12.54,5.79,2.21,2.52,3.61,5.51,4.38,8.76,.47,1.98,.77,3.99,1.05,6.02,.45,3.19,.25,6.35,.27,9.4-.79,.9-1.7,.88-2.61,.88-8.51,0-17.02,0-25.52,0-.53,0-1.05,0-1.54,0-.09,.16-.2,.25-.19,.33,.33,2.22,.41,4.48,1.26,6.6,.94,2.35,2.2,4.4,4.71,5.36,.46,.18,.92,.37,1.39,.55-1.67-.11-3.39-.02-5.01-.37-2.05-.45-4.11-.86-6.14-1.46-3.17-.95-6.12-2.19-8.67-4.31-.34-.28-.82-.4-1.24-.59Zm28.54-15.97c-.03-1.12-.03-2.11-.1-3.11-.14-1.92-.56-3.77-1.54-5.44-.86-1.47-2.03-2.47-3.81-2.83-1.48-.3-2.83,.1-4.23,.24-.87,.09-1.37,.61-1.78,1.38-1.08,2.02-1.94,4.1-2.45,6.34-.26,1.17-.64,2.32-.59,3.53,2.78,.23,13.26,.16,14.5-.1Z"/>
  <path class="cls-1" d="M559.87,124.33c-.53-2.13-1.07-4.25-1.6-6.38-.13-.53,.24-1.14-.26-1.61,.09-.62,.26-1.23,.26-1.85,.02-7.63,.01-15.27,.01-22.9v-4.05c-.35-.25-.67-.52-1.03-.73-1.67-.99-3.5-1.45-5.41-1.58-1.38-.09-2.77-.04-4.16-.04,2.56-3.11,5.63-5.51,9.5-6.81,.28-.09,.51-.32,.76-.48,.66-.35,.33-.96,.33-1.43,.03-5.35,.02-10.7,.02-16.04v-2.18c.76-.33,1.44-.71,2.16-.93,3.31-1.02,6.63-2,9.95-3,.1-.03,.18-.13,.28-.15,1.42-.36,1.94-.06,2.26,1.36,.09,.41,.07,.84,.07,1.27,0,23.42,0,46.85,0,70.27,0,.16,0,.32,0,.48-.04,1.41-.49,1.91-1.9,1.93-2.35,.03-4.71,0-7.06,0-.43,0-.86-.03-1.28,0-.8,.04-1.28-.3-1.58-1.05-.53-1.33-1.09-2.66-1.29-4.09Z"/>
  <path class="cls-1" d="M529.33,230.46c-.04,2.72-.3,5.42-1.32,7.94-.69,1.7-1.69,3.26-3.41,4.19-.16,.09-.25,.32-.37,.49-3.9-.01-7.8,.01-11.7-.05-1.71-.03-3.18-.9-4.47-1.89-1.43-1.1-2.7-2.41-3.72-3.93-.59-1.25-1.24-2.47-1.75-3.74-.47-1.17-.8-2.4-1.19-3.61-.08-3.75,.06-7.5-.08-11.39-2.12-.08-4.05,.2-5.97,.42-1.61,.19-3.21,.5-4.82,.76,1.59-1.64,3.18-3.28,4.77-4.91,1.39-1.43,2.92-2.7,4.62-3.76,.34-.21,.59-.59,.88-.89,.15-.05,.3-.1,.5-.17,.33-3.86-.09-7.62-1.73-11.36-2.22-.19-4.56-.24-6.85,.26-2.29,.49-4.53,1.2-6.77,1.88-1.63,.5-3.22,1.11-4.98,1.72-.25-.5-.53-.93-.69-1.4-.69-1.98-1.34-3.96-2-5.95-.17-.53-.33-1.06-.48-1.57,.34-1.14,1.32-1.41,2.29-1.84,2.94-1.32,6.07-1.86,9.18-2.42,3.47-.62,7-.58,10.51-.41,2.75,.13,5.41,.75,7.84,2,2.82,1.46,4.88,3.64,6.05,6.72,.92,2.42,1.29,4.86,1.3,7.4,0,6.36-.02,12.73,.04,19.09,.01,1.3,.22,2.63,.58,3.87,.62,2.13,2.33,3.19,4.48,3.28,2.24,.09,4.5,.09,6.74-.01,.85-.04,1.67-.47,2.51-.72Z"/>
  <path class="cls-1" d="M555.95,357.45c-.65-.29-.53-1.01-.53-1.71,0-16.68,0-33.37,0-50.05,0-5.88,0-11.77,0-17.65,0-1.21,.58-2.11,1.71-2.52,2.53-.89,5.07-1.75,7.61-2.63,.73-.25,1.43-.57,2.17-.78,1.04-.29,2.1-.53,2.92,.78,0,.39,0,.91,0,1.44,0,16.1,0,32.19,.02,48.29,0,7.38,.02,14.76,.04,22.14,0,.37,.01,.75,0,1.12-.05,1.29-.23,1.5-1.51,1.51-3.58,.03-7.17,.04-10.75,.05-.47,0-.93,0-1.68,0Z"/>
  <path class="cls-1" d="M528.35,357.44c-.46-.44-.32-1.06-.32-1.62-.01-2.78,0-5.56,0-8.34,0-19.4,0-38.81,0-58.21,0-.59,.04-1.18,.03-1.76-.02-.98,.45-1.57,1.37-1.88,1.6-.56,3.19-1.17,4.79-1.74,1.7-.61,3.39-1.23,5.11-1.77,.59-.18,1.27-.24,1.87-.13,.58,.1,1.03,.55,1.04,1.25,0,.43,0,.86,0,1.28,0,6.84,0,13.68,0,20.53,0,16.57,.02,33.14,.03,49.71,0,.21-.01,.43,0,.64,.11,1.77-.22,2.05-1.95,2.04-3.37-.03-6.74,.01-10.11,.02-.57,0-1.13,0-1.88,0Z"/>
  <path class="cls-1" d="M379.4,357.01c-.14-.44-.29-.77-.34-1.12-.06-.42-.02-.85-.02-1.28,0-21.22,0-42.45,0-63.67,0-.78,.1-1.56,.15-2.29,4.07-1.63,7.98-3.21,11.89-4.75,.28-.11,.63-.01,.92-.01,.72,.39,1,.96,.9,1.74-.03,.26,0,.53,0,.8,0,22.61-.02,45.23,.02,67.84,0,2.24-.55,2.82-2.74,2.77-3.52-.08-7.05-.02-10.79-.02Z"/>
  <path class="cls-1" d="M379.49,61.4c1.11-.48,2.14-.95,3.19-1.37,2.62-1.06,5.24-2.13,7.89-3.13,.66-.25,1.42-.24,2.04-.34,.65,.75,.61,1.49,.61,2.23,0,13.26,.02,26.53,.02,39.79,0,9.57,0,19.15,.01,28.72,0,.74,.09,1.5-.61,2.16h-13.18c-.03-.67-.09-1.29-.09-1.91,0-21.29,0-42.57,0-63.86,0-.74,.08-1.48,.12-2.3Z"/>
  <path class="cls-1" d="M871.96,81.8c2.25-1.92,4.53-3.79,7.27-5.02,1.77-.79,3.56-1.42,5.52-1.54,1.1-.07,2.21-.35,3.3-.26,3.18,.27,6.29,.77,9.03,2.69,2.57,1.8,3.91,4.31,4.73,7.19,.56,1.98,.68,4.03,.67,6.1-.03,11.97,0,23.94-.01,35.91,0,.61-.11,1.22-.19,2-5.01,.07-9.85,.02-14.68,.03-.43-.67-.28-1.32-.28-1.94,0-10.9,0-21.8-.03-32.7,0-1.07-.33-2.15-.51-3.22-.18-1.1-.7-2.03-1.29-2.96-.45-.72-1.14-1.01-1.84-1.27-2.12-.81-4.1-.18-6.05,.66-1.7,.73-3.11,1.91-4.66,2.88-.36-.85-.35-1.74-.34-2.64,0-.58,.03-1.18-.09-1.74-.28-1.38-.61-2.75-.55-4.18Z"/>
  <path class="cls-1" d="M382.96,225.76c.43-1.41,.93-2.81,.94-4.31,0-.68,0-1.36,0-2.04,.11-3.65,.02-7.29-.33-10.93-.06-.67-.14-1.4-.62-1.97,.3-.4,.35-.78,.18-1.31-1.19-3.56-4.92-6.14-8.97-6.08-.2,.18-.45,.38-.67,.6-1.75,1.66-2.83,3.76-3.93,5.86-.05,0-.12,0-.16-.03-2.74-2.32-4.66-5.22-6.04-8.5-.13-.3-.42-.54-.63-.81,.33-.52,.62-1.07,.98-1.57,2.4-3.38,5.38-6.15,9.11-7.96,3.05-1.48,6.29-1.8,9.66-1.14,1.45,.28,2.81,.69,4.15,1.29,2.98,1.33,5.04,3.6,6.54,6.38,1.57,2.91,2.48,6.03,2.99,9.32,.36,2.3,.63,4.59,.69,6.91,.03,1.27,.21,2.54,.19,3.81-.05,2.82-.05,5.65-.34,8.45-.32,3.1-.73,6.2-1.84,9.17-.65,1.75-1.6,3.29-2.71,4.74-2.7,3.53-6.47,5.38-10.66,6.46-2.25,.58-4.55,.86-6.89,.61,.54-.58,1.1-1.14,1.63-1.73,1.61-1.79,3.13-3.66,4.12-5.87,.84-1.87,1.56-3.81,1.95-5.84,.22-1.17,.76-2.27,.64-3.5Z"/>
  <path class="cls-1" d="M261.9,247.01c-1.11,1.52-2.75,2.39-4.22,3.45-2.15,1.55-4.55,2.7-6.94,3.84-2.37,1.14-4.85,2.01-7.43,2.56-.45,.1-.81,.17-.98,.63-.5-.23-1.04-.41-1.5-.71-3.52-2.32-7.05-4.62-10.51-7.03-2.88-2-5.63-4.21-8.53-6.19-2.11-1.45-4.04-3.09-6.02-4.7-1.03-.84-1.91-1.75-2.74-2.76-.81-.98-1.22-2.02-1.22-3.29,.02-5.29,.01-10.59,.02-15.88,0-2.62,.04-5.24,.06-7.85,.28,.59,.65,1.16,.84,1.77,1.19,3.89,4.03,6.56,6.99,9.01,2.42,2.01,5.19,3.6,7.82,5.36,.19,.13,.48,.1,.73,.14h-.01c-.05,.5,.32,.36,.58,.39h0c.11,.11,.22,.21,.33,.32,1.77,1.21,3.55,2.42,5.31,3.63,2.55,1.76,5.06,3.56,7.64,5.27,4.23,2.8,8.49,5.56,12.77,8.28,1.85,1.18,3.77,2.25,5.67,3.34,.39,.22,.89,.27,1.33,.41Z"/>
  <path class="cls-1" d="M109.72,384.3c.17-2.75,.78-5.41,1.75-7.98,1.28-3.41,3.02-6.58,5.27-9.45,.61-.77,1.33-1.45,2-2.17,1.23,1.32,2.47,2.61,3.67,3.95,1.13,1.26,2.18,2.59,3.3,3.85,1.38,1.55,2.8,3.06,4.2,4.59,2.34,2.54,4.68,5.08,7.03,7.61,.21,.23,.46,.42,.77,.69,.84-.41,1.71-.74,2.47-1.23,2.03-1.32,4.03-2.69,6.02-4.07,1.19-.83,2.36-1.69,3.52-2.55,.66-.49,1.35-.78,2.3-.51,1.43,3.98,2.88,8.02,4.38,12.18-1.04,.87-1.94,1.79-2.98,2.49-2.88,1.91-5.63,4-8.81,5.47-2.22,1.02-4.51,1.74-6.9,2.16-3.84,.67-7.61,.35-11.3-.9-2.96-1.01-5.63-2.53-7.91-4.64-3.18-2.93-6.13-6.07-8.79-9.49Z"/>
  <path class="cls-1" d="M602.58,199.48c.22-.57,.34-1.21,.67-1.71,1.69-2.58,3.46-5.11,5.8-7.17,.69-.61,1.46-1.13,2.19-1.69,2.32,.13,4.52,.76,6.64,1.66,2.96,1.25,5.45,3.18,7.57,5.59,1.57,1.79,2.74,3.84,3.69,6,.99,2.24,1.58,4.63,1.97,7.02,.35,2.18,.36,4.43,.45,6.65,.05,1.22,.01,2.44-.06,3.66-.23,4.11-1.21,8.05-2.96,11.76-2.16,4.57-5.6,7.99-10.13,10.2-1.52,.74-3.21,1.26-4.88,1.58-3.08,.6-6.21,.61-9.33,.24,1.35-1.26,2.73-2.49,4.05-3.77,1.75-1.68,3.06-3.7,4.28-5.77,.17-.3,.2-.68,.29-1.02,.56-.35,.79-.89,1.03-1.48,1.56-3.95,1.92-8.11,2.14-12.27,.19-3.61,.18-7.24-.28-10.83-.26-1.99-.53-3.98-1.42-5.82-1.53-3.17-3.58-3.75-7.03-3.61-1.6,.07-3.12,.52-4.68,.78Z"/>
  <path class="cls-1" d="M827,75.32c.94,.09,1.9,.07,2.8,.3,4.31,1.08,8.15,3.04,11.12,6.4,2.17,2.45,3.66,5.31,4.71,8.42,1.54,4.56,1.8,9.26,1.7,14.02-.07,3.28-.61,6.46-1.57,9.57-1.29,4.2-3.48,7.88-6.86,10.75-2.58,2.19-5.53,3.63-8.86,4.44-3.36,.81-6.72,.62-10.1,.51,.06-.09,.09-.2,.17-.25,2.73-1.68,4.75-4.06,6.6-6.62,.75-1.04,1.37-2.19,2.02-3.3,.04-.06-.14-.25-.22-.38,.74-.22,1.06-.85,1.3-1.48,.29-.73,.48-1.51,.7-2.26,1.21-4.16,1.34-8.46,1.52-12.73,.1-2.22-.1-4.46-.26-6.68-.16-2.21-.46-4.39-1.19-6.52-1.34-3.85-4.05-4.79-7.59-4.47-1.46,.14-2.89,.53-4.34,.81,.1-.4,.13-.83,.32-1.18,1.12-2,2.41-3.9,4.02-5.53,1.29-1.31,2.66-2.53,4-3.8Z"/>
  <path class="cls-1" d="M827,75.32c-1.33,1.26-2.7,2.49-4,3.8-1.62,1.64-2.9,3.53-4.02,5.53-.19,.34-.22,.78-.32,1.18-.32,.53-.73,1.02-.96,1.59-1.63,4.04-1.9,8.33-2.15,12.59-.23,3.93-.02,7.85,.52,11.76,.25,1.8,.72,3.5,1.58,5.1,1.06,1.97,2.72,2.87,4.9,2.97,2.03,.1,4.02-.16,5.98-.68,.08,.13,.26,.32,.22,.38-.65,1.11-1.27,2.26-2.02,3.3-1.84,2.55-3.86,4.94-6.6,6.62-.08,.05-.12,.17-.17,.25-1.64-.11-3.25-.46-4.78-1.03-2.12-.78-4.2-1.67-5.87-3.27-.13-.13-.39-.11-.6-.17-.33-.46-.59-.99-.99-1.38-1.74-1.69-3.06-3.66-4.14-5.82-.25-.49-.6-.93-.9-1.39-.5-1.5-1.16-2.97-1.47-4.51-.34-1.66-.87-3.3-.83-5.05,.08-3.36-.06-6.72,.03-10.08,.04-1.32,.33-2.67,.69-3.95,.57-1.98,1.17-3.97,1.99-5.85,.81-1.85,2-3.5,3.35-5.05,1.28-1.45,2.71-2.65,4.3-3.74,2.05-1.42,4.34-2.22,6.7-2.76,1.94-.44,3.96-.51,5.95-.7,1.22-.12,2.43,.05,3.61,.35Z"/>
  <path class="cls-1" d="M871.96,81.8c-.06,1.43,.27,2.8,.55,4.18,.12,.56,.09,1.16,.09,1.74,0,.9-.02,1.79,.34,2.64,0,12.03-.01,24.06-.02,36.09,0,.79,.12,1.6-.57,2.44-4.71,.04-9.54,.08-14.45-.03v-49.12c.95-.42,1.85-.96,2.82-1.23,3.07-.86,5.92-2.4,8.91-3,1.03,.49,1.16,1.34,1.34,2.08,.31,1.27,.47,2.57,.72,3.85,.03,.13,.19,.24,.28,.36Z"/>
  <path class="cls-1" d="M139.33,113.09c-1.99,.11-3.92-.27-5.86-.6-.31-.05-.64-.05-.95,0-1.27,.17-2.47-.31-3.71-.41-.06,0-.1-.16-.15-.25,.74-1.41,1.39-2.88,2.23-4.23,2.08-3.37,4.52-6.46,7.46-9.11,3.18-2.87,6.78-5.08,10.99-6.05,2.46-.57,4.96-.66,7.53-.25,2.35,.38,4.57,.98,6.63,2.09,2.38,1.27,4.25,3.15,5.52,5.52,1.21,2.25,2.13,4.6,2.41,7.21,.11,1.04,.18,2.09,.29,3.14,.06,.57,.2,1.13,.3,1.7-.11,.21-.28,.4-.32,.62-.08,.41-.04,.84-.14,1.24-.76,3.05-2.1,5.83-3.86,8.42-.34,.5-.56,1.09-.84,1.63-.53-.18-.76,.26-1.04,.54-1.89,1.87-4.1,3.17-6.66,3.93-1.68,.5-3.38,.7-5.12,.69-.13,0-.25-.15-.38-.23,.69-1.09,1.42-2.15,2.06-3.27,1.18-2.08,1.86-4.3,2.24-6.68,.23-1.48,.16-2.92,.23-4.37,.13-1.1-.26-2.1-.65-3.07-1.45-3.61-3.94-6.1-7.82-7.03-1.38-.33-2.59-.15-3.64,.94-1.5,1.58-3.13,3.04-4.58,4.66-.86,.96-1.83,1.91-2.18,3.24Z"/>
  <path class="cls-1" d="M382.96,225.76c.12,1.23-.42,2.33-.64,3.5-.39,2.04-1.11,3.97-1.95,5.84-.99,2.21-2.51,4.08-4.12,5.87-.53,.59-1.09,1.16-1.63,1.73-.37,.02-.74,.07-1.11,.07-11.57,0-23.14,0-34.71,0-.27,0-.53-.03-.8-.04,0-3.55,.11-7.11-.03-10.65-.07-1.66-.33-3.33-.27-5.01,.59-.02,1.17-.05,1.76-.05,12.14,0,24.29,0,36.43,0,1.8,0,3.61,.02,5.35-.58,.58-.2,1.15-.45,1.72-.68Z"/>
  <path class="cls-1" d="M500.8,210.09c-.29,.3-.54,.67-.88,.89-1.71,1.05-3.23,2.33-4.62,3.76-1.59,1.63-3.18,3.27-4.77,4.91-3.08,2.54-3.71,7.94-2,11.04,.66,1.2,1.57,2.22,2.84,2.66,2.33,.81,4.7,.87,6.8-.68,1.14-.84,2.15-1.87,3.23-2.81,.39,1.2,.72,2.43,1.19,3.61,.51,1.28,1.16,2.5,1.75,3.74-1.22,1.1-2.42,2.23-3.68,3.28-1.64,1.37-3.59,2.1-5.63,2.6-2.42,.6-4.87,.41-7.31,.32-3.8-.14-6.94-1.68-9.7-4.31-2.11-2.01-3.21-4.49-4.09-7.12-.34-1.01-.31-2.16-.37-3.25-.06-1.33-.21-2.7,0-4,.36-2.29,1.09-4.47,2.41-6.46,1.79-2.71,4.17-4.48,7.15-5.68,2.39-.96,4.82-1.58,7.37-1.94,3.43-.47,6.85-.78,10.31-.56Z"/>
  <path class="cls-1" d="M202.51,121.79c-.21,.09-.51,.11-.63,.27-.87,1.11-1.59,2.35-2.56,3.36-2.54,2.64-5.71,3.96-9.36,4.08-1.59,.05-3.18,0-4.78,0,.97-1,1.98-1.96,2.89-3.01,1.19-1.36,1.67-3.07,2.11-4.77,.68-2.67,1.13-5.38,1.09-8.15,0-.26-.2-.52-.31-.78,.12-.39,.33-.78,.33-1.18,.02-6.89,.01-13.79,.01-20.72,.57-.91,1.49-1.3,2.5-1.67,2.65-.98,5.28-2.03,7.9-3.1,.93-.38,1.84-.74,2.86-.56,.68,.39,.84,.99,.83,1.75-.03,3.69-.01,7.38,0,11.06,0,1.23,.04,2.45,.05,3.68-.04,2.06-.55,4.09-.36,6.16,0,.11,.02,.22,0,.32-.55,2.02-.47,4.12-.91,6.16-.28,1.31-.55,2.63-.84,3.94-.23,1.06-1,1.98-.82,3.14Z"/>
  <path class="cls-1" d="M300.45,214.86c.58,2.87,2.21,5.17,4.01,7.37,.7,.85,1.41,1.68,2.17,2.47,.23,.23,.63,.3,.95,.44,.17,.3,.26,.71,.52,.89,1.02,.71,2.22,.97,3.45,.98,2.66,.04,5.32,.01,7.99,.04,1.08,.01,2.1-.2,3.07-.65,.22,.21,.58,.4,.62,.64,.17,.97,.1,1.99,.37,2.92,.43,1.47,0,3.02,.59,4.45,.13,.32,.02,.73,.03,1.1,0,1.96,.01,3.92,.02,5.88-1.17,.06-2.34,.13-3.51,.17-2.23,.08-4.46,.23-6.68,.21-3.24-.04-6.49-.07-9.72-.36-1.81-.17-3.59-.81-5.36-1.33-1.86-.54-3.46-1.66-4.84-2.94-1.59-1.46-2.27-3.2-1.74-5.59,1.27-5.79,4.02-10.81,7.23-15.66,.25-.37,.58-.7,.87-1.04Z"/>
  <path class="cls-1" d="M267.98,212.21c.49,2.08,.46,4.24,.99,6.31,.01,.05,0,.11,0,.16,.1,2.7,.2,5.4,.31,8.09-2.08,.02-4.17,.07-6.25,.06-4.59-.02-9.19-.03-13.78-.14-1.06-.03-2.12-.42-3.17-.65-2.71-.6-5.11-1.82-7.22-3.61-1.23-1.04-1.82-2.36-1.74-4.04,.09-2.07,.81-3.93,1.55-5.8,1.37-3.43,3.26-6.57,5.32-9.62,.46-.68,1.03-1.28,1.55-1.91-.11,1.49,.63,2.74,1.33,3.91,1.37,2.3,3.05,4.39,5.08,6.16,.14,.12,.38,.14,.57,.2,.47,1.38,1.76,1.38,2.85,1.56,2.88,.49,5.8,.36,8.7,.28,1.36-.04,2.71-.23,3.92-.97Z"/>
  <path class="cls-1" d="M218.24,351.26c.08-.35,.08-.74,.25-1.04,1.18-2.12,2.4-4.23,3.61-6.34,1.18-2.05,2.36-4.09,3.54-6.13,3.54,1.6,7.06,3.23,10.61,4.8,1.68,.74,3.4,1.36,5.11,2.04,.89,.57,1.84,.9,2.92,.88,.35,0,.7,.15,1.05,.22,.2,.04,.42,.11,.62,.08,1.37-.25,2.78-.4,4.09-.83,2.68-.89,4.93-2.43,6.41-4.93,.07-.12,.2-.2,.3-.3-.03,3.76-.97,7.23-3.13,10.35-.38,.54-.69,1.14-1.03,1.7-1.59,1.47-3.03,3.12-4.93,4.24-3.08,1.82-6.28,3.1-9.97,2.99-2.73-.08-5.43-.22-7.96-1.35-1.5-.67-3-1.34-4.44-2.12-1.8-.97-3.55-2.04-5.31-3.08-.61-.36-1.17-.79-1.75-1.19Z"/>
  <path class="cls-1" d="M491.49,85.22c0-.75,.56-1.2,.89-1.79,1.45-2.55,3.43-4.64,5.65-6.51,.74-.62,1.62-1.08,2.43-1.61,1.58,.04,3.09,.43,4.58,.92,2.59,.84,4.93,2.14,6.76,4.16,2.17,2.4,3.62,5.23,4.4,8.38,.46,1.87,.84,3.75,1.03,5.7,.31,3.06,.56,6.12,.59,9.19,.02,1.58-.86,2.42-2.43,2.41-5.24-.03-10.48-.01-15.72-.02-.16,0-.32-.04-.47-.07,1.66-1.79,2.54-3.92,2.93-6.33,.17-1.09,.3-2.15,.27-3.24,0-1.07,.06-2.14-.02-3.2-.13-1.84-.42-3.67-1.24-5.36-1.03-2.13-2.61-3.37-5.12-3.32-1.55,.03-3.05,.26-4.53,.69Z"/>
  <path class="cls-1" d="M687.15,225.77c.42,.19,.9,.31,1.24,.59,2.56,2.12,5.5,3.36,8.67,4.31,2.03,.61,4.09,1.01,6.14,1.46,1.62,.35,3.33,.26,5.01,.37,.94,.11,1.89,.14,2.83,.24,1.38,.15,2.83-.14,4.23-.36,3.04-.48,5.88-1.51,8.57-3.03,.59-.34,1.38-.32,2.23-.5,1.34,2.88,2.37,5.75,3.37,8.72-.55,.89-1.29,1.61-2.25,2.12-2.87,1.55-5.94,2.45-9.14,3.13-3.95,.83-7.91,.64-11.88,.6-2.42-.02-4.65-.81-6.89-1.6-3.05-1.08-5.5-3.03-7.51-5.44-1.95-2.35-3.4-5.05-4.06-8.09-.18-.84-.62-1.62-.56-2.51Z"/>
  <path class="cls-1" d="M228.27,225.38c-.24-.04-.54-.01-.73-.14-2.63-1.76-5.4-3.35-7.82-5.36-2.96-2.45-5.79-5.13-6.99-9.01-.19-.62-.55-1.18-.84-1.77-.01-4.81-.03-9.61-.04-14.42,0-1.01,0-2.02,0-3.01,.6-.91,1.48-1.24,2.46-1.53,2.37-.72,4.71-1.54,7.06-2.33,1.1-.37,2.2-.68,3.37-.51,.9,.42,.87,1.21,.87,2.04-.02,8.39-.02,16.77-.02,25.16,0,1.12,.04,2.24,.01,3.37-.06,2.63,.71,4.95,2.43,6.96,.13,.15,.16,.37,.23,.56Z"/>
  <path class="cls-1" d="M175.23,340.08c.1,.29,.29,.57,.3,.86,.16,3.05-.18,6.06-1.11,8.97-.89,2.79-2.31,5.26-4.9,6.86-.04,.02-.05,.09-.07,.14-2.18,.02-4.36,.05-6.55,.06-4.25,.02-8.01-1.46-11.5-3.74-2.69-1.76-5.28-3.67-7.56-5.96-.2-.21-.49-.33-.74-.5,.5-.43,.97-.92,1.52-1.28,3.21-2.09,6.44-4.14,9.67-6.2,.21-.13,.48-.17,.72-.25,2.4,1.71,5.14,2.16,8,2.18,2.34,.02,4.68-.06,7.01,.02,1.86,.07,3.59-.29,5.21-1.17Z"/>
  <path class="cls-1" d="M362.73,196.23c.21,.27,.5,.5,.63,.81,1.39,3.28,3.3,6.18,6.04,8.5,.04,.03,.1,.02,.16,.03,.16,.2,.27,.47,.48,.59,1.07,.63,2.24,.93,3.47,.95,2.13,.04,4.26,.01,6.38,.04,1.08,.02,2.09-.2,3.07-.65,.48,.57,.55,1.31,.62,1.97,.34,3.63,.43,7.28,.33,10.93-3.88,.87-7.81,.7-11.75,.64-3.37-.05-6.56-.85-9.62-2.11-2.24-.92-4.12-2.4-5.48-4.5-.84-1.29-1.02-2.77-.67-4.09,1.25-4.72,3.4-9.06,6.2-13.07,.02-.03,.1-.03,.15-.05Z"/>
  <path class="cls-1" d="M316.18,112.51c0,.91,.03,1.81,0,2.72-.14,3.78-.85,7.42-2.76,10.73-.48,.83-1.21,1.52-1.84,2.25-.37,.44-.78,.84-1.17,1.26-3.35,0-6.7,.09-10.05-.05-1.23-.05-2.48-.58-3.66-1.02-3.75-1.41-7.07-3.63-10.35-5.87-.51-.35-.88-.9-1.32-1.36,1.22-1.16,2.4-2.34,3.66-3.46,.94-.83,1.94-1.59,2.94-2.34,1.04-.78,2.1-1.53,3.17-2.27,.25-.17,.57-.22,.86-.33,1.01,.25,2.02,.51,3.03,.75,.4,.1,.82,.21,1.23,.21,3.68,.02,7.37-.01,11.05,.05,1.87,.03,3.6-.34,5.21-1.29Z"/>
  <path class="cls-1" d="M202.51,121.79c-.18-1.16,.58-2.08,.82-3.14,.29-1.31,.56-2.63,.84-3.94,.44-2.04,.36-4.15,.91-6.16,.03-.1,.02-.21,0-.32-.19-2.07,.32-4.1,.36-6.16,.2,.95,.35,1.91,.61,2.84,.59,2.1,1.31,4.17,2.87,5.78,1.93,2,4.28,3.09,7.1,3.09,.32,0,.63,.04,.95,.07,.12,.09,.23,.25,.35,.25,1.9,.02,3.8,.02,5.7,0,.12,0,.24-.16,.35-.25,.69-.03,1.38-.03,2.07-.08,1.15-.08,2.19-.47,3.07-1.22,0,1.17,.07,2.35-.01,3.51-.18,2.69-.68,5.32-1.63,7.86-.48,1.28-1.29,2.35-1.97,3.5-.26,.44-.74,.74-1.13,1.1-.34,.31-.69,.61-1.03,.92-2.82,.02-5.64,.15-8.45,0-1.41-.07-2.81-.68-4.04-1.4-1.46-.87-2.88-1.84-4.2-2.91-1.26-1.02-2.37-2.21-3.55-3.33Z"/>
  <path class="cls-1" d="M700.52,119.91c-.22,.09-.44,.26-.66,.27-3.12,.13-6.14-.49-9.1-1.33-1.33-.37-2.63-.93-3.87-1.56-1.67-.85-3.2-1.94-4.31-3.51-.3-3.51,.52-6.72,2.56-9.59,1.2-1.7,2.69-3.1,4.52-4.09,2.94-1.59,6.08-2.53,9.4-3.05,3.58-.56,7.16-.73,10.77-.58-.89,.71-1.8,1.39-2.65,2.15-1.5,1.34-2.97,2.71-4.42,4.1-1.06,1.02-2.17,2.01-2.88,3.34-.21,.16-.46,.29-.64,.48-2,2.1-2.5,4.64-2.33,7.44,.16,2.65,1.25,4.67,3.62,5.94Z"/>
  <path class="cls-1" d="M190.96,112.8c.11,.26,.3,.52,.31,.78,.05,2.77-.41,5.48-1.09,8.15-.43,1.7-.92,3.41-2.11,4.77-.91,1.05-1.93,2.01-2.89,3.01-2.6,0-5.2,.01-7.8-.04-.49,0-.98-.26-1.46-.43-2.92-1.01-5.57-2.53-7.99-4.44-.35-.28-.7-.57-1.06-.85,.28-.55,.5-1.13,.84-1.63,1.76-2.59,3.11-5.37,3.86-8.42,.1-.4,.05-.84,.14-1.24,.04-.22,.21-.41,.32-.62,.28,.11,.6,.17,.85,.34,1.74,1.18,3.67,1.64,5.76,1.61,2.65-.04,5.31-.02,7.96,0,1.38,0,2.7-.16,3.88-.94,.11-.08,.31-.03,.47-.04Z"/>
  <path class="cls-1" d="M135.08,312.49c-.57,1.65-.48,3.33,.04,4.93,.89,2.74,2.14,5.3,4.44,7.19,1.86,2.12,3.72,4.25,5.58,6.37-.46,.23-.93,.44-1.37,.7-3.05,1.79-6.09,3.6-9.15,5.37-.39,.22-.88,.27-1.32,.39-.52-.53-1.05-1.05-1.57-1.59-2.01-2.11-4.04-4.21-6-6.36-1.74-1.9-3.4-3.86-5.1-5.81,.12-1.17,1.01-1.8,1.78-2.5,.34-.31,.75-.55,1.09-.86,2.32-2.16,4.82-4.07,7.58-5.64,1.33-.75,2.68-1.46,4.02-2.18Z"/>
  <path class="cls-1" d="M772.79,70.79c-.03-.53-.07-.85-.07-1.16,0-3.9,0-7.8,0-11.7,0-1.35,.13-1.5,1.38-1.91,2.38-.77,4.76-1.53,7.14-2.31,1.47-.48,2.92-.98,4.39-1.44,1.14-.36,1.56-.05,1.57,1.16,.01,3.74,0,7.48,.01,11.21,0,.96-.39,1.61-1.27,1.92-1.66,.58-3.34,1.11-5.01,1.67-2.31,.77-4.62,1.56-6.93,2.33-.34,.11-.7,.13-1.21,.22Z"/>
  <path class="cls-1" d="M291.5,380.42c-.41-1.22-.53-8.47-.26-13.76,.47-.2,.97-.46,1.5-.63,3.2-1.03,6.41-2.04,9.61-3.06,.49-.16,.98-.32,1.48-.44,.94-.24,1.41,.1,1.43,1.09,.03,1.23,0,2.46,0,3.68,0,2.78,0,5.55,0,8.23-.33,.8-.96,1.14-1.61,1.35-3.71,1.2-7.43,2.37-11.16,3.52-.28,.09-.62,.01-1.01,.01Z"/>
  <path class="cls-1" d="M182.77,366.52c2.2-.7,4.41-1.41,6.62-2.11,1.77-.57,3.54-1.14,5.32-1.7,.24-.08,.49-.18,.74-.2,1.01-.1,1.27,.1,1.28,1.1,.02,2.13,0,4.27,0,6.4,0,1.55,.01,3.09,0,4.64-.02,1.27-.4,1.83-1.6,2.21-3.66,1.17-7.33,2.32-11,3.46-1.04,.32-1.47,0-1.47-1.12-.02-4.05-.02-8.1-.02-12.15,0-.1,.05-.2,.14-.52Z"/>
  <path class="cls-1" d="M163.97,366.46c4.13-1.31,8.31-2.63,12.5-3.95,.24-.08,.53,0,.78,0,.53,.27,.54,.74,.54,1.24,0,3.63,0,7.27-.01,10.9,0,1.16-.56,1.9-1.62,2.23-2.23,.7-4.47,1.39-6.7,2.09-1.39,.43-2.77,.88-4.17,1.29-.44,.13-.91,.14-1.37,.2-.35-1.52-.32-12.72,.05-14Z"/>
  <path class="cls-1" d="M213.07,135.23c.12,.78,.37,1.51,.3,2.2-.24,2.33,.22,4.67-.21,6.98,.51,.45,.05,.97,.09,1.45,.04,.48,.1,.96,.09,1.45-.02,1.25-.34,1.67-1.64,2.1-3.4,1.13-6.8,2.24-10.21,3.34-.57,.18-1.18,.25-1.87,.39-.1-.26-.3-.53-.3-.81-.02-4.32-.01-8.64-.01-13.12,2.26-.73,4.49-1.5,6.75-2.16,2.27-.66,4.44-1.74,7.02-1.81Z"/>
  <path class="cls-1" d="M280.19,166.67v13.5c-.46,.28-1,.75-1.62,.95-3.71,1.21-7.44,2.37-11.17,3.53-.24,.07-.53,0-.79,0-.29-1.18-.37-11.76-.09-13.98,2.23-.68,4.5-1.34,6.75-2.07,2.24-.73,4.42-1.66,6.91-1.94Z"/>
  <path class="cls-1" d="M261.23,166.77v13.23c-.38,.62-1.01,.93-1.75,1.15-3.62,1.13-7.23,2.29-10.86,3.42-.33,.1-.69,.07-1.13,.11v-14.03c4.35-1.33,8.63-2.64,12.91-3.93,.23-.07,.5,.02,.83,.05Z"/>
  <path class="cls-1" d="M380.41,176.96c-.6,.97-1.42,1.17-2.23,1.42-3.02,.95-6.03,1.95-9.05,2.9-.77,.24-1.58,.38-2.38,.57-.28-1.47-.31-12.39-.06-14.07,3.51-1.1,7.04-2.21,10.57-3.33,.59-.19,1.15-.45,1.75-.6,.92-.24,1.39,.14,1.4,1.14,.02,2.45,0,4.91,0,7.36v4.6Z"/>
  <path class="cls-1" d="M319.35,56.26v13.32c-.37,.63-1.06,.93-1.85,1.18-2.49,.76-4.96,1.58-7.44,2.38-1.09,.35-2.18,.7-3.28,1.02-.33,.1-.7,.09-1.21,.15-.11-4.73-.03-9.35-.05-13.94,4.09-1.33,8.01-2.62,11.95-3.87,.53-.17,1.13-.14,1.89-.23Z"/>
  <path class="cls-1" d="M324.57,74.27v-13.98c2.32-.71,4.6-1.36,6.85-2.11,2.2-.73,4.35-1.64,6.81-1.94,.07,.51,.16,.91,.16,1.31,.01,3.63,.01,7.27,0,10.9,0,1.27-.4,1.88-1.57,2.25-3.77,1.2-7.55,2.37-11.33,3.54-.24,.07-.52,0-.93,0Z"/>
  <path class="cls-1" d="M180.61,153.3c-.12-.59-.26-.99-.26-1.39-.02-4.17-.01-8.34-.01-12.68,2.28-.75,4.55-1.61,6.88-2.23,2.27-.6,4.4-1.88,6.94-1.7v13.37c-2.05,1.38-4.44,1.64-6.64,2.41-2.2,.76-4.44,1.44-6.91,2.23Z"/>
  <path class="cls-1" d="M657.16,85.51c1.22-1.15,2.37-2.38,3.67-3.43,1.9-1.53,3.99-2.81,6.25-3.75,1.26-.52,2.57-.93,3.86-1.39,1.79,.74,3.58,1.46,4.89,3,.72,.84,.83,1.2,.28,2.26-.72,1.39-1.49,2.76-2.26,4.12-.64,1.13-1.32,2.23-2.06,3.48-.74-.32-1.49-.47-2.02-.9-1.88-1.51-3.94-2.6-6.31-3.09-1.77-.36-3.51-1.01-5.35-.32-.28,.11-.63,.02-.95,.02Z"/>
  <path class="cls-1" d="M750.27,86.46c0-3.21,.01-6.42,.02-9.64,3.58,0,7.16,0,10.74,0,.37,0,.75,0,1.12,.01,.64,.02,.98,.35,.97,1.01,0,.21,.04,.44-.01,.64-.51,2.18-.99,4.36-1.55,6.52-.36,1.36-.54,1.47-1.83,1.47-3.15,0-6.3,0-9.46-.02Z"/>
  <path class="cls-1" d="M223.38,113.84c-.12,.09-.24,.25-.35,.25-1.9,.02-3.8,.02-5.7,0-.12,0-.23-.16-.35-.25,2.13,0,4.27,0,6.4,0Z"/>
  <path class="cls-1" d="M528.8,108.64c.16,.24,.33,.47,.47,.72,.24,.42-.04,.52-.38,.57-.03-.43-.06-.86-.09-1.29Z"/>
  <path class="cls-1" d="M228.84,225.77c-.26-.03-.63,.1-.58-.39,.19,.13,.39,.26,.58,.39Z"/>
  <path class="cls-1" d="M229.17,226.09l-.33-.31,.33,.31Z"/>
  <path class="cls-1" d="M572.9,208.75c-.06-.1-.13-.19-.19-.29,.06,.1,.13,.19,.19,.29Z"/>
  <path class="cls-1" d="M710.22,116.32c-.02-3.25-.04-6.51-.06-9.76,0-.59-.05-1.17-.07-1.76,.13,.18,.36,.36,.36,.54,.03,3.54,.03,7.08,.02,10.62,0,.12-.16,.24-.25,.36Z"/>
  <path class="cls-1" d="M701.47,120.24c.86,0,1.71,0,2.57,0-1.02,.36-1.58,.36-2.57,0Z"/>
  <path class="cls-1" d="M710.18,117.72c.03-.34,.04-.47,.05-.6,.07,.08,.17,.15,.2,.24,.02,.04-.09,.13-.26,.36Z"/>
</svg>