<?xml version="1.0" encoding="UTF-8"?>
<svg id="Layer_1" data-name="Layer 1" xmlns="http://www.w3.org/2000/svg" viewBox="0 0 1000 444.44">
  <defs>
    <style>
      .cls-1 {
        fill: #fff;
      }
    </style>
  </defs>
  <path class="cls-1" d="M383.7,30.11c-7.15,0-12.24-5.46-12.24-13.93s5.08-13.93,12.42-13.93c3.01,0,5.46,.94,7.53,2.26l-.38,2.82c-2.07-1.51-4.52-2.64-7.15-2.64-5.84,0-9.6,4.71-9.6,11.48s3.77,11.48,9.41,11.48c3.01,0,5.46-1.13,7.53-2.82l.38,2.64c-1.69,1.51-4.71,2.64-7.91,2.64Zm31.44,0c-7.15,0-12.05-5.65-12.05-13.93s5.08-13.93,12.24-13.93,12.05,5.65,12.05,13.93-5.08,13.93-12.24,13.93Zm.19-25.23c-5.46,0-9.22,4.71-9.22,11.48s3.77,11.48,9.41,11.48,9.22-4.71,9.22-11.48c-.19-6.97-3.95-11.48-9.41-11.48Zm44.05,24.85l-15.63-22.59V29.73h-2.64V3h2.64l15.06,21.84V3h2.64V29.73h-2.07Zm32.94,.19l-8.47-12.05h-3.58v11.67h-2.64V3h6.78c5.27,0,8.66,2.82,8.66,7.34,0,4.14-2.82,6.59-6.21,7.34l8.28,11.67c.19,0-2.82,.56-2.82,.56Zm-8.09-24.47h-3.95V15.8h3.58c4.14,0,6.4-1.88,6.4-5.27s-2.07-5.08-6.02-5.08Zm31.81-2.64h2.82l10.54,26.54-2.64,.56-3.39-8.85h-11.67l-3.39,8.66h-2.64l10.35-26.92Zm-3.58,15.81h9.79l-5.08-12.8c.19,.19-4.71,12.8-4.71,12.8Zm35.96,11.11h-7.15V3h7.15c8.85,0,13.93,5.27,13.93,13.37,.19,8.09-5.08,13.37-13.93,13.37Zm.19-24.28h-4.71V27.47h4.71c6.78,0,11.11-3.77,11.11-10.92,0-7.53-4.33-11.11-11.11-11.11Zm62.31,24.28l-15.63-22.59V29.73h-2.64V3h2.64l15.06,21.84V3h2.64V29.73h-2.07Zm16,0v-3.95h3.01v3.95h-3.01Zm-225.53,136.11c.94-1.13,.75-2.82-.56-3.77-1.13-.94-2.82-.75-3.77,.56l-99.96,128.39c-.75,.94-.56,2.45,.38,3.2,.94,.75,2.45,.56,3.2-.38,0,0,100.72-128.01,100.72-128.01Zm300.64,77.37c-2.45-.94-4.71-1.13-6.59-1.13-2.26,0-4.33,.19-6.21,.56-4.14,.56-8.09,1.32-12.24,2.26-7.91,1.88-15.81,4.14-23.72,5.65-.94,.19-1.88,.38-3.01,.56,.19-.38,.38-.94,.75-1.51,1.88-3.39,3.95-6.97,5.84-10.54,2.07-3.58,3.95-7.15,5.27-11.48,.38-1.13,.56-2.26,.75-3.58s.19-2.82-.56-4.52c-.38-.75-1.13-1.51-1.88-2.07-.75-.38-1.51-.56-2.26-.75-1.51-.19-2.45,0-3.77,0-4.52,.56-8.47,2.45-12.24,4.52-3.77,2.26-6.97,4.71-10.17,7.15-6.21,5.27-12.24,11.11-17.88,16.75l-.19,.19c.38-.38,.56-.75,.94-1.13,2.82-3.01,5.27-6.02,7.91-9.41,1.32-1.69,2.45-3.39,3.58-5.27s2.07-3.95,2.64-6.4c0-.75,.19-1.32,0-2.26,0-.19-.19-.56-.19-.75l-.19-.38v-.38l-.19-.19-.19-.56c-.38-.75-.94-1.32-1.69-1.88s-1.88-.75-2.64-.75c-1.69,0-2.82,.56-3.95,1.13s-2.07,1.13-3.01,1.69c-3.58,2.26-6.59,4.89-9.98,6.97-5.08,3.58-10.17,6.59-15.44,9.04,.38-.75,.75-1.32,1.13-2.07,.94-1.88,1.88-3.95,2.26-6.02,.19-1.13,.38-2.45,.19-3.58-.19-1.32-.56-2.64-1.51-3.95-.94-1.13-2.26-2.07-3.39-2.45-1.32-.38-2.45-.56-3.77-.75h-1.51c-.56,0-1.32,0-1.88,.19-1.13,.19-2.26,.38-3.39,.75-4.52,1.32-8.28,3.77-11.48,6.78-.56,.56-1.32,1.32-1.88,2.07-1.88,1.88-3.58,3.95-5.08,5.84-2.45,2.26-4.89,4.33-7.15,6.02-5.27,4.14-11.11,7.72-17.13,10.35-3.01,1.32-6.21,2.26-9.41,2.64-.75,0-1.51,.19-2.45,.19h-.94c-.38,0-.56,0-.75-.19-.56-.19-.56-.38-.75-.56s-.19-.75-.38-1.32c0-1.32,.38-2.82,.75-4.33,.56-1.51,1.13-3.01,1.88-4.52,1.51-3.01,3.01-5.84,4.89-8.85,3.39-5.84,7.15-11.48,11.11-17.13,3.95-5.65,7.72-11.3,11.86-16.57,.56-.56,.94-1.32,1.51-1.88,13.18-.38,31.81-.75,50.64-1.13,16.94-.38,34.07-.38,46.69-.19,12.8,.38,21.27,.75,21.27,.75,.94,0,1.69-.75,1.69-1.51,0-.94-.75-1.69-1.51-1.69,0,0-8.47-.56-21.27-.94-12.8-.56-29.93-.75-46.88-.56-16.94,.19-34.07,.19-46.69,.38l7.15-9.41c4.33-5.27,8.47-10.92,12.8-16v-.19c.75-.94,.56-2.45-.38-3.2-.94-.94-2.45-.75-3.39,.19-4.52,5.27-8.85,10.54-13.18,16-3.39,4.14-6.4,8.28-9.79,12.61-9.22,0-15.06,.19-15.06,.19-1.51,0-2.64,1.32-2.64,2.82s1.32,2.64,2.82,2.64c0,0,4.14-.19,11.11-.19-.19,.38-.38,.56-.75,.94-.56,.75-1.13,1.51-1.88,2.07-10.17,11.86-21.08,23.16-32.76,33.51-5.84,5.08-12.05,9.79-18.64,13.74-3.39,1.88-6.78,3.58-10.35,4.52-.94,.19-1.88,.38-2.64,.56-.38,0-.75,.19-1.32,.19h-1.13c-.56,0-.94-.19-1.32-.56-.19-.19-.56-.75-.56-1.51-.19-1.51-.19-3.39,.19-5.08,.38-1.88,.75-3.58,1.32-5.27,.75-2.26,1.51-4.33,2.45-6.21,1.88-1.69,3.95-3.39,5.65-5.08,3.01-2.82,5.65-5.27,8.47-8.28,2.82-2.82,5.46-5.46,8.28-8.47,5.27-5.65,10.73-11.67,15.06-18.45,1.13-1.69,2.07-3.58,2.82-5.65,.19-.56,.38-1.32,.38-2.07s0-1.88-.75-2.82c-.75-.94-1.88-1.32-2.64-1.51h-1.88c-2.82,.38-4.71,1.51-6.4,2.64-1.88,1.13-3.39,2.45-5.08,3.95-5.84,5.46-10.73,12.05-15.06,18.64-2.26,3.39-4.33,6.59-6.21,10.17-1.88,3.58-3.77,6.97-5.08,10.73-.75,1.88-1.69,3.95-2.45,5.65-3.2,2.64-6.4,5.08-9.6,7.53-3.2,2.26-6.21,4.52-9.6,6.21-3.39,1.88-6.59,3.77-10.17,4.89-.94,.19-1.69,.56-2.64,.56-.38,0-.94,.19-1.13,.19h-1.13c-.75,0-1.13-.38-1.32-.56s-.38-.56-.38-1.32c0-1.32,.56-3.2,1.13-4.89s1.51-3.39,2.45-5.08c3.58-6.59,7.91-13.18,12.24-19.58,.75-.94,.56-2.26-.38-3.2-.94-.75-2.26-.75-3.2,.19l-.19,.19c-2.07,2.45-3.95,4.89-5.65,7.34-.94,1.13-2.07,2.26-3.2,3.39-3.39,3.39-6.78,6.4-10.54,9.04-7.53,5.46-15.81,9.79-24.85,12.24-4.33,1.13-8.85,1.88-13.18,2.07l67.96-86.41c.94-1.13,.75-2.82-.56-3.77-1.13-.94-2.82-.75-3.77,.56l-56.29,72.48c.94-2.26,1.69-4.52,2.45-6.78,.38-1.32,.56-2.64,.56-3.95s-.19-2.82-.75-4.33-1.88-2.82-3.39-3.58-2.82-.94-4.33-1.13h-2.07c-.56,0-1.51,0-2.07,.19-1.32,.19-2.64,.38-3.95,.94-5.08,1.69-9.41,5.08-12.42,9.22-3.01,4.33-5.08,9.22-5.08,14.87,0,2.82,.56,5.46,1.88,8.09,1.32,2.64,3.58,4.71,5.84,5.84,2.07,1.13,4.14,1.69,6.02,2.07l-27.11,35.02c-.75,.94-.56,2.26,.38,3.01,.94,.75,2.26,.75,3.2-.19,5.08-6.02,9.79-12.24,14.68-18.45l14.87-18.64c1.13,0,2.26,0,3.39-.19,5.08-.38,9.79-1.32,14.5-2.64,9.22-2.82,17.88-7.34,25.6-13.37,1.51-1.13,3.01-2.45,4.71-3.77-.19,.38-.38,.56-.56,.94-.94,1.88-1.69,3.77-2.45,5.65-.56,2.07-1.32,4.14-1.13,6.59,.19,1.32,.56,3.01,1.88,4.14s2.82,1.51,4.14,1.69h1.88c.56,0,1.13-.19,1.69-.19,1.13-.19,2.26-.38,3.2-.75,4.14-1.32,7.53-3.2,11.11-5.27s6.59-4.52,9.79-6.59c1.88-1.32,3.58-2.82,5.08-4.14-.38,1.69-.94,3.2-1.13,5.08-.38,2.07-.56,4.33,0,6.59,.19,1.13,.75,2.64,1.88,3.77s2.82,1.69,4.14,1.88h1.88c.38,0,1.13-.19,1.69-.19,1.13-.19,2.26-.38,3.2-.75,4.14-1.13,7.72-3.01,11.11-5.08,6.78-4.33,13.18-9.22,19.01-14.5,5.84-5.08,11.48-10.73,16.75-16.19-2.26,3.39-4.33,6.78-6.21,10.35-1.69,3.01-3.39,6.02-4.89,9.41-.75,1.69-1.32,3.39-1.88,5.08-.56,1.88-.94,3.77-.94,5.84,0,1.13,.19,2.45,1.13,3.58,.75,1.32,2.26,2.07,3.39,2.45,.56,.19,1.13,.19,1.69,.19h1.51c.75,0,1.88-.19,2.82-.19,3.77-.56,6.97-1.69,10.35-3.2,6.21-2.82,11.86-6.59,17.13-10.73-.56,1.13-.94,2.26-1.32,3.58-.38,1.13-.56,2.45-.38,3.95,0,1.51,.56,3.01,1.88,4.33,1.13,1.13,2.45,1.88,3.77,2.26,1.32,.38,2.45,.38,3.58,.56,1.13,0,2.26,0,3.58-.19,1.13-.19,2.26-.56,3.39-.75,2.07-.75,4.14-1.69,5.84-2.82,3.77-2.26,6.78-5.08,9.6-8.28l2.82-3.39c7.34-2.82,14.5-6.59,21.08-11.11,3.58-2.26,6.78-4.71,10.17-6.59,.94-.56,1.69-.94,2.45-1.32s1.69-.56,2.07-.56h.38s.19,.19,.19,.38v1.69c-.38,1.51-1.32,3.2-2.26,4.71-1.13,1.69-2.26,3.2-3.58,4.71-2.45,3.2-5.08,6.02-7.53,9.41-1.32,1.69-2.64,3.2-3.95,5.08-.56,.94-1.32,1.69-1.88,2.82-.38,.56-.56,1.13-.94,1.69-.19,.38-.19,.75-.38,1.13,0,.38-.19,1.13,0,1.88,.19,.94,1.13,1.69,1.69,1.88s1.13,.38,1.51,.38h.75c.19,0,.38-.19,.75-.19,.19,0,.19-.19,.38-.19,.38-.19,.75-.38,.94-.56,.94-.75,1.69-1.51,2.64-2.26,1.51-1.51,2.82-3.01,4.33-4.52,5.46-6.02,11.11-11.86,17.32-16.75,3.2-2.45,6.4-4.89,9.79-6.59,3.58-1.88,6.97-3.2,10.73-3.58h2.45c.19,0,.56,.19,.56,.19,.19,0,.19,.19,.19,.19,0,.19,.19,.75,0,1.69-.19,.75-.38,1.69-.75,2.45-1.32,3.58-3.39,6.78-5.27,10.35-2.07,3.58-4.33,6.78-6.02,10.73-.56,.94-.94,2.07-1.32,3.2-.19,.56-.38,1.32-.38,2.26,0,.56,0,1.32,.56,2.26s1.69,1.51,2.45,1.69h2.45c.75,0,1.13-.19,1.69-.38,1.13-.19,2.07-.38,3.2-.75,7.91-2.07,15.63-4.71,23.53-6.4,3.95-.94,7.72-1.88,11.67-2.64,2.07-.38,3.95-.56,5.84-.75,1.88-.19,3.95,0,5.27,.56h.19c.75,.38,1.88-.19,2.07-.94,0-2.07-.38-3.01-1.32-3.39h0Zm-324.55,2.82c-.75-1.69-1.13-3.77-1.13-5.65,.19-4.14,1.69-8.28,4.14-11.86,2.45-3.58,5.65-6.4,9.6-7.91,.94-.38,2.07-.56,3.01-.75,.56-.19,.94-.19,1.51-.19h1.69c2.07,0,3.77,.56,4.33,2.07,.75,1.32,.75,3.77,.38,5.65-.38,2.26-1.13,4.33-2.07,6.4-1.88,4.33-4.14,8.28-6.4,12.42l-3.95,6.02c-.38,0-.75,0-1.13-.19-2.07-.38-4.14-.94-5.84-2.07-2.07-.94-3.39-2.45-4.14-3.95h0Zm116.15-37.46c4.14-6.4,8.66-12.8,14.12-18.07,1.32-1.32,2.82-2.64,4.33-3.58,.75-.56,1.51-.94,2.26-1.32s1.69-.56,2.07-.75h.94c0,.19,0,.56-.19,.94-.38,1.51-1.32,3.2-2.26,4.89-3.95,6.4-9.04,12.42-14.31,18.26-5.08,5.65-10.35,10.92-16,16,1.13-2.26,2.26-4.33,3.39-6.21,1.69-3.58,3.58-6.97,5.65-10.17Zm87.73,13.74c.94-.38,1.69-.56,2.64-.75,.38,0,.94-.19,1.32-.19h1.51c1.69,0,3.39,.38,4.14,1.32s1.13,2.64,.75,4.33c-.19,1.88-.94,3.58-1.88,5.27-.94,2.07-2.26,3.95-3.58,5.65-3.77,1.32-7.72,2.26-11.48,2.45-1.88,0-3.77-.19-5.08-.75-1.32-.75-1.69-1.32-1.69-2.64s.38-3.01,1.32-4.52c.75-1.51,1.88-3.01,3.2-4.33,2.45-2.45,5.46-4.71,8.85-5.84h0Zm-7.53,26.54c-3.39,1.88-6.97,3.2-10.35,2.82-1.88-.19-3.58-.75-4.14-1.32-.19-.38-.38-.75-.38-1.32s.19-1.51,.38-2.26c.56-1.69,1.32-3.39,2.45-5.08,.56-.75,.94-1.51,1.51-2.45,.19,.75,.75,1.32,1.13,2.07,.94,1.32,2.45,2.07,3.58,2.45,2.64,.94,4.89,.75,6.97,.56,2.26-.38,4.52-.94,6.59-1.51-2.45,2.64-4.89,4.52-7.72,6.02h0Zm-104.1-45.18l1.69-2.07,.38-.38c1.13-1.69,.75-3.95-.94-5.08-1.69-1.32-3.95-.75-5.08,.94l-1.51,2.26c-.94,1.51-.75,3.39,.56,4.71,1.51,1.13,3.58,.94,4.89-.38Zm-94.5,213.86v9.6h8.66l.38,2.45h-9.04v12.42h-2.64v-26.73h13.55v2.45c0-.19-10.92-.19-10.92-.19h0Zm28.61,24.66c-7.15,0-12.05-5.65-12.05-13.93s5.08-13.93,12.24-13.93,12.05,5.65,12.05,13.93-5.08,13.93-12.24,13.93Zm0-25.23c-5.46,0-9.22,4.71-9.22,11.48s3.77,11.48,9.41,11.48,9.22-4.71,9.22-11.48-3.77-11.48-9.41-11.48Zm29.93,25.04c-6.21,0-9.98-4.33-9.98-10.35v-16.75h2.64v16.38c0,5.08,2.45,8.28,7.34,8.28s7.34-3.2,7.34-8.28v-16.57h2.64v16.57c.19,6.78-3.58,10.73-9.98,10.73Zm38.59-.38l-15.63-22.59v22.59h-2.64v-26.73h2.64l15.06,21.84v-21.84h2.64v26.73h-2.07Zm19.95,0h-7.15v-26.73h7.15c8.85,0,13.93,5.27,13.93,13.37,.19,8.28-5.46,13.37-13.93,13.37h0Zm.19-24.28h-4.71v22.03h4.71c6.78,0,11.11-3.77,11.11-10.92s-4.52-11.11-11.11-11.11Zm29.37-2.64h2.82l10.54,26.54-2.64,.56-3.39-8.85h-11.67l-3.39,8.66h-3.2l10.92-26.92Zm-3.77,16h9.79l-5.08-12.8c.19,.19-4.71,12.8-4.71,12.8Zm29.93-13.18v24.47h-2.64v-24.47h-8.66v-2.45h19.77l.38,2.45h-8.85Zm17.51,24.1v-26.73h2.64v26.73h-2.64Zm23.53,.56c-7.15,0-12.05-5.65-12.05-13.93s5.08-13.93,12.24-13.93,12.05,5.65,12.05,13.93-4.89,13.93-12.24,13.93Zm0-25.23c-5.46,0-9.22,4.71-9.22,11.48s3.77,11.48,9.41,11.48,9.22-4.71,9.22-11.48-3.58-11.48-9.41-11.48Zm38.78,24.66l-15.63-22.59v22.59h-2.64v-26.73h2.64l15.06,21.84v-21.84h2.64v26.73h-2.07ZM500.99,54.58h127.64c2.07,0,2.26,.19,2.45,2.26v115.78c0,1.32-.56,2.07-1.88,2.07-1.51,0-2.45-.56-2.64-2.07V64.56q0-5.08-4.89-5.08h-243.98c-1.32,0-2.26,.75-2.26,2.26v97.7c0,3.01-1.13,5.27-3.2,7.34-.19,.19-.75,.56-.94,.38s-.38-.56-.56-.94V57.03c0-2.26,.38-2.45,2.45-2.45h127.82Zm.19,336.22h127.26c2.45,0,2.82-.19,2.82-2.64v-119.16c0-.94,0-1.88-.19-2.82-.19-.75-.56-1.13-1.51-.56-2.07,1.32-3.2,3.2-3.2,5.84v111.82c-.19,2.07-.75,2.64-2.82,2.82h-244.35c-3.58,0-4.14-.56-4.14-3.77v-76.81c0-.56-.38-.94-.75-1.51-.38,.19-.75,.38-1.13,.75-2.26,2.07-2.82,4.71-2.82,7.72v74.92c0,3.2,.19,3.39,3.39,3.39h127.45Z"/>
</svg>