<?xml version="1.0" encoding="UTF-8"?>
<svg id="Layer_1" data-name="Layer 1" xmlns="http://www.w3.org/2000/svg" viewBox="0 0 1000 444.44">
  <defs>
    <style>
      .cls-1 {
        fill: #fff;
        fill-rule: evenodd;
      }
    </style>
  </defs>
  <path class="cls-1" d="M169.02,262.08c2.61,0,2.29-1.5,2.29-4.27v-13.48c0-2.78-.28-3.67,1.32-3.67,5.55,0,7.07-.5,7.07-5.46v-50.13c0-13.65-9.64-11.39-12.37-16.38-3.85-6.74,7.22-6.74,3.2-21.36-1.02-3.3-3.62-5.36-8.62-5.36s-7.6,2.06-8.62,5.36c-4.02,14.61,7.07,14.61,3.2,21.36-2.73,4.98-12.35,2.73-12.35,16.38v50.12c0,4.96,1.5,5.46,7.07,5.46,1.57,0,1.31,.89,1.31,3.67v13.48c0,2.77-.33,4.27,2.3,4.27h14.2s0,0,0,0Zm-43.88-108.75c-4.92,5.24-12.72,17.49-7.64,27.67,10.34,3.98,9.56-32.76,22.42-32.13,6.38,5.89-1.89,23.22-4.44,30.86-3.19,9.39-5.72,29.1-11.78,38.64-5.07,7.95-1.26,32.92-2.87,41.51-4.28,4.29-15.91,1.27-20.83,.47,0-9.85-1.28-17.64-2.87-33.38-.15-3.18-3.5-51.86-.8-57.74,5.57-12.25,35.94-35.63,40.09-40.08,3.65-3.98,16.52-17.18,21.46-17.18,3.49,2.39,1.43,7.96,.63,10.18-4.91,12.25-26.24,24.34-33.38,31.18h0Zm74.1,0c4.76,5.24,12.56,17.49,7.63,27.67-10.49,3.98-9.7-32.76-22.58-32.13-6.2,5.89,2.05,23.22,4.61,30.86,3.18,9.39,5.72,29.1,11.77,38.64,4.94,7.95,1.27,32.92,2.7,41.51,4.45,4.29,15.91,1.27,20.99,.47,0-9.85,1.12-17.64,2.7-33.38,.32-3.18,3.67-51.86,.96-57.74-5.56-12.25-35.94-35.63-40.07-40.08-3.82-3.98-16.54-17.18-21.47-17.18-3.66,2.39-1.43,7.96-.64,10.18,4.95,12.25,26.25,24.34,33.4,31.18h0Zm-118.28-16.49c-2.71,2.54-8.77,4.29-12.92,9.87-1.59-3.02,2.55-10.34,7.49-14.66,3.67-3.04,10.84-7.97,12.91-8.45,1.6,3.67-4.13,9.25-7.48,13.23Z"/>
  <path class="cls-1" d="M72.52,156.75c-4.62,4.31-9.55,6.07-15.94,13.87-2.21-7.57-2.49-15.57-.8-23.27,2.24-7.33,5.9-15.46,12.12-18.01-1.27,4.15-3.36,9.89-3.84,17.69-2.7,10.68-4.29,11-3.65,12.43,.63,0,4.13-5.58,8.44-9.88,5.09-5.1,11.46-6.22,15.6-9.24-.63,2.07-4.29,8.6-11.94,16.41h0Z"/>
  <path class="cls-1" d="M50.04,200.9c-6.2-11.16-6.85-19.29-7.33-28.69,.32-6.54,3.5-21.67,8.28-23.9-1.43,13.7,2.24,14.98,.8,26.29,0,.64-1.59,12.43-1.59,13.06,1.91-.31,.16-10.84,21.99-25.97-4.78,8.28-2.56,10.83-11.16,21.83-10.04,9.88-11.47,19.61-11,17.38h0Z"/>
  <path class="cls-1" d="M58.82,211.41c-4.63,6.7-3.83,10.05-4.94,13.23-11.01-6.38-23.43-31.71-18.82-44.3,2.87,9.55,6.86,11.63,9.72,19.59,4.94,11.96,4.15,15.63,7.33,18.33-.65-6.21,1.44-13.54,3.5-18.96,3.04-4.61,5.41-10.68,7.66-12.76,2.38,8.78,.63,15.95-4.46,24.86h0Z"/>
  <path class="cls-1" d="M68.69,233.08c0,9.73-1.77,14.02-2.55,21.2-18.97-6.21-28.85-27.88-28.85-38.56,5.75,13.07,14.18,12.91,25.19,31.38,.95-7-1.91-1.74-2.24-14.97,.32-13.87,3.19-14.35,3.67-22.94,3.5,3.82,4.79,19.11,4.79,23.89h0Z"/>
  <path class="cls-1" d="M84.46,260.66c1.45,7.18,2.08,15.62,3.19,21.83-10.84-3.98-13.55-.95-26.45-9.08-5.89-3.19-16.42-16.57-15.77-26.13,12.74,14.18,14.98,12.58,21.2,17.84,5.72,4.62,10.33,11.48,14.5,10.52,.3-3.83-9.4-12.12-8.13-36.02,2.55,2.71,9.55,13.55,11.47,21.03h0Z"/>
  <path class="cls-1" d="M105.97,278.51c3.35,4.78,2.56,6.85,11.15,16.73-2.08,.97-14.33,4.14-22.46,4.46-5.41,0-24.53-5.1-30.91-18.17,10.98,5.9,11.15,4.46,25.81,7.65,10.51,2.39,18.01,5.73,20.87,5.42-.64-1.44-8.77-4.78-14.34-11.8-5.59-7.49-4.31-15.93-9.25-22.15,3.35-.94,16.41,14.36,19.12,17.86h0ZM242.53,136.84c2.56,2.54,8.78,4.29,12.75,9.87,1.75-3.02-2.55-10.34-7.48-14.66-3.5-3.04-10.67-7.97-12.91-8.45-1.59,3.67,4.14,9.25,7.64,13.23Z"/>
  <path class="cls-1" d="M250.98,156.75c4.46,4.31,9.4,6.07,15.78,13.87,2.22-7.57,2.49-15.57,.8-23.27-2.07-7.33-5.89-15.46-12.12-18.01,1.44,4.15,3.35,9.89,3.83,17.69,2.71,10.68,4.31,11,3.67,12.43-.64,0-4.15-5.58-8.45-9.88-4.95-5.1-11.33-6.22-15.62-9.24,.63,2.07,4.45,8.6,12.09,16.41h0Z"/>
  <path class="cls-1" d="M273.3,200.9c6.36-11.16,6.84-19.29,7.32-28.69-.32-6.54-3.5-21.67-8.12-23.9,1.27,13.7-2.39,14.98-.81,26.29,0,.64,1.44,12.43,1.44,13.06-1.76-.31-.16-10.84-21.83-25.97,4.62,8.28,2.38,10.83,11,21.83,10.2,9.88,11.46,19.61,11,17.38h0Z"/>
  <path class="cls-1" d="M264.69,211.41c4.46,6.7,3.66,10.05,4.78,13.23,10.99-6.38,23.57-31.71,18.8-44.3-2.71,9.55-6.85,11.63-9.55,19.59-5.11,11.96-4.31,15.63-7.33,18.33,.64-6.21-1.6-13.54-3.66-18.96-2.87-4.61-5.42-10.68-7.66-12.76-2.23,8.78-.64,15.95,4.62,24.86h0Z"/>
  <path class="cls-1" d="M254.64,233.08c0,9.73,1.91,14.02,2.71,21.2,18.8-6.21,28.84-27.88,28.84-38.56-5.91,13.07-14.18,12.91-25.33,31.38-.97-7,1.9-1.74,2.23-14.97-.32-13.87-3.19-14.35-3.67-22.94-3.5,3.82-4.78,19.11-4.78,23.89h0Z"/>
  <path class="cls-1" d="M238.88,260.66c-1.44,7.18-1.91,15.62-3.03,21.83,10.67-3.98,13.37-.95,26.29-9.08,5.89-3.19,16.57-16.57,15.93-26.13-12.74,14.18-15.13,12.58-21.19,17.84-5.74,4.62-10.51,11.48-14.67,10.52-.31-3.83,9.42-12.12,8.29-36.02-2.69,2.71-9.72,13.55-11.62,21.03h0Z"/>
  <path class="cls-1" d="M217.36,278.51c-3.19,4.78-2.39,6.85-11.16,16.73,2.23,.97,14.35,4.14,22.65,4.46,5.25,0,24.37-5.1,30.73-18.17-10.99,5.9-11.15,4.46-25.81,7.65-10.52,2.39-17.85,5.73-20.87,5.42,.64-1.44,8.93-4.78,14.35-11.8,5.57-7.49,4.3-15.93,9.4-22.15-3.51-.94-16.57,14.36-19.28,17.86h0Zm-82.86,44.94l-3.19-1.6s20.25-24.7,54.99-22.79c34.74,1.91,32.34,10.04,50.99,8.77,2.07-.16-1.6,2.54-1.6,2.54,0,0-18.15,7-40.62-.64-22.32-7.65-36.83-12.27-60.57,13.72h0Z"/>
  <path class="cls-1" d="M189.47,323.45l3.2-1.6s-20.1-24.7-54.84-22.79c-34.89,1.91-32.51,10.04-51.15,8.77-2.06-.16,1.59,2.54,1.59,2.54,0,0,18.17,7,40.65-.64,22.46-7.65,36.96-12.27,60.54,13.72h0Zm158.83-35.05h-12.13v-7.48h33.14v7.48h-12.12v32.97h-8.89v-32.97h0Zm23.79-7.48h8.05v15.24h.16c1.84-2.97,5.06-4.81,8.55-4.87,8.56,0,10.71,4.81,10.71,12.07v18.01h-8.05v-16.54c0-4.81-1.41-7.2-5.15-7.2-4.36,0-6.23,2.43-6.23,8.39v15.35h-8.05v-40.45Zm38.97,27.76c.23,5.1,2.73,7.42,7.2,7.42,3.23,0,5.83-1.98,6.34-3.8h7.08c-2.26,6.91-7.08,9.86-13.71,9.86-9.23,0-14.96-6.35-14.96-15.41s6.07-15.47,14.96-15.47c9.97,0,14.79,8.38,14.22,17.39h-21.13Zm13.09-5.1c-.74-4.07-2.49-6.22-6.41-6.22-5.09,0-6.57,3.97-6.69,6.22h13.09Zm59.66,2.49c0,10.93-6.47,16.26-17.28,16.26s-17.23-5.27-17.23-16.26v-25.15h8.9v25.15c0,4.42,1.13,8.78,8.33,8.78,6.34,0,8.38-2.77,8.38-8.78v-25.15h8.9v25.15Zm5.94-25.15h8.84l16.88,27.14h.12v-27.14h8.33v40.45h-8.9l-16.83-27.07h-.12v27.07h-8.32v-40.45h0Zm61.18,6.91h9.73c3.97,0,6.13,1.7,6.13,5.62s-2.16,5.78-6.13,5.78h-9.73v-11.4Zm-8.89,33.54h8.9v-15.8h8.9c4.48,0,6.11,1.87,6.74,6.12,.45,3.22,.33,7.14,1.41,9.68h8.9c-1.59-2.27-1.52-7.03-1.7-9.58-.28-4.08-1.53-8.32-5.89-9.45v-.12c4.48-1.81,6.4-5.39,6.4-10.13,0-6.12-4.58-11.17-11.83-11.17h-21.81v40.45h-.01Zm45.67-17.79c.11-2.26,1.57-6.22,6.67-6.22,3.91,0,5.67,2.15,6.41,6.22h-13.08Zm21.11,5.1c.57-9.01-4.25-17.39-14.22-17.39-8.9,0-14.95,6.69-14.95,15.47s5.72,15.41,14.95,15.41c6.64,0,11.44-2.95,13.71-9.86h-7.07c-.52,1.82-3.13,3.8-6.35,3.8-4.48,0-6.97-2.33-7.18-7.42h21.11Zm5.5-11.22h-4.81v-5.38h4.81v-2.27c0-5.15,3.23-8.9,9.8-8.9,1.42,0,2.9,.17,4.26,.24v6c-.98-.11-1.97-.17-2.95-.16-2.14,0-3.05,.9-3.05,3.35v1.76h5.55v5.38h-5.55v23.91h-8.05v-23.91h0Zm43.57,23.91h-7.65v-4.08h-.17c-1.93,3.07-5.32,4.92-8.95,4.88-8.55,0-10.7-4.82-10.7-12.07v-18.01h8.04v16.53c0,4.82,1.42,7.2,5.16,7.2,4.36,0,6.22-2.44,6.22-8.39v-15.34h8.06v29.29h0Zm18.52-6.91c-4.93,0-6.52-4.59-6.52-8.78s1.98-8.32,6.52-8.32c5.22,0,6.86,4.25,6.86,9,0,4.19-2.25,8.1-6.86,8.1Zm14.5-22.36h-7.64v3.91h-.11c-1.91-3.41-4.87-4.71-8.72-4.71-8.22,0-12.57,6.91-12.57,14.5,0,8.05,3.73,14.73,12.51,14.73,3.51,0,7.02-1.47,8.78-4.53h.11v3.85c.05,4.19-1.99,7.25-6.46,7.25-2.83,0-5.26-1.02-6-4.02h-8c.39,6.68,7.15,9.4,12.92,9.4,13.48,0,15.18-8.15,15.18-12.97v-27.41h0Zm12.07,11.49c.11-2.26,1.59-6.22,6.68-6.22,3.91,0,5.66,2.15,6.4,6.22h-13.08Zm21.13,5.1c.57-9.01-4.25-17.39-14.22-17.39-8.89,0-14.95,6.69-14.95,15.47s5.72,15.41,14.95,15.41c6.63,0,11.44-2.95,13.7-9.86h-7.07c-.51,1.82-3.12,3.8-6.34,3.8-4.48,0-6.98-2.33-7.2-7.42h21.12s0,0,0,0Zm10.38-5.1c.11-2.26,1.57-6.22,6.67-6.22,3.91,0,5.67,2.15,6.4,6.22h-13.07Zm21.11,5.1c.57-9.01-4.25-17.39-14.22-17.39-8.9,0-14.95,6.69-14.95,15.47s5.72,15.41,14.95,15.41c6.64,0,11.45-2.95,13.71-9.86h-7.07c-.52,1.82-3.13,3.8-6.35,3.8-4.49,0-6.97-2.33-7.18-7.42h21.11s0,0,0,0Zm32.52-17.79h.11l5.11,14.85h-10.48l5.27-14.85h0Zm-19.77,30.48h9.01l3.17-9h15.13l3.05,9h9.24l-15.13-40.45h-9.11l-15.36,40.45h0Zm54.67-6.91c-4.93,0-6.52-4.59-6.52-8.78s1.98-8.32,6.52-8.32c5.21,0,6.86,4.25,6.86,9,0,4.19-2.27,8.1-6.86,8.1Zm14.5-22.36h-7.64v3.91h-.11c-1.92-3.41-4.88-4.71-8.72-4.71-8.22,0-12.58,6.91-12.58,14.5,0,8.05,3.74,14.73,12.52,14.73,3.5,0,7.03-1.47,8.78-4.53h.11v3.85c.05,4.19-1.99,7.25-6.46,7.25-2.83,0-5.27-1.02-6.01-4.02h-8c.4,6.68,7.15,9.4,12.93,9.4,13.47,0,15.17-8.15,15.17-12.97v-27.41h.01Zm12.07,11.49c.11-2.26,1.59-6.22,6.69-6.22,3.9,0,5.66,2.15,6.39,6.22h-13.08Zm21.13,5.1c.56-9.01-4.26-17.39-14.22-17.39-8.91,0-14.95,6.69-14.95,15.47s5.72,15.41,14.95,15.41c6.63,0,11.44-2.95,13.7-9.86h-7.07c-.51,1.82-3.13,3.8-6.35,3.8-4.48,0-6.97-2.33-7.2-7.42h21.13Zm3.51-16.6h7.64v4.08h.16c2.04-3.29,5.56-4.87,8.96-4.87,8.54,0,10.71,4.81,10.71,12.07v18.01h-8.05v-16.54c0-4.81-1.42-7.2-5.16-7.2-4.36,0-6.24,2.43-6.24,8.39v15.35h-8.04v-29.28h.01Zm52.27,10.3c-.5-3.29-2.6-5.04-5.93-5.04-5.16,0-6.87,5.21-6.87,9.51s1.65,9.24,6.69,9.24c3.74,0,5.88-2.38,6.4-5.95h7.76c-1.01,7.76-6.4,12.01-14.1,12.01-8.83,0-14.79-6.24-14.79-15.02s5.45-15.86,14.95-15.86c6.92,0,13.27,3.63,13.76,11.1h-7.87s0,0,0,0Zm26.02,22.66c-1.77,4.7-4.53,6.62-10.1,6.62-1.64,0-3.28-.11-4.92-.28v-6.63c1.53,.11,3.11,.34,4.7,.29,2.76-.29,3.67-3.18,2.76-5.49l-10.3-27.47h8.62l6.63,20.05h.11l6.39-20.05h8.34l-12.23,32.96Zm-506.91-109.7c0,33.21-17.95,49.15-54.52,49.15s-54.69-15.94-54.69-49.15v-73.47h36.9v65.24c0,12.24,0,27.51,17.96,27.51s17.44-15.27,17.44-27.51v-65.24h36.9v73.47h0Zm22.13-73.47h37.74l34.89,64.07h.33v-64.07h34.89v119.76h-35.89l-36.74-65.41h-.33v65.41h-34.89v-119.76h0Zm130.5,0h36.9v41.6h34.57v-41.6h36.9v119.76h-36.9v-47.47h-34.57v47.47h-36.9v-119.76Zm202.8,44.62c-.67-4.37-4.03-17.61-19.29-17.61-17.29,0-22.83,16.77-22.83,32.87s5.54,32.88,22.83,32.88c12.41,0,17.27-8.72,19.46-19.96h36.22c0,24.15-19.62,49.82-54.68,49.82-38.74,0-60.73-27.34-60.73-62.74,0-37.74,23.83-62.73,60.73-62.73,32.87,.16,51,17.44,54.18,47.47h-35.9Zm88.72-16.11h17.29c14.08,0,18.28,4.36,18.28,11.92,0,10.73-9.39,11.91-16.26,11.91h-19.31v-23.83Zm-36.9,91.26h36.9v-41.76h19.63c14.59,0,15.58,11.91,16.61,23.33,.5,6.2,1.16,12.41,3.01,18.44h36.91c-3.37-5.53-3.52-19.79-4.04-25.65-1.34-14.94-7.54-26.01-17.61-29.86,12.25-4.53,17.96-17.61,17.96-30.03,0-22.66-18.12-34.22-39.08-34.22h-70.29v119.75h0Z"/>
</svg>