<svg width="40" height="40" viewBox="0 0 40 40" fill="none" xmlns="http://www.w3.org/2000/svg">
<rect width="40" height="40" rx="8" fill="#924F58"/>
<path d="M15.513 27.4842L12.5158 24.487C11.5973 24.9462 11.0172 25.8849 11.0172 26.9118V28.9828H13.0882C14.1151 28.9828 15.0538 28.4027 15.513 27.4842Z" fill="white"/>
<path d="M16.2623 18.4925L21.1769 13.5779C21.6414 13.1134 22.2021 12.7563 22.8195 12.5318L26.7444 11.1046C28.0839 10.6175 29.3825 11.9161 28.8954 13.2556L27.4682 17.1805C27.2437 17.7979 26.8866 18.3586 26.4221 18.8231L21.5075 23.7377V27.9489C21.5075 28.8835 20.3775 29.3515 19.7167 28.6906L11.3094 20.2833C10.6485 19.6225 11.1165 18.4925 12.0511 18.4925H16.2623Z" fill="white"/>
</svg>
