<svg width="28" height="28" viewBox="0 0 28 28" fill="none" xmlns="http://www.w3.org/2000/svg">
  <path fill-rule="evenodd" clip-rule="evenodd"
    d="M14 28C21.732 28 28 21.732 28 14C28 6.26801 21.732 0 14 0C6.26801 0 0 6.26801 0 14C0 21.732 6.26801 28 14 28ZM15.1122 7H17.4896H17.4907V9.61578C17.3546 9.61659 16.9497 9.61629 16.579 9.61602C16.4059 9.6159 16.2402 9.61578 16.1128 9.61578C16.111 9.61578 16.1083 9.61572 16.1048 9.61565C16.005 9.61355 15.2213 9.59713 15.2213 10.3926C15.2264 10.7291 15.2213 11.888 15.2213 11.888H17.5L17.3154 14.4931H15.2746V22.1667H12.1826V14.5434H10.5V11.8954H12.1321C12.1321 11.6288 12.1329 11.3724 12.1337 11.1214C12.1352 10.6351 12.1367 10.1692 12.1321 9.69005C12.1321 7.60498 13.7014 7 15.1122 7Z"
    fill="inherit" />
</svg>