<svg width="28" height="28" viewBox="0 0 28 28" fill="none" xmlns="http://www.w3.org/2000/svg">
<path fill-rule="evenodd" clip-rule="evenodd" d="M14 28C21.732 28 28 21.732 28 14C28 6.26801 21.732 0 14 0C6.26801 0 0 6.26801 0 14C0 21.732 6.26801 28 14 28ZM20.5437 7L15.3319 12.925H15.3316L21 20.9928H16.8312L13.0141 15.5599L8.2351 20.9928H7L12.4657 14.7795L7 7H11.1688L14.7833 12.1446L19.3087 7H20.5437ZM13.0865 14.0734L13.6403 14.8481V14.8484L17.4122 20.1249H19.3093L14.6869 13.6586L14.1331 12.8839L10.5772 7.90931H8.68013L13.0865 14.0734Z" fill="inherit"/>
</svg>
