<svg width="394" height="48" viewBox="0 0 394 48" fill="none" xmlns="http://www.w3.org/2000/svg">
<path d="M100.833 10.2452C97.3574 10.2452 93.9598 11.2758 91.0699 13.2068C88.18 15.1378 85.9275 17.8823 84.5974 21.0934C83.2674 24.3045 82.9194 27.838 83.5974 31.2468C84.2755 34.6557 85.9492 37.7871 88.4069 40.2447C90.8645 42.7024 93.9958 44.3761 97.4047 45.0541C100.814 45.7322 104.347 45.3842 107.558 44.0541C110.769 42.724 113.514 40.4717 115.445 37.5818C117.376 34.6919 118.406 31.2941 118.406 27.8185C118.406 23.1577 116.555 18.688 113.259 15.3924C109.964 12.0967 105.494 10.2452 100.833 10.2452ZM100.833 38.3245C98.7551 38.3245 96.724 37.7083 94.9963 36.5539C93.2686 35.3995 91.9219 33.7587 91.1268 31.839C90.3316 29.9193 90.1235 27.8068 90.5289 25.7688C90.9343 23.7309 91.9349 21.859 93.4042 20.3897C94.8735 18.9204 96.7455 17.9198 98.7835 17.5144C100.821 17.109 102.934 17.317 104.854 18.1122C106.773 18.9074 108.414 20.2539 109.568 21.9816C110.723 23.7093 111.339 25.7406 111.339 27.8185C111.339 30.6048 110.232 33.2772 108.262 35.2474C106.292 37.2177 103.619 38.3245 100.833 38.3245Z" fill="white"/>
<path d="M141.742 10.4585C139.431 10.099 137.072 10.2056 134.804 10.7718C132.535 11.3379 130.403 12.3522 128.532 13.755V4.74313C128.532 3.48517 128.032 2.27881 127.143 1.3893C126.253 0.49979 125.047 0 123.789 0H123.67C123.079 0 122.512 0.234893 122.094 0.652962C121.676 1.07103 121.441 1.63804 121.441 2.22928V40.1743C121.441 41.4323 121.941 42.6386 122.83 43.5281C123.72 44.4176 124.926 44.9174 126.184 44.9174H126.326C126.93 44.8811 127.498 44.6153 127.912 44.1744C128.326 43.7336 128.557 43.151 128.556 42.5459V41.6921C130.694 43.2886 133.168 44.3771 135.79 44.875C138.411 45.373 141.112 45.2672 143.687 44.566C146.261 43.8647 148.643 42.5863 150.65 40.8277C152.657 39.0691 154.237 36.8764 155.271 34.416C156.304 31.9557 156.764 29.2924 156.615 26.628C156.465 23.9636 155.711 21.3682 154.41 19.0387C153.108 16.7091 151.293 14.7065 149.102 13.1829C146.911 11.6592 144.402 10.6547 141.765 10.2452L141.742 10.4585ZM136.714 38.0873C134.349 37.5029 132.253 36.134 130.767 34.2043C129.281 32.2746 128.493 29.8981 128.532 27.4628C128.508 25.6371 128.991 23.8405 129.93 22.2741C130.868 20.7077 132.223 19.4333 133.844 18.5931C135.336 17.7531 137.01 17.2887 138.722 17.24C140.433 17.1914 142.131 17.56 143.668 18.3139C145.206 19.0678 146.536 20.1844 147.546 21.5674C148.555 22.9505 149.213 24.5584 149.463 26.2524C149.712 27.9463 149.545 29.6755 148.977 31.2908C148.409 32.906 147.457 34.3587 146.202 35.5237C144.947 36.6886 143.427 37.5308 141.774 37.9775C140.121 38.4241 138.385 38.4617 136.714 38.0873Z" fill="white"/>
<path d="M176.982 10.2452C173.507 10.2452 170.109 11.2758 167.219 13.2068C164.329 15.1378 162.077 17.8823 160.747 21.0934C159.417 24.3045 159.069 27.838 159.747 31.2468C160.425 34.6557 162.099 37.7871 164.556 40.2447C167.014 42.7024 170.145 44.3761 173.554 45.0541C176.963 45.7322 180.496 45.3842 183.708 44.0541C186.919 42.724 189.663 40.4717 191.594 37.5818C193.525 34.6919 194.556 31.2941 194.556 27.8185C194.556 23.1577 192.704 18.688 189.409 15.3924C186.113 12.0967 181.643 10.2452 176.982 10.2452ZM176.982 38.3245C174.905 38.3245 172.873 37.7083 171.146 36.5539C169.418 35.3995 168.071 33.7587 167.276 31.839C166.481 29.9193 166.273 27.8068 166.678 25.7688C167.084 23.7309 168.084 21.859 169.554 20.3897C171.023 18.9204 172.895 17.9198 174.933 17.5144C176.971 17.109 179.083 17.317 181.003 18.1122C182.923 18.9074 184.564 20.2539 185.718 21.9816C186.872 23.7093 187.489 25.7406 187.489 27.8185C187.489 30.6048 186.382 33.2772 184.411 35.2474C182.441 37.2177 179.769 38.3245 176.982 38.3245Z" fill="white"/>
<path d="M86.1297 42.6874L66.7777 23.3118L82.7858 7.27996C82.969 7.10899 83.0958 6.8862 83.1493 6.64133C83.2028 6.39647 83.1804 6.14115 83.0851 5.90934C82.9898 5.67752 82.8262 5.48025 82.6159 5.3438C82.4057 5.20735 82.1588 5.13814 81.9083 5.1455H78.8964C76.3995 5.14975 74.005 6.13831 72.2323 7.89659L56.3191 23.8097V9.84129C56.3191 8.58334 55.8194 7.37683 54.9299 6.48732C54.0404 5.59781 52.8339 5.09817 51.576 5.09817H51.4337C51.1452 5.09815 50.8595 5.15524 50.5932 5.26636C50.3269 5.37749 50.0853 5.54036 49.8824 5.74548C49.6795 5.9506 49.5193 6.19395 49.411 6.46141C49.3028 6.72887 49.2487 7.01519 49.2518 7.3037V40.2684C49.2518 41.5263 49.7515 42.7328 50.6411 43.6223C51.5306 44.5118 52.737 45.0115 53.995 45.0115H54.1372C54.4258 45.0115 54.7115 44.9543 54.9777 44.8431C55.244 44.732 55.4856 44.5693 55.6885 44.3642C55.8914 44.159 56.0516 43.9157 56.1599 43.6482C56.2681 43.3808 56.3222 43.0945 56.3191 42.806V36.3554C56.3202 35.5308 56.4842 34.7145 56.8016 33.9534C57.1191 33.1923 57.5837 32.5015 58.1689 31.9205L61.7974 28.292L75.5762 42.0708C77.3431 43.8233 79.728 44.8114 82.2166 44.8219H85.2522C85.4976 44.8175 85.7362 44.7414 85.9388 44.603C86.1415 44.4646 86.2991 44.2699 86.3924 44.043C86.4857 43.816 86.5106 43.5668 86.4639 43.3259C86.4172 43.085 86.301 42.863 86.1297 42.6874Z" fill="white"/>
<path d="M232.858 12.0234C229.6 12.0187 226.415 12.9806 223.705 14.7873C220.995 16.594 218.881 19.1642 217.633 22.1726C216.384 25.181 216.056 28.4922 216.69 31.6871C217.325 34.882 218.893 37.8168 221.196 40.12C223.499 42.4232 226.434 43.9913 229.629 44.6256C232.824 45.2599 236.135 44.932 239.143 43.6833C242.152 42.4347 244.722 40.3215 246.529 37.6113C248.335 34.901 249.297 31.7156 249.293 28.4584C249.293 24.0995 247.561 19.9192 244.479 16.837C241.397 13.7549 237.216 12.0234 232.858 12.0234ZM232.858 39.8181C230.61 39.8228 228.411 39.1606 226.54 37.9152C224.669 36.6698 223.209 34.8973 222.346 32.8219C221.482 30.7466 221.254 28.4619 221.69 26.2567C222.125 24.0516 223.205 22.0253 224.793 20.4342C226.381 18.8431 228.405 17.7589 230.609 17.3186C232.813 16.8784 235.099 17.1019 237.176 17.961C239.253 18.8201 241.028 20.2761 242.278 22.1447C243.527 24.0133 244.194 26.2106 244.194 28.4584C244.188 31.4651 242.992 34.3474 240.868 36.4757C238.744 38.604 235.864 39.8056 232.858 39.8181Z" fill="white"/>
<path d="M268.194 12.0234C264.938 12.0234 261.755 12.9893 259.048 14.7988C256.341 16.6084 254.231 19.1803 252.986 22.1891C251.741 25.1979 251.417 28.5084 252.054 31.7017C252.691 34.895 254.261 37.8276 256.565 40.1284C258.869 42.4293 261.804 43.995 264.998 44.6273C268.192 45.2597 271.502 44.9303 274.509 43.681C277.516 42.4316 280.085 40.3185 281.891 37.6088C283.696 34.899 284.658 31.7146 284.653 28.4583C284.647 24.0973 282.91 19.9171 279.824 16.8356C276.738 13.7541 272.555 12.0234 268.194 12.0234ZM268.194 39.8181C265.948 39.8181 263.751 39.1519 261.883 37.9036C260.015 36.6554 258.559 34.8813 257.699 32.8056C256.839 30.7298 256.614 28.4457 257.053 26.2421C257.491 24.0385 258.573 22.0145 260.162 20.4258C261.75 18.8371 263.775 17.7552 265.978 17.3169C268.182 16.8786 270.466 17.1035 272.542 17.9633C274.617 18.8231 276.391 20.279 277.64 22.1471C278.888 24.0153 279.554 26.2116 279.554 28.4583C279.554 31.4711 278.357 34.3605 276.227 36.4909C274.097 38.6213 271.207 39.8181 268.194 39.8181Z" fill="white"/>
<path d="M316.668 12.0229C312.443 12.0229 308.382 13.6541 305.332 16.5763V5.92798C305.335 5.47863 305.249 5.03318 305.078 4.61743C304.908 4.20167 304.656 3.82394 304.339 3.50619C304.021 3.18844 303.643 2.93703 303.227 2.76652C302.812 2.59602 302.366 2.50977 301.917 2.51292C301.464 2.51292 301.03 2.69281 300.709 3.01303C300.389 3.33325 300.209 3.76766 300.209 4.22052V41.5014C300.215 42.4031 300.578 43.2656 301.218 43.9009C301.858 44.5363 302.723 44.8928 303.624 44.8928C303.847 44.8959 304.069 44.8547 304.276 44.7715C304.483 44.6883 304.671 44.5647 304.83 44.408C304.989 44.2513 305.115 44.0647 305.201 43.8588C305.287 43.653 305.332 43.432 305.332 43.2089V40.3394C307.277 42.1906 309.646 43.537 312.232 44.2608C314.818 44.9846 317.542 45.0638 320.165 44.4914C322.789 43.919 325.232 42.7123 327.282 40.9772C329.331 39.242 330.924 37.0311 331.921 34.5379C332.919 32.0446 333.29 29.3451 333.002 26.6753C332.715 24.0054 331.778 21.4466 330.273 19.2227C328.768 16.9989 326.741 15.1777 324.369 13.9184C321.997 12.6592 319.353 12.0001 316.668 11.9992V12.0229ZM316.668 39.8176C314.421 39.8176 312.225 39.1514 310.357 37.9031C308.489 36.6549 307.033 34.8808 306.173 32.8051C305.313 30.7293 305.088 28.4452 305.526 26.2416C305.965 24.038 307.047 22.014 308.635 20.4253C310.224 18.8366 312.248 17.7547 314.452 17.3164C316.655 16.8781 318.939 17.103 321.015 17.9628C323.091 18.8226 324.865 20.2785 326.113 22.1467C327.361 24.0148 328.028 26.2111 328.028 28.4578C328.028 31.4706 326.831 34.36 324.7 36.4904C322.57 38.6208 319.681 39.8176 316.668 39.8176Z" fill="white"/>
<path d="M352.1 12.0234C348.844 12.0234 345.661 12.9893 342.954 14.7988C340.246 16.6084 338.137 19.1803 336.892 22.1891C335.647 25.1979 335.322 28.5084 335.959 31.7017C336.596 34.895 338.166 37.8276 340.47 40.1284C342.775 42.4293 345.709 43.995 348.904 44.6273C352.098 45.2597 355.408 44.9303 358.415 43.681C361.422 42.4316 363.991 40.3185 365.796 37.6088C367.602 34.899 368.563 31.7146 368.559 28.4583C368.552 24.0973 366.816 19.9171 363.73 16.8356C360.644 13.7541 356.461 12.0234 352.1 12.0234ZM352.1 39.8181C349.852 39.8228 347.654 39.1606 345.782 37.9152C343.911 36.6698 342.452 34.8972 341.588 32.8219C340.725 30.7466 340.496 28.4619 340.932 26.2567C341.368 24.0516 342.448 22.0253 344.035 20.4342C345.623 18.8431 347.647 17.7589 349.851 17.3186C352.056 16.8784 354.341 17.1019 356.418 17.961C358.495 18.8201 360.271 20.2761 361.52 22.1447C362.769 24.0133 363.436 26.2106 363.436 28.4583C363.436 31.467 362.243 34.3528 360.117 36.4825C357.992 38.6122 355.109 39.8118 352.1 39.8181Z" fill="white"/>
<path d="M291.578 2.58472C291.355 2.5847 291.134 2.62889 290.928 2.71499C290.722 2.80109 290.535 2.92725 290.379 3.08613C290.222 3.24501 290.098 3.43348 290.015 3.64052C289.932 3.84755 289.891 4.06907 289.894 4.29218V41.502C289.894 42.4015 290.251 43.2641 290.887 43.9001C291.523 44.5361 292.386 44.8933 293.285 44.8933C293.508 44.8965 293.73 44.8553 293.937 44.772C294.144 44.6888 294.332 44.5652 294.491 44.4086C294.65 44.2519 294.776 44.0653 294.862 43.8594C294.949 43.6536 294.993 43.4326 294.993 43.2095V5.92856C294.98 5.03325 294.614 4.17924 293.974 3.5528C293.335 2.92635 292.473 2.57837 291.578 2.58472Z" fill="white"/>
<path d="M384.448 28.4584L393.649 14.229C393.782 14.0247 393.856 13.7883 393.866 13.5449C393.875 13.3016 393.818 13.0603 393.702 12.8465C393.585 12.6327 393.413 12.4543 393.203 12.3303C392.994 12.2063 392.754 12.1413 392.511 12.142C391.411 12.1371 390.327 12.4108 389.361 12.9374C388.395 13.464 387.577 14.2265 386.985 15.154L381.388 23.8576L375.815 15.0354C375.223 14.108 374.406 13.3453 373.44 12.8187C372.473 12.2921 371.39 12.0186 370.289 12.0235C370.046 12.0228 369.807 12.0878 369.597 12.2118C369.387 12.3358 369.215 12.5142 369.099 12.728C368.982 12.9418 368.925 13.183 368.935 13.4264C368.944 13.6697 369.019 13.9061 369.151 14.1105L378.353 28.3398L369.151 42.7115C369.019 42.9159 368.944 43.1523 368.935 43.3956C368.925 43.639 368.982 43.8802 369.099 44.094C369.215 44.3078 369.387 44.486 369.597 44.61C369.807 44.734 370.046 44.7992 370.289 44.7985C371.39 44.8034 372.473 44.5297 373.44 44.0031C374.406 43.4765 375.223 42.714 375.815 41.7866L381.388 33.083L386.985 41.7866C387.577 42.714 388.395 43.4765 389.361 44.0031C390.327 44.5297 391.411 44.8034 392.511 44.7985C392.754 44.7992 392.994 44.734 393.203 44.61C393.413 44.486 393.585 44.3078 393.702 44.094C393.818 43.8802 393.875 43.639 393.866 43.3956C393.856 43.1523 393.782 42.9159 393.649 42.7115L384.448 28.4584Z" fill="white"/>
<path d="M220.194 10.245C221.096 10.2451 221.961 9.88854 222.601 9.25321C223.241 8.61789 223.603 7.75532 223.609 6.85371C223.609 6.62948 223.565 6.40734 223.479 6.20017C223.394 5.993 223.268 5.80477 223.109 5.64622C222.951 5.48766 222.763 5.36191 222.555 5.27609C222.348 5.19028 222.126 5.14611 221.902 5.14611H197.024C196.118 5.14611 195.25 5.50588 194.609 6.14632C193.969 6.78677 193.609 7.65544 193.609 8.56117C193.609 8.7843 193.653 9.00524 193.74 9.21109C193.826 9.41694 193.952 9.6036 194.111 9.76027C194.27 9.91694 194.458 10.0405 194.665 10.1237C194.872 10.2069 195.094 10.2482 195.317 10.245H206.06V41.5022C206.06 42.4017 206.417 43.2643 207.053 43.9003C207.689 44.5363 208.552 44.8935 209.451 44.8935C209.674 44.8967 209.896 44.8555 210.103 44.7723C210.31 44.689 210.498 44.5655 210.657 44.4088C210.816 44.2521 210.942 44.0655 211.028 43.8596C211.114 43.6538 211.159 43.4328 211.159 43.2097V10.245H220.194Z" fill="white"/>
<path d="M26.1757 32.3715V37.1146C26.1757 38.3726 25.676 39.5789 24.7865 40.4684C23.897 41.3579 22.6905 41.8577 21.4326 41.8577H11.2348C9.97685 41.8577 8.77041 41.3579 7.8809 40.4684C6.99139 39.5789 6.49168 38.3726 6.49168 37.1146V11.0274C6.49168 9.76944 6.99139 8.56293 7.8809 7.67342C8.77041 6.78391 9.97685 6.28427 11.2348 6.28427H21.4326C22.6905 6.28427 23.897 6.78391 24.7865 7.67342C25.676 8.56293 26.1757 9.76944 26.1757 11.0274V11.6439C28.1981 10.9841 30.3873 11.0513 32.3654 11.8336V11.0274C32.3654 9.59478 32.0833 8.17612 31.535 6.85255C30.9868 5.52899 30.1833 4.32646 29.1703 3.31344C28.1573 2.30043 26.9546 1.49678 25.631 0.948539C24.3074 0.4003 22.8889 0.118115 21.4562 0.118115H11.2585C9.82704 0.118112 8.40963 0.400444 7.08739 0.948973C5.76516 1.4975 4.56411 2.30142 3.55299 3.31475C2.54187 4.32807 1.74053 5.53101 1.19488 6.85443C0.649234 8.17786 0.369954 9.5959 0.373073 11.0274V37.1146C0.373073 40.0016 1.51996 42.7703 3.56138 44.8118C5.60281 46.8532 8.37154 48 11.2585 48H21.4562C24.3454 48 27.1167 46.854 29.1619 44.8132C31.2071 42.7725 32.3592 40.0038 32.3654 37.1146V25.2568L26.1757 32.3715Z" fill="white"/>
<path d="M21.1948 30.9244L32.1514 18.2841C32.2396 18.2 32.3099 18.0988 32.3579 17.9867C32.4059 17.8745 32.4307 17.7538 32.4307 17.6319C32.4307 17.5099 32.4059 17.3892 32.3579 17.2771C32.3099 17.165 32.2396 17.0638 32.1514 16.9796C31.2081 16.1926 29.9963 15.8022 28.771 15.8907C27.5457 15.9792 26.4026 16.5396 25.5822 17.454L18.7995 25.2801C18.7638 25.3205 18.7201 25.3529 18.671 25.3751C18.6219 25.3972 18.5687 25.4086 18.5149 25.4086C18.461 25.4086 18.4078 25.3972 18.3588 25.3751C18.3097 25.3529 18.2659 25.3205 18.2303 25.2801L15.669 22.1971C15.5488 22.0568 15.3997 21.9443 15.2318 21.8671C15.064 21.7899 14.8814 21.75 14.6967 21.75C14.512 21.75 14.3294 21.7899 14.1616 21.8671C13.9937 21.9443 13.8446 22.0568 13.7243 22.1971C12.9558 23.0276 12.5095 24.1057 12.466 25.2364C12.4225 26.3671 12.7847 27.4761 13.4872 28.3633L15.5504 30.9482C15.9038 31.3494 16.339 31.6704 16.8267 31.8895C17.3144 32.1086 17.8433 32.2207 18.3779 32.2185C18.9126 32.2163 19.4406 32.0996 19.9265 31.8765C20.4123 31.6533 20.8447 31.3286 21.1948 30.9244Z" fill="white"/>
</svg>
