<svg width="40" height="41" viewBox="0 0 40 41" fill="none" xmlns="http://www.w3.org/2000/svg">
<rect y="0.5" width="40" height="40" rx="8" fill="#52C5D0"/>
<path fill-rule="evenodd" clip-rule="evenodd" d="M11.6667 11.5C10.7462 11.5 10 12.2326 10 13.1364V27.8636C10 28.7674 10.7462 29.5 11.6667 29.5H28.3333C29.2538 29.5 30 28.7674 30 27.8636V13.1364C30 12.2326 29.2538 11.5 28.3333 11.5H11.6667ZM19.1667 16.4091C18.7064 16.4091 18.3333 16.7754 18.3333 17.2273V18.0455C18.3333 18.4973 18.7064 18.8636 19.1667 18.8636H26.6667C27.1269 18.8636 27.5 18.4973 27.5 18.0455V17.2273C27.5 16.7754 27.1269 16.4091 26.6667 16.4091H19.1667ZM18.3333 21.3182C18.3333 20.8663 18.7064 20.5 19.1667 20.5H26.6667C27.1269 20.5 27.5 20.8663 27.5 21.3182V22.1364C27.5 22.5882 27.1269 22.9545 26.6667 22.9545H19.1667C18.7064 22.9545 18.3333 22.5882 18.3333 22.1364V21.3182ZM13.3333 24.5909C12.8731 24.5909 12.5 24.9572 12.5 25.4091V26.2273C12.5 26.6791 12.8731 27.0455 13.3333 27.0455H15.8333C16.2936 27.0455 16.6667 26.6791 16.6667 26.2273V25.4091C16.6667 24.9572 16.2936 24.5909 15.8333 24.5909H13.3333ZM19.1667 24.5909C18.7064 24.5909 18.3333 24.9572 18.3333 25.4091V26.2273C18.3333 26.6791 18.7064 27.0455 19.1667 27.0455H26.6667C27.1269 27.0455 27.5 26.6791 27.5 26.2273V25.4091C27.5 24.9572 27.1269 24.5909 26.6667 24.5909H19.1667ZM12.5 21.3182C12.5 20.8663 12.8731 20.5 13.3333 20.5H15.8333C16.2936 20.5 16.6667 20.8663 16.6667 21.3182V22.1364C16.6667 22.5882 16.2936 22.9545 15.8333 22.9545H13.3333C12.8731 22.9545 12.5 22.5882 12.5 22.1364V21.3182ZM13.3333 16.4091C12.8731 16.4091 12.5 16.7754 12.5 17.2273V18.0455C12.5 18.4973 12.8731 18.8636 13.3333 18.8636H15.8333C16.2936 18.8636 16.6667 18.4973 16.6667 18.0455V17.2273C16.6667 16.7754 16.2936 16.4091 15.8333 16.4091H13.3333Z" fill="white"/>
</svg>
