<?xml version="1.0" encoding="UTF-8"?>
<svg id="Layer_1" data-name="Layer 1" xmlns="http://www.w3.org/2000/svg" viewBox="0 0 1000 444.44">
  <defs>
    <style>
      .cls-1 {
        fill: #fff;
      }
    </style>
  </defs>
  <path class="cls-1" d="M269.64,94.03v59.83h82.62v-59.62h14.9V228.61h-14.84v-61.1h-82.5v61.14h-14.81V94.03h14.64Zm466.92,73.47v-13.19h-58.06v-47.15h59.8v-12.93h-74.6V228.7h76.34v-12.84h-61.57v-48.36h58.09Zm-60.7-112.39l-41.91-48.65h-4.15V63.11h4.44V13.44l42.9,49.66h3.62V6.42h-4.33V54.93l-.58,.18Zm-206.93,214.62l42.44,49.1h3.7v-56.64h-4.42v49.3l-42.47-49.29h-4.09v56.59h4.27v-48.86l.57-.2ZM713.89,6.27c-10.4,2.33-17.99,8.34-21.41,18.57-3.53,10.54-1.93,20.49,5.57,28.97,7.8,8.83,17.89,11.42,29.26,9.75,5.14-.76,10.17-2.01,14.66-4.44v-21.7h-16.2v3.66h11.71v15.27c-6.07,2.36-12.22,4.11-18.69,3.5-10.06-.96-17.61-6.01-21.14-15.58-3.56-9.65-2.38-18.98,4.85-26.8,6.9-7.47,15.81-8.83,25.27-7,4.48,.87,8.77,2.76,13.13,4.18v-4.3c-8.64-4.24-17.56-6.18-26.99-4.07Zm-63.11,255.22c-25.64,3.83-31.89,29.96-21.03,45.62,10.76,15.51,32.41,15.38,45.44,7.01v-4.23c-1.94,.86-3.56,1.62-5.2,2.31-5.79,2.52-12.12,3.54-18.41,2.95-12.03-1.24-20.42-10.01-21.62-22.67-1.14-12.01,5.96-22.7,17.33-25.89,7.93-2.23,15.61-1.09,23.05,2.18,1.33,.58,2.66,1.18,4.06,1.8,.19-.33,.33-.69,.42-1.06,.04-1.06,.02-2.12,.02-3.28-6.6-3.79-16.06-5.94-24.04-4.74Zm-291.6,.73c-11.07,3-18.88,9.86-21.46,21.36-2.43,10.81-.09,20.64,8.36,28.25,8.59,7.74,18.87,9.39,29.86,6.85,3.96-.91,7.74-2.6,11.6-3.93l-.33-.67v-4.12c-1.94,.86-3.57,1.62-5.23,2.3-5.79,2.5-12.12,3.49-18.4,2.88-10.55-1.11-19.09-8.81-21-18.96-2.27-12.08,2.51-22.95,12.47-27.85,9.18-4.51,18.37-3.39,27.46,.46,1.33,.56,2.63,1.2,4.29,1.95v-4.82c-8.88-4.02-18.03-6.29-27.61-3.69h0ZM375.23,5.55c-17.75,1.08-32.48,16.62-27.23,37.16,2.94,11.51,12.82,19.68,25.04,21.05,8.72,.98,16.84-.94,24.33-5.03v-4.56c-1.21,.55-2.16,.99-3.12,1.42-6.92,3.1-14.04,4.89-21.71,3.7-10.92-1.69-18.84-9.89-20.33-21.19-1.51-11.43,4.31-22.06,14.52-26.21,8.13-3.3,16.25-2.58,24.26,.56,1.86,.73,3.68,1.58,5.67,2.43,.12-.45,.2-.9,.25-1.36,.03-1.05,.01-2.11,.01-3.25-6.98-3.28-14.11-5.18-21.71-4.72h0Zm92.38,30.63h25.83c-.12-1.37-.21-2.38-.32-3.65h-25.58V10h26.21v-3.52h-30.82V63.03h31.61v-3.41h-26.93v-23.45Zm85.94,254.75v-3.73h-22.09v-21.39h24.49v-3.66h-28.97v56.6h4.34v-27.82h22.23ZM583.68,9.86h21.13c-.09-1.38-.16-2.39-.23-3.44h-46.8v3.77h21.25V63.14h4.65V9.86Zm99.88,252.33l.23,3.82h21.32v52.83h4.45v-53.05h21.09v-3.6h-47.1Zm-117.1,56.58h32.44c-.07-1.24-.13-2.25-.21-3.64h-28.15v-53.05h-4.08v56.68Zm-258.63-22.49l-29.12-33.81h-2.73v38.84l2.95-.19v-33.75c1.55,1.78,2.6,2.98,3.63,4.18,8.07,9.34,16.14,18.69,24.21,28.04,1.07,1.24,2.06,2.55,4.08,1.37v-38.15c-.31-.18-.64-.32-.98-.42-.51-.06-1.04-.02-2.05-.02v33.9Zm301.1,22.6h4.2v-56.79h-4.2v56.79ZM617.82,6.47h-4.15V63.12h4.15V6.47Zm104.7,370.71c.88,.93,1.31,1.36,1.71,1.82,5.03,5.78,10.05,11.57,15.07,17.36,.98,1.14,1.89,2.43,3.81,1.29v-25.34h-2.84v20.85c-5.92-6.83-11.28-13.02-16.66-19.21-.96-1.11-1.84-2.45-3.71-1.45v25.46h2.62v-20.78Zm-268.53,40.3c5.91,6.82,11.26,13.01,16.62,19.2,.98,1.13,1.87,2.44,3.89,1.5v-25.53l-2.83,.28v20.43c-1.13-1.23-1.85-1.97-2.53-2.75-4.68-5.38-9.32-10.81-14.07-16.13-.85-.95-2.18-1.47-3.82-2.53v26.37h2.74v-20.84Zm117.56-39.79c.35,.36,.71,.71,1.04,1.09,5.1,5.87,10.19,11.75,15.28,17.63,1,1.16,1.95,2.34,3.75,1.28v-25.51c-.96,.06-1.66,.11-2.71,.17v20.86c-1.09-1.23-1.63-1.83-2.17-2.45-4.89-5.63-9.78-11.26-14.66-16.89-1-1.16-1.92-2.33-3.68-1.37v25.56l2.52-.19v-19.93c.21-.08,.42-.17,.63-.25h0Zm120.52,55.44c-.4-.47-.8-.94-1.21-1.41-5.03-5.8-10.05-11.59-15.08-17.39-1-1.16-1.94-2.34-3.79-1.3v25.37l2.78-.13v-20.77c.88,1,1.29,1.46,1.69,1.93,5.02,5.8,10.05,11.6,15.07,17.4,1.01,1.17,1.97,2.28,3.8,1.27v-25.38l-2.67,.15v19.99l-.6,.27Zm-178.64-59.33c-1-1.26-2.02-2.19-3.9-1.31v25.42h2.68v-20.3l.61-.16c2.76,3.39,5.52,6.78,8.44,10.37l8.4-10.36c.24,.08,.48,.16,.71,.24v20.33l2.58-.12v-25.68c-.83,0-1.76-.27-2.05,.04-3.27,3.56-6.45,7.22-9.78,10.99-2.62-3.2-5.2-6.3-7.71-9.45Zm-56.64-1.62l-2.74,.19v25.5h2.95v-11.36h15.61v11.52l2.77-.16v-25.53h-2.98v11.17h-15.61v-11.32Zm-63.84,59.29v-5.07h-8.15c.12,.93,.21,1.59,.3,2.29l4.61,.34v6.24c-2.56,.3-4.96,.88-7.34,.81-5.67-.17-9.81-4.78-9.8-10.54,0-5.7,4.26-10.51,9.88-10.43,2.98,.04,5.94,1.25,8.92,1.92,.27,.06,.55,.08,.89,.14v-2.5c-4-2.06-6.72-2.65-10.54-2.33-6.67,.48-11.94,5.84-12.3,12.51-.4,6.32,3.81,12.01,9.98,13.47,4.59,1.08,9.42,.43,13.56-1.84v-5.01Zm320.06-19.11c-5.93,.5-10.79,4.92-11.85,10.77-1.03,6.26,1.88,12.05,7.51,14.38,5.32,2.21,10.55,1.53,15.47-.88v-10.18h-7.99c.22,.99,.38,1.66,.51,2.27l4.7,.3v6.11c-2.44,.35-4.81,.99-7.17,.97-5.85-.06-10.15-4.69-10.12-10.54,.03-5.86,4.35-10.58,10.16-10.48,3.11,.05,6.2,1.05,9.43,1.65,.03-.38,.09-1.19,.16-2.11-3.29-1.83-7.05-2.61-10.79-2.25h0Zm-212.56-36.75c-.01,4.04,.08,8.09-.07,12.12-.19,5.09-3.24,8.04-8.01,8.01-4.81-.04-7.77-3.01-7.93-8.08-.08-2.66-.03-5.32-.03-7.98,0-2.42,0-4.84,0-7.5l-2.99,.22c0,4.99-.02,9.75,.01,14.52,0,1.06,.1,2.12,.28,3.17,.91,4.96,4.83,8.12,10.23,8.29,5.43,.18,10.36-2.65,10.84-7.38,.62-6.16,.15-12.42,.15-18.8l-2.48,.13c0,1.2,0,2.24,0,3.28h0Zm53.75,62.81l2.82-.23v-11.33h15.65v11.45h2.65v-25.45h-2.8v11.03h-15.59v-11.03l-2.73-.2v25.76Zm179.26-2.56v-9.12h11.13l-.55-2.79h-10.51v-8.82h11.21c-.06-.96-.1-1.62-.14-2.36h-14.01v25.56h14.13c.13-.34,.22-.69,.29-1.05,0-.47-.04-.95-.1-1.42h-11.44Zm-67.88-9.14c-.14-1.11-.23-1.79-.35-2.73h-10.62v-8.89h11.45c-.28-1.12-.44-1.77-.56-2.25h-13.86v25.49h14.33c.04-.78,.07-1.44,.11-2.42h-11.45v-9.19h10.94Zm-127.47,9.16c-5.31,.13-9.27-3.73-9.94-8.92-.72-5.06,2.37-9.89,7.26-11.37,4.04-1.3,7.75-.15,11.41,1.49,.28,.07,.58,.09,.87,.07v-2.52c-7.57-3.91-15.38-2.82-19.86,2.7-3.95,4.91-3.89,11.93,.14,16.78,4.55,5.32,12.81,6.28,20.02,2.21v-2.19c-3.37,.63-6.63,1.68-9.91,1.76h0Zm77.03-60.98v22.98h3.06v-23.25h9.09c-.16-1.01-.26-1.68-.36-2.27h-20.91v2.54h9.12Zm-350.4-73.72h2.77v-38.91l-2.77,.3v38.61Zm345.9,137.14h14.76v-2.45h-11.97v-23.12h-2.8v25.57Zm23.3-2.47v-23.19l-2.72,.21v25.45h14.64c.05-.76,.09-1.36,.17-2.47h-12.09Zm-36.65-37.79l2.64-.23v-25.47h-2.64v25.71Zm85.27,0l2.59-.2v-25.48h-2.59v25.69Zm52.64-116.44v7.75h5.07v-7.75h-5.07Zm.06,37.21h4.96v-8.01h-4.96v8.01Zm-247.35-91.93c-23.4,7.44-46.05,5-66.52-9.17-19.08-13.21-28.67-31.96-29.05-55.13-.59-35.93,24.44-64.68,60.19-69.46,3.9-.52,7.84-.69,10.33-.9,24.26,.35,43.86,7.94,58.46,25.99,28.02,34.66,17.57,92.45-33.42,108.67h0Zm31.35-77.21c-5.8-26.06-27.56-43.2-54.82-43.4-3.39,.32-6.81,.44-10.15,1.01-20.86,3.56-35.57,15.1-42.6,35.06-7.23,20.55-4.23,39.97,10.7,56.3,14.49,15.85,33.01,20.6,53.86,16.62,29.57-5.6,49-34.12,43.4-63.69-.12-.64-.25-1.27-.39-1.9h0Zm123.32-5.75c-4.16,12.23-13.13,19.18-25.27,22.04-5.65,1.33-11.57,1.77-17.39,2.02-7.64,.33-15.31,.08-23.52,.08v60.63h-14.78V94.25c.91-.07,1.83-.2,2.74-.2,12.04-.01,24.09-.05,36.13,0,7.49,.04,14.89,.88,21.94,3.63,13.45,5.26,20.63,15.23,21.94,29.5,.6,5.64,0,11.34-1.78,16.73h0Zm-14.23-16.45c-.55-8.16-4.63-14-12.21-17.24-4.84-2-10.03-3.01-15.26-2.96-7.25-.05-14.49-.03-21.74-.02-.82,0-1.64,.14-2.51,.22v47.38c3.36,0,6.53,.09,9.7-.02,7.76-.26,15.58-.07,23.26-1.05,10.35-1.32,16.84-7.53,18.47-16.77,.48-3.16,.57-6.36,.29-9.54h0Zm-172.65,164.37c-.44,13.66-10.73,24.98-24.99,27.48-15.5,2.72-30.62-6.58-34.48-21.19-5.11-19.34,8.93-36.94,29.43-36.91,17.72,.03,30.61,13.16,30.05,30.62h0Zm-5.09-1.33c.07-13.97-10.72-24.85-24.8-25.01-14.13-.16-25.37,10.78-25.46,24.78-.27,13.63,10.56,24.91,24.19,25.18,.27,0,.54,0,.81,0,14.2,0,25.18-10.84,25.25-24.95h0Zm3.11-227.42h-5.41c-3.21-5.03-6.47-10.13-9.72-15.24-.46-.72-.87-1.47-1.36-2.16-6.83-9.67-7.64-10.45-22.24-9.45v26.81h-4.37V5.95c7.31,.32,14.48,.07,21.46,1.07,8.87,1.27,13.78,9.56,11.46,18.04-1.36,4.97-5.12,7.64-9.68,9.63,7.66,8.62,13,18.75,19.86,28.41h0Zm-14.75-42.26c-.09-4.9-3.02-9.11-7.85-9.9-5.17-.85-10.48-.86-15.95-1.25v22.84c5.58-.45,10.89-.5,16.05-1.42,4.96-.88,7.83-5.24,7.74-10.27Zm122.91,42.23h-4.68c-2.94-6.35-5.96-12.89-8.96-19.38h-27.75c-3,6.5-5.97,12.95-8.97,19.45h-4.69l26.09-57.29h2.71l26.25,57.23Zm-15.59-23.64c-4-8.78-7.84-17.2-11.97-26.25l-12.03,26.25h24Zm-42.97,386.79c-.17,5.5-2.83,9.76-8.04,10.99-4.79,1.13-9.82,1.22-15.21,1.82v-26.44c5.43,.24,10.75-.67,15.87,1.45,5.17,2.14,7.56,6.07,7.38,12.17h0Zm-3.04-.72c-.03-5.22-2.76-8.84-7.81-9.76-2.99-.54-6.08-.5-9.37-.74v20.89c2.31,0,4.33,.04,6.34-.02,.96-.06,1.9-.2,2.83-.42,5.19-1.06,8.04-4.61,8-9.94h0Zm-82.38,12.88c-1.39,.06-2.28,.1-3,.13-4.38-4.14-5.19-11.94-13.61-11.85v11.61l-2.98,.18v-25.95c3.37,.19,6.76,.11,10.04,.64,2.73,.44,4.4,2.51,4.88,5.29,.5,2.47-.5,5.01-2.57,6.46-.41,.32-.87,.58-1.26,.84,2.83,4.21,5.54,8.24,8.5,12.65h0Zm-8.47-16.57c.66-1.4,.63-3.03-.07-4.41-1.85-2.79-4.93-2.26-7.99-2.08v8.71c3.1-.12,6.31,.82,8.07-2.22h0Zm267.98-23.9l-3.26,.16c-2.06-2.99-3.97-5.8-5.92-8.57-1.74-2.47-4.09-3.61-7.68-3.03v11.38l-2.61,.22v-25.63c2.95,0,5.9-.21,8.81,.06,2.97,.28,5.2,1.92,5.84,5.03,.64,3.1-.24,5.68-3.06,7.4-.21,.14-.42,.3-.61,.47,2.76,4.07,5.48,8.06,8.5,12.51h0Zm-8.43-16.56c.64-1.39,.61-3-.1-4.37-1.93-2.86-5.07-2.28-8.18-2.05v8.69c3.17-.15,6.46,.89,8.27-2.27h0Zm-15.88,16.56h-3.04l-3.66-7.89h-11.77c-1.2,2.6-2.39,5.19-3.64,7.9l-3.06,.15c3.92-8.89,7.66-17.38,11.6-26.34,.9,.54,1.95,.79,2.24,1.4,3.77,8.07,7.42,16.2,11.32,24.78h0Zm-8.05-10.89c-1.58-3.47-3-6.62-4.66-10.26l-4.49,10.26h9.15Zm-212.31,10.93h-2.99l-3.71-7.89h-11.8c-1.2,2.61-2.4,5.2-3.64,7.9h-2.47c-.1-.29-.27-.52-.21-.66,3.64-8.27,7.28-16.53,11-24.76,.17-.37,1.09-.39,1.97-.67,4.01,8.84,7.85,17.32,11.83,26.08h0Zm-8.09-10.86c-1.54-3.44-2.94-6.58-4.63-10.38l-4.5,10.38h9.13Zm138.19,10.83h-3.02l-3.63-7.85h-11.85l-3.57,7.84-3.1,.18c3.93-8.91,7.65-17.34,11.68-26.46,.93,.58,1.88,.82,2.14,1.38,3.79,8.17,7.49,16.39,11.35,24.9Zm-8.04-10.89c-1.57-3.46-3-6.61-4.65-10.24l-4.5,10.24h9.15Zm-108.33,51.27l-2.93,.18c-1.3-2.78-2.51-5.36-3.77-8.04h-11.73l-3.69,7.93h-2.98c3.88-8.79,7.63-17.31,11.73-26.58,1.01,.84,1.83,1.2,2.11,1.8,3.74,8.08,7.4,16.2,11.27,24.71Zm-7.99-10.76l-4.75-10.35c-1.6,3.72-2.97,6.91-4.45,10.35h9.2Zm276.57-29.61h-2.98l-3.72-7.87h-11.77c-1.13,2.46-2.31,5.04-3.58,7.82h-3c3.84-8.72,7.55-17.15,11.47-26.03,.85,.42,1.98,.6,2.25,1.18,3.8,8.16,7.48,16.38,11.33,24.9h0Zm-8.04-10.89c-1.57-3.45-3-6.61-4.66-10.27-1.63,3.76-3.03,6.98-4.46,10.27h9.11Zm-101.82,51.29h-3.01c-1.25-2.69-2.46-5.27-3.69-7.92h-11.73c-1.19,2.58-2.37,5.17-3.63,7.91h-3.03c3.9-8.81,7.66-17.33,11.79-26.66,1.05,1,1.8,1.41,2.09,2.03,3.73,8.09,7.4,16.22,11.22,24.63h0Zm-8.03-10.77c-1.51-3.38-2.92-6.55-4.66-10.46-1.65,3.87-3.03,7.08-4.47,10.46h9.13Z"/>
</svg>