<?xml version="1.0" encoding="UTF-8" standalone="no"?>
<!-- Generator: Adobe Illustrator 26.4.1, SVG Export Plug-In . SVG Version: 6.00 Build 0)  -->

<svg
   version="1.0"
   id="Layer_1"
   x="0px"
   y="0px"
   viewBox="0 -1 312.90268 117.94436"
   xml:space="preserve"
   width="254.97563"
   height="96.109558"
   xmlns="http://www.w3.org/2000/svg"
   xmlns:svg="http://www.w3.org/2000/svg"><defs
   id="defs11" />&#10;<style
   type="text/css"
   id="style1">&#10; .st0{fill:#fff;}&#10;</style>&#10;<g
   id="g11"
   transform="matrix(0.97261669,0,0,0.92881931,-9.3577284,-51.507671)">&#10;	<rect
   x="139.9823"
   y="71.339912"
   class="st0"
   width="8.8299999"
   height="61.450001"
   id="rect1" />&#10;	<path
   class="st0"
   d="m 193.8623,125.39991 c -12.89,0 -23.88,-9.19 -23.88,-23.16 0,-10.269996 6.94,-23.429996 24.15,-23.429996 16.04,0 23.79,12.89 23.79,23.059996 0,5.32 -2.25,11.98 -6.13,16.22 -4.23,4.61 -11.35,7.31 -17.93,7.31 m 33.07,-23.42 c 0,-16.489996 -12.7,-31.439996 -33.16,-31.439996 -20.99,0 -32.89,15.41 -32.89,31.709996 0,17.12 13.15,31.35 32.43,31.35 20.1,0 33.62,-13.96 33.62,-31.62"
   id="path1" />&#10;	<polygon
   class="st0"
   points="249.09,101.79 250.71,101.79 269.63,78.01 269.63,125.85 278.46,125.85 278.46,64.4 270.26,64.4 249.9,89.63 229.44,64.4 221.16,64.4 221.16,125.85 229.99,125.85 229.99,78.01 "
   id="polygon1"
   transform="translate(17.582301,6.9399138)" />&#10;	<path
   class="st0"
   d="m 60.532301,156.06991 c 0,2.01 -0.18,3.09 -0.58,3.81 -0.55,0.99 -2.02,2.7 -5.39,2.7 -2.42,0 -3.8,-0.81 -4.69,-1.71 -1.07,-1.05 -1.32,-2.1 -1.32,-4.8 v -11.62 h -3 v 11.62 c 0,1.38 0,3.75 1.16,5.56 1.65,2.58 4.9,3.57 7.84,3.57 2.39,0 4.72,-0.6 6.59,-2.22 2.36,-2.07 2.36,-4.93 2.36,-6.91 v -11.62 h -2.97 z"
   id="path2" />&#10;	<polygon
   class="st0"
   points="73.21,157.99 73.21,137.51 70.37,137.51 70.37,153.4 56.27,137.51 53.85,137.51 53.85,157.99 56.67,157.99 56.67,142.23 70.64,157.99 "
   id="polygon2"
   transform="translate(17.582301,6.9399138)" />&#10;	<polygon
   class="st0"
   points="102.32,149.98 108.75,142.05 108.75,157.99 111.75,157.99 111.75,137.51 108.97,137.51 102.04,145.92 95.09,137.51 92.27,137.51 92.27,157.99 95.27,157.99 95.27,142.05 101.77,149.98 "
   id="polygon3"
   transform="translate(17.582301,6.9399138)" />&#10;	<rect
   x="137.6723"
   y="144.44991"
   class="st0"
   width="3"
   height="20.48"
   id="rect3" />&#10;	<path
   class="st0"
   d="m 159.2423,157.45991 h 4.01 v 4.26 c -1.99,0.63 -3.03,0.9 -4.56,0.9 -5.05,0 -8.39,-3.39 -8.39,-7.93 0,-4.84 3.95,-7.9 8.12,-7.9 1.16,0 3.98,0.18 7.41,2.13 v -3 c -2.24,-0.93 -4.41,-1.74 -7.35,-1.74 -7.17,0 -11.3,5.29 -11.3,10.69 0,4.65 3.34,10.33 11.43,10.33 3.49,0 6.07,-0.99 7.66,-1.68 v -8.65 h -7.02 v 2.59 z"
   id="path3" />&#10;	<path
   class="st0"
   d="m 181.2923,153.09991 c -0.83,0.3 -2.45,0.3 -2.91,0.3 h -1.16 v -6.46 h 0.92 c 1.81,0 2.79,0.12 3.55,0.48 0.98,0.45 1.59,1.56 1.59,2.73 0.01,1.12 -0.58,2.41 -1.99,2.95 m 1.57,2.1 c 2.27,-0.87 3.49,-2.67 3.49,-5.05 0,-2.07 -1.04,-4.11 -3.28,-5.05 -1.32,-0.57 -2.6,-0.66 -3.58,-0.66 h -5.24 v 20.48 h 2.97 v -8.92 h 0.8 c 1.44,0 2.45,0 4.5,2.58 0.67,0.87 3.58,5.35 4.29,6.34 h 3.55 c -1.44,-1.98 -1.96,-2.67 -2.85,-4.08 -1.59,-2.51 -2.75,-4.41 -4.65,-5.64"
   id="path4" />&#10;	<path
   class="st0"
   d="m 200.4723,156.24991 3.12,-7.42 3.37,7.42 z m 2.12,-11.92 -8.98,20.6 h 3.06 l 2.63,-6.04 h 8.88 l 2.79,6.04 h 3.06 l -9.34,-20.6 z"
   id="path5" />&#10;	<polygon
   class="st0"
   points="204.75,140.09 204.75,157.99 207.75,157.99 207.75,140.09 215.04,140.09 215.04,137.51 197.58,137.51 197.58,140.09 "
   id="polygon5"
   transform="translate(17.582301,6.9399138)" />&#10;	<rect
   x="239.21231"
   y="144.44991"
   class="st0"
   width="3"
   height="20.48"
   id="rect5" />&#10;	<path
   class="st0"
   d="m 265.7423,160.03991 c -1.44,1.53 -3.86,2.43 -6.1,2.43 -4.38,0 -8.12,-3.06 -8.12,-7.72 0,-3.42 2.36,-7.81 8.21,-7.81 5.45,0 8.09,4.3 8.09,7.69 0,1.78 -0.77,4 -2.08,5.41 m -6.13,-15.86 c -7.14,0 -11.18,5.14 -11.18,10.57 0,5.71 4.47,10.45 11.03,10.45 6.83,0 11.43,-4.66 11.43,-10.54 -0.01,-5.49 -4.33,-10.48 -11.28,-10.48"
   id="path6" />&#10;	<polygon
   class="st0"
   points="278.42,157.99 278.42,137.51 275.57,137.51 275.57,153.4 261.48,137.51 259.06,137.51 259.06,157.99 261.88,157.99 261.88,142.23 275.85,157.99 "
   id="polygon6"
   transform="translate(17.582301,6.9399138)" />&#10;	<path
   class="st0"
   d="m 77.152301,96.269914 c 0.69,0 1.25,-0.56 1.25,-1.25 0,-0.69 -0.56,-1.25 -1.25,-1.25 -0.69,0 -1.25,0.56 -1.25,1.25 0,0.69 0.56,1.25 1.25,1.25"
   id="path7" />&#10;	<path
   class="st0"
   d="m 72.412301,103.77991 c 0.09,0.06 0.19,0.08 0.28,0.08 0.21,0 0.41,-0.12 0.49,-0.33 l 2.23,-5.249996 0.17,5.109996 -0.84,6.48 c -0.03,0.25 0.1,0.51 0.35,0.59 0.06,0.02 0.12,0.03 0.19,0.03 0.27,0 0.5,-0.2 0.53,-0.47 l 0.8,-6.17 h 1.08 l 0.8,6.17 c 0.03,0.27 0.27,0.47 0.53,0.47 0.06,0 0.12,-0.01 0.19,-0.03 0.24,-0.09 0.37,-0.34 0.35,-0.59 l -0.84,-6.48 0.16,-5.109996 2.23,5.249996 c 0,0 0,0 0,0 0.01,0.03 0.03,0.06 0.04,0.08 0,0.01 0.01,0.01 0.02,0.02 0.01,0.02 0.03,0.04 0.04,0.06 0.01,0.01 0.01,0.01 0.02,0.02 0.02,0.02 0.04,0.04 0.06,0.05 0,0 0.01,0.01 0.01,0.01 0.03,0.02 0.05,0.03 0.08,0.04 0.01,0 0.02,0 0.02,0.01 0.02,0.01 0.04,0.02 0.07,0.02 0.01,0 0.02,0 0.03,0.01 0.03,0.01 0.06,0.01 0.1,0.01 0,0 0,0 0,0 h 0.45 l -0.72,3.65 c -0.05,0.26 0.02,0.53 0.18,0.73 0.1,0.13 0.24,0.22 0.39,0.27 v 1.54 c 0,0.25 0.2,0.45 0.45,0.45 0.25,0 0.45,-0.2 0.45,-0.45 v -1.49 0 c 0.02,0 0.03,0 0.04,0 h 0.29 0.29 v 0 c 0.02,0 0.03,0 0.04,0 v 0 1.49 c 0,0.25 0.2,0.45 0.45,0.45 0.25,0 0.45,-0.2 0.45,-0.45 v -1.55 c 0.15,-0.05 0.29,-0.15 0.39,-0.27 0.17,-0.21 0.24,-0.47 0.18,-0.73 l -0.72,-3.64 h 0.45 v 0 c 0.03,0 0.06,0 0.1,-0.01 0.01,0 0.02,0 0.03,-0.01 0.02,0 0.05,-0.01 0.07,-0.02 0.01,0 0.02,-0.01 0.02,-0.01 0.03,-0.01 0.06,-0.03 0.08,-0.04 0,0 0.01,-0.01 0.01,-0.01 0.02,-0.01 0.04,-0.03 0.06,-0.05 0.01,-0.01 0.01,-0.01 0.02,-0.02 0.02,-0.02 0.03,-0.04 0.04,-0.06 0,-0.01 0.01,-0.01 0.02,-0.02 0.02,-0.03 0.03,-0.05 0.04,-0.08 0,0 0,0 0,0 l 2.31,-5.439996 0.45,2.209996 c 0.07,0.36 0.06,0.74 -0.03,1.11 l -2.11,9.09 h 2.91 0.74 2.91 l -2.11,-9.1 c -0.09,-0.35 -0.1,-0.73 -0.03,-1.09 l 0.46,-2.229996 1.78,4.379996 c 0.08,0.21 0.29,0.34 0.5,0.34 0.07,0 0.14,-0.01 0.2,-0.04 0.27,-0.11 0.41,-0.43 0.3,-0.7 l -2,-4.899996 c -0.08,-0.2 -0.28,-0.34 -0.5,-0.34 h -0.03 -0.87 -0.62 -0.74 -0.6 -0.89 -0.01 c -0.22,0 -0.41,0.13 -0.49,0.33 l -2.4,5.649996 h -2.37 l -2.4,-5.649996 c -0.08,-0.2 -0.28,-0.33 -0.5,-0.33 h -1.92 -1.92 c -0.22,0 -0.41,0.13 -0.49,0.33 l -2.53,5.949996 c -0.05,0.24 0.03,0.54 0.26,0.68"
   id="path8" />&#10;	<path
   class="st0"
   d="m 89.082301,96.269914 c 0.69,0 1.25,-0.56 1.25,-1.25 0,-0.69 -0.56,-1.25 -1.25,-1.25 -0.69,0 -1.25,0.56 -1.25,1.25 0,0.69 0.56,1.25 1.25,1.25"
   id="path9" />&#10;	<path
   class="st0"
   d="m 83.142301,102.50991 c 0.52,0 0.94,-0.42 0.94,-0.94 0,-0.52 -0.42,-0.94 -0.94,-0.94 -0.52,0 -0.94,0.42 -0.94,0.94 0,0.52 0.42,0.94 0.94,0.94"
   id="path10" />&#10;	<path
   class="st0"
   d="m 88.832301,119.24991 c -2.26,0.12 -4.4,0.63 -6.38,1.45 -2.91,-1.28 -5.65,-3.48 -7.72,-6.24 h 14.1 z m 0,9.25 c -3.88,-0.2 -7.54,-1.28 -10.8,-3.07 2.83,-2.63 6.61,-4.32 10.8,-4.58 z m -21.61,-14.04 h 5.45 c 2.05,3.07 4.81,5.6 7.77,7.22 -1.43,0.8 -2.73,1.77 -3.88,2.89 -3.87,-2.47 -7.09,-5.96 -9.34,-10.11 m -3.35,-11.03 h 5.32 c 0,0.05 0,0.1 0,0.13 0,3.17 0.88,6.24 2.34,8.98 h -5.25 c -1.27,-2.8 -2.1,-5.87 -2.41,-9.11 m -7.18,-1.91 c -0.01,-0.24 -0.02,-0.61 -0.02,-0.82 0,-3.199996 0.97,-6.289996 2.57,-8.979996 h 32.98 c 1.59,2.69 2.57,5.78 2.57,8.979996 0,0.04 0,0.08 0,0.13 h -0.02 l -0.03,1.91 H 108.9723 c 0,0.24 0.01,0.61 0.01,0.82 0,3.2 -0.97,6.29 -2.57,8.98 H 73.452301 c -1.59,-2.69 -2.56,-5.78 -2.56,-8.98 0,-0.04 0,-0.08 0,-0.13 v 0 l 0.03,-1.91 z m -7.42,0 c 0.26,-3.479996 1.12,-6.789996 2.46,-9.799996 h 5.6 c -1.46,2.74 -2.34,5.81 -2.34,8.979996 0,0.15 0,0.55 0.01,0.82 z m 12.97,-21.939996 c 1.18,1.17 2.53,2.19 4.01,3.02 -2.96,1.62 -5.72,4.15 -7.77,7.22 h -5.8 c 2.29,-4.24 5.59,-7.77 9.56,-10.24 m 12.67,5.46 v 4.78 h -14.38 c 2.08,-2.76 4.82,-4.96 7.73,-6.24 2.05,0.85 4.29,1.36 6.65,1.46 m 0,-9.28 v 7.68 c -4.36,-0.2 -8.3,-1.96 -11.19,-4.71 3.37,-1.81 7.17,-2.87 11.19,-2.97 m 1.92,9.27 c 2.26,-0.12 4.4,-0.63 6.38,-1.45 2.91,1.28 5.65,3.48 7.73,6.24 h -14.11 z m 0,-9.25 c 3.88,0.2 7.53,1.28 10.8,3.07 -2.82,2.62 -6.6,4.32 -10.8,4.57 z m 21.61,14.04 h -5.46 c -2.04,-3.07 -4.8,-5.6 -7.77,-7.22 1.42,-0.8 2.73,-1.77 3.88,-2.89 3.88,2.47 7.1,5.95 9.35,10.11 m 3.349999,11.019996 h -5.319999 c 0,-0.05 0,-0.1 0,-0.13 0,-3.169996 -0.88,-6.239996 -2.34,-8.979996 h 5.25 c 1.269999,2.81 2.099999,5.88 2.409999,9.109996 m 14.6,1.91 c -0.26,3.48 -1.12,6.79 -2.46,9.8 h -5.6 c 1.46,-2.74 2.34,-5.81 2.34,-8.98 0,-0.16 0,-0.55 -0.01,-0.82 z m -12.97,21.94 c -1.18,-1.17 -2.53,-2.19 -4.009999,-3.02 2.959999,-1.62 5.719999,-4.15 7.769999,-7.22 h 5.8 c -2.29,4.24 -5.59,7.77 -9.56,10.24 m -12.669999,-5.46 v -4.78 H 105.1323 c -2.08,2.76 -4.82,4.96 -7.729999,6.24 -2.05,-0.85 -4.29,-1.36 -6.65,-1.46 m 0,9.29 v -7.68 c 4.36,0.2 8.29,1.96 11.189999,4.71 -3.369999,1.81 -7.169999,2.86 -11.189999,2.97 m 29.989999,-28.25 c 0,-9.759996 -4.47,-20.679996 -11.75,-28.809996 h -6.49 c 1.7,1.56 4.06,4.29 4.06,4.29 6.26,7 9.91,16.39 9.91,24.779996 0,0.1 0,0.21 0,0.31 h -10.39 c -1.58,-16.399996 -14.639999,-29.379996 -30.509999,-29.379996 -16.93,0 -30.66,14.57 -30.66,32.549996 0,9.76 4.48,20.68 11.75,28.81 h 6.49 c -1.69,-1.56 -4.06,-4.29 -4.06,-4.29 -6.26,-7 -9.91,-16.39 -9.91,-24.78 0,-0.1 0,-0.21 0,-0.31 h 10.4 c 1.58,16.4 14.65,29.38 30.51,29.38 16.929999,0 30.649999,-14.57 30.649999,-32.55"
   id="path11" />&#10;</g>&#10;</svg>