<?xml version="1.0" encoding="UTF-8"?>
<svg id="Layer_1" data-name="Layer 1" xmlns="http://www.w3.org/2000/svg" viewBox="0 0 1000 444.44">
  <defs>
    <style>
      .cls-1 {
        fill: #fff;
      }
    </style>
  </defs>
  <path class="cls-1" d="M420.51,153.87c-44.83,0-76.57,33.55-76.57,77.17s31.74,77.17,76.57,77.17c44.83,0,76.57-33.55,76.57-77.17s-31.74-77.17-76.57-77.17Zm0,135.69c-33.55,0-55.36-26.32-55.36-58.52s21.81-58.52,55.36-58.52,55.36,26.32,55.36,58.52-21.81,58.52-55.36,58.52Z"/>
  <path class="cls-1" d="M592.45,289.55c-34.15,0-54.76-26.48-54.76-57.31,0-33.39,21.81-59.72,54.76-59.72,13.54,0,27.23,6.02,35.5,16.85l16.55-12.79c-11.73-15.64-32.19-22.86-51.45-22.86-45.28,0-76.57,32.79-76.57,78.52,0,37.01,28.88,75.97,75.51,75.97,33.7,0,51.3-19.71,55.66-25.72l-16.85-12.64c-8.72,12.18-21.51,19.71-38.36,19.71Z"/>
  <polygon class="cls-1" points="767.69 218.7 691.58 218.7 691.58 157.63 671.72 157.63 671.72 304.6 691.58 304.6 691.58 237.36 767.69 237.36 767.69 304.6 787.7 304.6 787.7 157.63 767.69 157.63 767.69 218.7"/>
  <path class="cls-1" d="M889.54,157.63h-18.05l-64.83,146.97h23.32l14.59-36.25h69.8l14.74,36.25h23.32l-62.88-146.97Zm-38.06,93.11l27.83-67.39h.45l27.38,67.39h-55.66Z"/>
  <path class="cls-1" d="M176.37,297.83v-.15c49.49,0,89.65-40.16,89.65-89.65s-40.16-89.65-89.65-89.65-89.65,40.16-89.65,89.65,40.16,89.65,89.65,89.8Zm-87.07-88.45h16.1c.13,6.93,1.23,13.62,3.2,19.93-.23,.01-.46,.02-.68,.08,0,0-.3,.15-.45,.3-.6,.15-.75-.45-1.2-.75-.3-.45-.45-1.05-.75-1.2-.75-.3-1.65,.15-2.26,.75,.3,0,0,.3,.3,.3-.27,0-.52,.11-.76,.25,.09-.15,.13-.32,.01-.55h-.15c-.75-.45-1.5-.3-1.35,.6-.14,.28,.24,.66,.65,.48-.16,.1-.33,.2-.5,.27-.75,.45-1.05-.9-1.05-1.81,0-.45-.75-.75-1.35-.45-.15,.15-.3,.15-.3,.45-.15,0-.3-.3-.45,0-.6,.6,.45,.6,.75,.9,.15,.15,0,.45-.3,.6-.3,.15-.75-.15-.75,0-.15,.45-.45,.6-.75,.45v.3c0,.15,.15,.15,.15,.15-.3,.15-.6,.3-.75,.15-.3-.15-.15-.6-.3-.9-.15,0-.3,0-.3,.15-.15,.6,0,.75-.6,.9,.15,.15-.15,.6,.15,.75,.3,.15,.75-.15,1.05,0,.45,.45,.45,1.2,.6,1.96l-.15,.15c.15,.3,.15,1.35-.3,.9-.6-.45,.15-1.35-.3-1.96-.15-.15-.45,0-.75,0,.45,.9-.45,1.96,.45,2.86,.3,.45-1.05,.9-.45,1.5,.3,.15,.75,.45,1.2,.6,.15,0,0-.6,0-.6,0-.3,.75-.45,.9-.15,.15,.15,.15,.45,.15,.75-.3-.15-.6,0-.9,.15,.3,.6-.15,1.05-.15,1.65,0,.15,.15,.3,.15,.45,.15,.45,.9,0,1.2,.45,.15,.3-.3,.6-.15,1.05,.15,.3,.6,.15,.75,.3,.3,.15,.15,.6,.15,.9,.3,0,.75,.3,.6,.6,.3,.15,.45-.3,.3-.6,.75,0,.45-.75,.6-1.2-.3,.15-.3-.3-.6-.15-.15-.45,0-.9-.15-1.2-.15-.45-.75-.45-.9-1.05,.6,.15,.9,0,1.2-.6,.15-.3,.6,.15,.75,.45,.15,.15,0,.15,0,.3,.45-.15,.45,.3,.6,.45,.45,.3,.45,.75,.9,.9,.75,.15,1.35,.15,1.96,0,0-.3,0-.6,.15-.75,.3-.3,.45,.3,.9,.3-.15,.6,.15,1.2,.75,1.5h.45c.15,.15,.3,.6,.6,.6,.15,0,.45-.15,.6,0,.3,0,.3,.3,.45,.75l.15,.15c.6-.15,1.35,0,1.5,.6,.3,.75,.9,1.35,1.2,2.11,.15,.45,.75,.6,.9,.9,0,.3,.15,.45,.3,.45,.45,.45,1.05,.6,1.65,.75,.15,0,.6-.3,.9-.6,.15,0,.45,.15,.45,.15,.6,.9,.75,2.26,1.65,2.71,.45,.3,.6,.9,1.05,1.05,.3,.15,.6-.3,.9,0,.15,.15,.3,.6,.45,.6,.6,.3,1.2,.75,1.35,1.5,0,.15,.15,.3,.3,.3,.25,0,.48-.05,.69-.09,1.14,1.37,2.33,2.68,3.57,3.96l-11.41,11.41c-14.95-15.37-24.23-36.25-24.55-59.36Zm155.48-2.56h-14.29c-.07-3.3-.42-6.54-1.06-9.67,.28-.77,.56-1.55,.79-2.37,.3-.9,.15-1.81-.75-1.81-.45,0-.6,.15-.75,.3-.06,.19-.07,.39-.07,.58-.25-.91-.52-1.81-.81-2.7,.18-.59,.08-1.29-.32-1.8-.16-.16-.36-.37-.52-.59-.07-.19-.15-.39-.23-.58,0-.01,0-.02,0-.03,0-1.65-.6-3.16-1.5-4.66-.32-.4-.73-.72-1.13-1.04-.32-.59-.65-1.18-.99-1.76,.2-.28,.5-.45,.62-.81,.15-.9-.9-1.2-1.05-1.96h-.3c-.36-.17-.71-.18-1.01-.04-.43-.64-.88-1.27-1.34-1.9,.31-.72-.24-1.56-.81-2.12-.45-.45-.9-1.2-1.65-1.5-.15-.08-.34-.11-.52-.07-.45-.51-.91-1.02-1.38-1.51,.01-.08,.02-.16,.03-.24l3.2-3.21c.19,.14,.39,.27,.62,.37,.15,.15,.3,.75,.45,1.2,.15,.3,.3,.6,.75,.3,.3-.15,.15-.6,.6-.9,.3-.15,.6,.15,.9,.3,.9,1.2,1.2,3.61,3.01,3.46,0,.3,.15,.45,.3,.6,.45,.15,.75-.45,.9,0,.3,.45,.45,.9,.9,1.2,.6,.15,1.35,0,1.96,.15,.45,.15,.75,.6,1.05,1.05,.15,.3,.45,.6,.6,.9,1.2,1.2,1.81,3.16,3.31,4.06,.45,.3,.9,.9,1.65,.75,.15,0,0-.3,.3-.3,.6,0,1.05-.6,1.2-.9,.21-.28,.49-.56,.8-.82,4.05,8.53,6.37,18.03,6.54,28.05Zm-38.97-60.58c-.31,.44-.86,.87-.57,1.31,.15,0-.3,0-.15,.15,.15,.3,.75,0,1.05,0,.45,0,.6,.6,.75,.75,.6,.6,1.05,1.05,1.35,1.81,.15,.15-.3,.75-.15,.9,.6,.75,.6,1.35,.6,2.11,0,.3,.75,0,.9,.15,.9,.45,1.2,1.81,.9,2.71-.15,.45-.15,1.2,.15,1.81,.45,.9,.6,2.26,1.5,3.01,.15-.3,.45-.75,.6-.6,.75,.15,.75-.45,1.2-.75,1.5-.9,2.71,.9,3.01,2.11,.44,1.02,.05,2.44,.42,3.49l-2.83,2.83c-.06-.09-.12-.18-.15-.3-.15-.3,0-.75,0-.9,0-.45-.6-.3-.75-.6-.3-.6-.45-1.65,.75-1.5,0,0-.15-.3-.15-.45h-1.05c-.3,0-.3-.45-.3-.6-.15-.6,.15-1.5-.3-1.96-.6-.3-1.2-.45-1.65-.75-.45-.3-.75-.6-1.2-.9-.3-.15-.75,.3-1.05,0-.9-1.05-1.65-2.26-2.56-3.61-.3-.45-1.05-.45-1.65-.3-.15,0,0,.3-.15,.3h.3c.3,.6,.15,.9,.15,.9,.6,.3,.9,.75,1.05,1.35,.3,.6-.15,1.5,.15,2.11,.15,.3,.3,.45,.45,.6,.3,.3,0,.9,.15,1.35,.02,.13,.04,.25,.07,.38-1.39-.94-2.83-1.82-4.32-2.63,.06-.1,.12-.2,.19-.31,.45-.6,1.5-.3,2.26-.6-.15,.45,.3,.45,.45,.6,0-.45,0-1.2-.45-1.5-.75-.45-.75-1.05-1.05-1.65-.15-.15-.45,.15-.45,.3,0,1.05-.9,.9-1.65,1.2v.3h-.3q-.15-.15-.15-.45c-.45,0-.9,0-1.05,.3-.18,.18-.4,.26-.59,.38-.5-.24-1.01-.46-1.51-.68v-.6c0-.15-.15-.15-.3-.15-.15,.15-.15,.45-.3,.45,0,0,0,.02,0,.03-6.12-2.58-12.82-4.05-19.85-4.21v-14.29c10.09,.18,19.66,2.53,28.25,6.63Zm10.96,29.94c1.34,1.7,2.59,3.49,3.71,5.35-.01,.2-.02,.4-.04,.62-.15,.6-1.05,.45-1.35,1.05-.15,.3-.3,.75-.3,1.2,.15,.75,1.05,.75,1.65,1.05,1.37,.69,2.6,1.64,3.49,2.94,.76,1.84,1.41,3.74,1.95,5.68-.06,.04-.12,.07-.18,.1-1.5,.75-1.65,2.71-2.56,3.76-.6,.75-1.35,1.05-2.26,1.05-.15,0-.45-.15-.45-.45,0-.45-.15-.9,.15-1.2,.3-.15,.6-.45,.9-.75,.45-.6,.15-1.35-.15-1.96-.3-1.35-1.81-2.11-3.01-1.96-1.2,.3-2.11,1.65-2.71,2.71h-.3c-.45-.6-1.2-.9-1.5-1.5-.15,0-.15-.15,0-.3,.45,.3,.9,1.05,1.5,.75,.6-.3,.15-1.05-.3-1.2-.45-.15-.9-.6-1.35-.6s-.9-.6-1.05-1.05c-.15-.75-.3-1.65-.9-1.81-.6-.3-1.2-.3-1.96-.75-.3-.15-.6,.15-.9,0,.15-.15,0-.6,.15-.6,.75-.15,1.81-.15,1.2-.9-.15-.45-.6-.9-1.2-.45-.15,0-.45,0-.45,.3-.15,.15-.15,.3-.15,.45-.15,.3,.3,.9,0,1.2-.19,.13-.45,.2-.72,.28-1.31-2.17-2.84-4.19-4.55-6.03l10.54-10.57c.85,.9,1.68,1.82,2.47,2.78-.04,.11-.07,.21-.07,.31,.19,.28,.43,.39,.7,.5Zm3.13,77.25c.09,.96,.54,1.81,1.58,2.43,.35,.21,.72,.26,1.08,.22l1.2,1.19c-2.92,2.8-6.07,5.35-9.44,7.61,.06-.79,.06-1.57-.05-2.26,0-.6-.6-1.2-.6-1.81,0-.45,.75-.45,.9-.75,.3-.75,.75-1.65,1.2-2.41,0-.15,.3-.3,.6-.45,.45-.3,0-.75,.15-1.05-.3-.15-.45-.45-.6-.6-.9-1.2-1.65-2.41-3.01-3.01-.3-.15-.45-.45-.6-.75-.15-.15,0-.45-.15-.6-.3-.3-.15-.6-.3-.9h.3c-.15,0-.15-.15-.15-.15,.3-.75,.75-1.65,1.35-2.11,.14-.14,.66-.16,.73-.4l5.81,5.79Zm-89.62,2.48c.5,.26,.92,.7,1.55,.7,.6,.15,1.2,.3,1.65,.75,.15,.15,.45,.15,.75,0,.3-.15,.6-.3,.9-.45,.75-.45,1.81-.6,2.71-1.05,.15-.15,.3-.45,.6-.45,1.35-.6,2.86,.45,4.21-.15,.3-.15,.75-.15,1.2-.45,.9-.6,1.05-1.65,.75-2.71-.04-.09-.07-.18-.1-.27,8.59,6.25,19.1,10.03,30.49,10.31v14.29c-17.92-.42-34.11-7.62-46.1-19.14l1.38-1.38Zm8.17-13.14c-.08-.02-.16-.04-.24-.06-.53-.58-1.05-1.18-1.55-1.78,.19-.08,.39-.17,.59-.27-.15-.3-.3-.75,0-.75,.3-.3,.15-.9,.15-1.2,0-.15-.15-.3-.45-.3,0-.75,.45-1.35,0-1.96-.45-.6-1.05-.9-1.2-1.81,0-.15-.45-.3-.45-.45,0-.9,.3-1.96,.15-2.86-.15-.45-.6-.9-.3-1.05,.15-.15,.45-.3,.75-.45,.6-.15,.9-.75,.45-1.05-.3-.45-.9,0-1.35-.15-.15,0-.3-.15-.3-.45-.15-.3,.3-1.05-.15-1.2-.3-.15-.6-.3-.75-.6-.3-.45,0-.9,.3-1.35-.15,0-.15-.3-.3-.15-.15-.45,.3-1.05,.15-1.5-.15-.45-.45-.9-1.05-.75v.15c-.3,.3-.6,.3-.9,.15v-.6c.15-.3,.6-.15,.9-.3,.45-.45,0-1.05-.15-1.2-.6-.6-.9-1.05-.75-1.96-.75,0-1.96-.15-1.81-1.2,0-.9-.15-1.81-.45-2.71-.15-.6-.15-1.35,.3-1.81,.15-.15,.3-.45,.45-.45,.9-.15,2.11,0,2.71-.9,.3-.6-.45-1.65,.15-2.11,.17-.14,.36-.23,.57-.3h5.48c0,.05-.03,.09-.03,.15,.3-.3,.45,.15,.45,.3,.02,.08,.04,.16,.06,.25,.04,.66,.09,1.31,.16,1.95-.06,.08-.13,.15-.22,.21-.9,.6-.75-.15-1.81,0-.44,0-.73,0-.75,.28-.06-.04-.09-.1-.16-.13-.3-.3-.6,0-.9,.15-.3,.15-.3,.6-.15,.75,.15,.3,.3,.6,.3,.9,0,.6-.15,1.2,0,1.81,.15,.45,.75,1.35,1.05,.75,.3-.6,.9-1.5,.45-2.41-.07-.29-.08-.69-.15-1.05,.06,.06,.11,.11,.15,.15,.94,.27,1.7,.45,2.46,.59,1.2,7.24,4.54,13.76,9.34,18.91l-10.63,10.63c-.09-.1-.19-.2-.28-.29,0-.07,.02-.13,.02-.19,0-.15-.15-.3-.3-.3Zm-2.11-36.55c-.45-.6-1.35-.3-1.65-.9-.15-.3-.15-.75,0-1.05,.15-.45,.6-.9,1.05-1.2,1.05-.45,2.11-.15,3.01,.45,.3,.15,.6,.45,.75,.75,.15,.15,.15,.3,.15,.45,.08,.3,.16,.61,.24,.92-.03,.39-.04,.79-.06,1.18h-3.11c-.12-.2-.25-.4-.38-.6Zm75.48-35.47l-10.56,10.56c-6.26-5.84-14.56-9.51-23.71-9.81v-15.04c13.28,.37,25.31,5.73,34.27,14.28Zm-71.01,74.62l10.62-10.62c4.63,4.32,10.38,7.45,16.77,8.91-.24,.02-.49,.02-.73,.02-.15,0-.15,.3-.3,.3-1.05,.3-2.11,1.65-2.71,2.86-.15,.3,0,.75-.15,1.05-.6,.9-.9,1.81-1.65,2.56-.15,.15-.15,.3,0,.45,.9,1.2,1.96,1.96,2.86,3.31,.15,.3,.6,.3,.75,.6,.3,.75,.9,1.5,1.2,2.26,.6,1.05,2.11,1.35,3.31,1.05,.45-.15,1.05,.3,1.5,.45,.91,.09,1.83,.24,2.71,.17v.84c-13.26-.41-25.24-5.73-34.18-14.22Zm20.49-31.47c1.05,.45,1.05,0,1.35,0,.75-.15,.6,.6,.9,1.05h.3c1.2-1.2,1.96-2.71,2.26-4.51,0-.15,.3-.3,.3-.3-.15-.75-1.05-1.05-1.35-1.65-.45,1.2-1.65,.15-2.56,.75,0,0-.15,.3,.15,.45,.3,.15,.75,0,.9,.3s.15,.9-.15,1.2c0,.15-.3,.15-.3,0-.45-.9-1.2-.75-2.11-.75,.3,.3-.3,.15-.15,.45-.71-.18-1.36-.09-2,.04-.16-.95-.26-1.91-.26-2.9,0-.43,.03-.85,.06-1.27,.68,.13,1.45,.32,1.89-.24,.15-.15,.6,.45,.9,.75,.15,.15,0,.3-.15,.3-.45,.45-1.05,.45-1.35,1.05-.15,.45,0,.75,.45,.9,.6,.3,.75-.45,.9-.9,.3-.3,.6,0,.9,0v-.3c.6-.15,1.35-.15,1.96-.15,.75,0,.3-1.5,.3-2.56v-.75c0-.15,0-.3,.15-.3,.15-.45,1.2-.6,1.35-.15,0,.15,0,.3,.15,.6,0,.3,.15,.45,.45,.3,.15,0,.15-.15,.15-.3,.15-.3,0-.75,.3-.9,.3-.3,.75,.45,1.2,.45,.45,.15,1.05,.15,1.35-.15,.3-.15,.3-.6,0-1.05-.15-.15-.45-.3-.45-.15-.45,.45-1.05,.3-1.5,.3s-.6-.6-1.05-.75c-.45-.3-.9,.3-1.35,.15-.45-.3-.75-.6-.45-1.05,.15-.15,.45-.45,.75-.6,.6-.3,1.2-.3,1.5-.75,.3-.45,.45-.9,.45-1.5,0-.3,.3-.3,.45-.3,.75-.3,1.35-.15,1.96-.3,.75-.3,1.2-.9,1.81-1.35,.3-.15,.6-.45,1.05-.45,.15,0,.3-.45,.3-.45,.15-1.05-.15-2.11,0-3.31,.15-.3,.6-.45,.3-.9,0-.15-.6,.15-.6,0-.3-.3-.45-.6-.15-.9s.9,0,1.05-.45c.02-.02,.02-.05,.03-.08,.67-.1,1.35-.17,2.04-.19-.04,.04-.07,.07-.12,.12-.6,.9,.6,1.81,.3,2.56-.15,.3-1.2,.3-1.65,.6-.3,0-.3,.6-.3,.9s.3,.3,.6,.45c.6,.6,.6,1.5,1.35,1.96,.9,.45,1.96,.15,3.16,.45,.75,.15,1.2,.6,1.5,1.35,.15,.45,.75,.6,.75,1.2,0,.3,.3,.45,.6,.6,.3,.15,.75-.3,1.05,0,.45,.15,.3,.75,.45,1.05,.15,.75-.15,1.5,.6,2.26,.3,.3-.3,1.05-.6,1.35-.15,.15-.6,.15-.75,.3-.15,.6,0,1.2,.3,1.81,.3,.3,.6,0,.75,.15,.6,.75,.75,1.5,1.2,2.11,.15,.3,.45,.6,.75,.75-.3,0-.45,.45-.3,.6,.15,.15,.6,.45,.9,.15,.3-.3,.75-.45,1.2-.75,.3-.3,.6-.15,.9-.3,.3,.3,.45,.75,.3,1.05-.6,.6-1.65,.15-2.26,.6-.45,.15-.9,.15-1.2,.45-.15,.3,0,.75,.45,.75,1.35,.3,.3,2.41-.45,3.46-.15,.15,0,.6,0,1.05,0,.15-.3,.3-.45,.3-1.35,.15-2.71-.3-4.06,.15-.45,.15-.6,.75-.9,1.2h.3c-.3,0-.3,.45-.45,.6-.15,.15,0,.75-.15,.9-1.2,1.35-1.35,3.01-1.65,4.51,0,.29,.25,.5,.5,.63-.61,.07-1.24,.11-1.87,.11-.15-.14-.44-.15-.44-.59-.15-.45-.6,.3-1.05,.3,0,0-.09,.11-.12,.23-4.13-.34-7.86-2.11-10.71-4.81,1.22-.3,2.26-1.37,3.46-1.59,1.05-.3,2.26-.6,3.46-.6,2.71-.15,2.56-3.46,3.91-5.72,.3-.45-.15-1.65-.6-2.26-.9-1.5-3.76,.15-4.36-1.35-.45-.9,1.96,.45,2.11-.75,0-.3-.15-.9-.45-.9-.3-.3-1.05-.3-1.35,0-1.5,1.2-1.65,3.31-2.41,4.66-1.38,2.49-3.78,4.23-5.32,6.84-.9-1.1-1.66-2.32-2.27-3.62,.27-.3,.54-.69,.68-.96,.15-.15,.45-.45,.3-.75Zm-5.05-3.05c-.38,.43-.77,.92-1.27,.79-.15-.15-.6-.6-.3-.75,.56-.42,1.11-.85,1.43-1.39,.03,.45,.08,.9,.14,1.35Zm21.29,17.43c.3-.02,.6-.02,.89-.05,0,.2-.03,.4-.14,.56-.33,.33-.5,.75-.75,1.13v-1.64Zm3.91-4.9c-.15-.6,.15-1.05,.45-1.5,.3-.15,.6,0,.75,.45,.15,.3,.15,.75,.3,1.2,.12,.35-.03,.7-.04,.97-.29,.12-.58,.22-.87,.32-.08-.48-.47-.96-.59-1.45Zm1.44,3.88c-.02,.15-.07,.28-.24,.33-.45,.3-.3,.9-.9,.9s-1.28-.15-1.72-.5c.98-.18,1.93-.43,2.86-.74Zm.06-35.68c-.16,.16-.34,.31-.6,.36-.6,.15-.9-.15-1.2-.45v-.3c.07-.06,.14-.11,.21-.17,.54,.16,1.07,.35,1.59,.56Zm-20.05,31.7c2.91,2.58,6.54,4.32,10.54,4.86-.57,.38-.89,.99-1.01,1.7,.15,0,.45,.15,.9,0,.77-.39,.55-1,.57-1.64,.34,.04,.69,.06,1.04,.08-.1,.29-.25,.59-.25,.96-.15,.15-.3,.3-.6,.75,0,0-.3,.45-.15,.75,.31,.31,.7-.02,1.05-.31v2.05c-.43,.05-.93-.15-1.05,.21-.3,.6,.6,1.05,.9,1.5,.15,.45,.15,.9-.45,.9-.75,.15-1.5,0-2.41,0,0,.3-.15,.15-.15,.3-.15,.75,0,1.35-.6,1.96-.3,.45,.15,1.05,.45,1.35,.3,.45,.45,1.05,.9,1.2,.3,0,.6,.45,.9,.3,.75-.15,1.2-.45,1.5-1.2v2.12c-.34,.1-.7,.13-1.05-.01-.75,.3-1.35,.3-1.96,.45-.1,.01-.19,.07-.28,.09-7.07-1.01-13.44-4.16-18.42-8.77l9.63-9.63Zm32.44,12.92c-.07,.03-.14,.06-.2,.12,0,0,0,.02-.01,.02-3.31,2.21-7.03,3.84-11.01,4.78-.14-.05-.28-.09-.41-.14-.15,0-.15-.75-.45-.9-.3-.15-.75,0-.75-.15-.15-.15,0-.45-.15-.6-1.65-.3-3.16,.15-4.66,0-.07,0-.11,.03-.15,.06v-2.61c.57-.55,1.18-1.07,1.96-1.51,.3-.3,.75-.6,1.35-.45,.3,.15,.6,.3,1.05,.45,.3,.15,.75,.45,1.05,.6,.15,.15,.45,.15,.6,.3,.6,.3,1.05,1.05,1.81,1.5,.15,0,0-.3,.3-.15,0-.6-.15-1.2-.45-1.65-.45-.6-1.05-.9-1.65-1.35-.15-.15-.15-.6,.15-.9,0-.15,.3-.15,.3,0,.45,.3,.75,.3,1.2,.6,.75,.3,.6,1.5,1.35,1.96,.45,.15,.6,.75,1.05,.9,.6,.15,1.5,0,1.81-.75,.3-.45-.15-.6-.45-.9-.6-.45,.3-.6,.6-1.05,.45-.6,0-1.05,0-1.65,0-.3,.15-.45,.3-.45,0,0,0-.15,.15-.15,.3-.75,0-1.5,.3-2.11,.15-.15,.3-.15,.3,0,.15,.3,.6,.6,.9,.45,.6-.15,1.05-.45,1.35-.9,.45-.6,1.5-.3,1.81,.3,.15,.45,0,1.05-.45,1.2-1.2,.15-2.26,.75-3.16,1.35-.15,.15-.3,.15-.3,.3-.45,.3-.75,.75-.45,1.5,0,.3-.3,.6-.6,.9,.45,.15,.45,.75,.9,.9,.75,.15,1.5,.15,2.11-.3,.15-.3,.3-.6,.15-1.05,.45,0,.9-.45,1.35-.6,1.05-.15,1.65,1.05,1.35,1.96,0,0,0,0,0,0-.08,.06-.17,.12-.25,.18Zm5.37-10.26c-.15,.45-.3,.6-.45,.6v.3c-.3,.3-.75,.15-.9-.3-.15-.3-.45-.75-.75-1.05-.3,0-.75,0-.9,.3-.3-.3-.75,0-1.05-.15,.15-.6-.45-.6-.75-1.05-.3-.3-.3-1.05,.3-1.2,.45-.15,.75,.15,.9,.6,0-.15-.15-.15-.15-.15,0,.15-.15,.3,0,.45,.3,.3,.75-.15,1.2,.15,.45,.3,1.2-.15,1.65,.15,0,0,0,.3,.15,.3,.6,0,.9,.6,.75,1.05Zm-2.19-41.88c-.42-.3-.84-.7-1.27-.84-1.81-.6-2.86,.9-3.91,1.81-.3-1.05-1.2,0-1.96-.15-.3,0-.45-.45-.6-.45-.3,0-.6,.15-.75,.3-.45,.3-.15,1.05,.3,.9,.3,0,.6-.6,.75-.15,.3,.6,.15,1.65,1.05,1.35,.6-.15,.9-.6,1.65-.6,.6,0,.75-.75,.6-1.2,.6,0,1.5-.6,1.96,0,.13,.13,.27,.51,.4,.8l-1.63,1.63c-.28-.13-.53-.16-.73,.13-.9,.75-2.11,1.05-3.01,1.5-.9,.45-1.65,1.35-2.11,2.41-.11,.21-.27,.39-.45,.56-1.38-1.08-2.89-2-4.52-2.7,.1-.04,.2-.08,.31-.12,.6-.3,.75-.9,.45-1.5,0-.15,0-.3-.15-.45,0-.3-.15-.75-.15-.75-1.33,.12-2.45,.84-3.24,1.9-1.28-.34-2.61-.55-3.99-.63v-13.72c8.47,.29,16.13,3.66,21.92,9.04l-.95,.95Zm-23.53,3.74c-1.74,.12-3.41,.44-5.01,.97-.05-.28-.02-.63,.04-.89,0-.15,.15-.15,.15-.15,.15,0,.3-.3,.3-.6h-.6c-.75,.45-1.05,1.2-1.81,1.65-.15,0-.15,.3,0,.3,0,.15,.15,.3,.3,.15,0,.04,0,.09,0,.13-.35,.15-.69,.32-1.03,.49-.22-.06-.48-.07-.48,.13,0,.04,0,.07,0,.1-1.45,.77-2.78,1.71-4,2.79-.01,0-.02,0-.03,0l-9.66-9.69c5.75-5.39,13.36-8.79,21.81-9.12v13.72Zm-31.59,26.71c.45,.15,.9,.75,1.35,.75s.9,.3,1.35-.3c.15-.15,.6,0,.6,.15,.15,.45,.3,.45,.6,.6,.75,.3,.45,2.11,1.35,1.5,.45-.3,.9,0,1.5-.15-.6,.75-.3,1.5,.3,2.11,.45,.6,1.05,.75,1.65,1.35,.45,.45,1.05,.3,1.05-.3,.15-.75-.6-1.5,.3-2.11,.9,1.2-.3,2.71,.6,3.91,0,.15,.15,.15,.15,.3,.45,.45,.75,1.05,1.35,1.05,.3-.15,.6-.6,.75-1.05,0-.15,0-.3,.15-.3,0-.45,.3-.6,.3-1.05,.15-.6,.9-.9,.75-1.65v-.6c0-.47,.41-.88,.9-1.08,.74,1.39,1.64,2.67,2.67,3.84l-9.63,9.63c-4.26-4.57-7.28-10.3-8.5-16.66,.14,.02,.28,.04,.44,.06Zm34.15,43.94c1.8,.2,3.57-.34,5.11,.43,.11,.05,.17,.18,.23,.32-1.76,.22-3.54,.36-5.35,.4v-1.15Zm30.99-16.27c-.6,.15-1.2,.3-1.81,.45-.6,.15-1.35,.15-1.96,0-3.4-1.04-6.37-2.21-9.76-3.26,.23-.14,.45-.28,.68-.42,.3,.06,.57,.14,.81,.06,.45,0-.15-.6,.15-.6,.75,.15,1.35,.6,1.96,.9,1.5,.45,2.86,.6,4.36,1.05,1.2,.3,1.96,1.05,3.16,1.35,.6,.2,1.14-.07,1.65-.36l.8,.8s-.03,.01-.05,.01Zm-4.06-53.1c-.3,.45-.45,1.05-.9,1.35-.45,.15-.9,.15-1.35,.45-.75,.3-.3,1.2,0,1.96,.15,.15,0,.6-.15,.75-.45,.3-.6-.3-.75-.6-.15-.6-.45-1.35-.45-2.11s.9-1.2,1.05-1.81c.15-.45,.3-.9,0-1.35-.3-.45-.9-.75-1.35-.6-1.2,.3-1.65,2.56-3.01,1.96-.07-.03-.13-.08-.2-.12l3.98-3.99c1.19,1.28,2.28,2.66,3.25,4.11-.04,0-.08-.02-.11,0Zm-29.48-17.57c-9.11,.33-17.38,4.02-23.62,9.86l-10.61-10.64c8.96-8.55,20.98-13.92,34.22-14.26v15.04Zm-15.76,21.36c-.92,.06-1.83-.07-2.75-.33-.75-.15-.9,.45-1.2,1.05,0-.15,0-.3-.15-.15,0-.45,.15-.75,.15-1.05s-.6-.3-.6-.6c-1.2-2.41-4.36-1.96-6.62-1.65-.45,0-.6,.45-.9,.75-.05,.05-.11,.06-.16,.09,1.25-2.15,2.72-4.16,4.39-5.97l7.85,7.87Zm18.31,69.29c2.28-.05,4.53-.23,6.73-.55,.23,.27,.47,.52,.79,.73,.6,.45,1.5,.75,2.41,.9,.3,0,.3,.6,.45,.9,.3,.3,.15,.9,.45,1.2,.45,.45,.9,.75,.75,1.35,0,.75-.9,1.35-.3,2.41,.15,.3,0,.75,.15,1.05,1.2,1.2,2.26,2.26,3.61,3.31,.15,.15,.45,.3,.3,.6,.18,.04,.29,.13,.39,.23-5.05,1.3-10.32,2.02-15.74,2.14v-14.29Zm36.25-19.37c-.15-1.65-.15-3.16-.9-4.66-.15-.45-.6-.75-1.2-.6-.3,0-.3,.45-.45,.6-.15,.3-.3,.6-.3,1.05-.19,.38-.54,.58-.83,.83l-.62-.62c.09-.11,.18-.23,.24-.36,.15-.45-.15-1.05,.15-1.5,.15-.15,.45-.45,.6-.75,.15-.75,0-1.5,0-2.26,.45,0,.75-.45,.6-.6s-.15-.3-.15-.45c0-.45,0-.9,.15-1.35,.3-1.05-.15-2.11-.6-3.16-.3-.45-.9-.6-1.35-.45-.15,.15-.3,.45-.3,.45-.6,0-1.05,.3-1.35,.45-.45,.3-.45,1.2-.75,1.5-.6,.6-1.35,1.05-2.11,1.5-.37,.18-.77,.13-1.08-.03,.5-.56,.98-1.13,1.45-1.72,.19-.02,.37-.03,.53-.05l.45-.45c.3-.6,.45-1.2,.9-1.5,.3-.15,.75-.15,1.05-.15,.3,.15,.6-.45,1.05-.6,.3-.15,.3-.6,.3-1.05,.15-.6,.9-.9,1.05-1.35,.6-1.05,.6-2.71,1.5-3.61,.6-.45,.3,.75,.45,1.05,.3,.45,1.35,.45,1.81,0,.3-.3,0-1.05,.45-1.35h.75c.45,.3,.9,.75,1.35,.45,.3-.15,.6-.6,.9-.75,.45-.15,1.05,0,1.5-.3,1.2-.6,3.91,.3,3.76-.9-.3-1.96-1.81-3.61-3.61-4.36-1.35-.75-.9-2.56-2.11-3.76-.3-.15-.15-.75-.45-1.05-.15-.15-.3-.15-.45-.3-.15-.15-.45-.3-.45-.45,.04-.26,.04-.51,.03-.75h11.97c-.34,13.19-5.57,25.11-13.95,34.03,.02-.21,.03-.42,0-.64Zm12.03-39.86h.3c.55-.37,.93-.8,1.25-1.28,.21,1.71,.34,3.44,.38,5.19h-11.19c.25-.16,.52-.28,.69-.45,.45-.45,1.2-.6,1.2-1.2,0-.75,0-1.65,.15-2.41,0-.3,.6-.6,.9-.6,1.35,0,3.01,.45,4.36-.45,.3-.3,.45-.75,.6-1.05,.75-1.08,1.73-2,2.23-3.16,.02,.09,.04,.19,.06,.28-.97,1.59-1.75,3.23-.93,5.14Zm-50.84-49.01c-13.99,.34-26.65,5.97-36.06,14.97l-10.04-10.07c12-11.6,28.19-18.85,46.1-19.2v14.29Zm-25.42,29.27c-2.31,2.49-4.28,5.3-5.83,8.35-.25-.06-.47-.07-.64,.1-.45,.3-.9,.3-1.35,.6-.15,.15-.15,.45-.15,.75,0,.15-.3,.15-.45,.15-.6,.15-1.65-.15-1.65,.75h.15c.3,.75-.15,1.65-.75,1.81-.75,.3-1.65,.15-2.41,.6-.3,.15-.9,.45-1.05,.9-1.2,2.26-2.41,4.51-2.56,7.07v.3c0,.15,.3,.3,.3,.3-.33,.74-.62,1.37-.91,1.96h-7.49c.31-13.26,5.65-25.3,14.19-34.29l10.61,10.64Zm-18.67,26.21c-.35,.6-.73,1.23-1.19,1.96-.6,1.05-1.35,3.46-.3,4.36,.45,.45-.3,1.5-1.05,1.5-.9,0-2.26-.15-2.56-1.2-.07-.2-.26-.33-.5-.43-.3-2.03-.47-4.09-.52-6.19h6.12Zm-4.5,43.32c.75-.15,1.05,.75,1.65,1.2l.3,.15s.06,.05,.08,.07l-1.36,1.36c-.6-.62-1.18-1.24-1.76-1.88,.06,0,.12,0,.18,0,.45-.15,.45-.9,.9-.9Zm.64,6.43c12.46,12.02,29.31,19.51,47.95,19.86v16.1c-23.09-.35-43.98-9.62-59.36-24.54l11.41-11.41Zm50.5,19.87c5.91-.1,11.65-.91,17.12-2.36,.41,.49,.86,.97,1.23,1.34,.75,.6,1.65,.45,2.56,.6,.15,.15,.45,.3,.75,.3,.75,.3,1.65,.3,2.41-.15,.3-.3,.75-.9,1.05-1.2,.6-.45,1.65-.45,2.41-.6,.15,0,.45-.15,.45-.3,.15-.45,.6-.75,.45-1.2,.6,0,1.05-.3,1.65-.6,1.05-.45,1.81-1.5,2.71-2.41s2.56-.45,3.01-1.5c.41-.71,.2-1.55,.16-2.35,4.38-2.69,8.44-5.85,12.12-9.4l11.35,11.31c-15.39,14.94-36.29,24.24-59.42,24.63v-16.09Zm47.16-24.41c.11-.19,.2-.37,.23-.53,.6-2.41,.3-6.02-2.41-7.37-.3-.15-.9-.15-.9,0-.27,1.1-.81,2.35-1.21,3.6l-4.88-4.88c8.98-9.41,14.59-22.05,14.94-36.02h14.29c-.35,17.9-7.59,34.08-19.17,46.08l-.87-.87Zm1.22-97.94c-.59-.97,.15-2.49-.24-3.67-.15-.6-.75-.6-1.2-.6-.15,0-.3-.15-.45-.3-.45-.9-.15-1.81-.6-2.56-.9-1.2-1.81-2.11-2.71-3.31-.6-.6-1.35-.45-1.96-.6-.15,0-.3-.15-.45-.3s-.3-.45-.45-.75c-.45-.6-1.2-.9-1.96-1.2-1.2-.6-2.56-.3-3.91-.45-1.05,0-2.26,.3-3.01,.9-.32,.27-.67,.47-1.03,.64-9.18-4.57-19.49-7.2-30.41-7.38v-15.94c23.09,.38,43.95,9.66,59.34,24.57l-10.96,10.96Zm-50.94-19.58c-18.64,.35-35.5,7.85-47.97,19.88l-11.22-11.26c15.35-14.88,36.16-24.14,59.19-24.56v15.94Zm-37.87,33.63c-8.99,9.44-14.6,22.13-14.9,36.14h-14.29c.38-17.92,7.6-34.16,19.16-46.2l10.03,10.06Zm-14.9,38.69c.05,1.97,.2,3.92,.45,5.83-.34,0-.66,.04-.94,.18-1.05,.3-1.2,1.5-1.65,2.41-.3,.75-1.65,.6-1.96,1.35-.15,.3,.15,.9-.15,1.35-.15,.3-.6,.3-.75,.6,0,.15-.15,.45-.3,.6-.3,1.05-.45,1.96-.15,2.86,0,.3,0,.6,.15,.75,.3,1.05,0,1.96-.6,2.86-.75,.9-1.96,.9-3.01,1.35-.45,.15-1.05-.3-1.65-.15-.11,.01-.23,0-.34,0-2.08-6.31-3.25-13.03-3.39-20.01h14.29Zm116.55,59.28l-11.33-11.33c12.02-12.46,19.51-29.31,19.86-47.95h16.1c-.38,23.05-9.68,43.9-24.63,59.28Zm24.62-61.83h-16.09c-.18-10.63-2.66-20.7-7.01-29.7,.33-.15,.64-.31,.87-.54,1.05-.45,.75-1.2,.45-1.5-.6-.75-.75-1.81-1.2-2.41-.45-.6-1.35-.75-1.96-1.35-.15-.3,.3-1.05-.15-1.35-.3-.15-.45-.3-.6-.6-.3-.9-.75-1.35-1.5-1.81,.15-1.05-.75-1.5-1.65-1.81,0,0,.15-.3,.15-.45,0-.45-.6-.6-.9-.6-.15-.15-.3,0-.45-.15-.45-.6-1.2-1.05-1.35-1.65-.3-.9-1.2-1.35-1.96-1.96-.3-.15-.6-.9-.6-.9-.29,0-.57,0-.81-.07-.18-.2-.38-.39-.56-.59-.06-.32-.19-.61-.36-.88l10.98-11.02c14.96,15.37,24.28,36.24,24.71,59.34Zm-149.41-59.34l11.23,11.26c-12.05,12.49-19.54,29.39-19.85,48.08h-16.09c.42-23.11,9.75-43.97,24.71-59.34Z"/>
  <path class="cls-1" d="M137.41,218.25c0-.15,0-.6-.3-.75-.15-.3-.6-.15-.75-.3-.15,0-.3-.3-.45-.15v.6q.15,.3,.3,.6c.15,.45,1.05,.3,1.2,0Z"/>
  <path class="cls-1" d="M138.16,222.76c.15-.3,.3-.45,.45-.75,.15-.75-.3-1.96-1.2-1.96,0-1.05-.9-1.2-1.35-.6-.75,.6,.15,1.81,.75,2.71,0,.15,.15,.45,.3,.75,.3,.3,.9,.15,1.05-.15Z"/>
  <path class="cls-1" d="M135.6,215.24c0-.15-.3-.15-.3-.15-.3,.15-.45,.45-.45,.75-.15,.45,0,.9,.45,1.35,.15,.15,.45,0,.45-.3,.15-.6-.15-1.2-.15-1.65Z"/>
  <path class="cls-1" d="M138.16,219c.15-.15,.45-.3,.3-.6,.3,0,.45,0,.6-.3,.15-.15-.15-.3-.15-.45-.45-.15-.9,.45-1.2,.75-.3,.15,.15,.6,.45,.6Z"/>
  <path class="cls-1" d="M138.01,224.42c-.15-.3-.3,.15-.6,0,0,.45,0,.75,.3,.9,.15,0,.45,.15,.45-.15s.3-.6,0-.75h-.15Z"/>
  <path class="cls-1" d="M139.06,228.93c.15-.3,.45-.75-.15-1.05h-.6c.15,.45,.45,.9,.75,1.05Z"/>
  <path class="cls-1" d="M100.25,244.12c-.15,0-.15,.6,0,.75,.15,.15,.6,.15,.9,.15-.15-.45-.15-1.35-.9-.9Z"/>
  <path class="cls-1" d="M104.31,248.19c-.3,.6,.45,1.35,1.35,1.35,0-.3,.15-.75,0-.9-.45-.45-1.2-.9-1.35-.45Z"/>
  <path class="cls-1" d="M106.12,250.59c-.15,1.2,.3,1.96,1.5,2.11,0-1.35-.45-1.96-1.5-2.11Z"/>
  <path class="cls-1" d="M178.47,214.49c.3-.3-.15-.75-.45-.9,.3-.15,.6-.45,.6-.9-.45,.15-.75,.3-1.05,.45-.15,.45-.3,1.05,0,1.35,.15,.15,.75,.15,.9,0Z"/>
  <path class="cls-1" d="M170.65,220.51c-.75,.3,1.05,1.05-.15,1.35,.9,1.05,3.01,.75,2.86-.3-.3-.9-1.65-1.35-2.71-1.05Z"/>
  <path class="cls-1" d="M184.34,213.74c.15,0,.15-.75,0-.9-.15-.15-.6,0-.9,0-.45-.15-.45-.45-.6-.9,0-.6-.45-.9-.45-1.5-.6,.3-.6,1.05-.45,1.35,.75,.75,1.2,2.26,2.41,1.96Z"/>
  <path class="cls-1" d="M170.2,206.52c-.15,0-.15-.3-.45-.45-.45-.3-.75,0-.45,.45,.15,.15,.6,0,.9,0Z"/>
  <path class="cls-1" d="M97.84,229.53c.15-.15-.15-.45-.3-.6-.3-.3-.6,0-.75-.3,0,.3,0,.45,.15,.75,0,.3,.6,.45,.9,.15Z"/>
  <path class="cls-1" d="M171.55,186.66c.15-.45,.9-.45,.75-1.05,0-.15-.45-.15-.75-.15s-.15,.45-.15,.75c-.15,0-.3,0-.3,.15,0,.3,.3,.45,.45,.3Z"/>
  <path class="cls-1" d="M173.66,185.91c.15-.15,.45-.45,.15-.6-.3-.3-.75-.3-.75-.15-.3,.3,.15,1.05,.6,.75Z"/>
  <path class="cls-1" d="M168.39,201.7c-.3-.15-1.2,0-1.35,.3-.3,.75,1.05,1.5,1.65,1.2,.45-.3,.3-1.2-.3-1.5Z"/>
  <path class="cls-1" d="M167.19,206.37c.6,0,.9,.6,1.35,.45,.3-.3,0-.6-.3-.75-.3-.15-.75-.15-1.05,0q-.15,0-.3-.15c-.15,.3,.15,.45,.3,.45Z"/>
  <path class="cls-1" d="M167.64,208.77c.15-.45,.45-.9,0-1.2-.3-.3-.6,.15-1.05,.45-.3,.15-.3,.9,0,1.2,.45,.15,.9,.15,1.05-.45Z"/>
  <path class="cls-1" d="M166.04,206.74s0-.07-.06-.07c-.15-.45-.3-.3-.6-.3,0,.6-.3,1.2-.15,1.81,.15,.3,.6,.3,.6,0,.15-.6,0-1.05,.45-1.35-.09,0-.19-.1-.24-.08Z"/>
  <path class="cls-1" d="M180.13,236.75c0,.3,.15,.6,.3,.9h.3c.3-.3,.45-.75,.15-1.05-.15-.3-.75-.3-.75,.15Z"/>
  <path class="cls-1" d="M180.58,234.95c-.3,.6-.15,1.05,.45,.9,.3,0,.15-.45,0-.75-.15-.15-.45-.15-.45-.15Z"/>
  <path class="cls-1" d="M184.49,237.51c-.3,0-.6-.15-1.05-.15h-.6c0,.3-.15,.75,.15,.9,.6,0,1.2,0,1.65-.6-.15,0-.15-.15-.15-.15Z"/>
  <path class="cls-1" d="M190.66,236.6c-.6-.15-1.05,.45-1.65,.3,0,.15,0,.3-.15,.45h-.3c.75,.75,1.65,0,2.26-.15,.15,0,0-.6-.15-.6Z"/>
  <path class="cls-1" d="M193.66,234.65c0-.15,.15-.15,.15-.3-.15,.3-.6,.3-.6,.6,.3,.9,1.35,.45,1.35-.15,0-.45-.6-.45-.9-.15Z"/>
  <path class="cls-1" d="M225.25,215.84c.3-.9-.75-1.81-1.81-1.81-.9,.15-.9,.9-1.05,1.5-.3,.45,.75,.6,1.2,.75,.6,.15,1.5,.15,1.65-.45Z"/>
  <path class="cls-1" d="M214.12,233.44c-.15-.15-.6-.3-.9-.15-.45,.3-.6,1.35,.15,1.35,.3,0,.6-.15,.9-.45,.3-.3,.15-.75-.15-.75Z"/>
  <path class="cls-1" d="M224.35,203.81c-.3,.45,.3,.75,.6,.6,.3-.15,.6-.75,.3-.9-.3-.15-.75-.15-.9,.3Z"/>
  <path class="cls-1" d="M187.2,185.91c.6-.15,1.2-.15,1.81,0v-.15c0-1.05-1.05-.9-1.65-.45v.15c-.15,.15-.45,0-.6,0-.15,.3,.15,.6,.45,.45Z"/>
  <path class="cls-1" d="M189,190.87c.15-.15,.3-.75,.45-.9,.6-.9,1.65-1.35,2.56-1.81v-.3s0,.15-.15,.3c-.15-.45-.6-.75-.9-1.05,0,.45-.45,.75-.75,.9-.45,.3-1.2,.75-1.35,1.35-.15,.45-.3,1.05,.15,1.5Z"/>
  <path class="cls-1" d="M180.43,184.71c.45,.15,.45-.6,.3-.75-.3-.15-.6-.3-.6,0s-.15,.6,.3,.75Z"/>
  <path class="cls-1" d="M158.31,170.11c.75,.3,1.65,.3,2.26,.45,.15,0,.6-.45,.3-.75-.45-.3-1.05,0-1.5-.6l-.3-.15c-.6-.15-.75,.45-1.2,.75,0,.15,.45,.3,.45,.3Z"/>
  <path class="cls-1" d="M213.82,180.19c-.3,.3-.75,.15-1.2,.3-.3,.15-.15,.6-.15,.75,.45,.75,1.05,.3,1.65,.15-.15,.3,.15,.15,.3,.3,.3,.15,.45-.6,.75-.3v.45c-.45,.3-.45,.75-.75,.9-.3,.15-.75,.15-.9-.3h-.15c-.15,.3,0,.9-.15,1.05-.75,.6-2.41,1.2-1.65,2.11,.6,.75,1.81,.6,2.86,.45,.15,0,.3-.15,.15-.3-.15-1.05,.45-1.05,1.05-1.65,.3-.15-.15-.45-.45-.75-.3-.15,0-.75,.3-.75,.45,0,.45-.45,.75-.3v-.6c.6,.15,1.05-.3,.9-.9-.15-.75-.75-1.2-.6-1.96,0-.3,.3-.45,.6-.6,.15,0,.3-.3,.15-.45s-.3,0-.3,0c0,.3-.3,.15-.3,.3-.6,.15-1.2,0-1.81,.3-.9,.45-.6,1.35-1.05,1.81Z"/>
  <path class="cls-1" d="M208.26,186.21c-.15,0-.45,.15-.9,.15,0,.75,.9,.45,1.2,.15-.3,.15-.15-.3-.3-.3Z"/>
  <path class="cls-1" d="M216.53,185.01c-.45,.6,.75,.6,1.2,.3v-.15q0-.15-.15-.3c-.45-.15-.9-.15-1.05,.15Z"/>
  <path class="cls-1" d="M218.49,182.6v-.3c-.15-.15,0-.3-.15-.3-.15-.15-.45,0-.6,0,.3,.15,.3,.6,.75,.6Z"/>
  <path class="cls-1" d="M189,129.05c-1.81,1.05-3.76,1.5-5.72,1.96-1.5,.3-5.26,.15-5.42,2.26,2.11,0,4.21,.15,5.57,1.96,.15,.45,.9,.3,1.35,.3-.6-1.2-1.65-2.41-1.35-4.06,1.96,.6,3.61,.3,5.57-.3,1.35-.45,3.01,.3,4.36-.6,.15-.15,0-.6,0-1.05-1.65,.75-2.86-1.35-4.36-.45Z"/>
  <path class="cls-1" d="M193.51,146.05c.15-.45-.15-.75-.45-1.05-.6-.45-1.2-.45-1.96-.45,.6,.9,1.5,1.2,2.41,1.5Z"/>
  <path class="cls-1" d="M189.6,147.55c-.3,.15,0,.6,.3,.9,.15-.3,.6-1.2-.3-.9Z"/>
  <path class="cls-1" d="M188.25,145.75h.3v-.3c0-.75-.75-.9-1.2-.9v.45c.3,.3,.45,.6,.9,.75Z"/>
  <path class="cls-1" d="M193.66,152.82s.3,.15,.3,0c.15-.15,.3-.3,.15-.6v.15c-.15-.15,.15-.6-.15-.75h-.3c-.3,.3,0,.75,0,1.2Z"/>
  <path class="cls-1" d="M196.07,153.42c-.15-.15-.15-.3-.15-.45,.15-.45-.3,0-.3-.15,0,.3,0,.45,.15,.75,.15,0,.3,0,.3-.15Z"/>
  <path class="cls-1" d="M194.87,154.32c.15,.3,.3,0,.45-.45v-.15c-.3-.3-.75-.6-1.05-.3-.3,.45,.45,.45,.6,.9Z"/>
  <path class="cls-1" d="M195.32,153.72l.15,.15c0-.15-.15-.15-.15-.15Z"/>
  <path class="cls-1" d="M195.47,154.62c.3,.6,1.05,.75,1.35,.6,.3-.15,.45-.6,.3-.75-.3-.3-.9,0-1.35,0h-.15c.15,.15-.3,0-.15,.15Z"/>
  <path class="cls-1" d="M198.48,155.82c.3-.15,0-.3,0-.45-.15-.3-.3-.6-.6-.45-.15,.15-.45,.6-.15,.9,.15,0,.45,.15,.75,0Z"/>
  <path class="cls-1" d="M198.63,156.73c.15,.3,.45,.6,.75,.75,.15,.15,.45-.15,.6-.3v-.3q.15,0,.15-.15c.15-.15,0-.45-.15-.6-.15,0-.45,.15-.6,0v-.15c-.15-.15-.45-.3-.6-.15-.3,.3-.3,.6-.15,.9Z"/>
  <path class="cls-1" d="M195.02,128c.3,.45,.6,.75,1.05,.45-.15-.15,0-.3,0-.3-.3-.3-.75-.15-1.05-.15Z"/>
  <path class="cls-1" d="M218.79,141.83c-.9-.3-1.96-.3-2.86-.3-.6,0-.6,.75-.3,1.05,.15,.15,.6,.45,1.05,.9,.3,.3,1.05-.15,1.35,.3,.3,.3,.6,1.05,1.2,1.05,.45,0,.6-.15,.75-.45,.15-1.05-.3-2.11-1.2-2.56Z"/>
  <path class="cls-1" d="M217.73,172.37h.3l-.75-.15c.15,0,.3,.15,.45,.15Z"/>
  <path class="cls-1" d="M229.47,186.66c-.15-.45,0-1.05,0-1.5,0-.9-1.05-1.05-1.81-1.05-.3,0-.75-.15-.75,.3,0,.3,0,.75,.15,1.2,1.35,1.65,1.35,3.91,1.96,5.87,.15,.75,1.5,.15,1.81-.75,.15-.45,.15-.9,.15-1.2-.15-.45-.6-.75-.75-1.2-.3-.6-.6-1.05-.75-1.65Z"/>
  <path class="cls-1" d="M227.51,183.2h.3c.45,.15,.45-.3,.45-.45-.75,0-.6-.75-.6-1.2-.15,0-.3-.15-.3,0-.6,.45,.3,1.05,.15,1.65Z"/>
  <path class="cls-1" d="M227.21,179.59s0,.07,.01,.1c.03-.02,.04-.05-.01-.1Z"/>
  <path class="cls-1" d="M227.22,179.69c-.06,.04-.21,.05-.31,.05,0-.45,0-.75-.45-.9-.15,.6-.75,.45-1.05,.75-.45,.3,0,.9,.45,1.05,.15,0,.15,.15,.15,.15,.86,.29,1.43-.26,1.21-1.1Z"/>
  <path class="cls-1" d="M226.16,178.39c.3-.3,0-.75-.6-.9-.3,0-.3-.45-.15-.9-.15,0-.3-.15-.45-.15-.6-.45,.6-.75,.15-1.2-.15-.15,0-.3-.15-.3-.15-.15-.45,0-.6,.3-.15,.3,.15,.6,0,.9,0,.3-.75,.6-.45,.75,.75,.45,0,1.2,.6,1.5,.45,.3,1.2,.45,1.65,0Z"/>
  <path class="cls-1" d="M223.9,174.03c-.15,.15-.15-.3-.3-.15,.15-.3,.3-.6,0-.75-.3-.15-.9,.15-1.2-.45h-.45c-.15,0-.15,.15-.15,.15-.15,.3-.45,.45-.15,.75,.3,.3,.45,.45,.6,.75,.15,.45,.75,0,.9,.3,.15,.3,.45,.45,.6,.3,.3-.15,0-.6,.15-.9Z"/>
  <path class="cls-1" d="M180.58,200.65c-.3,.15-.3,.3-.15,.6h.3c0-.15,0-.3,.15-.45,.15-.3,0-.45-.15-.6-.15-.3-.6,0-.45,.45h.3Z"/>
  <path class="cls-1" d="M198.63,308.66c-7.56,0-15.17,1.3-22.26,3.46-7.1-2.15-14.7-3.46-22.26-3.46-23.32,0-48.74,13.54-58.67,6.32,0,0,10.23,8.88,30.84,8.88s28.43-10.38,42.87-10.38c.91,0,1.82,.05,2.74,.14-12.81,4.67-23.42,12-28.16,19.12l4.06,2.11c5.26-8.14,16.66-17.5,28.58-20.42,11.92,2.92,23.32,12.28,28.58,20.42l4.06-2.11c-4.74-7.11-15.35-14.44-28.16-19.12,.91-.09,1.83-.14,2.74-.14,14.44,0,22.26,10.38,42.87,10.38s30.84-8.88,30.84-8.88c-9.93,7.22-35.2-6.32-58.67-6.32Z"/>
  <path class="cls-1" d="M272.34,290.91c-3.31,3.16-15.34,5.87-20.31,6.77-4.96,.75-18.8,6.02-21.96,6.47-3.16,.6-1.35-.45-1.35-.45,10.83-1.5,21.51-35.05,21.51-35.05-9.48,7.37-18.8,19.25-22.41,26.78-3.61,7.52-10.38,11.58-10.38,11.58,9.93,2.86,21.96,3.76,21.81,4.06,24.22,0,37.76-22.41,37.76-22.41,0,0-1.96-.45-4.66,2.26Z"/>
  <path class="cls-1" d="M282.87,265.18c-17.9,12.18-26.32,22.26-27.98,23.92s-.9-.6-.9-.6c13.24-16.25,11.58-42.72,11.58-42.72-11.73,16.85-15.79,32.19-16.25,38.81-.6,6.77-3.16,10.68-3.16,10.68,39.26-2.56,46.48-40.01,46.63-40.31-.6,2.56-9.93,10.23-9.93,10.23Z"/>
  <path class="cls-1" d="M291.74,236c-7.07,7.07-11.58,13.69-13.54,17.3-1.81,3.61-3.61,4.51-3.61,4.51,2.41-4.81,2.71-14.14,2.71-15.49s-1.5-12.18-2.86-14.89c-1.35-2.71-1.35-8.88-1.35-8.88-4.06,6.92-4.66,17-4.66,22.56s1.5,17.75,1.5,21.36-1.05,7.82-1.05,7.82c.6,.3,6.32-6.62,6.17-6.47,4.96-5.26,8.72-3.01,17.75-16.1,9.03-12.94,7.37-25.12,7.37-25.12,0,0-1.5,6.32-8.42,13.39Z"/>
  <path class="cls-1" d="M300.92,184.86c.45,6.02-4.96,14.59-9.03,23.62-4.06,9.03-4.96,18.8-4.96,19.71s-.9-.15-.9-.15c0,0,0-3.01-1.2-10.38-1.2-7.37-4.81-9.48-7.37-16.85-2.56-7.37-3.91-6.17-3.91-6.17-1.65,18.95,6.32,33.7,7.82,36.1,1.35,2.41,1.65,9.93,1.65,9.93,16.85-19.25,19.41-36.1,19.86-45.88,.45-9.78-1.96-9.93-1.96-9.93Z"/>
  <path class="cls-1" d="M285.27,185.61c1.5,13.69,.75,12.79,.75,12.79-.6-8.12-7.82-15.79-9.03-16.85-1.05-1.05-7.97-7.82-9.33-10.23-1.35-2.26-2.56-1.65-2.56-1.65,1.2,9.33,15.34,30.09,17.45,32.19,1.96,2.26,4.96,9.03,4.96,9.03,.75,0,2.56-6.32,2.41-6.32,5.11-12.03,5.26-21.96,5.26-21.96-3.61-27.98-10.23-29.03-10.23-29.03,4.81,9.63-1.05,18.5,.3,32.04Z"/>
  <path class="cls-1" d="M276.1,165s.9,2.71,.3,2.86c-.75,.15-2.11-2.56-2.11-2.56-9.78-12.34-13.09-10.23-16.4-14.59-4.21-5.72-5.11-4.51-5.11-4.51,2.26,10.23,15.64,23.47,19.86,26.02,4.36,2.56,9.63,7.97,9.63,7.97,.75-.9,1.35-16.25,1.35-16.1-1.96-21.06-15.04-28.58-15.04-28.58,1.35,1.96,5.26,16.4,5.42,19.1,.15,2.71,2.11,10.38,2.11,10.38Z"/>
  <path class="cls-1" d="M262.26,151.16c6.47,4.06,8.72,6.47,8.72,6.47,0,0,.9-18.5-23.47-27.83,0,0,8.42,17.3,14.74,21.36Z"/>
  <path class="cls-1" d="M135.3,307s-6.77-4.06-10.38-11.58c-3.61-7.52-12.94-19.41-22.41-26.78,0,0,10.53,33.55,21.51,35.05,0,0,1.65,1.05-1.35,.45-3.16-.45-17.15-5.72-21.96-6.47-4.96-.9-17.15-3.61-20.31-6.77-2.71-2.71-4.66-2.26-4.66-2.26,0,0,13.54,22.41,37.76,22.41,0-.3,11.88-1.2,21.81-4.06Z"/>
  <path class="cls-1" d="M103.56,284.59c-.45-6.62-4.66-21.96-16.25-38.81,0,0-1.65,26.48,11.43,42.72,0,0,.9,2.26-.75,.6s-10.08-11.73-27.98-23.92c0,0-9.33-7.67-9.93-10.23-.15,.3,7.22,37.76,46.48,40.31,0,0-2.56-3.91-3.01-10.68Z"/>
  <path class="cls-1" d="M77.53,263.83c0-.15,5.72,6.77,6.32,6.47,0,0-1.05-4.21-1.05-7.82s1.5-15.95,1.5-21.36-.45-15.64-4.81-22.56c0,0,0,6.17-1.35,8.88s-2.86,13.54-2.86,14.89,.3,10.68,2.71,15.49c0,0-1.65-.9-3.61-4.51-1.81-3.61-6.47-10.23-13.39-17.3-6.92-7.07-8.57-13.39-8.57-13.39,0,0-1.65,12.18,7.37,25.12,9.03,13.09,12.79,10.83,17.75,16.1Z"/>
  <path class="cls-1" d="M71.37,230.74c1.35-2.41,9.63-17.15,7.82-36.1,0,0-1.35-1.2-3.91,6.17-2.56,7.37-6.17,9.48-7.37,16.85-1.2,7.37-1.2,10.38-1.2,10.38,0,0-.9,1.05-.9,.15s-.9-10.68-4.96-19.71c-4.06-9.03-9.63-17.6-9.03-23.62,0,0-2.41,.15-2.11,9.93,.6,9.78,3.16,26.63,20.01,45.88,0,0,.3-7.52,1.65-9.93Z"/>
  <path class="cls-1" d="M65.2,210.88s2.86-6.77,4.96-9.03c2.11-2.11,16.1-22.86,17.45-32.19,0,0-1.2-.6-2.56,1.65-1.35,2.41-8.12,9.18-9.33,10.23-1.2,1.05-8.27,8.72-9.03,16.85,0,0-.6,.9,.75-12.79,1.35-13.54-4.36-22.41,.3-32.04,0,0-6.62,1.05-10.23,29.03,0,0,.15,9.93,5.26,21.96-.15,0,1.65,6.32,2.41,6.32Z"/>
  <path class="cls-1" d="M79.94,172.22c4.21-2.56,17.6-15.79,20.01-26.02,0,0-.9-1.2-5.11,4.51-3.31,4.36-6.62,2.26-16.4,14.59,0,0-1.35,2.71-2.11,2.56s.3-2.86,.3-2.86c0,0,1.96-7.67,1.96-10.38,.15-2.71,4.06-17.15,5.57-19.1,0,0-13.24,7.52-15.04,28.58,.15-.15,.6,15.19,1.2,16.1,0,0,5.26-5.42,9.63-7.97Z"/>
  <path class="cls-1" d="M81.75,157.63s2.26-2.41,8.57-6.47c6.32-4.06,14.74-21.36,14.74-21.36-24.22,9.33-23.32,27.83-23.32,27.83Z"/>
</svg>