<?xml version="1.0" encoding="UTF-8"?>
<svg id="Layer_1" data-name="Layer 1" xmlns="http://www.w3.org/2000/svg" viewBox="0 0 1000 444.44">
  <defs>
    <style>
      .cls-1 {
        fill: #fff;
      }
    </style>
  </defs>
  <path class="cls-1" d="M425.48,359.37v24.99l1.74,.58c5.81,1.16,11.62,1.74,17.43,2.32,5.23,.58,10.46,.58,15.11,.58,4.65-.58,9.88-1.16,14.53-2.91,5.23-1.74,10.46-4.07,15.11-8.13,4.07-3.49,6.97-7.55,8.72-12.2,2.91-8.13,2.91-16.85,0-24.99-1.74-4.07-4.65-8.13-7.55-11.04-3.49-2.91-6.97-5.23-11.62-6.39l-18.59-6.97c-2.32-1.16-4.07-2.91-5.23-4.65-.58-1.74-.58-4.07,0-5.81,.58-.58,.58-1.16,1.16-1.74s1.74-1.74,2.91-1.74c2.32-1.16,4.65-1.74,6.97-1.74,4.07-.58,8.13-.58,12.2,0,4.65,.58,9.3,1.16,13.95,2.32h1.16v-23.24l-1.74-.58c-4.65-1.16-9.3-1.74-13.95-2.32-6.39-.58-12.2-.58-18.59,0-8.13,.58-15.11,3.49-21.5,8.72-4.07,3.49-7.55,7.55-9.3,12.78-2.91,7.55-2.91,15.69,0,23.24,1.16,4.07,3.49,6.97,6.39,9.88,2.32,2.32,5.23,4.65,8.72,6.39,4.07,2.32,8.72,4.07,12.78,5.23,1.74,.58,2.91,1.16,4.65,1.16l2.32,.58h.58c2.32,.58,4.07,1.74,5.81,3.49,1.16,1.16,2.32,2.32,2.91,4.07,.58,1.16,.58,2.91,0,4.07-.58,2.32-2.32,4.07-4.07,5.23-2.32,1.16-4.65,1.74-6.97,2.32-3.49,.58-7.55,.58-11.04,.58-4.65-.58-9.88-1.16-14.53-1.74-2.32-.58-5.23-1.16-7.55-1.74l-2.91-.58Zm-102.85,24.4v-29.05h-.58c-6.39,2.91-13.95,5.23-20.92,5.23-7.55,.58-15.11-1.74-20.92-6.39-4.07-3.49-7.55-8.13-9.3-12.78-1.74-5.81-2.32-11.62-.58-17.43,1.16-5.81,4.65-11.04,9.3-15.11,4.07-3.49,9.3-5.81,14.53-6.39,9.3-1.16,19.17,.58,27.89,5.23l.58,.58v-29.05l-1.16-.58c-8.72-2.91-17.43-4.07-26.73-3.49-8.13,0-16.27,2.32-23.82,5.23-7.55,3.49-13.95,8.72-19.17,15.11-16.27,20.92-16.85,49.39-1.16,70.89,7.55,9.88,18.59,16.85,30.8,19.76,12.78,2.91,26.15,2.91,38.93-1.16l2.32-.58Zm37.77,1.74h27.31v-109.24h-27.31v109.24ZM183.18,189.12c.58,7.55,6.97,13.36,14.53,12.78,2.91,0,5.81-1.74,8.13-3.49,2.32-2.32,4.07-5.81,4.07-8.72v-30.22c0-7.55-6.39-13.36-13.95-13.36s-13.36,5.81-13.36,13.36v29.63m75.54,0c.58,6.97,6.39,12.78,13.36,12.78s12.78-5.23,13.36-12.78V121.14c0-7.55-6.39-13.36-13.95-13.36-6.97,0-12.78,5.81-13.36,13.36v67.98m75.54,27.31c.58,7.55,6.97,13.36,14.53,12.78,6.97-.58,12.2-5.81,12.78-12.78V69.42c-.58-7.55-6.97-13.36-14.53-12.78-6.97,.58-12.78,5.81-12.78,12.78V216.43Zm75.54-27.31c.58,7.55,6.97,13.36,14.53,12.78,6.97-.58,12.2-5.81,12.78-12.78V121.14c-.58-7.55-6.39-12.78-13.36-12.78-7.55,0-13.36,5.81-13.36,12.78v67.98m74.38,0c.58,7.55,6.97,13.36,14.53,12.78,2.91,0,5.81-1.74,8.13-3.49,2.32-2.32,4.07-5.81,4.07-8.72v-30.22c-.58-7.55-6.39-13.36-13.95-12.78-3.49,0-6.39,1.74-8.72,3.49-2.32,2.32-4.07,5.81-4.07,9.3v29.63Zm74.96,0c.58,7.55,6.97,13.36,14.53,12.78,6.39-.58,12.2-5.81,12.78-12.78V121.14c-.58-7.55-6.97-13.36-13.95-12.78s-12.78,5.81-12.78,12.78v67.98m74.38,27.31c.58,7.55,6.97,13.36,14.53,12.78,6.97-.58,12.2-5.81,12.78-12.78V69.42c-.58-7.55-6.39-13.36-13.95-12.78-3.49,0-6.39,1.74-8.72,4.07s-4.07,5.81-4.07,9.3l-.58,146.43Zm74.96-27.31c.58,7.55,6.97,13.36,14.53,12.78,6.97-.58,12.2-5.81,12.78-12.78V121.14c-.58-7.55-6.39-12.78-13.36-12.78-7.55,0-13.36,5.81-13.36,12.78l-.58,67.98Zm74.96,0c.58,7.55,6.97,13.36,14.53,12.78,6.97-.58,12.2-5.81,12.78-12.78v-30.22c-.58-7.55-6.39-12.78-13.36-12.78-7.55,0-13.36,5.81-13.36,12.78l-.58,30.22Zm-173.16,194.65v-29.05h-.58c-6.39,2.91-13.95,5.23-20.92,5.23-7.55,.58-15.11-1.74-20.92-6.39-4.07-3.49-7.55-8.13-9.3-12.78-1.74-5.81-2.32-11.62-.58-17.43,1.16-5.81,4.65-11.04,9.3-15.11,4.07-3.49,9.3-5.81,14.53-6.39,9.3-1.16,19.17,.58,27.89,5.23l.58,.58v-29.05l-1.16-.58c-8.72-2.91-17.43-4.07-26.73-3.49-8.13,0-16.27,2.32-23.82,5.23-7.55,3.49-13.95,8.72-19.17,15.11-16.27,20.92-16.85,49.39-1.16,70.89,7.55,9.88,18.59,16.85,30.8,19.76,12.78,2.91,26.15,2.91,38.93-1.16l2.32-.58Zm68.56-74.96c12.2-9.88,30.22-8.13,40.09,4.07,9.88,12.2,8.13,30.22-4.07,40.09,0,0-.58,0-.58,.58-12.78,9.88-30.8,7.55-40.09-5.23-9.3-12.2-6.97-29.63,4.65-39.51m-40.09,22.08c.58,31.96,26.73,56.94,58.11,56.36,4.07,0,7.55-.58,11.62-1.16,30.22-5.81,50.55-34.86,44.74-65.08-2.91-15.69-12.78-29.63-26.15-37.77-27.31-16.85-62.75-8.13-79.61,18.59-5.23,8.72-8.13,19.17-8.72,29.05"/>
</svg>