<?xml version="1.0" encoding="UTF-8"?>
<svg id="Layer_1" data-name="Layer 1" xmlns="http://www.w3.org/2000/svg" viewBox="0 0 1000 444.44">
  <defs>
    <style>
      .cls-1 {
        fill: #fff;
      }
    </style>
  </defs>
  <polygon class="cls-1" points="223.36 191.35 273.36 191.35 273.36 201.6 255 201.6 255 253.03 241.75 253.03 241.75 201.6 223.36 201.6 223.36 191.35"/>
  <polygon class="cls-1" points="293.63 253.03 293.63 225.94 317.1 225.94 317.1 253.03 330.36 253.03 330.36 191.35 316.94 191.35 316.94 215.69 293.63 215.69 293.63 191.35 280.37 191.35 280.37 253.03 293.63 253.03"/>
  <polygon class="cls-1" points="341.12 253.03 383.43 253.03 383.43 242.78 354.38 242.78 354.38 226.29 380.7 226.29 380.7 216.04 354.38 216.04 354.38 201.6 382.5 201.6 382.5 191.35 341.12 191.35 341.12 253.03"/>
  <polygon class="cls-1" points="436.33 237.75 436.17 237.75 426.69 191.35 413.02 191.35 428.07 253.03 443.09 253.03 455.07 206.05 455.23 206.05 466.34 253.03 481.01 253.03 496.73 191.35 484.08 191.35 474.16 237.75 474 237.75 463.23 191.35 448.31 191.35 436.33 237.75"/>
  <path class="cls-1" d="M530.87,190.1c-20.43-.03-29.66,13.9-29.66,32.12s9.22,32.12,29.66,32.12,29.66-13.9,29.66-32.12-9.22-32.12-29.66-32.12Zm0,54.67c-13.07,0-15.56-11.98-15.56-22.55s2.5-22.58,15.56-22.58,15.56,11.98,15.56,22.58-2.5,22.55-15.56,22.55Z"/>
  <path class="cls-1" d="M615.39,238.43c-1.12-8.55-1.12-14.8-11.27-15.88v-.16c7.62-1.6,12.81-6.92,12.81-14.96,0-12.55-10.86-15.98-21.46-16.08h-26.23v61.68h13.26v-24.85h14.03c4.36,.16,5.19,4.87,5.54,8.29,.58,5.57,1.19,11.11,2.31,16.56h14.6c-2.47-3.43-2.98-10.66-3.59-14.6Zm-21.81-20.53h-11.08v-16.3h11.08c5.83,.1,9.22,2.4,9.22,7.85s-3.43,8.36-9.22,8.45Z"/>
  <polygon class="cls-1" points="667.01 253.03 667.01 242.78 640.27 242.78 640.27 191.35 627.05 191.35 627.05 253.03 667.01 253.03"/>
  <path class="cls-1" d="M695.2,191.35h-21.01v61.68h21.01c19.22,.16,31.19-9.38,31.19-30.84s-11.98-31.03-31.19-30.84Zm-.9,51.43h-6.85v-41.18h6.85c15.72-.16,18.03,10.76,18.03,20.59s-2.31,20.75-18.03,20.59Z"/>
  <path class="cls-1" d="M794.54,221.01v-.16c6.15-2.05,10.86-6.76,10.86-13.48,0-12.04-11.27-16.65-22.29-15.98h-23.15v61.68h23.31v-.03c9.48,.67,24.85-3.75,24.85-15.98,0-9.03-5.8-14.41-13.58-16.04Zm-21.39-19.41h10.34c5.54,0,8.61,2.31,8.61,7.27s-3.07,7.27-8.61,7.27h-10.34v-14.54Zm10.34,41.18h-10.34v-16.4h10.34c6.24,0,10.5,1.12,10.5,8.2s-4.26,8.2-10.5,8.2Z"/>
  <path class="cls-1" d="M850.26,191.35h-15.72l-22.32,61.68h12.65l4.61-13.07h24.44l4.45,13.07h13.32l-21.43-61.68Zm-17.36,38.37l9.03-26.33h.19l8.45,26.33h-17.68Z"/>
  <polygon class="cls-1" points="934.17 253.03 934.17 191.35 921.78 191.35 921.78 239.71 921.62 239.9 898.11 191.38 878.48 191.38 878.48 253.06 890.87 253.06 890.87 201.95 891.03 201.76 915.37 253.03 934.17 253.03"/>
  <polygon class="cls-1" points="958.29 191.35 945.06 191.35 945.06 253.03 958.29 253.03 958.29 221.58 958.45 221.58 979.9 253.03 996.4 253.03 971.8 218.96 994.44 191.35 978.97 191.35 958.48 218.03 958.32 218.03 958.32 191.35 958.29 191.35"/>
  <path class="cls-1" d="M187.75,181.28c-2.34,.99-3.43,3.68-2.43,6.02,4.68,11.05,7.05,22.83,7.05,34.94,0,7.43-.93,14.64-2.66,21.55-1.35,4.36-3.75,8.39-7.05,12.04,.06-1.57,.13-3.14,.13-4.74,.03-17.68-4.84-36.32-13.9-53.87,6.63-5.7,10.86-12.75,12.33-20.62,.45-2.5-1.18-4.9-3.68-5.38-2.5-.48-4.9,1.18-5.35,3.68-.96,5.22-3.68,9.99-7.91,14.06-1.31-2.18-2.69-4.32-4.13-6.47-8.07-11.85-17.68-22.1-28.18-30.26,13.87,.9,26.68,4.29,37.02,10.06,1.63,.93,3.78,.9,5.28-.38,1.95-1.63,2.21-4.55,.58-6.5-14.83-20.72-40.48-32.15-72.25-32.15C48.02,123.25,3.6,167.67,3.6,222.24c0,9.42,1.35,18.51,3.81,27.13,.16,.58,.29,1.15,.45,1.73,.03,.13,.1,.22,.13,.32,12.49,40.35,50.15,69.78,94.57,69.78,20.56,0,39.65-6.31,55.5-17.07,.16-.1,.32-.16,.45-.26,.96-.64,1.86-1.31,2.75-2.02,18.19-13.45,31.67-32.99,37.31-55.6,.32-1.02,.61-2.11,.83-3.17,.06-.26,.06-.51,.1-.77,1.35-6.5,2.05-13.23,2.05-20.11,0-13.35-2.63-26.33-7.78-38.53-.96-2.31-3.68-3.39-6.02-2.4Zm-35.2,6.44c1.51,2.24,2.95,4.48,4.32,6.79-7.37,4.26-16.65,6.79-26.71,7.53-.86-15.88-2.72-31.19-5.73-43.91,10.47,7.78,20.08,17.84,28.12,29.59Zm-13.67-48.74c4.61,1.86,9.19,4.23,13.55,7.21-6.95-1.73-14.35-2.79-22.03-3.17,3.14-2.05,6.05-3.46,8.49-4.04Zm-12.17-3.81c-2.56,1.38-5.22,3.11-7.91,5.16-1.22-2.72-2.5-5.12-3.88-7.17,3.68,.42,7.65,1.06,11.79,2.02Zm-43.78,67.22c6.6,2.98,13.8,5.32,21.36,6.95,5.73,1.22,11.43,1.89,17.07,2.08,.1,3.46,.16,7.01,.16,10.66,0,21.68-1.73,39.68-4.23,53.74-8.23-.35-16.72-1.44-25.24-3.23-11.4-2.47-22.16-6.05-31.93-10.66,3.2-14.41,9.16-31.9,18.64-51.27,1.31-2.82,2.72-5.57,4.16-8.26Zm-16.08-21.26c-3.81-3.59-6.69-7.27-8.65-11.02,8.61-5.19,18.16-9.42,28.34-12.49,6.05-1.83,12.17-3.17,18.29-4.1-8.84,9.86-17.61,22.42-25.68,36.61-4.61-2.66-8.74-5.67-12.3-9Zm54.12,21.04c-4.87-.19-9.86-.8-14.76-1.86-6.66-1.41-13-3.46-18.83-6.02,8.58-15.02,18-28.09,27.25-37.82,2.88,11.4,5.32,26.71,6.34,45.7Zm-18.51-69.69c1.57,.03,3.49,1.89,5.51,5.54-1.02-.45-2.05-.86-3.07-1.25-4.16-1.6-8.29-2.82-12.36-3.71,3.27-.38,6.57-.58,9.93-.58Zm-46.79,22.64c1.02-4.77,3.91-9.03,8.33-12.59,10.73-3.2,23.25-2.43,36.38,2.37-5.51,.96-11.05,2.24-16.53,3.88-10.15,3.04-19.73,7.21-28.5,12.3-.16-2.02-.06-4,.32-5.96Zm-8.61-3.33c-.13,.48-.26,.93-.35,1.44-.93,4.36-.83,8.78,.26,13.19-9.9,6.82-18.51,14.92-25.4,23.99-2.08,2.75-3.94,5.57-5.64,8.42,5.09-18.86,16.2-35.26,31.13-47.05Zm1.47,142.07c-15.37-11.63-26.84-28.05-32.28-47.05-.77-3.01-1.28-6.05-1.47-9.13,3.07,4.36,6.82,8.65,11.27,12.78,6.73,6.21,14.73,11.79,23.63,16.56-1.79,10.18-2.31,19.41-1.15,26.84Zm-16.2-50.18c-7.81-7.24-13.19-14.86-15.95-22.48,2.18-8.52,6.37-17.07,12.55-25.24,5.86-7.78,13.16-14.76,21.55-20.78,2.4,4.36,5.8,8.61,10.09,12.65,4.1,3.84,8.84,7.3,14.16,10.34-1.47,2.75-2.88,5.57-4.26,8.42-8.17,16.75-14.83,34.68-18.77,50.98-7.27-4.07-13.84-8.74-19.38-13.9Zm70.33,68.28c-.22,0-.45,.03-.64,.06-13.71-.1-26.68-3.23-38.3-8.84-.26-.22-.58-.42-.9-.58-5.12-2.5-7.17-13.9-4.52-31.32,9.83,4.42,20.53,7.91,31.77,10.31,8.52,1.83,17.01,2.95,25.33,3.36-4.07,17.71-9.29,27-12.75,27Zm53.03-17.39c-11.47,8.45-25.01,14.25-39.71,16.46,3.68-6.37,6.66-15.34,8.9-25.88,13-.16,25.33-2.05,36.25-5.73,2.75-.93,5.35-1.95,7.85-3.07-3.01,7.43-7.46,13.61-13.29,18.22Zm16.78-30.42c-4.13,2.53-8.87,4.74-14.25,6.53-9.51,3.2-20.21,4.93-31.58,5.22,2.72-16.37,4.04-35.36,4.04-53.83,0-3.59-.03-7.21-.16-10.79,11.47-.77,22.07-3.75,30.74-8.74,8.04,15.92,12.36,32.7,12.33,48.52,0,4.61-.38,9-1.12,13.1Z"/>
</svg>