<svg width="28" height="28" viewBox="0 0 28 28" fill="none" xmlns="http://www.w3.org/2000/svg">
<path fill-rule="evenodd" clip-rule="evenodd" d="M14 28C21.732 28 28 21.732 28 14C28 6.26801 21.732 0 14 0C6.26801 0 0 6.26801 0 14C0 21.732 6.26801 28 14 28ZM14.4982 23C15.3824 23 16.2383 22.8785 17.0496 22.6515C17.0333 22.5956 17.0258 22.5377 17.0258 22.4817C17.0258 22.3685 17.0271 22.1704 17.0289 21.9056C17.0302 21.705 17.0318 21.4661 17.0332 21.1969C17.0356 20.7462 17.0377 20.2106 17.0377 19.6272C17.0377 18.6569 16.712 18.0238 16.3465 17.701C18.6158 17.4436 21 16.5638 21 12.5687C21 11.4331 20.6046 10.5052 19.9511 9.77682C20.057 9.51476 20.4059 8.4569 19.8512 7.02409C19.8512 7.02409 18.9967 6.7445 17.0513 8.09034C16.2368 7.85981 15.3643 7.74426 14.4982 7.74035C13.6321 7.74426 12.7602 7.85981 11.9473 8.09034C9.99969 6.7445 9.14395 7.02409 9.14395 7.02409C8.59053 8.4569 8.93935 9.51476 9.04519 9.77682C8.3932 10.5052 7.9951 11.4332 7.9951 12.5687C7.9951 16.5543 10.3747 17.4462 12.6384 17.7093C12.347 17.969 12.0828 18.4279 11.9914 19.1002C11.4098 19.3659 9.93461 19.8257 9.02567 18.2355C9.02567 18.2355 8.4867 17.2369 7.4633 17.1636C7.4633 17.1636 6.469 17.1504 7.39363 17.7959C7.39363 17.7959 8.06161 18.1156 8.52517 19.3179C8.52517 19.3179 9.12347 21.1743 11.9588 20.5451C11.9612 21.0253 11.9651 21.4902 11.9683 21.852L11.9683 21.8526C11.9708 22.1455 11.9727 22.3708 11.9727 22.4817C11.9727 22.5378 11.9649 22.5958 11.9482 22.6519C12.7591 22.8787 13.6144 23 14.4982 23Z" fill="inherit"/>
</svg>
