<svg width="40" height="41" viewBox="0 0 40 41" fill="none" xmlns="http://www.w3.org/2000/svg">
<rect y="0.5" width="40" height="40" rx="8" fill="#00599D"/>
<path d="M22.25 28.7513C22.25 29.0251 22.0651 29.2663 21.7968 29.3206C21.2162 29.4383 20.6153 29.5 20 29.5C19.3847 29.5 18.7838 29.4383 18.2032 29.3206C17.9349 29.2663 17.75 29.0251 17.75 28.7513V24.85C17.75 24.5186 18.0186 24.25 18.35 24.25L21.65 24.25C21.9814 24.25 22.25 24.5186 22.25 24.85V28.7513Z" fill="white"/>
<path d="M22.25 22.15C22.25 22.4814 21.9814 22.75 21.65 22.75L18.35 22.75C18.0186 22.75 17.75 22.4814 17.75 22.15V18.85C17.75 18.5186 18.0186 18.25 18.35 18.25L21.65 18.25C21.9814 18.25 22.25 18.5186 22.25 18.85V22.15Z" fill="white"/>
<path d="M24.35 24.25C24.0186 24.25 23.75 24.5186 23.75 24.85V27.7484C23.75 28.1857 24.2021 28.4728 24.5784 28.2501C25.8839 27.4772 26.9772 26.3839 27.7501 25.0784C27.9728 24.7021 27.6857 24.25 27.2484 24.25H24.35Z" fill="white"/>
<path d="M28.8206 22.2968C28.7663 22.5651 28.5251 22.75 28.2513 22.75H24.35C24.0186 22.75 23.75 22.4814 23.75 22.15V18.85C23.75 18.5186 24.0186 18.25 24.35 18.25H28.2513C28.5251 18.25 28.7663 18.4349 28.8206 18.7032C28.9383 19.2838 29 19.8847 29 20.5C29 21.1153 28.9383 21.7162 28.8206 22.2968Z" fill="white"/>
<path d="M15.65 22.75C15.9814 22.75 16.25 22.4814 16.25 22.15V18.85C16.25 18.5186 15.9814 18.25 15.65 18.25H11.7487C11.4749 18.25 11.2337 18.4349 11.1794 18.7032C11.0617 19.2838 11 19.8847 11 20.5C11 21.1153 11.0617 21.7162 11.1794 22.2967C11.2337 22.5651 11.4749 22.75 11.7487 22.75H15.65Z" fill="white"/>
<path d="M12.7516 24.25C12.3143 24.25 12.0271 24.7021 12.2499 25.0784C13.0228 26.3839 14.1161 27.4772 15.4216 28.2501C15.7979 28.4728 16.25 28.1857 16.25 27.7484V24.85C16.25 24.5186 15.9814 24.25 15.65 24.25H12.7516Z" fill="white"/>
<path d="M18.2032 11.6794C17.9349 11.7337 17.75 11.9749 17.75 12.2487V16.15C17.75 16.4814 18.0186 16.75 18.35 16.75L21.65 16.75C21.9814 16.75 22.25 16.4814 22.25 16.15V12.2487C22.25 11.9749 22.0651 11.7337 21.7968 11.6794C21.2162 11.5617 20.6153 11.5 20 11.5C19.3847 11.5 18.7838 11.5617 18.2032 11.6794Z" fill="white"/>
<path d="M23.75 16.15C23.75 16.4814 24.0186 16.75 24.35 16.75H27.2484C27.6857 16.75 27.9728 16.2979 27.7501 15.9216C26.9772 14.6161 25.8839 13.5228 24.5784 12.7499C24.2021 12.5271 23.75 12.8143 23.75 13.2516V16.15Z" fill="white"/>
<path d="M12.2499 15.9216C12.0272 16.2979 12.3143 16.75 12.7516 16.75H15.65C15.9814 16.75 16.25 16.4814 16.25 16.15V13.2516C16.25 12.8143 15.7979 12.5271 15.4216 12.7499C14.1161 13.5228 13.0228 14.6161 12.2499 15.9216Z" fill="white"/>
</svg>
