<?xml version="1.0" encoding="UTF-8"?>
<svg id="Layer_2" data-name="Layer 2" xmlns="http://www.w3.org/2000/svg" viewBox="0 0 112 160">
  <defs>
    <style>
      .cls-1 {
        fill: #2195f2;
      }
    </style>
  </defs>
  <path class="cls-1" d="M87.54,107.94v14.84c0,8.73-6.99,14.84-14.84,14.84H40.39c-8.73,0-14.84-6.99-14.84-14.84V38.96c0-8.73,6.99-14.84,14.84-14.84h32.31c8.73,0,14.84,6.99,14.84,14.84v1.75c2.62-.87,6.11-1.75,8.73-1.75,3.49,0,6.99,.87,10.48,1.75v-2.62c0-19.21-15.72-34.93-34.93-34.93H39.52C20.31,3.16,4.59,18.88,4.59,38.09V121.91c0,19.21,15.72,34.93,34.93,34.93h32.31c19.21,0,34.93-15.72,34.93-34.93v-37.54l-19.21,23.57Z"/>
  <path class="cls-1" d="M71.83,102.7l34.93-40.16c.87-.87,.87-3.49,0-4.37h0c-6.11-5.24-15.72-4.37-20.96,1.75l-21.83,25.32c-.87,.87-1.75,.87-1.75,0l-7.86-9.6c-1.75-1.75-4.37-1.75-6.11,0h0c-5.24,5.24-5.24,13.97-.87,20.08l6.99,7.86c3.49,5.24,12.22,5.24,17.46-.87Z"/>
</svg>