<svg width="28" height="28" viewBox="0 0 28 28" fill="none" xmlns="http://www.w3.org/2000/svg">
<path fill-rule="evenodd" clip-rule="evenodd" d="M14 28C21.732 28 28 21.732 28 14C28 6.26801 21.732 0 14 0C6.26801 0 0 6.26801 0 14C0 21.732 6.26801 28 14 28ZM10.4051 11.5536V20.9997H7.18953V11.5536H10.4051ZM10.617 8.63224C10.617 9.53873 9.91905 10.2641 8.79797 10.2641L8.79771 10.264H8.7769C7.6977 10.264 7 9.53864 7 8.63216C7 7.70511 7.71877 7 8.81929 7C9.91905 7 10.596 7.70511 10.617 8.63224ZM15.4002 20.9997H12.1849L12.1848 21C12.1848 21 12.227 12.44 12.1851 11.5539H15.4004V12.8909C15.8278 12.2474 16.5928 11.3321 18.2984 11.3321C20.4139 11.3321 22 12.6822 22 15.5836V20.9997H18.7848V15.9468C18.7848 14.6768 18.3192 13.8107 17.156 13.8107C16.2675 13.8107 15.7384 14.3948 15.5061 14.9591C15.4211 15.1605 15.4002 15.4432 15.4002 15.7251V20.9997Z" fill="inherit"/>
</svg>
