<?xml version="1.0" encoding="UTF-8"?>
<svg id="Layer_1" data-name="Layer 1" xmlns="http://www.w3.org/2000/svg" viewBox="0 0 1000 444.44">
  <defs>
    <style>
      .cls-1 {
        fill: #fff;
      }
    </style>
  </defs>
  <path class="cls-1" d="M287.82,220.14c0-3.76-.21-7.54,.05-11.28,.39-5.62,1.03-11.22,1.71-16.81,.58-4.74,1.27-9.48,2.1-14.19,.59-3.32,1.46-6.6,2.27-9.88,2.22-8.95,5.09-17.68,8.51-26.25,3.31-8.3,7.26-16.27,11.55-24.09,5.3-9.65,11.61-18.64,18.4-27.26,5.78-7.33,12.25-14.08,18.95-20.59,12.09-11.76,25.42-21.91,39.89-30.52,11.05-6.58,22.68-12.03,34.79-16.45,8.26-3.02,16.7-5.41,25.23-7.42,5.36-1.26,10.85-1.98,16.28-2.9,6.52-1.11,13.11-1.52,19.7-2.07,9.01-.75,18.01-.47,27-.28,4.46,.1,8.93,.59,13.35,1.23,6.59,.97,13.18,1.99,19.7,3.47,7.34,1.66,14.56,3.67,21.67,6.09,12.19,4.14,23.81,9.53,35.05,15.8,9.81,5.47,19.06,11.74,27.88,18.64,8.29,6.48,16.18,13.44,23.26,21.24,9.43,10.38,17.87,21.54,25.1,33.56,7.08,11.75,12.86,24.15,17.65,37,3.77,10.13,6.53,20.58,8.95,31.09,1.28,5.57,1.9,11.29,2.8,16.94,1.03,6.53,1.53,13.1,2.07,19.68,.61,7.51,.67,15.01,.28,22.49-.33,6.34-1.18,12.66-2.21,18.96-2.07,12.71-5.55,25.01-9.91,37.08-3.65,10.08-8.11,19.81-13.32,29.21-5.75,10.38-12.08,20.33-19.46,29.63-2.46,3.1-4.85,6.25-7.53,9.15-5.03,5.44-10.05,10.9-15.4,16.01-11.16,10.65-23.39,19.95-36.69,27.82-12.92,7.64-26.53,13.75-40.82,18.35-9.29,2.99-18.72,5.34-28.33,7.04-6.5,1.15-13.02,1.96-19.58,2.65-11.21,1.17-22.45,1.5-33.68,.99-6.45-.29-12.89-1.11-19.3-2.22-6.7-1.16-13.35-2.51-19.85-4.42-7.2-2.12-14.33-4.51-21.37-7.13-5.85-2.17-11.54-4.81-17.28-7.28-9.79-4.22-18.97-9.57-27.78-15.54-7-4.74-13.82-9.72-19.97-15.55-5.22-4.95-10.54-9.81-15.44-15.06-10.59-11.35-20.04-23.59-27.98-36.97-7.99-13.48-14.33-27.67-18.89-42.65-2.34-7.7-4.23-15.5-5.66-23.43-1.15-6.38-2.13-12.77-2.61-19.24-.31-4.13-.88-8.24-1.07-12.38-.19-4.08-.04-8.17-.04-12.25,0,0-.01,0-.02,0Zm212.77,202.02c0,.13,0,.27,.01,.4,5.34-.3,10.68-.56,16.02-.9,6.26-.4,12.43-1.45,18.61-2.53,8.05-1.41,15.95-3.41,23.75-5.81,13.94-4.3,27.21-10.15,39.81-17.53,13.99-8.19,26.79-17.95,38.35-29.29,4.74-4.65,9.24-9.57,13.52-14.64,4.61-5.46,9.01-11.13,13.18-16.93,7.47-10.4,13.63-21.56,18.75-33.31,3.94-9.04,7.14-18.34,9.62-27.87,2.59-9.98,4.37-20.1,5.32-30.37,.61-6.6,1.22-13.19,1.13-19.82-.07-5.24-.36-10.47-.49-15.71-.11-4.7-.7-9.35-1.31-14-.78-6-1.93-11.93-3.28-17.82-3.08-13.48-7.68-26.41-13.6-38.89-2.88-6.05-6.13-11.9-9.64-17.62-6.56-10.69-14.09-20.64-22.62-29.82-6.15-6.61-12.9-12.58-19.64-18.57-10.01-8.9-20.77-16.71-32.37-23.42-10.15-5.87-20.75-10.66-31.79-14.54-12.75-4.48-25.9-7.27-39.27-8.87-6.88-.82-13.84-.99-20.77-1.3-2.54-.11-5.1,.3-7.65,.36-7.91,.19-15.81,.24-23.68,1.31-5.58,.76-11.13,1.64-16.56,3.11-6.74,1.82-13.45,3.78-20.11,5.87-13.21,4.14-25.74,9.78-37.71,16.8-10.46,6.14-20.26,13.14-29.17,21.3-6.17,5.65-11.87,11.82-17.58,17.93-8.7,9.32-16.14,19.61-22.83,30.46-7.56,12.26-13.67,25.18-18.34,38.79-4,11.66-6.87,23.58-8.52,35.81-.97,7.19-1.86,14.38-1.86,21.64,0,8.04-.38,16.07,.58,24.11,.76,6.34,1.52,12.66,2.64,18.94,1.55,8.67,3.66,17.19,6.32,25.57,3.7,11.66,8.5,22.84,14.39,33.57,7.28,13.27,16.08,25.45,26.32,36.55,5.3,5.75,11.05,11.11,16.84,16.4,5.92,5.41,12.43,10.09,19.02,14.66,11.22,7.8,23.12,14.38,35.62,19.86,9.12,4,18.53,7.23,28.17,9.75,7.8,2.04,15.66,3.8,23.7,4.61,5.28,.54,10.55,1.33,15.84,1.72,3.74,.27,7.52,.05,11.28,.05Z"/>
  <path class="cls-1" d="M468.24,152.79v35.15c-1.05,0-1.99-.06-2.92,0-9.84,.73-19.72,.91-29.55,.44-9.64-.46-19.28-.24-28.91-.5-.64-.02-1.29,0-1.87,0-.95,.44-1.22,1.14-1.22,2.11,.03,7.84,.02,15.68,.02,23.39,1.28,1.35,2.81,1.13,4.27,1.13,21.29,0,42.58,0,63.86,0,1.27,0,2.54,0,3.96,0v37.54c-2.52,.58-110.11,.83-120.3,.26-.2-2.24-.59-4.53-.59-6.81-.04-40-.03-79.99,0-119.99,0-2.22,.44-4.43,.42-6.64-.03-3.4-.41-6.8-.41-10.19,0-5.03,.2-10.05,.32-15.27,.79-.31,1.42-.65,2.1-.79,.62-.13,1.28-.04,1.93-.04,36.12,0,72.25,0,108.37,0h3.64v36.31s-.07,.08-.15,.15c-.08,.06-.18,.13-.26,.13-21.6,0-43.21,0-65.08,0-.27,.61-.77,1.24-.8,1.9-.33,6.39-.58,12.79-.85,19.25,.64,.39,1.14,.93,1.69,.99,2.42,.27,4.86,.53,7.29,.55,15.16,.1,30.32,.1,45.48,.23,3.07,.03,6.13,.45,9.57,.72Z"/>
  <path class="cls-1" d="M548.36,372.56V213.28h112.22v35.99h-64.41c-.23,1.95-.57,3.71-.62,5.47-.11,3.65,.03,7.31-.1,10.96-.11,2.97-.45,5.93-.7,9.03,.54,.11,.92,.24,1.32,.27,10.59,.81,21.21,1,31.8,.49,8.67-.41,17.34-.32,26-.49,.64-.01,1.28,0,1.9,0,.57,2.36,.73,28.85,.21,34.24h-61.16c-.03,21.12,0,42.02-.02,63.27-15.53,.07-30.93,.03-46.43,.03Z"/>
  <path class="cls-1" d="M462.15,315.1c-1.19-12.27-4.5-23.93-7.44-35.9,4.1-.75,8.04-1.38,11.95-2.2,4.94-1.03,9.9-1.93,14.23-4.88,4.28-2.92,6.27-6.97,6.89-11.97,.43-3.51,.72-7.02,.47-10.53-1.12-15.86-.33-31.74-.48-47.61-.15-15.79-.03-31.59-.03-47.39v-1.88c.43-.4,.98-.9,1.53-1.4h46.43c.42,2.22,.24,10.06,.12,12.11-.21,3.4-.12,6.82-.11,10.24,0,.94,.26,1.89,.28,2.83,.06,3.01,.03,6.02,.09,9.03,.24,13.94,.48,27.87,.76,41.81,.08,3.84,.47,7.67,.42,11.51-.08,7.17-.1,14.35-.66,21.49-.44,5.67-.64,11.39-2.33,16.95-1.53,5.02-3.72,9.62-6.79,13.83-5.38,7.37-12.86,11.99-21.05,15.47-7.48,3.18-15.42,4.93-23.38,6.46-3.95,.76-8.02,.82-11.99,1.5-2.96,.5-5.87,.64-8.91,.54Z"/>
</svg>