<?xml version="1.0" encoding="UTF-8"?>
<svg id="Layer_1" data-name="Layer 1" xmlns="http://www.w3.org/2000/svg" viewBox="0 0 1000 444.44">
  <defs>
    <style>
      .cls-1 {
        fill: #fff;
      }
    </style>
  </defs>
  <g id="key">
    <g>
      <g>
        <path class="cls-1" d="M244.97,124.94c1.69-3.67,3.27-6.6,5.54-10.09,1-1.53,2.14-2.61,3.14-4.16-.48-.15-1.18,.25-1.49,.47-1,.73-1.46,1.92-2.27,2.56-1.9,1.5-1.85,2.87-2.85,3.55-.89,.64-1.15,1.05-1.78,2.03-.41,.65-.72,1.19-1.16,2.47-.16,.47-.47,.06-1.22,1.09-.97,1.33-1.41,2.76-1.81,4.38-.14,.53-1.04,.81-1.61,1.91-.77,1.48-1.29,2.86-1.62,5.01-.08,.5-.93,.85-1.52,2.25-.41,.98-.7,1.19-1.07,3.05-.22,1.13-.74,1.29-1.32,2.92-.44,1.25-.46,2.45-.62,4.09-.03,.33-.57,.94-1.07,1.86-.82,1.52-.79,2.55-1.13,4.13-.12,.57-.76,1.32-1.38,3.77-.54,2.17-.05,3.6-.23,4.68-.48,2.77-.95,5.18-.7,7.92,.13,1.33,.33,2.71,.24,4-.26,4.03-.47,7.35-.45,11.92,.01,2.49,.21,5.9,.58,8.73,.41,3.13,1.01,5.57,1.01,5.57h10.2s-.4-5.89,.13-12.11c.32-3.72,1.2-7.66,2-10.43,1.02-3.53,1.65-5.36,3.58-10.02,.04-.11-.01-.54-.53-.12-1.06,.9-1.95,1.68-2.79,2.94-1.28,1.94-2.06,3.54-3.11,5.52-1.21,2.31-1.87,4.32-3.13,7.12-.07-2.02,.26-3.95,.67-5.82,.42-1.9,.75-3.41,1.35-5.05,1.07-2.9,2.1-5.31,3.8-8.01,.99-1.55,2.25-2.95,3.53-4.12,1.53-1.4,2.95-2.64,4.55-4-1.69-.86-3.94,.94-4.38,1.03-2.37,.46-3.34,2.67-4.07,2.97-1.03,.44-1.63,1.07-2.35,1.94-.56,.66-.73,1.68-1.3,2.04-.96,.6-1.67,1.51-2.34,2.78-.27,.52-1.03,3-1.85,2.69,1.41-8.41,4.38-16.29,9.14-23.31,3.03-4.45,6.31-8.27,11.15-11.68,.64-.46,.77-.67-.13-.64-4.52,.55-4.8,2.62-5.54,2.81-.71,.18-1.58,1.03-2.14,1.57-1.01,.99-.99,1.84-1.38,2.1-.82,.57-1.44,1.17-2.01,2.17-.29,.53-.8,1.68-1.24,1.94-1.16,.67-2.28,1.65-2.85,2.71-.41,.77-.57,1.61-1.11,2.37-.58,.82-1.39,1.43-2.09,2.02,.53-3.59,2.22-7.85,3.39-11.52,1.57-4.9,3.47-9.36,5.61-13.99Z"/>
        <path class="cls-1" d="M255.39,154.05c3.86-8.66,7.92-15.19,13.2-22.82,.69-1,1.31-1.97,1.92-2.91,.26-.42,1.57-2.29,1.84-2.69,1.76-2.67,2.51-3.48,4.32-6.04,.48-.69,.88-1.24,1.1-2.03,.39-1.5-.9-2.5-1.19-3.94-.3-1.46-.14-3.06,.54-4.3,.42-.77,.83-1.07,1.26-2.11,.82-2,.53-6.32,1.48-6.44-.24,2.05-.3,4.36,.02,6.33,.38,2.3,1.77,3.68,2.35,6.12,1.55-.28,3.24-.21,4.53-.09,1.3,.1,2.94-.26,4.27-.71,1.8-.61,3.29-1.73,5.13-2.17-1.56,1.5-3.76,2.07-5.61,3.2-.67,.43-1.31,.99-1.76,1.69-.75,1.16-1.33,2.26-2.5,2.77-2.06,.9-3.83,.47-6.19,.91-3.49,3.6-6.78,8.5-9.82,13.65-7.7,13.02-14.13,26.52-17.86,40.35,1.3-2.41,2.52-4.73,3.92-7.02,1.55-2.55,3.29-5.03,5.18-7.53,4.43-5.84,8.82-10.94,13.74-16.31,3.95-4.34,8.31-7.99,13.16-11.03,6.4-4.01,14.31-6.82,21.25-5.38,.79,.19,1.92,.4,2.41,.92-8.7-1.21-16.5,1.83-22.31,6.49-4.6,3.67-8.47,7.4-12.41,12.25-2.03,2.33-3.86,4.9-5.67,7.38-1.91,2.62-3.59,5.37-5.27,8.13-5.63,9.31-9.9,19.17-13.04,29.38-.09,.32-.11,.65-.2,.97,.16-.24,.38-.48,.52-.71,4.22-6.87,9.31-13.5,15.75-17.95,.55-.37,1.15-1.11,1.29-1.69,.7-2.72-1.38-4.03,1.5-7.81,.66-.86,1.56-1.18,2.18-1.98,1.18-1.82,2.14-5.08,3.12-5.95-.5,2.12-1.72,4.36-1.97,6.55-.27,2.4,.34,4.36,.44,6.9,1.7,.24,3.02,.96,4.36,1.37,2.07,.64,3.32,.48,5.37,.3,.88-.07,2.46-.59,3.41-.39-1.99,1.09-4.66,.89-6.69,1.92-1.41,.73-1.83,1.81-3.78,2.18-1.74,.34-3.21,.16-4.35-.42-.88-.45-1.56-.63-2.35-.25-2.11,1.01-3.56,2.44-5.26,4.16-3.94,3.97-7.17,8.41-10.17,14.21-.79,1.56-1.51,3.08-2.19,4.65-.33,.77-1.17,2.9-1.17,2.9h-10.3s-.03-2.98,.07-4.06c.2-2.17,.49-3.77,.91-5.96,.6-3.16,1.18-6.02,2-9.08,.79-2.98,1.65-5.77,2.67-8.64,2.13-5.96,4.4-11.69,6.88-17.25Z"/>
        <path class="cls-1" d="M155.68,234.38c3.76-3.09,6.55-4.87,10.31-7.1,1.53-.92,3.84-1.95,5.61-2.76,6.51-2.94,15.12-5.1,23.24-5.26,.15,0,.13,0,.13,0h60.53s-.23,0,.21,0c1.93,0,3.83,.67,5,1.79,1.18,1.12,1.75,2.85,2.06,4.57,.26,1.46,.13,2.75-.21,4.32-.27,1.24-.46,1.97-1.15,3.02-.42,.64-.81,1.08-1.59,1.7-.79,.64-1.92,.85-3.22,.86-.14,0-.42,.01-.41,0,0,0-70.79,0-70.79,0,0,0-.44,0-.66,0-4.64-.01-9.51,.23-14.1,.83-3.51,.47-7.03,1.02-10.41,1.91-4.28,1.11-8.39,2.66-12.5,4.2,2.28-3.03,4.91-5.61,7.93-8.07Z"/>
        <path class="cls-1" d="M176.69,210.3c3.73-2.68,8.24-4.89,12.24-6.42,2.03-.77,4.72-1.62,6.87-2.15,2.58-.65,5.56-1.15,7.98-1.22,.73-.02,.11,0,.11,0h51.9s1.12,.06,1.5,.13c.97,.21,1.76,.61,2.09,.82,.8,.51,1.82,1.6,2.35,2.46,1.34,2.22,1.58,4.61,1.15,7.11-.51,2.85-2.66,6.09-5.61,6.16-.51,.01-1.53,0-1.53,0h-56.22s-3.27,.07-4.76,.12c-2.77,.1-5.83,.42-8.24,.78-2.07,.29-4.08,.68-6.15,1.24-6.93,1.88-12.96,5.39-19.25,8.11,4.24-7.41,9.98-13.09,15.57-17.14Z"/>
        <path class="cls-1" d="M147.65,245.57c9.02-5.32,19.89-7.43,29.85-7.75,.23,0,.71-.04,.71-.04h77.59s.14,0,.85,0c4.7,0,6.42,4.67,6.4,8.44-.02,1.23-.22,2.51-.57,3.35-.45,1.12-.94,2.03-1.75,2.9-.29,.33-1.33,1.05-1.78,1.17-1.08,.26-2.41,.23-2.39,.23,0,0-57.72,.01-57.72,0,0,0-3.11-.12-5.28-.34-1.56-.15-2.74-.31-4.36-.61-3.97-.79-7.26-2.09-10.71-3.15-2.3-.72-4.71-1.25-7.23-1.62-4.63-.72-9.7-1.04-14.37-.69-5.95,.45-11.24,1.62-16.9,3.41,.95-1.49,4.93-3.68,7.66-5.3Z"/>
        <path class="cls-1" d="M189.45,269.91c-2.66-.94-5.25-2.14-7.56-3.68-3.03-1.99-4.51-3.59-8.42-5.4-3.35-1.54-6.01-3.07-10.68-4.77-2.25-.81-5.9-1.92-9.02-2.46-4.47-.76-8.78-1.08-8.78-1.08,0,0,.91-.58,1.46-.75,4.56-1.39,8.59-2.07,13.27-2.41,4.11-.32,7.88,.08,11.99,.73,1.69,.27,3.89,.79,5.8,1.33,6.19,1.77,13.23,4.56,19.48,4.58,.35,0,.3-.01,.3-.01h57.69s-.44,0,.18,0c1.74,0,5.01,.56,6.32,2.88,1.52,2.67,1.99,5.85,.72,9.04-.39,.95-1.03,2.32-1.95,3.17-.82,.72-2.13,1.2-2.89,1.2-.23,.01-.6,0-.6,0h-50.44s.18,0-.28,0c-5.15,0-11.65-.63-16.59-2.37Z"/>
        <path class="cls-1" d="M212.43,287.81c-1.42-1.46-3.39-3.71-5.17-5.84-3.43-4.09-4.96-7.76-4.96-7.76h33.66s.08,3.88-.69,8.37c-.73,4.19-2.27,8.58-3.91,11.77-.06,3.28,1.32,6.31,1.55,9.54-2.76,1.7-5.74,3.39-8.22,5.77-.16,.14-.42,.14-.52-.25-1.32-4.98-2.03-9.41-3.11-14.33-3.07-2.38-5.94-4.49-8.62-7.26Z"/>
        <path class="cls-1" d="M247.11,285.04c-.95-1.75-1.66-4.08-2.76-5.46-.23,1.23,.05,1.99-.11,3.17-.16,.98-.97,.57-1.12,.12-.47-1.36-.98-3-1.4-4.36-.72-2.29-.95-4.31-.95-4.31h5.6s.22,.06,.31,.59c.28,1.4,.21,2.79,.59,4.42,.51,2.11,1.14,4.02,1.91,5.99,.67,1.72,1.53,3.46,2.25,5.18,.09,.23,.14,.66-.02,.89-.22,.26-.57,.24-.77,0-1.6-1.83-2.25-3.89-3.51-6.24Z"/>
        <path class="cls-1" d="M255.78,289.04c-.96-2.03-2.3-4.3-2.17-6.61,.61,.81,.87,1.4,1.72,1.85,.39,.12,1.21,0,1-.67-.38-1.26-.96-2.35-1.51-4.09-.8-2.56-1.58-5.32-1.58-5.32h-5.72s.32,2.32,1.62,5.88c1.14,3.13,2.9,6.74,4.83,10.12,1.56,2.79,3,5.2,4.78,7.25,.61,.69,2.11,.07,1.46-.84-1.7-2.39-3.27-5.04-4.45-7.58Z"/>
        <path class="cls-1" d="M292.88,95.93c-1.24,.54-2.34,1.24-2.96,2.43-.46,.86-.75,2.17,.11,2.9,1.5,1.28,3.31-.04,4.04-1.36,.91-1.67,.68-4.87,.68-4.87,0,0-1.07,.56-1.87,.9Z"/>
        <path class="cls-1" d="M294.18,103.93c.55-1.02,1.73-2.13,3.03-2.93,1.47-.9,2.99-1.77,4.05-2.4,1.06-.64,1.26-1.09,1.26-1.09,0,0-.87,.31-1.35,.59-2.61,1.56-5.47,3.33-6.62,3.85-1.47,.64-3.46,.77-5.26,.99-.29-2.26-.88-3.2-.86-5.22,.02-.96,.24-2.21,.41-3.09,.55-2.91,.67-4.37,.67-4.37,0,0-.45,.41-.6,1.69-.18,1.16-.31,1.58-.58,2.95-.31,1.57-.62,2.91-1.57,3.9-1.35,1.4-2.61,3.91-1.56,5.82,.61,1.11,1.63,.96,1.95,1.24,.33,.29,.52,.98,1.49,1.3,2.08,.69,4.45-1.18,5.54-3.24Z"/>
        <path class="cls-1" d="M291.48,109.91c.7-1.15,1.43-1.95,2.55-2.65,1.85-1.13,3.24-1.89,4.37-2.47,.49-.25,.9-.54,1.02-1.06-.51,.19-2.41,1.09-4.32,2.21-1.35,.82-3.7,1.83-5.27,1.9-.63,.03-1.09-.12-1.59-.14-1.05-.05-2.41,.21-2.41,.21,0,0-.33-1.49-.79-2.57-.22-.55-.58-1.11-.78-2.15-.13-.68-.17-1.72-.11-2.34,.15-1.86,.66-3.68,.57-5.56-1.16,2.44-.69,5.43-2.07,7.31-.58,.79-1.04,1.41-1.49,2.42-.75,1.63-.66,3.33,.36,4.91,.59,.9,1.88,.87,2.12,1.03,.34,.26,.62,1.19,1.9,1.48,2.17,.48,4.73-.52,5.96-2.55Z"/>
        <path class="cls-1" d="M292.09,157.49c.5-1.02,.83-2.36,1.48-3.31-1.46,.23-1.7,.39-3.8,.63-.46,.03-1.42,.51-1.73,.82-.84,.85-1.56,1.63-1.24,3.04,.13,.55,.61,.95,.88,1.04,1.76,.57,3.54-.48,4.42-2.22Z"/>
        <path class="cls-1" d="M293.87,160.28c2-.47,4.29-1.44,5.21-1.13-1.87,.99-4.22,1.36-6.3,1.95-1.58,.45-2.71,1.64-4.12,2.73-1.3,.99-3.02,1.39-4.56,.66-.52-.25-1.02-1.09-1.12-1.53-.08-.36-.82-.72-1.2-1.03-.39-.33-.57-1.12-.58-1.43-.06-2.77,2.04-3.88,4.06-5.5,1.53-1.23,3.5-6.41,4.71-7.48-.21,1.67-2.38,4.83-3.33,7.28-.76,1.95-.51,3.51-.99,5.57,1.44,.09,3.06,.4,4.51,.42,1.14,.01,2.53-.24,3.7-.51Z"/>
        <path class="cls-1" d="M291.76,164.53c-1.12,.21-2.49,.56-3.43,.76-3.25,.69-4.8-.91-7.4-.87,.23-2.98-.8-4.31,.04-6.23,.77-1.71,1.46-3.52,2.11-4.98,.53-1.16,.69-2.14,.69-2.14,0,0-.78,1.17-3.02,5.54-.78,1.53-2.18,1.86-3.42,3.3-1.42,1.65-2.24,5.12,.4,6.58,.53,.29,.45,1.2,.84,1.56,1.75,1.66,5.31,1.49,7.54-.53,1.77-1.62,3.92-1.88,5.76-2.36,1.08-.27,2.02-.73,2.02-.73,0,0-.52-.2-2.12,.09Z"/>
        <path class="cls-1" d="M229.87,142.06c.85-3.44,1.89-6.93,2.16-10.57,.38-5.44-.79-11.1-4.27-15.22,.35,1.77,.8,3.28,1.04,5.14,.28,2.25-.03,4.76-.62,7.03-.43,1.72-1.21,3.38-1.98,4.98-.9,1.88-2.26,3.93-3.6,5.62-3.78,4.7-9.66,13.85-9.66,13.85,0,0-.49-.03-.79-.03-.07-1.14,2.64-5.05,4.01-7.24,3-4.79,5.27-7.37,7.88-11.53,1.63-2.63,2.88-5.82,3.28-8.71,.82-5.89-2.36-12.96-6.93-15.31,1.03,4.4,.93,10.61-1.42,13.22-4.43,4.94-7.06,8.65-10.23,14.98-.09,.17-.84-.86-1.44-1.25-.69-.46-.3-1.81-.55-2.73-.22-.78-.58-1.38-.7-1.51-.93-1.15-1.84-1.22-2.04-1.57-.23-.39-.11-1.36-.94-2.47-.4-.55-1.45-.96-1.87-1.48-.46-.57-.66-2.31-1.93-3.03-.6-.34-.88-1.38-1.46-1.89-1.78-1.58-3.55-1.27-3.89-1.38-.45-.12-1.34-1.26-2.93-1.52-1.54-.27-2.4,.77-3.2,.39-2.03-.94-3.96-1.01-6.11,1.38-.64,.71-1.75,.04-3.15,1.11-1.22,.93-1.25,1.79-1.87,1.91-1.17,.22-2.04,1.16-2.49,2.17-.23,.53-.41,1.59-.55,2.3-.19,.96-.68,1.86-.69,2.56-.01,.99,.3,1.52,.22,1.97-.15,.64-.67,1.23-.73,1.83-.05,.34-.07,1.24,.17,1.75,.31,.62-.22,1.17-.49,1.84-.26,.62-.54,1.69-.45,2.44,.11,1.03,.7,1.41,.25,2.22-.76,1.32-1.7,3.38-.04,6.01,.31,.48-.69,1.41-.75,2.79-.07,1.48,.83,2.59,1.08,3.25,.05,.24-.39,.22-.41,.48-3.96-4.2-7.47-8.06-12.07-11.7-2.81-2.22-5.59-4.09-8.71-5.75-8.31-4.47-17.97-7.46-26.73-6.36,3.3,2.66,7.46,4.55,10.85,7.56,3.2,2.86,6.11,5.3,9.03,8.34,4.59,4.77,8.32,9.6,12.2,15.2,1.15,1.66,1.92,2.77,2.99,4.5,1.08,1.73,2.29,3.57,3.28,5.29,4.97,8.63,9.04,16.62,13.15,25.46,1.15,2.45,2.11,5.01,3.23,7.44,.3,.66,.73,.17,1.03,0,1.49-.86,3.08-1.59,4.63-2.31,1.24-.56,2.36-.96,3.46-1.38,2.79-1.06,5.43-1.63,8.35-2.24,4.88-1.02,13.63-.82,13.63-.82h16.61c.1,0,.22,0,.45,0-.18-4.76-1.31-9.38-1.58-14.16-.21-3.87-.09-7.6,.05-11.49,.36-10.5,1.9-21.77,4.25-31.34Zm-19.45,8.32c.32,.92,.75,1.6,.38,2.52-.42,1.13-1.52,1.28-2.54,1.65-.96,.34-2.57,.79-3.37-.05-.92-.95-1.3-2.91-.19-3.74,1.44-1.07,4.97-2.54,5.72-.38Zm-11.84,19.02c-1.12,1.27-2.95,1.22-4.74,1.75-.69,.2-1.51-.4-1.87-1.04-.66-1.19-1.32-2.76-.06-3.91,1.06-.96,2.49-.88,3.76-1.26,.58-.18,1.28-.38,1.99,.09,1.45,.99,2,3.11,.91,4.36Zm2.23,4.52c.37,1.46,0,2.84-1.29,3.3-1.66,.58-3.91,1.44-5.24,.54-1.52-1.01-2.25-3.91-.51-5.04,2.06-1.35,6.17-2.24,7.04,1.19Zm-21.1-38.71c.45-1.29,2.06-1.21,3.27-1.06,1.5,.2,1.8,2.11,1.26,2.92-.73,1.11-2.4,.9-3.74,.73-1.09-.14-1.15-1.58-.79-2.59Zm-.32-4.26c.12-.38,.29-.5,.53-.62,1.01-.49,2.14-.62,3.11,.01,.71,.45,.64,1.5,.13,2.04-.77,.81-2.32,.84-3.31,.31-.64-.33-.67-1.13-.46-1.76Zm9.81,2.13c-1.2,.75-2.93,1.05-4.09,.41-.99-.54-.95-2-.46-2.78,.82-1.31,2.83-1.45,4.23-1.05,1.2,.36,1.65,2.59,.32,3.42Zm1.51,1.95c1.08,.6,1.29,2.32,.65,3.31-.87,1.32-3.82,2.08-5.41,.93-.91-.66-1.4-3.35,.46-4,1.48-.52,2.91-1.03,4.3-.24Zm-10.27,4.49c1.43-.58,4.09-1.11,4.54,.93,.6,2.71-2.6,3.16-4.31,2.69-1.32-.36-1.56-3.09-.22-3.63Zm-.18,6.12c1.16-1.36,3.11-1.68,4.71-1.24,.99,.27,1.44,1.41,1.41,2.69-.01,.74-.51,1.26-.96,1.45-1.14,.46-2.46,.8-3.72,.66-1.53-.19-2.48-2.34-1.44-3.56Zm.78,5.63c1.12-1.14,3.12-1.21,4.68-1,.96,.13,1.38,1.11,1.51,2.16,.38,2.9-3.52,3.39-5.37,2.71-1.21-.45-1.85-2.8-.82-3.87Zm5.59-7.29c-.96-2.97,2.75-3.91,4.91-3.45,1.51,.32,2.02,3.22,.61,4.12-1.73,1.13-4.81,1.49-5.52-.67Zm14.94,3.31c-.84,1.54-3.68,1.73-4.95,1.57-.91-.12-1.54-1.57-1.51-2.78,0-.62,.2-1.04,.63-1.26,1.41-.77,2.87-1.27,4.39-1.03,1.48,.25,2.07,2.34,1.44,3.51Zm.78,3.02c.56,.89,.95,2.08,.12,3.19-.75,1.01-3.44,1.48-4.81,1.15-.76-.19-1.11-1.1-1.23-1.73-.16-.83-.24-1.68,.51-2.36,1.07-.98,2.49-.96,3.85-.96,.56,0,1.36,.37,1.57,.71Zm-2.09-9.01c-.98,1.46-4.91,2.37-5.77,.88-.64-1.09-1.04-2.64,.16-3.37,1.25-.77,2.73-1.22,4.19-.96,1.37,.24,2.06,2.48,1.43,3.45Zm-2.76-4.94c-.69,.62-1.39,.76-2.29,1.06-1.29,.43-2.63-.55-2.77-1.78-.24-2.1,2-2.41,3.49-2.67,1.09-.2,1.76,.78,1.96,1.43,.2,.63,.18,1.47-.38,1.96Zm-9.18,11c1.63-.94,5.13-2.16,5.96,.5,.33,1.09,.29,2.44-.64,2.92-1.34,.7-3.46,1.44-4.99,.48-1.3-.81-1.46-3.25-.33-3.89Zm1.43,6.12c1.71-1.2,5.09-1.98,5.9,.65,.21,.68,.33,1.43-.02,1.98-.94,1.52-3.35,1.92-4.95,1.69-1.74-.25-2.56-3.18-.93-4.33Zm1.28,6.04c1.42-.72,3.46-1.59,4.99-.61,.69,.45,1.41,2.3,.92,3.12-1.05,1.75-3.8,2.19-5.54,1.74-1.49-.39-1.94-3.46-.36-4.26Zm6.85-.11c-.35-.88-.67-2.2,.02-2.74,1.41-1.11,4.6-2.07,5.81-.4,.79,1.09,.56,2.94-.82,3.66-1.42,.73-4.21,1.57-5.01-.52Zm9.56-16.02c.68,.08,1.29,.82,1.62,1.64,.43,1.06,0,2.3-.35,2.52-.81,.56-3.4,2.12-5.03,1.18-.89-.51-1.15-1.68-1.21-2.38-.18-2.25,3.22-3.15,4.96-2.96Zm-.63-3.85c.49,.69,.38,1.88,.09,2.27-.9,1.22-3.38,1.92-4.42,1.42-.78-.38-1.55-2.11-.63-3.13,.94-1.08,2.6-1.72,4.11-1.4,.34,.07,.55,.44,.84,.85Zm-2.92-6.25c1.42,.18,1.71,2.2,1.42,2.93-.33,.63-1.04,1.11-1.42,1.31-1.04,.53-2.26,.74-3.21,.24-.87-.46-1.25-1.77-.78-2.82,.64-1.4,2.66-1.83,3.99-1.67Zm-1.6-2.81c.38,1.12-.44,1.64-1.31,2.1-.88,.47-2.07,.91-2.67,.32-.78-.73-1.13-1.98-.26-2.8,1.2-1.13,3.45-1.99,4.25,.37Zm-3.71-4.74c.65,.06,.95,.51,1.07,1,.17,.66-.05,1.27-.61,1.65-.66,.45-1.49,.71-2.15,.71-.9,.02-1.72-1.3-1.24-2.15,.51-.92,1.81-1.31,2.93-1.21Zm-2.23-3.09c.58,.17,.95,.79,.66,1.39-.18,.37-.7,.77-1.04,.97-.92,.57-1.71,.33-1.99-.35-.53-1.24,1.25-2.34,2.37-2.01Zm-1.32,6.11c.62,.5,1.16,1.58,.42,2.43-.69,.8-1.56,1.04-2.66,1.22-.74,.12-1.68-.42-1.8-1.08-.12-.57-.22-1.6,.34-2.07,1.09-.92,2.55-1.46,3.7-.51Zm-1.57-3.58c.55,.94-.29,1.88-.72,2.14-.95,.55-2.28,.89-2.86-.05-.55-.92-.09-2.02,.88-2.42,.95-.39,1.91-.98,2.7,.33Zm-5.22-3.09c.5-1.11,1.76-1.66,2.97-1.28,.24,.07,.74,.47,.81,.85,.15,.77-.12,1.46-.76,1.87-.82,.52-1.5,.81-2.43,.43-.71-.29-.88-1.21-.59-1.86Zm.5,4.65c-.2,.79-.79,1.33-1.72,1.54-.92,.21-2.2,.26-2.71-.31-.49-.54-.71-1.3-.31-1.89,.82-1.15,2.32-1.56,3.64-1.27,.77,.18,1.32,.96,1.09,1.92Zm-5.61-4.45c.37-1.21,1.74-1.87,2.98-1.5,1.07,.32,1.32,1.77,.59,2.48-.33,.33-.87,.65-1.45,.77-1.27,.28-2.52-.42-2.12-1.75Zm-.74,6.47c-1.13,.33-2.69,.39-3.03-.77-.56-1.96,1.9-2.25,3.18-1.85,.89,.29,1.19,2.22-.15,2.61Zm-3.21-4.99c.09-.3,.56-.66,.81-.74,.53-.2,1.17-.23,1.68-.03,1.03,.42,.9,1.69-.21,2.14-.5,.2-1.26,.33-1.62,.2-.7-.24-.89-.84-.66-1.57Zm-3.23,2.24c.72-.26,1.78-.24,2.31,.33,.71,.78,.15,2.04-1.21,1.97-.48-.02-1.04-.19-1.33-.34-.69-.4-.47-1.7,.24-1.96Zm-.92,3.5c.79-.3,2.07-.23,2.78,.14,.35,.18,.84,.77,.64,1.38-.25,.8-1,1.09-1.85,1.1-.82,.01-1.75-.05-2.09-.72-.31-.64-.18-1.63,.52-1.91Zm2.97,4.33c.39,.18,.62,.48,.72,.96,.18,1.02-.08,2.13-1.06,2.32-1.49,.27-3.68,.35-3.67-1.74,0-2.34,2.31-2.31,4.01-1.54Zm-4.09,4.79c1.33-.56,3.62-.82,4.56,.68,.58,.92,.41,2.61-.52,2.85-.91,.24-3.99,.75-4.73-.97-.37-.83-.22-2.19,.69-2.57Zm-.81,5.63c1.25-1.19,2.87-.65,4.38-.44,.29,.04,.65,.25,.85,.44,1.02,1.04,1.11,2.75-.04,3.6-1.33,.99-2.98,.35-4.57,.26-.43-.01-.9-.52-1-.84-.28-1.01-.46-2.24,.38-3.02Zm-.07,6.73c.82-1.8,3.84-1.81,5.48-1.01,1.34,.66,1.5,3.15,.04,4.12-1.16,.78-3,.5-4.24,.26-1.75-.32-1.89-2.05-1.28-3.38Zm.99,7.77c-.86-.74-.26-2.02,.48-2.39,1.31-.65,3.36-.74,4.71-.29,.87,.29,1.31,1.55,1.16,2.92-.07,.55-.23,1.18-.51,1.35-1.04,.71-2.63,.73-3.89,.48-.89-.19-1.21-1.41-1.95-2.06Zm6.3,7.68c-1.29-.95-1.85-2.28-2.8-3.61-.23-.33,0-.46,.17-.52,2.28-.64,3.97,.5,3.62,2.99-.06,.48-.38,1.61-.99,1.15Zm1.54-8.44c.14-.62,.83-.92,1.41-1.06,1.5-.37,3.18-.93,4.56-.05,.54,.34,.58,.82,.65,1.5,.12,1.09-.04,1.99-.76,2.4-1.46,.86-2.95,.93-4.65,.6-1.38-.27-1.49-2.1-1.21-3.38Zm1.92,5.48c1.85-1.21,5.39-2.09,5.98,1.16,.18,.98-.06,2.28-1.39,2.71-1.36,.44-2.96,.91-4.21,.4-1.53-.62-1.83-3.34-.39-4.27Zm-.47,7.74c-.19-.23-.34-.96-.11-1.16,1.44-1.15,3.54-1.24,5.17-1.07,2.14,.19,2.58,2.19,2.23,3.84-.47,2.17-3.77,2.44-4.71,2.08-.92-.35-1.57-2.43-2.58-3.69Zm4,6.66c-.23-.33-.69-1.29-.34-1.4,2.76-.95,4.82-.98,5.41,1.96,.42,2.11-1.02,3.91-3.03,3.18-.58-.21-1.15-2.45-2.04-3.73Zm5.74,10.42c-1.54-1.26-1.67-3.29-2.7-4.83,1.13-.72,3.04-.58,3.63,.86,.47,1.15,.81,2.85-.36,3.72-.12,.09-.43,.38-.57,.26Zm2.22,5.34c-.67-.31-.66-1.16-.94-1.69-.27-.53-.83-1.25-.6-1.92,1.3,.72,1.89,2,1.54,3.62Zm2.94-4.28c-.31,.87-.44,1.77-.83,2.6-.18,.43-.44-.14-.45-.16-.58-1.44-.95-2.66-.45-3.93,.28-.7,1.24-1.35,2.15-1.41-.06,.9-.13,2.03-.43,2.91Zm2.48-8.77c-.4,1.13-.6,2.18-1.05,3.21-.44,1.01-2.3,1.37-3.34,1.05-1.48-.46-2.74-3.78-1.06-5.05,1.28-.97,2.62-1.12,4.25-1.32,.3-.04,1.39,.03,1.44,.13,.28,.69,.1,1.03-.24,1.97Zm2.22-7.61c-.45,.64-1.58-1.48-1.72-2.46-.43-2.83,2.04-3.54,4.11-3.45,.07,1.68-1.24,4.29-2.38,5.91Zm3.34-8.58c-.61,1.62-2.41,1.8-3.96,2.12-.28,.06-1.17,0-1.56-.4-.66-.65-1.24-1.54-1.12-2.65,.06-.68,.63-1.36,1.34-1.63,1.28-.5,2.81-1.31,4.08-.59,1.09,.6,1.66,2,1.23,3.14Zm5.21-8.2c-1.09,1.44-1.59,3.07-2.79,4.33-.63,.66-1.58,.35-2.08-.41-.55-.86-1.43-2.07-.77-2.91,1.08-1.38,3.35-2.27,5.29-2.02,.11,.01,.74,.47,.34,1.01Zm15.18,42.83c-.13,0-.26,0,0,0h0Z"/>
        <g>
          <path class="cls-1" d="M116.67,102.68c-3.24,3.23-4.21,4.42-6.09,8-1.11,2.09-2.52,4.79-2.92,8.27,6.65-2.54,12.08-7.71,16.99-13.42,3.63-4.24,6.45-9.86,10.03-14.04-6.31,2.12-12.96,6.17-18,11.2Z"/>
          <path class="cls-1" d="M97.61,111.76c2.51-4.24,6.1-8.82,9.84-11.95-1.73,3.87-3.86,7.72-4.59,12.3-1.45,9.13-2.81,15.53-4.33,23.86,4.14-2.95,8.5-7.59,12.9-10.83,3.39-2.5,6.79-4.16,10.28-6.56,2.07-1.43,3.42-3.26,5.14-4.99-2.05,8.67-9.65,17.41-15.09,21.49-6.85,5.13-9.3,5.95-20.28,17.11-1.4-13.79-1.15-28.13,6.12-40.44Z"/>
          <path class="cls-1" d="M75.19,157.59c.51-7.16,1.37-12.9,3.11-19.88,1.22-4.89,3.85-12.15,7.63-15.14-.46,1.78-.71,4.43-.88,6.21-.74,7.38,.67,15.96,.84,23.33,.09,3.63,.05,6.42-.49,9.83-.56,3.57-.09,7.96-.09,7.96,0,0,1.96-2.24,3.7-5.02,3.82-6.07,5.04-7.86,8.12-11.16,3.82-4.07,8.09-7.85,12.91-11.2-.58,2.27-3.04,6.67-4.07,8.45-1.35,2.37-1.97,4.52-5.19,9.89-4.52,7.55-6.53,8.56-11.55,16.62-1.09,1.74-5.55,8.43-6.62,10.46-2.35-4.87-3.24-9.12-6.13-17.04-1.81-4.98-1.54-9.96-1.29-13.31Z"/>
          <path class="cls-1" d="M68.2,194.87c-2.73-7.07-3.97-13.63-4.89-21.07-.57-4.55-.31-10.62,1.32-15,.43,1.07,1.29,3.79,1.42,4.19,1.21,4.07,1.71,6.02,3.4,9.94,1.29,3.02,2.88,5.41,4.56,8.39,1.54,2.71,2.83,6.27,3.95,9.01,3.58,8.76,3.84,16.97,5.21,17.86,.99-2.11,1.3-4.13,1.41-5.12,1.07-9.7,2.34-18.51,14.55-29.94,1.12,3.4,.55,9.68-.12,13.04-1.46,7.35-2.64,10.87-5.87,17.98-1.71,3.76-4,9.27-4.62,11.1-1.64,4.75-2.2,7.25-3.24,10.06-5.76-9.59-12.86-19.52-17.07-30.44Z"/>
          <path class="cls-1" d="M77.71,239.06c-4.1-5.7-5.6-8.58-8.27-14.67-2.25-5.09-2.89-6.99-4.2-12.7-.72-3.11-1.12-5.94-.57-7.78,3.22,5.82,5.41,12.34,9.61,17.15,3.34,3.83,6.55,7.1,9.21,10.32,4.07,4.97,7.28,9.67,11.18,14.84,.33-2.6,.46-5.21-.13-9.46-.8-5.82-.31-10.59,.71-16.23,1.28-7.14,2.22-10.68,4.71-17.91,3.03,5.95,3.02,12.83,3.78,19.14,1.47,12.24-2.36,26.84-3.11,32.93-.2,1.6,.08,5.56,.15,7.11-5.72-4.52-10.82-9.08-15.76-14.02-2.25-2.25-5.34-5.97-7.31-8.72Z"/>
          <path class="cls-1" d="M99.43,283.95c-2.61-1.87-9.62-7.23-12.94-11.45-4.83-6.14-5.9-8.76-9.08-15.82-.39-.87-2.2-4.86-2.34-7.56,10.44,12.6,19.79,14.48,29.75,24.94,3.66,3.84,7.41,7.44,9.38,9.26,1.52,1.38,3.4,1.82,3.4,1.82,0,0-.2-2.7-1.18-4.57-6.64-12.7-7.9-25.99-6.89-40.23,3.03,3.75,3.99,6.26,5.91,9.89,2.1,3.96,3.17,6.41,4.15,8.85,5.68,14.15,7.17,30.5,10.68,38.73-10.85-3.65-19.39-5.6-30.83-13.85Z"/>
          <path class="cls-1" d="M143.91,317.36c-2.94,.19-8.68,.17-11.76-.33-15.52-2.47-29.96-13.72-37.21-26.1,6.58,4.03,11.34,6.71,17.13,8.71,5.15,1.79,10.04,2.32,18.65,4.75,5.19,1.47,10.34,3.55,12.14,4.23,5.76,2.14,8.18,1.61,8.18,1.61,0,0,0-.88-2.14-3.22-4.29-4.69-5.85-5.8-9.39-9.4-1.15-1.18-3.81-5.23-5.15-7.91-3.82-7.58-4.24-13.66-7.72-22,12.7,7.48,18.88,17.75,25.6,30.72,2.07,3.98,4.86,8.57,7.41,11.09,1.72,1.68,4.14,4.26,4.14,4.26,0,0-1.77,.42-7.28,1.22-2.48,.37-7.75,2-12.59,2.35Z"/>
          <path class="cls-1" d="M205.45,318.34c6.71,1.09,12.67,2.73,18.76,4.82,1.64,.56,4.13,1.79,5.86,2.67,4.32,2.19,6.81,3.62,10.53,6.17,5.98,4.12,12.4,8.56,18.2,15.3,.13,.14,1.06,1.13,.44,1.62-1.13,.89-3.93,2.15-4.86,1.34-5.32-4.73-5.04-6.23-11.47-12.05-1.65-1.48-4.14-3.57-7.11-5.6-2.91-1.98-6.41-4.15-9.67-5.77-2.96-1.46-7.52-1.89-10.08-1.89l.04,.02c-1.17-.04-7.86-.07-9.4,.02-13.14,.9-12.5,2.08-20.07,4.15-6.24,1.68-12.92,2.88-19.55,3.78-6.8,.92-12.87,1.04-19.26,.39-8.64-.9-18.08-3.3-25.14-7.84,6.44,.11,13.07,1.34,19.49,.85,2.7-.2,7.08-.6,10.05-1.52,5.89-1.82,9.27-2.52,15.52-4.25,5.36-1.51,10.76-2.01,16.37-2.61,7.75-.83,14.92-.65,21.37,.41Z"/>
          <path class="cls-1" d="M325.59,102.68c3.24,3.23,4.22,4.42,6.1,8,1.11,2.09,2.53,4.79,2.94,8.27-6.67-2.54-12.09-7.71-17.01-13.42-3.63-4.24-6.44-9.86-10.02-14.04,6.31,2.12,12.95,6.17,17.99,11.2Z"/>
          <path class="cls-1" d="M344.66,111.76c-2.51-4.24-6.1-8.82-9.83-11.95,1.74,4.18,4.28,9.37,4.58,12.3,.92,9.2,2.81,15.53,4.33,23.86-4.14-2.95-8.51-7.59-12.9-10.83-3.39-2.5-6.8-4.16-10.28-6.56-2.08-1.43-3.43-3.26-5.15-4.99,2.05,8.67,9.65,17.41,15.1,21.49,6.84,5.13,9.29,5.95,20.27,17.11,1.4-13.79,1.15-28.13-6.13-40.44Z"/>
          <path class="cls-1" d="M367.08,157.59c-.5-7.16-1.36-12.9-3.11-19.88-1.21-4.89-3.85-12.15-7.64-15.14,.46,1.78,.71,4.43,.89,6.21,.75,7.38-.66,15.96-.84,23.33-.08,3.63-.05,6.42,.48,9.83,.57,3.57,.1,7.96,.1,7.96,0,0-1.96-2.24-3.71-5.02-3.82-6.07-5.04-7.86-8.13-11.16-3.81-4.07-8.08-7.85-12.91-11.2,.59,2.27,3.05,6.67,4.07,8.45,1.36,2.37,1.97,4.52,5.19,9.89,4.52,7.55,6.54,8.56,11.55,16.62,1.09,1.74,5.55,8.43,6.63,10.46,2.35-4.87,3.23-9.12,6.13-17.04,1.81-4.98,1.54-9.96,1.29-13.31Z"/>
          <path class="cls-1" d="M374.06,194.87c2.73-7.07,3.98-13.63,4.9-21.07,.57-4.55,.3-10.62-1.32-15-.42,1.07-1.3,3.79-1.42,4.19-1.21,4.07-1.71,6.02-3.4,9.94-1.29,3.02-2.88,5.41-4.57,8.39-1.54,2.71-2.84,6.27-3.95,9.01-3.58,8.76-3.84,16.97-5.2,17.86-.99-2.11-1.3-4.13-1.4-5.12-1.06-9.7-2.35-18.51-14.56-29.94-1.12,3.4-.55,9.68,.12,13.04,1.46,7.35,2.65,10.87,5.88,17.98,1.7,3.76,3.98,9.27,4.62,11.1,1.63,4.75,2.19,7.25,3.23,10.06,5.77-9.59,12.86-19.52,17.07-30.44Z"/>
          <path class="cls-1" d="M364.56,239.06c4.11-5.7,5.61-8.58,8.27-14.67,2.25-5.09,2.89-6.99,4.2-12.7,.72-3.11,1.12-5.94,.57-7.78-3.2,5.82-5.41,12.34-9.61,17.15-3.33,3.83-6.55,7.1-9.2,10.32-4.06,4.97-7.28,9.67-11.19,14.84-.32-2.6-.46-5.21,.13-9.46,.8-5.82,.31-10.59-.7-16.23-1.29-7.14-2.23-10.68-4.72-17.91-3.02,5.95-3.01,12.83-3.78,19.14-1.47,12.24,2.37,26.84,3.12,32.93,.2,1.6-.08,5.56-.16,7.11,5.73-4.52,10.82-9.08,15.76-14.02,2.25-2.25,5.33-5.97,7.31-8.72Z"/>
          <path class="cls-1" d="M342.85,283.95c2.6-1.87,9.61-7.23,12.93-11.45,4.83-6.14,5.9-8.76,9.08-15.82,.39-.87,2.19-4.86,2.34-7.56-10.44,12.6-19.79,14.48-29.76,24.94-3.65,3.84-7.38,7.44-9.37,9.26-1.51,1.38-3.4,1.82-3.4,1.82,0,0,.19-2.7,1.17-4.57,6.65-12.7,7.9-25.99,6.89-40.23-3.02,3.75-3.98,6.26-5.91,9.89-2.09,3.96-3.16,6.41-4.13,8.85-5.69,14.15-7.18,30.5-10.7,38.73,10.86-3.65,19.39-5.6,30.85-13.85Z"/>
          <path class="cls-1" d="M298.36,317.36c2.95,.19,8.69,.17,11.76-.33,15.53-2.47,29.96-13.72,37.21-26.1-6.59,4.03-11.34,6.71-17.13,8.71-5.16,1.79-10.05,2.32-18.64,4.75-5.2,1.47-10.34,3.55-12.15,4.23-5.76,2.14-8.18,1.61-8.18,1.61,0,0,0-.88,2.14-3.22,4.29-4.69,5.87-5.8,9.38-9.4,1.15-1.18,3.81-5.23,5.16-7.91,3.81-7.58,4.24-13.66,7.71-22-12.7,7.48-18.9,17.75-25.6,30.72-2.06,3.98-4.85,8.57-7.4,11.09-1.71,1.68-4.14,4.26-4.14,4.26,0,0,1.77,.42,7.3,1.22,2.46,.37,7.72,2,12.57,2.35Z"/>
          <path class="cls-1" d="M236.82,318.34c-6.7,1.09-12.66,2.73-18.75,4.82-1.65,.56-4.14,1.79-5.87,2.67-4.32,2.19-6.8,3.62-10.52,6.17-5.99,4.12-12.41,8.56-18.21,15.3-.12,.14-1.06,1.13-.44,1.62,1.14,.89,3.94,2.15,4.87,1.34,5.31-4.73,5.04-6.23,11.47-12.05,1.64-1.48,4.13-3.57,7.11-5.6,2.9-1.98,6.4-4.15,9.66-5.77,2.95-1.46,7.53-1.89,10.09-1.89l-.04,.02c1.16-.04,7.85-.07,9.4,.02,13.15,.9,12.5,2.08,20.07,4.15,6.23,1.68,12.92,2.88,19.56,3.78,6.8,.92,12.89,1.04,19.26,.39,8.63-.9,18.09-3.3,25.13-7.84-6.44,.11-13.06,1.34-19.48,.85-2.7-.2-7.07-.6-10.05-1.52-5.88-1.82-9.27-2.52-15.51-4.25-5.36-1.51-10.77-2.01-16.37-2.61-7.75-.83-14.93-.65-21.38,.41Z"/>
        </g>
      </g>
      <g>
        <path class="cls-1" d="M213.25,29.86l-11.8,43.83h-12.52l-7.84-28.55-7.67,28.55h-12.49l-11.81-43.83h11.8l6.72,30.17,8.1-30.17h11.27l7.67,30.17,7.05-30.17h11.52Z"/>
        <path class="cls-1" d="M252.19,38.33h-20.17v8.15h18.69v8.47h-18.69v18.73h-11.24V29.86h31.41v8.48h0Z"/>
        <path class="cls-1" d="M296.16,43.69c0,1.96-.35,3.88-1.03,5.75-.69,1.88-1.67,3.45-2.95,4.72-1.74,1.73-3.69,3.04-5.84,3.92-2.15,.89-4.82,1.32-8.02,1.32h-7.03v14.28h-11.3V29.86h18.6c2.79,0,5.14,.25,7.05,.72,1.91,.48,3.61,1.21,5.08,2.16,1.77,1.16,3.11,2.65,4.05,4.45,.93,1.8,1.4,3.97,1.4,6.51Zm-11.68,.25c0-1.24-.34-2.3-1-3.19-.67-.9-1.45-1.51-2.33-1.86-1.18-.47-2.32-.73-3.45-.78-1.11-.05-2.61-.07-4.47-.07h-1.94v13.09h3.24c1.93,0,3.51-.11,4.75-.35,1.25-.24,2.29-.71,3.14-1.41,.73-.63,1.26-1.37,1.58-2.25,.31-.87,.49-1.93,.49-3.19Z"/>
      </g>
      <g>
        <path class="cls-1" d="M162.73,379.59l-7.88,25.42h-8.66l-5.18-17.13-5.12,17.13h-8.74l-7.81-25.42h8.55l4.36,17.51,5.43-17.51h7.22l5.16,17.51,4.29-17.51h8.37Z"/>
        <path class="cls-1" d="M185.47,375.76h-.61c-.37-.09-.83-.22-1.42-.35-.57-.13-1.2-.21-1.86-.21-1.6,0-2.67,.28-3.24,.87-.56,.57-.84,1.67-.84,3.33v.19h6.26v5.53h-5.99v19.9h-8.18v-19.9h-3.48v-5.53h3.48v-.7c0-3.1,.83-5.44,2.48-7,1.65-1.56,4.15-2.32,7.51-2.32,1.21,0,2.3,.04,3.28,.13,.97,.07,1.85,.19,2.6,.32v5.74h0Z"/>
        <path class="cls-1" d="M215.1,391.96c0,2.08-.32,4-.96,5.72-.64,1.72-1.48,3.12-2.52,4.26-1.08,1.17-2.31,2.06-3.68,2.67-1.37,.61-2.84,.91-4.41,.91-1.44,0-2.67-.15-3.68-.47-1.01-.31-2.04-.74-3.1-1.29v10.58h-8.17v-34.74h8.17v2.65c1.25-1,2.52-1.79,3.83-2.42,1.3-.63,2.8-.93,4.51-.93,3.17,0,5.63,1.17,7.38,3.48,1.76,2.34,2.64,5.52,2.64,9.59Zm-8.4,.17c0-2.48-.43-4.26-1.27-5.39-.85-1.1-2.17-1.66-4-1.66-.77,0-1.56,.1-2.37,.34-.82,.24-1.59,.58-2.32,1.02v12.76c.54,.22,1.12,.36,1.74,.41,.62,.07,1.23,.09,1.84,.09,2.15,0,3.76-.63,4.81-1.88,1.06-1.27,1.59-3.16,1.59-5.68Z"/>
        <path class="cls-1" d="M229.75,405.01h-8.47v-8.9h8.47v8.9Z"/>
        <path class="cls-1" d="M263.73,392.31c0,4.18-1.23,7.48-3.66,9.88-2.43,2.41-5.86,3.61-10.26,3.61s-7.83-1.2-10.27-3.61c-2.44-2.4-3.66-5.7-3.66-9.88s1.23-7.51,3.67-9.92c2.45-2.4,5.87-3.6,10.25-3.6s7.86,1.21,10.29,3.64c2.43,2.41,3.64,5.71,3.64,9.89Zm-10.04,6.18c.53-.65,.92-1.43,1.19-2.35,.26-.92,.4-2.17,.4-3.79,0-1.5-.14-2.74-.41-3.76-.27-1-.65-1.81-1.13-2.42-.48-.63-1.06-1.05-1.74-1.32-.67-.26-1.41-.39-2.2-.39s-1.49,.12-2.1,.33c-.61,.19-1.2,.62-1.75,1.26-.5,.59-.9,1.4-1.19,2.41-.3,1.03-.45,2.33-.45,3.88,0,1.39,.13,2.58,.39,3.61,.26,1.02,.62,1.84,1.13,2.45,.48,.59,1.06,1.02,1.73,1.29,.67,.27,1.44,.4,2.3,.4,.73,0,1.44-.12,2.12-.37,.67-.24,1.23-.67,1.7-1.25Z"/>
        <path class="cls-1" d="M288,387.36h-.72c-.35-.13-.91-.22-1.67-.27-.77-.07-1.41-.1-1.92-.1-1.17,0-2.19,.08-3.07,.23-.89,.15-1.85,.41-2.88,.78v17.02h-8.17v-25.42h8.17v3.73c1.79-1.53,3.36-2.55,4.68-3.06,1.33-.51,2.55-.75,3.66-.75,.29,0,.61,0,.98,.02,.36,.01,.67,.03,.95,.06v7.77h0Z"/>
        <path class="cls-1" d="M317.34,402.09c0,2.38-.34,4.38-1.02,6.01-.68,1.65-1.63,2.91-2.85,3.83-1.22,.93-2.69,1.62-4.42,2.04-1.74,.41-3.68,.62-5.86,.62-1.76,0-3.51-.09-5.22-.31-1.71-.21-3.2-.48-4.45-.77v-6.37h.99c1,.4,2.22,.76,3.64,1.08,1.43,.34,2.71,.5,3.84,.5,1.51,0,2.74-.14,3.68-.42,.94-.28,1.66-.68,2.15-1.19,.47-.49,.8-1.11,1.02-1.86,.21-.76,.31-1.66,.31-2.72v-.47c-.97,.8-2.06,1.44-3.25,1.9-1.19,.48-2.52,.7-3.98,.7-3.55,0-6.29-1.07-8.23-3.21-1.93-2.14-2.89-5.41-2.89-9.78,0-2.1,.3-3.89,.89-5.44,.59-1.51,1.41-2.84,2.48-3.98,.99-1.06,2.22-1.88,3.67-2.46,1.46-.59,2.94-.88,4.47-.88,1.37,0,2.62,.16,3.74,.49,1.12,.31,2.14,.75,3.07,1.34l.29-1.13h7.93v22.51h0Zm-8.18-5.09v-11.53c-.47-.2-1.03-.35-1.7-.48-.69-.11-1.3-.16-1.84-.16-2.13,0-3.75,.63-4.81,1.84-1.07,1.22-1.6,2.94-1.6,5.15,0,2.44,.46,4.15,1.37,5.11,.9,.98,2.26,1.45,4.06,1.45,.81,0,1.61-.13,2.39-.39,.79-.26,1.5-.58,2.14-1.01Z"/>
      </g>
      <g>
        <path class="cls-1" d="M497,194.2l-16.34,60.67h-17.35l-10.85-39.52-10.61,39.52h-17.31l-16.34-60.67h16.33l9.31,41.77,11.2-41.77h15.6l10.62,41.77,9.78-41.77h15.95Z"/>
        <path class="cls-1" d="M550.89,232.01c0,7.53-2.21,13.45-6.59,17.79-4.39,4.34-10.54,6.5-18.47,6.5s-14.09-2.16-18.49-6.5c-4.38-4.34-6.57-10.26-6.57-17.79s2.2-13.53,6.62-17.85c4.41-4.32,10.55-6.47,18.44-6.47s14.16,2.17,18.53,6.52c4.36,4.35,6.54,10.28,6.54,17.81Zm-18.05,11.12c.94-1.17,1.64-2.58,2.13-4.21,.49-1.64,.71-3.93,.71-6.84,0-2.69-.24-4.94-.72-6.77-.49-1.82-1.18-3.27-2.05-4.35-.86-1.12-1.91-1.91-3.13-2.37-1.23-.46-2.53-.69-3.95-.69s-2.67,.19-3.78,.57c-1.1,.38-2.15,1.14-3.14,2.28-.9,1.06-1.63,2.51-2.16,4.36-.53,1.85-.79,4.16-.79,6.96,0,2.5,.24,4.68,.71,6.5,.45,1.84,1.12,3.31,2.03,4.43,.88,1.06,1.9,1.84,3.12,2.31,1.21,.49,2.58,.74,4.13,.74,1.33,0,2.59-.23,3.82-.67,1.2-.46,2.22-1.21,3.08-2.27Z"/>
        <path class="cls-1" d="M594.58,223.09h-1.31c-.63-.22-1.64-.38-3.01-.49-1.38-.12-2.53-.17-3.46-.17-2.09,0-3.93,.13-5.53,.41-1.6,.27-3.31,.73-5.17,1.39v30.64h-14.71v-45.76h14.71v6.73c3.24-2.77,6.05-4.61,8.43-5.53,2.39-.9,4.57-1.36,6.58-1.36,.51,0,1.11,.02,1.76,.04,.65,.04,1.22,.07,1.71,.12v13.98h0Z"/>
        <path class="cls-1" d="M617.59,254.87h-14.72v-63.4h14.72v63.4Z"/>
        <path class="cls-1" d="M675.91,254.87h-14.71v-4.77c-2.52,2.07-4.89,3.59-7.07,4.57-2.21,.97-4.74,1.47-7.62,1.47-5.56,0-10-2.15-13.33-6.45-3.36-4.28-5.01-10.08-5.01-17.36,0-3.87,.56-7.32,1.69-10.32,1.12-3.01,2.66-5.57,4.6-7.72,1.85-2.04,4.09-3.62,6.72-4.74,2.64-1.13,5.27-1.69,7.9-1.69s4.98,.29,6.74,.87c1.74,.59,3.53,1.33,5.38,2.23v-19.48h14.71v63.4h0Zm-14.72-12.59v-22.48c-1.03-.44-2.11-.75-3.24-.94-1.14-.2-2.19-.29-3.14-.29-3.84,0-6.74,1.2-8.65,3.61-1.93,2.41-2.89,5.75-2.89,10.02,0,4.49,.78,7.75,2.32,9.78,1.55,2.02,4.03,3.04,7.46,3.04,1.33,0,2.73-.26,4.21-.76,1.5-.51,2.82-1.17,3.95-1.98Z"/>
        <path class="cls-1" d="M764.67,205.93h-27.92v11.29h25.89v11.74h-25.89v25.9h-15.56v-60.67h43.48v11.74Z"/>
        <path class="cls-1" d="M821.44,232.01c0,7.53-2.19,13.45-6.58,17.79-4.4,4.34-10.55,6.5-18.49,6.5s-14.08-2.16-18.47-6.5c-4.38-4.34-6.59-10.26-6.59-17.79s2.21-13.53,6.62-17.85c4.41-4.32,10.57-6.47,18.44-6.47s14.17,2.17,18.53,6.52c4.36,4.35,6.54,10.28,6.54,17.81Zm-18.06,11.12c.95-1.17,1.67-2.58,2.14-4.21,.48-1.64,.7-3.93,.7-6.84,0-2.69-.23-4.94-.72-6.77-.49-1.82-1.17-3.27-2.03-4.35-.88-1.12-1.93-1.91-3.14-2.37-1.22-.46-2.54-.69-3.96-.69s-2.67,.19-3.76,.57c-1.12,.38-2.17,1.14-3.17,2.28-.9,1.06-1.6,2.51-2.13,4.36-.53,1.85-.79,4.16-.79,6.96,0,2.5,.22,4.68,.69,6.5,.45,1.84,1.14,3.31,2.03,4.43,.87,1.06,1.92,1.84,3.13,2.31,1.21,.49,2.58,.74,4.13,.74,1.33,0,2.61-.23,3.81-.67,1.21-.46,2.24-1.21,3.07-2.27Z"/>
        <path class="cls-1" d="M878.73,232.01c0,7.53-2.19,13.45-6.57,17.79-4.38,4.34-10.55,6.5-18.5,6.5s-14.08-2.16-18.47-6.5c-4.38-4.34-6.58-10.26-6.58-17.79s2.21-13.53,6.62-17.85c4.42-4.32,10.56-6.47,18.43-6.47s14.17,2.17,18.53,6.52c4.37,4.35,6.54,10.28,6.54,17.81Zm-18.05,11.12c.94-1.17,1.66-2.58,2.13-4.21,.48-1.64,.72-3.93,.72-6.84,0-2.69-.25-4.94-.74-6.77-.48-1.82-1.17-3.27-2.03-4.35-.88-1.12-1.93-1.91-3.14-2.37-1.22-.46-2.54-.69-3.96-.69s-2.66,.19-3.75,.57c-1.1,.38-2.15,1.14-3.16,2.28-.91,1.06-1.61,2.51-2.14,4.36-.53,1.85-.8,4.16-.8,6.96,0,2.5,.24,4.68,.69,6.5,.47,1.84,1.15,3.31,2.04,4.43,.86,1.06,1.91,1.84,3.12,2.31,1.2,.49,2.59,.74,4.13,.74,1.33,0,2.61-.23,3.82-.67,1.21-.46,2.24-1.21,3.08-2.27Z"/>
        <path class="cls-1" d="M933.74,254.87h-14.69v-4.77c-2.54,2.07-4.89,3.59-7.09,4.57-2.19,.97-4.74,1.47-7.6,1.47-5.57,0-10.02-2.15-13.35-6.45-3.34-4.28-5.01-10.08-5.01-17.36,0-3.87,.56-7.32,1.69-10.32,1.12-3.01,2.67-5.57,4.63-7.72,1.84-2.04,4.08-3.62,6.7-4.74,2.63-1.13,5.27-1.69,7.9-1.69s4.99,.29,6.73,.87c1.75,.59,3.55,1.33,5.4,2.23v-19.48h14.69v63.4h0Zm-14.69-12.59v-22.48c-1.04-.44-2.12-.75-3.26-.94-1.14-.2-2.19-.29-3.14-.29-3.85,0-6.74,1.2-8.66,3.61-1.91,2.41-2.88,5.75-2.88,10.02,0,4.49,.77,7.75,2.32,9.78,1.54,2.02,4.02,3.04,7.44,3.04,1.32,0,2.72-.26,4.23-.76,1.48-.51,2.8-1.17,3.95-1.98Z"/>
        <path class="cls-1" d="M463.33,292.17c0,2.71-.47,5.37-1.43,7.97-.95,2.59-2.31,4.77-4.07,6.53-2.42,2.39-5.11,4.2-8.09,5.42-2.98,1.22-6.68,1.84-11.11,1.84h-9.74v19.76h-15.64v-60.68h25.76c3.86,0,7.11,.34,9.76,1.01,2.65,.66,4.99,1.66,7.03,2.98,2.45,1.61,4.31,3.66,5.61,6.17,1.29,2.5,1.93,5.49,1.93,9.01Zm-16.17,.34c0-1.71-.46-3.18-1.39-4.4-.92-1.23-1.99-2.1-3.22-2.57-1.63-.66-3.21-1.02-4.77-1.1-1.54-.06-3.61-.08-6.19-.08h-2.69v18.11h4.49c2.66,0,4.86-.16,6.58-.47,1.73-.33,3.18-.99,4.35-1.96,1-.86,1.72-1.9,2.16-3.1,.45-1.21,.68-2.7,.68-4.43Z"/>
        <path class="cls-1" d="M505.19,301.9h-1.3c-.61-.2-1.62-.38-3.01-.48-1.38-.11-2.54-.17-3.45-.17-2.08,0-3.93,.13-5.52,.41-1.6,.27-3.32,.74-5.16,1.39v30.64h-14.72v-45.76h14.72v6.71c3.22-2.75,6.03-4.6,8.42-5.51,2.39-.91,4.58-1.36,6.59-1.36,.52,0,1.09,.01,1.74,.03,.66,.02,1.22,.06,1.71,.13v13.97Z"/>
        <path class="cls-1" d="M558.7,310.84c0,7.51-2.2,13.44-6.59,17.78-4.38,4.33-10.54,6.5-18.47,6.5s-14.11-2.17-18.49-6.5c-4.39-4.34-6.57-10.27-6.57-17.78s2.2-13.55,6.62-17.86c4.41-4.32,10.55-6.48,18.44-6.48s14.16,2.17,18.52,6.52c4.35,4.34,6.54,10.28,6.54,17.82Zm-18.05,11.1c.95-1.15,1.65-2.57,2.14-4.2,.46-1.65,.71-3.93,.71-6.84,0-2.68-.25-4.94-.73-6.76-.49-1.82-1.17-3.28-2.05-4.36-.86-1.11-1.91-1.89-3.12-2.37-1.24-.45-2.56-.68-3.96-.68s-2.67,.2-3.78,.56c-1.1,.38-2.15,1.15-3.15,2.3-.9,1.06-1.62,2.51-2.15,4.37-.53,1.84-.79,4.16-.79,6.95,0,2.5,.23,4.66,.7,6.5,.45,1.84,1.13,3.31,2.03,4.43,.87,1.06,1.9,1.82,3.12,2.31,1.21,.5,2.58,.74,4.13,.74,1.34,0,2.6-.22,3.8-.67,1.23-.46,2.24-1.22,3.09-2.28Z"/>
        <path class="cls-1" d="M612.12,328.43c0,4.3-.61,7.91-1.84,10.84-1.22,2.94-2.93,5.24-5.14,6.89-2.19,1.69-4.84,2.9-7.96,3.65-3.11,.74-6.62,1.11-10.53,1.11-3.18,0-6.32-.18-9.4-.56-3.08-.38-5.74-.86-7.99-1.4v-11.44h1.78c1.79,.71,3.97,1.35,6.55,1.94,2.58,.58,4.88,.86,6.92,.86,2.7,0,4.92-.25,6.62-.75,1.67-.49,2.98-1.21,3.88-2.14,.83-.86,1.45-1.99,1.83-3.34,.38-1.35,.57-2.98,.57-4.89v-.84c-1.76,1.44-3.72,2.57-5.86,3.43-2.14,.84-4.53,1.25-7.16,1.25-6.42,0-11.35-1.92-14.82-5.79-3.47-3.86-5.2-9.72-5.2-17.59,0-3.79,.53-7.04,1.59-9.78,1.06-2.76,2.54-5.15,4.46-7.17,1.8-1.91,4.01-3.39,6.61-4.44,2.62-1.07,5.3-1.6,8.05-1.6,2.47,0,4.72,.29,6.74,.89,2.02,.57,3.86,1.38,5.51,2.42l.53-2.03h14.27v40.5h0Zm-14.71-9.16v-20.74c-.84-.35-1.87-.64-3.09-.85-1.23-.2-2.33-.3-3.3-.3-3.85,0-6.74,1.1-8.67,3.32-1.91,2.22-2.87,5.31-2.87,9.27,0,4.4,.82,7.47,2.45,9.22,1.65,1.74,4.08,2.59,7.3,2.59,1.46,0,2.9-.23,4.31-.69,1.4-.45,2.7-1.07,3.87-1.83Z"/>
        <path class="cls-1" d="M657.57,301.9h-1.3c-.62-.2-1.62-.38-3.01-.48-1.37-.11-2.53-.17-3.46-.17-2.09,0-3.91,.13-5.53,.41-1.6,.27-3.32,.74-5.15,1.39v30.64h-14.71v-45.76h14.71v6.71c3.22-2.75,6.03-4.6,8.41-5.51,2.39-.91,4.59-1.36,6.59-1.36,.52,0,1.09,.01,1.75,.03,.65,.02,1.21,.06,1.71,.13v13.97h0Z"/>
        <path class="cls-1" d="M692.01,328.84c-.79,.61-1.78,1.32-2.95,2.17-1.16,.84-2.27,1.5-3.29,1.99-1.44,.66-2.94,1.13-4.48,1.45-1.55,.3-3.25,.46-5.1,.46-4.34,0-7.98-1.34-10.92-4.02-2.93-2.7-4.4-6.12-4.4-10.32,0-3.34,.74-6.08,2.25-8.19,1.48-2.12,3.61-3.78,6.35-5.02,2.71-1.22,6.07-2.08,10.1-2.6,4.02-.52,8.2-.9,12.51-1.15v-.24c0-2.53-1.04-4.27-3.1-5.23-2.07-.97-5.12-1.44-9.13-1.44-2.41,0-5,.42-7.73,1.29-2.75,.85-4.72,1.51-5.92,1.96h-1.34v-11.04c1.55-.41,4.07-.9,7.55-1.45,3.49-.55,7-.82,10.49-.82,8.35,0,14.37,1.29,18.07,3.85,3.71,2.56,5.56,6.6,5.56,12.08v31.14h-14.53v-4.86h0Zm0-7.11v-9.51c-1.98,.17-4.15,.39-6.45,.67-2.3,.28-4.07,.62-5.26,1.01-1.47,.45-2.58,1.12-3.36,2-.78,.87-1.17,2.03-1.17,3.47,0,.94,.09,1.72,.25,2.3,.16,.61,.57,1.17,1.22,1.72,.63,.53,1.38,.94,2.24,1.19,.88,.26,2.24,.38,4.09,.38,1.47,0,2.95-.29,4.46-.89,1.5-.59,2.83-1.37,3.98-2.34Z"/>
        <path class="cls-1" d="M763.15,301.25v32.44h-14.71v-22.85c0-2.23-.05-4.14-.16-5.69-.11-1.57-.41-2.85-.9-3.82-.48-.97-1.23-1.69-2.21-2.14-1-.46-2.39-.67-4.18-.67-1.44,0-2.83,.29-4.2,.86-1.36,.6-2.58,1.2-3.66,1.86v32.44h-14.71v-45.76h14.71v5.05c2.52-1.98,4.94-3.53,7.26-4.65,2.3-1.12,4.84-1.68,7.64-1.68,3.01,0,5.67,.67,7.97,2.02,2.32,1.36,4.12,3.32,5.42,5.93,2.92-2.45,5.79-4.41,8.56-5.83,2.77-1.4,5.47-2.12,8.13-2.12,4.93,0,8.7,1.48,11.26,4.45,2.55,2.95,3.84,7.22,3.84,12.79v29.79h-14.71v-22.85c0-2.26-.04-4.17-.15-5.73-.09-1.54-.38-2.81-.88-3.78-.45-.97-1.19-1.69-2.19-2.14-1.02-.46-2.43-.67-4.24-.67-1.22,0-2.42,.2-3.58,.62-1.17,.43-2.6,1.13-4.29,2.1Z"/>
        <path class="cls-1" d="M849.88,301.25v32.44h-14.71v-22.85c0-2.23-.07-4.14-.16-5.69-.11-1.57-.42-2.85-.9-3.82-.5-.97-1.24-1.69-2.22-2.14-1.01-.46-2.39-.67-4.19-.67-1.43,0-2.83,.29-4.19,.86-1.36,.6-2.59,1.2-3.67,1.86v32.44h-14.71v-45.76h14.71v5.05c2.53-1.98,4.94-3.53,7.25-4.65,2.3-1.12,4.84-1.68,7.65-1.68,3,0,5.66,.67,7.97,2.02,2.3,1.36,4.11,3.32,5.4,5.93,2.94-2.45,5.78-4.41,8.55-5.83,2.78-1.4,5.48-2.12,8.14-2.12,4.95,0,8.7,1.48,11.26,4.45,2.58,2.95,3.84,7.22,3.84,12.79v29.79h-14.71v-22.85c0-2.26-.05-4.17-.15-5.73-.09-1.54-.39-2.81-.87-3.78-.47-.97-1.19-1.69-2.21-2.14-1.01-.46-2.42-.67-4.24-.67-1.21,0-2.41,.2-3.58,.62-1.18,.43-2.61,1.13-4.28,2.1Z"/>
        <path class="cls-1" d="M936.96,313.52h-33.59c.22,3.58,1.58,6.34,4.09,8.23,2.52,1.89,6.22,2.84,11.11,2.84,3.11,0,6.1-.55,9.01-1.66,2.91-1.12,5.2-2.32,6.89-3.58h1.62v11.78c-3.31,1.33-6.43,2.29-9.36,2.88-2.94,.6-6.19,.9-9.74,.9-9.18,0-16.21-2.05-21.11-6.2-4.89-4.13-7.33-10.01-7.33-17.64s2.3-13.53,6.94-17.94c4.63-4.41,10.98-6.62,19.05-6.62,7.44,0,13.03,1.88,16.78,5.65,3.77,3.75,5.63,9.17,5.63,16.23v5.13Zm-14.58-8.6c-.09-3.07-.86-5.39-2.28-6.93-1.44-1.56-3.69-2.33-6.73-2.33-2.83,0-5.15,.74-6.97,2.21-1.82,1.46-2.83,3.82-3.05,7.05h19.04Z"/>
      </g>
    </g>
  </g>
</svg>